<?xml version="1.0" encoding="UTF-8"?>
<svg width="152px" height="152px" viewBox="0 0 152 152" version="1.1" xmlns="http://www.w3.org/2000/svg" xmlns:xlink="http://www.w3.org/1999/xlink">
    <title>Group 2</title>
    <g id="I---Marque" stroke="none" stroke-width="1" fill="none" fill-rule="evenodd">
        <g id="I.1.0---La-marque---Qui-sommes-nous-?" transform="translate(-404.000000, -5035.000000)">
            <g id="//-Chiifres" transform="translate(0.000000, 4493.000000)">
                <g id="04" transform="translate(405.000367, 541.999484)">
                    <g id="Group-2" transform="translate(0.384633, 0.515516)">
                        <circle id="Oval" stroke="#002A5D" stroke-width="1.012" cx="75" cy="75" r="75"></circle>
                        <path d="M118.81437,1.71292264 L118.901309,1.71512535 C119.031048,1.71315338 119.120792,1.71512535 119.210536,1.7170763 L119.210536,1.7170763 L119.425141,1.71805178 C119.537321,1.7170763 119.652427,1.7170763 119.763631,1.72390464 C119.910928,1.73365941 120.050422,1.75219348 120.18894,1.77072755 L120.18894,1.77072755 L120.31185,1.78731067 C120.444515,1.80096735 120.512798,1.80877117 120.580106,1.81950142 C120.623027,1.82242785 120.672776,1.82828071 120.720575,1.83706001 C121.021022,1.8887603 121.319518,1.95801919 121.611185,2.04288572 C121.636548,2.04971406 121.728243,2.08092933 121.75263,2.09068411 L121.75263,2.09068411 L122.120385,2.21847163 C122.241344,2.2584662 122.362303,2.29943625 122.47936,2.34918559 C122.69299,2.43795402 122.907595,2.53842818 123.116347,2.64865712 L123.116347,2.64865712 L123.125126,2.65353451 C123.125126,2.65450998 123.126102,2.65450998 123.126102,2.65450998 L123.282178,2.74035198 L123.283153,2.74132746 L123.29681,2.7481558 L138.711302,11.7049883 C138.715204,11.7079148 138.717155,11.7088902 138.718131,11.7098657 L138.718131,11.7098657 L138.750322,11.73913 C142.020121,13.6695996 143.692089,17.8748822 143.709648,24.2584057 L143.709648,24.2584057 L143.786838,51.1415845 C143.803294,57.4548735 142.192781,63.3974812 138.996142,68.8035764 C136.014108,73.846794 132.179506,77.7448013 127.599641,80.3893202 C124.606876,82.1168905 121.904804,82.9831144 119.524639,82.9831144 C118.089712,82.9831144 116.771843,82.6690107 115.576883,82.0408033 C115.506648,82.0027597 115.440316,81.9578877 115.372033,81.9188686 C115.353499,81.9100893 115.334964,81.9061874 115.317406,81.8964327 L115.317406,81.8964327 L105.707979,76.3118251 C105.093428,80.8204812 103.603875,85.1047775 101.244195,89.0944796 C98.2621609,94.1376973 94.4275596,98.0357045 89.8476937,100.680223 C86.8559048,102.407794 84.1538327,103.274018 81.7736681,103.274018 C80.3397165,103.274018 79.0208712,102.959914 77.824936,102.330731 C77.7547017,102.293663 77.6903202,102.249766 77.6220367,102.210747 C77.6035027,102.200993 77.5839931,102.197091 77.5654591,102.187336 L77.5654591,102.187336 L68.6476456,97.004625 L68.6808118,108.390396 C68.6856892,110.021394 68.4028008,111.205624 67.8155635,112.012343 C67.299536,112.746878 66.5103749,113.418006 65.4139384,114.051091 L65.4139384,114.051091 L59.200148,117.639872 C58.4597607,118.066155 57.6003652,118.485611 56.8394929,118.485611 C56.5448988,118.485611 56.2668878,118.418303 56.0142392,118.269055 C56.0132637,118.268079 56.0122882,118.268079 56.0113127,118.267104 C56.0103372,118.267104 56.0103372,118.266128 56.0093618,118.266128 L55.9815607,118.249911 L55.9815607,118.249911 L55.9537596,118.232962 L40.6748587,109.354168 C40.640717,109.334658 40.6143791,109.305394 40.5821883,109.282958 L40.5821883,109.282958 C40.5636543,109.272228 40.554875,109.260522 40.5421938,109.251742 C40.4846406,109.208821 40.42221,109.171753 40.3724607,109.121029 C40.3695343,109.118102 40.3685588,109.113225 40.3656324,109.110298 C40.3617305,109.107372 40.3578285,109.105421 40.3549021,109.101519 C39.8525313,108.56208 39.6174413,107.667567 39.6135394,106.285316 L39.6135394,106.285316 L39.5296483,75.095405 L29.3866354,69.2005957 C29.3154256,69.1586501 29.2500686,69.1079253 29.1905645,69.0493967 C28.6579539,68.5216635 28.4179864,67.6466603 28.4131091,66.2127087 L28.4131091,66.2127087 L28.4131091,66.2117332 L28.402347,62.0084016 L28.402347,62.0074261 L28.4062691,61.672563 C28.4141886,61.3470889 28.4343257,61.0487758 28.4687113,60.7685699 C28.4696867,60.7461339 28.4716377,60.7246734 28.4735886,60.7080903 C28.4970001,60.5207987 28.5262644,60.3569185 28.5584552,60.204744 C28.5769892,60.1140246 28.6004007,60.0213543 28.6238121,59.9345368 L28.6238121,59.9345368 L28.6823408,59.7452942 C28.6891691,59.7238337 28.7242863,59.6292124 28.7320901,59.6087274 L28.7320901,59.6087274 L29.1008205,58.8381003 C29.1008205,58.8371249 29.1008205,58.8371249 29.101796,58.8361494 C29.1398396,58.7707924 29.1788587,58.7064109 29.2198288,58.6430049 L29.2198288,58.6430049 L29.3456653,58.4547378 C29.3876109,58.3942582 29.4373602,58.3269502 29.4890605,58.2606178 C29.5417363,58.1933098 29.5895347,58.1347812 29.639284,58.077228 C29.7670715,57.9289555 29.8587664,57.8314078 29.9543632,57.7367865 C29.9904558,57.7016693 30.0645921,57.6411897 30.1182434,57.6021706 C30.4577095,57.2909933 30.7737641,57.0559033 31.1132302,56.8598324 L31.1132302,56.8598324 L33.1041794,55.7107201 C33.4026754,55.5380606 33.6992205,55.3449161 33.9977166,55.1390904 L33.9977166,55.1390904 L34.2815805,54.9303383 C34.4913081,54.7781638 34.6990847,54.6230629 34.9049105,54.4572318 C35.0161149,54.3665124 35.1273193,54.2718911 35.2385237,54.1762943 C35.4375211,54.0094877 35.631641,53.8368282 35.827712,53.6563649 C35.9408673,53.5529643 36.0540227,53.4476128 36.1671781,53.3383593 C36.4500665,53.0662012 36.729053,52.7911166 37.007064,52.493596 C37.2938544,52.1882716 37.5640616,51.8780698 37.8313423,51.567868 C37.9727866,51.4010614 38.1103289,51.2313284 38.2459202,51.0625708 L38.2459202,51.0625708 L38.3512717,50.9338078 C38.4839367,50.7689521 38.6166016,50.6060474 38.7434136,50.4392408 L38.7434136,50.4392408 L39.0175227,50.067584 C39.1921332,49.8276166 39.3667436,49.5827718 39.5325748,49.335976 L39.5325748,49.335976 L39.7266947,49.0462592 C39.9481281,48.7077686 40.1617576,48.3663516 40.3627059,48.0190816 L40.3627059,48.0190816 L42.2824453,44.0381588 C42.2839085,44.0354762 42.2882981,44.0274895 42.2941662,44.0168507 L42.3355326,43.9424096 L42.3355326,43.9424096 L42.3478022,43.9211015 L42.5126579,43.6635755 C42.5204617,43.6518698 42.574113,43.5806599 42.5819168,43.5689542 L42.5819168,43.5689542 L42.6414209,43.4899406 C42.6736116,43.4489705 42.7243365,43.3855645 42.7799387,43.3221585 C42.8540749,43.2382674 42.9350396,43.1514499 43.021857,43.0656079 C43.0413666,43.0470739 43.066729,43.0236624 43.0911159,43.0022019 C43.2140261,42.8870956 43.3437645,42.7827195 43.4744785,42.6783434 C43.5866584,42.5837221 43.6393342,42.5398257 43.6988383,42.4949537 C43.9271,42.3281471 44.1787731,42.1652424 44.4558087,42.0052641 L44.4558087,42.0052641 L44.4577596,42.0033132 L48.9195928,39.4270776 L48.9195928,39.4270776 C49.2863722,39.215399 49.6043778,39.0602982 49.897021,38.9334861 C49.9155551,38.9198294 49.9731083,38.8925161 50.0189557,38.873982 C50.1594244,38.8154534 50.2959912,38.7715569 50.4325581,38.7296114 C50.43646,38.7296114 50.4452393,38.7266849 50.456945,38.7218075 L50.456945,38.7218075 L50.5246187,38.6972987 L50.5246187,38.6972987 L50.5915609,38.6779111 C50.692035,38.6505977 50.8061659,38.6262108 50.9124929,38.6096276 C51.0051632,38.5949955 51.0910052,38.5871917 51.1729453,38.5832898 C51.2022096,38.5823143 51.2578119,38.5813388 51.2870762,38.5832898 L51.2870762,38.5832898 L51.3865749,38.5842652 C51.423643,38.5871917 51.5494796,38.6008483 51.5865477,38.6076767 C51.6577575,38.6203579 51.7143352,38.6340146 51.7679865,38.6486467 C51.8109075,38.6623034 51.9152836,38.6993716 51.9562536,38.7179056 C51.9767386,38.724734 52.0313653,38.7510719 52.0840411,38.7803362 L52.0840411,38.7803362 L58.9240879,42.7544307 L59.1874668,42.0169698 C59.2577012,41.8179725 59.3279355,41.6189751 59.4030473,41.4209532 C59.4996195,41.171231 59.6030201,40.9224843 59.7064207,40.6727621 L59.7064207,40.6727621 L59.9493146,40.0874757 C60.1278269,39.6738734 60.3209714,39.2524672 60.5228952,38.8330119 L60.5228952,38.8330119 L61.1530535,37.5902539 C61.3725359,37.1766515 61.6027486,36.7650001 61.8417405,36.3552996 L61.8417405,36.3552996 L61.9002692,36.25385 C62.1753538,35.7885473 62.4094683,35.4081112 62.6474848,35.0345034 L62.6474848,35.0345034 L62.9372015,34.6013914 C63.0474305,34.4345848 63.1566839,34.2716801 63.2659374,34.1117018 L63.2659374,34.1117018 L63.5283408,33.7185845 C63.6766133,33.5088569 63.8268368,33.3079085 63.9770603,33.1079357 L63.9770603,33.1079357 L64.5174747,32.3792542 C64.7935348,32.021254 65.0832516,31.677886 65.3729683,31.334518 L65.3729683,31.334518 L65.6734153,30.9696895 C65.7446252,30.8857984 65.7943745,30.8340981 65.8441239,30.7823978 C66.3318625,30.237106 66.763999,29.7737543 67.2078411,29.3299121 L67.2078411,29.3299121 L67.3414815,29.1884679 C67.4887786,29.0421463 67.640953,28.9036285 67.794103,28.7641353 L67.794103,28.7641353 L68.178441,28.4080861 C68.3237872,28.2705438 68.4710842,28.1330015 68.6213077,28.0003366 C68.8739563,27.7769523 69.1353843,27.5652737 69.3968122,27.3526196 L69.3968122,27.3526196 L69.7148178,27.0921672 C69.8513846,26.9790118 69.9879514,26.8658565 70.1274447,26.758554 C70.4639843,26.499077 70.8102788,26.2561832 71.1575487,26.0132893 L71.1575487,26.0132893 L71.3711782,25.8591639 C71.4804317,25.7791748 71.5906606,25.7001611 71.701865,25.6240739 C72.2422795,25.2631473 72.7914732,24.9197793 73.3513971,24.5959208 C73.8966889,24.2808416 74.430275,23.9999042 74.9531309,23.7433537 C75.0682372,23.6877514 75.1794416,23.6370266 75.2896705,23.5882528 L75.2896705,23.5882528 L75.6749841,23.4107159 C75.8681286,23.3199965 76.0612731,23.2283016 76.2485647,23.1502635 C76.3100198,23.1258765 76.3685484,23.106367 76.4251261,23.0878329 C77.1342981,22.8049445 77.7429959,22.5952169 78.2960916,22.4440179 C78.3126747,22.4391405 78.3292578,22.4342631 78.3458409,22.4303612 C78.8208983,22.3015982 79.3125389,22.1962467 79.7866209,22.1240613 C79.8178361,22.119184 79.8588062,22.115282 79.889046,22.1133311 C79.8714874,22.1123556 79.9290405,22.1065027 79.9865937,22.1026008 C80.3319127,22.0577289 80.659673,22.0196853 80.9757277,22.0060286 C81.0342563,22.0021267 81.0918095,22.0031022 81.1503381,22.0060286 C81.2800766,22.0040776 81.368845,22.0060286 81.4585889,22.0079795 L81.4585889,22.0079795 L81.673194,22.008955 C81.7843984,22.0070041 81.8995047,22.0070041 82.01266,22.0148079 C82.1550797,22.0235872 82.292622,22.0411458 82.4291889,22.0606553 L82.4291889,22.0606553 L82.5589273,22.0772384 C82.6993961,22.0918706 82.764753,22.0996744 82.8291345,22.1094292 C82.8701046,22.1123556 82.915952,22.1182085 82.960824,22.1260123 C83.2710258,22.1796635 83.5695218,22.247947 83.862165,22.333789 C83.8865519,22.3406173 83.9762958,22.3718326 84.0016583,22.3806119 L84.0016583,22.3806119 L84.3781925,22.5123013 C84.4952498,22.5513204 84.6103561,22.5903395 84.7235115,22.6371624 C84.9439693,22.7298327 85.1556479,22.8303069 85.3653755,22.9395604 L85.3653755,22.9395604 C85.3741548,22.9444377 85.3751303,22.9444377 85.3751303,22.9444377 L85.5312067,23.0302797 L85.5429124,23.0371081 C85.5438879,23.0380836 85.5448633,23.0380836 85.5458388,23.0380836 L85.5458388,23.0380836 L95.5513094,28.8519283 C95.6332495,26.4454258 96.3121817,23.6536097 96.3502254,23.5024108 C96.4585033,23.1346558 96.5638549,22.7912878 96.6409176,22.5610752 L96.6409176,22.5610752 L96.9403891,21.7202137 C97.0106235,21.5231673 97.0789069,21.3261209 97.1540186,21.1310255 C97.2486399,20.8842297 97.3510651,20.6393849 97.4544656,20.3935646 L97.4544656,20.3935646 L97.7002859,19.797548 C97.8787983,19.3839456 98.0719428,18.9625394 98.2748421,18.5430842 L98.2748421,18.5430842 L98.9040249,17.2993506 C99.1244828,16.8857483 99.3537199,16.4740968 99.5927119,16.0653719 L99.5927119,16.0653719 L99.6775784,15.9190503 C99.9253496,15.499595 100.159464,15.1181834 100.398456,14.7445756 L100.398456,14.7445756 L101.280288,13.4276812 C101.413928,13.2374632 101.55147,13.0540734 101.689013,12.8706837 L101.689013,12.8706837 L102.268446,12.0883509 C102.556212,11.7176695 102.854708,11.3625958 103.154179,11.0084975 L103.154179,11.0084975 L103.255629,10.8846119 C103.312207,10.8143776 103.367809,10.7451187 103.426338,10.6778107 C103.495597,10.5958707 103.545346,10.5441704 103.595095,10.4934455 C104.083809,9.94620277 104.51497,9.48382653 104.958812,9.03900889 L104.958812,9.03900889 L105.096355,8.89463825 C105.240725,8.75124308 105.393875,8.61077435 105.548001,8.4712811 L105.548001,8.4712811 L105.949897,8.09864877 C106.089391,7.96695934 106.228884,7.83624538 106.372279,7.70943333 C106.624928,7.48702451 106.887331,7.27437046 107.147784,7.06171641 L107.147784,7.06171641 L107.465789,6.80126397 C107.602356,6.6881086 107.738923,6.57495324 107.878416,6.46765073 C108.202274,6.21792855 108.535888,5.98381399 108.870476,5.74872397 L108.870476,5.74872397 L109.125076,5.56728519 C109.233354,5.48827153 109.340657,5.40925787 109.452836,5.33512159 C109.992275,4.97321952 110.541469,4.62985151 111.101393,4.30599304 C111.649611,3.9899384 112.181246,3.70997642 112.706053,3.45245041 C112.820184,3.3968482 112.931388,3.34709886 113.043568,3.29637404 L113.043568,3.29637404 L113.425955,3.12078813 C113.6191,3.02909326 113.812244,2.93837388 114.000512,2.86033569 C114.064893,2.8339978 114.121471,2.81546374 114.176097,2.79790514 C114.888196,2.51404125 115.495918,2.30431363 116.047063,2.15311465 L116.047063,2.15311465 L116.096812,2.13945797 C116.573821,2.01069497 117.065461,1.90534342 117.539543,1.8331581 C117.625385,1.82242785 117.678061,1.81657498 117.731712,1.81267308 C118.08386,1.76682564 118.410644,1.72878203 118.726699,1.71512535 C118.785228,1.71122344 118.843756,1.71315338 118.901309,1.71512535 Z" id="Fill-5" fill="#FFFFFF"></path>
                        <path d="M88.7185787,44.8429276 C89.9223177,44.1464368 90.9397405,43.9337827 91.8342532,44.1971616 C91.9864277,44.2410581 92.1581117,44.3190963 92.3346731,44.4156685 L92.3346731,44.4156685 L92.3863734,44.4332271 C92.4156377,44.4507857 92.4380737,44.48005 92.4663625,44.4985841 C92.6097577,44.5893035 92.7512019,44.7053853 92.894597,44.845854 C92.9443464,44.8946279 92.9979976,44.9375489 93.0448205,44.9912001 C93.2047988,45.1726389 93.3589242,45.383342 93.497442,45.6486718 C93.8378836,46.2895604 94.0505376,47.1635881 94.1373551,48.2961172 C94.1656439,48.6726514 94.1812516,49.0794255 94.1822271,49.5154638 L94.1822271,49.5154638 L94.2690969,80.057658 C94.27002,80.4117562 94.2573388,80.7639035 94.2339274,81.1121489 C94.2280745,81.2204269 94.2134423,81.324803 94.2036876,81.4321055 C94.1871044,81.6350048 94.1724723,81.839855 94.1471099,82.0398278 C94.1451589,82.0554355 94.1354041,82.1090867 94.1295513,82.140302 C94.1090663,82.2944274 94.0788265,82.4446509 94.0534641,82.5968254 C94.0251752,82.7763132 93.9978619,82.955801 93.9598182,83.1304114 L93.9598182,83.1304114 L93.9422596,83.2025968 C93.9276275,83.2708802 93.9081179,83.3381881 93.8925103,83.4064715 C93.8544667,83.5644988 93.8193495,83.7244771 93.7764285,83.8805535 C93.7452132,83.9927334 93.7110715,84.1068642 93.6749789,84.2200196 L93.6749789,84.2200196 L93.6657118,84.2531858 L93.6657118,84.2531858 L93.6622977,84.2639161 L93.5735292,84.54778 C93.517927,84.7126356 93.4633003,84.8638346 93.4067226,85.0130826 C93.4018452,85.0247884 93.3969678,85.0355186 93.3920904,85.0462489 C93.3803847,85.0784396 93.3677035,85.1077039 93.3550223,85.1398947 C93.3179542,85.2315895 93.2818615,85.3232844 93.2428424,85.4130283 C93.1940686,85.5261837 93.1384664,85.6451919 93.0848151,85.7602982 C93.0818887,85.7661511 93.068232,85.792489 93.0555508,85.8168759 L93.0555508,85.8168759 L93.0038505,85.919301 C92.9726352,85.9807561 92.9423954,86.0431867 92.9111801,86.1007398 C92.8604553,86.1963366 92.8038776,86.2987617 92.7443735,86.4002113 C92.7219375,86.4392304 92.6985261,86.4743476 92.6760901,86.5123912 C92.6517032,86.5533613 92.6273162,86.5933558 92.6029293,86.6333504 C92.5873217,86.6577373 92.5726895,86.6830998 92.5580574,86.7065112 C92.4927004,86.8079609 92.424417,86.9113614 92.3532071,87.0118356 L92.3532071,87.0118356 L92.2254196,87.1854706 C92.2000572,87.2196123 92.1746948,87.2547295 92.1483569,87.2888712 C92.1376266,87.3035033 92.1210435,87.3249638 92.1200681,87.3259393 C92.0303241,87.4429966 91.9347274,87.5590784 91.8371796,87.6712583 L91.8371796,87.6712583 L91.7503622,87.7649041 C91.6879316,87.834163 91.6235501,87.9014709 91.5572177,87.9697543 C91.5123457,88.0165772 91.4684492,88.0682775 91.4226018,88.114125 C91.3787053,88.1560705 91.3338334,88.1950896 91.2879859,88.2331332 C90.8587759,88.6360053 90.3895713,88.994981 89.8715929,89.3003053 C89.8530588,89.3110356 89.8355002,89.3246923 89.8169662,89.334447 L89.8169662,89.334447 C89.6052876,89.4563817 89.4033638,89.5549049 89.2063174,89.6378205 L89.2063174,89.6378205 L89.1721757,89.6553791 C89.1658351,89.6578178 89.1538855,89.6622074 89.1391161,89.6675573 L89.0389773,89.7032537 L89.0389773,89.7032537 L89.005369,89.7148832 L88.8346605,89.7724364 C88.8053962,89.7831666 88.7897886,89.7870685 88.7663771,89.7958478 C88.7371128,89.8036516 88.7058975,89.8163328 88.6776087,89.8241367 C88.6668784,89.8280386 88.6502953,89.8348669 88.6395651,89.8377933 C88.5029982,89.8748615 88.3664314,89.9031503 88.2288891,89.9246108 C88.2152324,89.9265618 88.2015758,89.9275372 88.1879191,89.9294882 L88.1879191,89.9294882 C88.1352433,89.9363165 88.0845185,89.9421694 88.0367201,89.9450958 C88.0279408,89.9460713 87.8786928,89.9607035 87.8699135,89.9607035 C87.8162622,89.9626544 87.7655374,89.9636299 87.7157881,89.9636299 C87.6475047,89.9636299 87.5801967,89.9626544 87.5148397,89.957777 C87.4075372,89.9509487 87.2982838,89.9382675 87.1890303,89.9197334 C87.1636679,89.914856 87.0836788,89.8972974 87.0602673,89.8914446 L87.0602673,89.8914446 L86.859319,89.8426707 C86.8349321,89.8368179 86.8115206,89.8251121 86.7881092,89.8182838 C86.7520165,89.8065781 86.7168993,89.7938969 86.6817821,89.7802402 C86.6310573,89.7626816 86.579357,89.7480494 86.5276567,89.7265889 C86.4896131,89.7109813 86.4535204,89.6895208 86.4164523,89.6719622 C86.3715803,89.6514772 86.3286593,89.6309921 86.2857383,89.6085562 C86.2554985,89.5929485 86.2242833,89.5802673 86.193068,89.5636842 L86.193068,89.5636842 C86.1316129,89.5217387 86.0633295,89.4866215 86.0048009,89.4485779 C84.9025115,88.7481852 84.3591707,87.1805932 84.3533178,84.6619108 L84.3533178,84.6619108 L84.2664305,54.1187412 C84.259672,51.6468817 84.7532635,49.5261941 85.7336182,47.8161824 C86.452545,46.5714733 87.4563111,45.5716091 88.7185787,44.8429276 Z M91.07143,46.0417892 C90.811953,46.0417892 90.3768901,46.1373859 89.694056,46.5324542 C88.7322354,47.0875008 87.9684367,47.8473976 87.4241204,48.7897087 C86.6174006,50.1953715 86.2116021,51.9873233 86.2174549,54.1138638 L86.2174549,54.1138638 L86.3042724,84.6570334 C86.3101253,87.1386477 86.8837059,87.6956452 87.0592918,87.8078251 C87.0914826,87.8292856 87.1265998,87.8487951 87.1626924,87.8683047 C87.1851284,87.8800104 87.2065889,87.8907407 87.2290249,87.9014709 C87.2582892,87.9151276 87.2895045,87.9297597 87.3226707,87.9414655 C87.3363274,87.9463429 87.3499841,87.9512202 87.3636408,87.9560976 C87.4016844,87.9687788 87.4416789,87.9785336 87.4816735,87.9873129 C87.5021585,87.9921903 87.5226436,87.9960922 87.5275209,87.9970677 C87.5772703,88.005847 87.6299461,88.0097489 87.6845728,88.0116998 L87.6845728,88.0116998 L87.7479788,88.0116998 C87.7908998,88.0116998 87.8367472,88.0068224 87.8835702,88.0009696 C87.9313685,87.9951167 87.9684367,87.9892639 88.0035539,87.9824355 C88.0484258,87.9736562 88.0952487,87.9619505 88.1449981,87.9482938 L88.1449981,87.9482938 L88.232791,87.9170785 C88.2444968,87.9131766 88.3459464,87.8780594 88.3869164,87.8644028 C88.4005731,87.8595254 88.4132543,87.854648 88.4249601,87.8497706 C88.5683552,87.7922174 88.7039466,87.7249095 88.8405134,87.6458959 C89.156568,87.4625061 89.4453093,87.2449747 89.7194184,87.0118356 L89.7194184,87.0118356 L89.8911024,86.8625876 C90.7602527,86.0617207 91.4050432,84.9984505 91.8030379,83.6718013 C91.8810761,83.4220792 91.9474086,83.1655286 92.0069127,82.9060517 C92.015692,82.8689835 92.0273977,82.8309399 92.0352015,82.7938718 C92.0703187,82.634869 92.0947056,82.4709888 92.1229945,82.3080841 C92.1327493,82.2505309 92.144455,82.1949287 92.1532343,82.1373756 L92.1532343,82.1373756 L92.1864005,81.9335008 C92.1900856,81.9118235 92.195505,81.8801747 92.2000572,81.8515607 C92.2234686,81.6828031 92.2381008,81.5101437 92.2537084,81.3384597 C92.2654142,81.2155495 92.2810218,81.0945903 92.2888256,80.9707047 C92.3083352,80.6731841 92.3190654,80.3707862 92.3180899,80.0635108 L92.3180899,80.0635108 L92.2312725,49.5213167 C92.2263951,47.7781388 91.9776484,46.9460566 91.7698717,46.5558657 C91.7171959,46.4534406 91.6625692,46.3715005 91.6059915,46.3022416 C91.5894084,46.2807811 91.5738008,46.2690754 91.5562422,46.2515168 C91.5142967,46.2066448 91.4713757,46.1656748 91.4274792,46.1373859 C91.3660241,46.0983668 91.3143238,46.0769063 91.2879859,46.0691025 C91.2353101,46.0544704 91.1650758,46.0417892 91.07143,46.0417892 Z M126.470721,24.5517317 C127.672509,23.8562164 128.691882,23.6425868 129.586395,23.9059657 C129.737594,23.9498622 129.909278,24.0279004 130.08584,24.1254481 C130.103398,24.1332519 130.120957,24.1332519 130.13754,24.1430067 C130.166804,24.1595898 130.18924,24.1888541 130.217529,24.2073882 C130.359949,24.2981076 130.503344,24.4151649 130.645763,24.5556336 C130.695513,24.6044075 130.749164,24.646353 130.795987,24.7000042 C130.955965,24.881443 131.110091,25.0921461 131.248608,25.3574759 C131.702205,26.2100431 131.927541,27.4781636 131.933394,29.2242679 L131.933394,29.2242679 L132.020263,59.7674376 C132.021186,60.1205603 132.008505,60.4717322 131.985094,60.8199776 C131.979241,60.9331329 131.963633,61.0443373 131.953879,61.1565172 C131.937295,61.3555146 131.922663,61.554512 131.898276,61.7486319 C131.896325,61.7642396 131.887546,61.812038 131.881693,61.8442287 C131.862184,61.9954277 131.831944,62.1437003 131.807557,62.2929483 C131.778293,62.4773135 131.749028,62.6607032 131.710985,62.8392156 C131.706107,62.8606761 131.700254,62.8801856 131.696353,62.9006706 C131.677818,62.9835862 131.656358,63.0635753 131.635873,63.1455154 C131.600756,63.2957389 131.56759,63.4469379 131.526619,63.594235 C131.495404,63.7083658 131.458336,63.8273741 131.423219,63.9454068 L131.423219,63.9454068 L131.321769,64.2653634 C131.269093,64.4224152 131.214467,64.5736142 131.157889,64.7228622 C131.153987,64.7335925 131.14911,64.7433472 131.145208,64.7540775 C131.130576,64.7882192 131.116919,64.8223609 131.102287,64.8574781 C131.06717,64.9462465 131.032052,65.035015 130.994009,65.1218324 C130.94426,65.2379142 130.889633,65.3578979 130.834031,65.4749552 C130.830129,65.482759 130.816472,65.507146 130.805742,65.5305574 L130.805742,65.5305574 L130.759894,65.6203013 C130.728679,65.6827319 130.697464,65.7461379 130.662347,65.8105194 C130.611622,65.9051407 130.555044,66.0085413 130.49554,66.1099909 C130.472129,66.1499855 130.448717,66.1860782 130.425306,66.2250973 C130.401894,66.2631409 130.378483,66.30216 130.355071,66.3411791 C130.339464,66.365566 130.323856,66.3919039 130.309224,66.4162908 C130.244842,66.516765 130.176559,66.6191901 130.106325,66.7186888 L130.106325,66.7186888 L129.98439,66.8845199 C129.947322,66.9342693 129.909278,66.9840186 129.870259,67.0327925 L129.870259,67.0327925 C129.781491,67.1527762 129.685894,67.268858 129.588346,67.3810379 C129.560057,67.4142041 129.529817,67.4424929 129.500553,67.4746837 C129.437147,67.544918 129.37179,67.6132015 129.306433,67.6805094 C129.260586,67.7273323 129.217665,67.7790326 129.171817,67.8239045 C129.12597,67.8687765 129.078171,67.9097465 129.029398,67.9507166 C128.588482,68.3652944 128.10367,68.7350003 127.567157,69.0442266 C127.356454,69.1661613 127.152579,69.26566 126.955533,69.3476001 C126.944803,69.3524775 126.934072,69.3602813 126.923342,69.3641832 C126.89798,69.3749134 126.781898,69.4158835 126.75556,69.4246628 L126.75556,69.4246628 L126.585827,69.482216 C126.562416,69.4909952 126.547783,69.4939217 126.527298,69.5017255 C126.495108,69.5114803 126.45999,69.5261124 126.428775,69.5339162 C126.417069,69.5378182 126.402437,69.5446465 126.390732,69.5475729 C126.254165,69.5846411 126.117598,69.6129299 125.980056,69.6343904 C125.967374,69.6363414 125.955669,69.6363414 125.942012,69.6382923 C125.937135,69.6392678 125.931282,69.6392678 125.92738,69.6402433 C125.879581,69.6460961 125.832759,69.651949 125.787887,69.6548754 C125.783009,69.6553632 125.769596,69.6565825 125.751946,69.6581524 L125.629585,69.6687303 L125.629585,69.6687303 L125.594742,69.6714585 C125.556698,69.672434 125.515728,69.6734095 125.472807,69.6734095 C125.408426,69.6734095 125.340142,69.6714585 125.272835,69.6675566 C125.166508,69.6607283 125.069935,69.6480471 124.972388,69.6324395 C124.966535,69.631464 124.959706,69.631464 124.953853,69.6304885 C124.948001,69.629513 124.940197,69.6285375 124.933368,69.6275621 C124.911908,69.6236602 124.835821,69.607077 124.81436,69.6012242 L124.81436,69.6012242 L124.610485,69.5524503 C124.586099,69.545622 124.563663,69.5358672 124.540251,69.5280634 C124.502207,69.5153822 124.465139,69.5017255 124.428071,69.4890443 C124.379297,69.4705102 124.327597,69.4558781 124.278823,69.435393 C124.244681,69.4217364 124.211515,69.4012513 124.177374,69.3856437 C124.123722,69.3612568 124.072022,69.3358944 124.021297,69.3095565 C123.993008,69.2949243 123.964719,69.2841941 123.936431,69.2676109 L123.936431,69.2676109 C123.877902,69.2276164 123.812545,69.1954256 123.755967,69.1583575 C122.653678,68.4569893 122.110337,66.8893973 122.104484,64.3707149 L122.104484,64.3707149 L122.017597,33.8285208 C122.010838,31.3576368 122.50443,29.2369491 123.48576,27.525962 C124.203711,26.2812529 125.207478,25.2813887 126.470721,24.5517317 Z M128.822596,25.7515688 C128.564095,25.7515688 128.129032,25.8471655 127.446198,26.2412584 C126.483402,26.7972804 125.719603,27.5571772 125.176262,28.4985128 C124.369543,29.9061266 123.962769,31.6990538 123.968621,33.8226679 L123.968621,33.8226679 L124.055439,64.3658375 C124.061292,66.8474518 124.634872,67.4054248 124.811434,67.5176047 C124.849477,67.5419916 124.890447,67.5663785 124.932393,67.5888145 C124.938246,67.5907655 124.94605,67.5956429 124.949952,67.5975938 C124.987995,67.6171034 125.028965,67.6336865 125.069935,67.6492941 C125.085543,67.6561225 125.103101,67.6609998 125.118709,67.6668527 C125.155777,67.6785584 125.194796,67.6883132 125.233815,67.6970925 C125.255276,67.7009944 125.274785,67.7058718 125.281614,67.7068473 C125.331363,67.7156266 125.385014,67.7195285 125.440617,67.720504 C125.460126,67.7214794 125.47866,67.7214794 125.499145,67.7214794 C125.53914,67.720504 125.583036,67.7156266 125.626933,67.7107492 C125.679609,67.7039208 125.718628,67.698068 125.75472,67.6922151 C125.800568,67.6824603 125.848366,67.6717301 125.898115,67.6580734 L125.898115,67.6580734 L125.976154,67.6288091 C125.97908,67.6278336 126.067849,67.5975938 126.070775,67.5966183 C126.072726,67.5956429 126.104917,67.5849126 126.137107,67.5741824 C126.16247,67.5644276 126.184906,67.5575992 126.212219,67.5458935 C126.320497,67.4990706 126.440481,67.438591 126.563391,67.3693321 C126.574121,67.3634793 126.581925,67.3605528 126.59168,67.3547 C126.907734,67.1722857 127.1955,66.9537788 127.470585,66.7206397 L127.470585,66.7206397 L127.642269,66.5723672 C128.503615,65.7793041 129.142553,64.7248132 129.542499,63.4137717 L129.542499,63.4137717 L129.575665,63.3045182 C129.641022,63.0869868 129.700526,62.864578 129.752226,62.6402182 C129.763932,62.5924198 129.777589,62.5446214 129.788319,62.496823 C129.824412,62.3309919 129.850749,62.1593079 129.880014,61.9895748 C129.885867,61.9495803 129.894646,61.9115367 129.900499,61.8725176 L129.900499,61.8725176 L129.917082,61.7613132 C129.919033,61.7535093 129.93269,61.6705938 129.934641,61.6627899 C129.936591,61.6501087 129.944395,61.6032858 129.952199,61.5613403 C129.974635,61.3935582 129.989267,61.2218742 130.004875,61.0521412 C130.016581,60.9282555 130.032188,60.8053454 130.039992,60.6804843 C130.059502,60.3829637 130.070232,60.0805658 130.069256,59.7732904 L130.069256,59.7732904 L129.982439,29.2301208 C129.977562,27.4849919 129.728815,26.6548607 129.521038,26.2656453 C129.468362,26.1641957 129.413736,26.0812801 129.358133,26.0120212 C129.339599,25.9895852 129.323992,25.9778795 129.306433,25.9593454 C129.264488,25.9154489 129.222542,25.8754544 129.179621,25.8471655 C129.117191,25.8081464 129.06549,25.7866859 129.039152,25.7788821 C128.986477,25.7632745 128.916242,25.7515688 128.822596,25.7515688 Z M137.317345,67.8105405 C134.506995,72.5611149 130.91041,76.2250077 126.624163,78.6997936 C122.445219,81.1121489 119.03495,81.6525633 116.487979,80.3161594 C116.270447,80.2000776 116.076327,80.0459522 115.875379,79.9035325 C115.730033,79.8011074 115.579809,79.7074616 115.444218,79.5913798 C115.271558,79.4431073 115.117433,79.2684968 114.960381,79.0987638 C114.844299,78.9748782 114.721389,78.8617228 114.613111,78.725156 C114.458986,78.5320115 114.32437,78.3096026 114.184877,78.0930467 C114.092206,77.9467251 113.990757,77.8130847 113.904915,77.6570083 C113.773225,77.4189919 113.662021,77.1507356 113.546915,76.8883322 C113.472778,76.7195747 113.389863,76.5654492 113.321579,76.3869369 C113.216228,76.1069749 113.130386,75.7957977 113.040642,75.4904733 C112.984064,75.2973288 112.916756,75.1197919 112.867007,74.9178681 C112.786042,74.5920587 112.726538,74.2340585 112.662157,73.8848376 C112.623138,73.6712081 112.572413,73.4741617 112.540222,73.2507774 C112.481693,72.8635129 112.446576,72.4430822 112.407557,72.0275289 C112.386097,71.8119484 112.355857,71.612951 112.340249,71.3895667 C112.295377,70.7369724 112.27099,70.0541383 112.269039,69.3371625 L112.192831,42.4549591 C112.18905,40.9897922 112.27977,39.5460858 112.462184,38.1248154 C112.46511,38.0945756 112.468037,38.0662868 112.471939,38.0350715 C112.55583,37.3912565 112.665083,36.7542698 112.787018,36.1202096 C112.807503,36.014858 112.825061,35.9124329 112.846522,35.8051304 C113.267928,33.7273638 113.891258,31.7032484 114.720414,29.7415635 L114.737972,29.699618 C114.997449,29.0870183 115.281313,28.4831978 115.579809,27.8832793 L115.73491,27.5760039 C115.864649,27.3233553 116.009019,27.0755841 116.145586,26.8248864 C116.331902,26.4795675 116.510415,26.1322975 116.712338,25.7908805 C116.930845,25.4201991 117.161058,25.0690273 117.38932,24.7139536 C117.481015,24.5725094 117.567832,24.4242368 117.661478,24.2847435 L117.938513,23.8701657 C118.230181,23.4429066 118.528677,23.0244269 118.834977,22.6176529 L119.009587,22.3806119 C119.348078,21.9377452 119.698274,21.5114616 120.054324,21.0939573 L120.356722,20.743761 C120.513773,20.5652486 120.677654,20.396491 120.837632,20.2218806 C121.091256,19.9458205 121.342929,19.6678095 121.605333,19.4044306 C121.970161,19.0366757 122.342793,18.6825774 122.724205,18.338234 C122.791513,18.2748279 122.859796,18.2114219 122.927104,18.1499668 C123.329976,17.7939176 123.742603,17.4525006 124.162059,17.1218138 C124.228391,17.067187 124.293748,17.0125603 124.362031,16.9598845 C124.782462,16.6340751 125.215574,16.3248488 125.652588,16.0253773 C125.721847,15.9746525 125.791106,15.9239276 125.862315,15.8761293 C126.368588,15.5366632 126.886567,15.2128047 127.4143,14.9074803 C127.423079,14.9026029 127.431858,14.8977255 127.440638,14.8928481 C127.913744,14.62069 128.375145,14.3787716 128.829717,14.1544118 C128.886295,14.126123 128.943848,14.0978341 129.001401,14.0695453 C129.055053,14.0441829 129.109679,14.0188205 129.163331,13.995409 L129.363303,13.9046896 C129.66375,13.7661719 129.962247,13.633507 130.252939,13.5164497 C130.691904,13.3408638 131.076242,13.2062479 131.439119,13.0911416 C131.63519,13.0296865 131.830286,12.9701824 132.021479,12.920433 C132.3707,12.8287382 132.719921,12.7565529 133.074995,12.6999752 C133.206684,12.6785147 133.335447,12.662907 133.46421,12.6472994 C133.703202,12.6180351 133.937317,12.6004765 134.167529,12.5907217 C134.246543,12.5877953 134.327507,12.5809669 134.40457,12.5799915 L134.601617,12.5819424 C134.87475,12.5858443 135.143006,12.601452 135.402483,12.6346182 C135.403459,12.6346182 135.415165,12.6355937 135.421993,12.6365692 C135.615137,12.6609561 135.803405,12.6941223 135.989721,12.7341169 C136.114582,12.7614302 136.252124,12.7994739 136.392593,12.8394684 C136.483312,12.8658063 136.573056,12.8911687 136.661825,12.920433 C136.681334,12.9272614 136.700844,12.9350652 136.702795,12.9360407 C136.828631,12.9789617 136.933983,13.0209072 137.042261,13.0638282 C137.202239,13.1301607 137.362217,13.1955176 137.515367,13.2755068 C137.524147,13.2794087 137.534877,13.2842861 137.542681,13.288188 C140.324742,14.7728644 141.74211,18.4660215 141.758693,24.2642585 L141.835875,51.1464619 C141.851364,57.1046772 140.33157,62.7107452 137.317345,67.8105405 L137.317345,67.8105405 Z M105.958677,44.5493089 C105.941118,38.1638345 104.26915,33.9575764 100.997399,32.0280823 C100.982767,32.019303 100.973988,32.0036954 100.960331,31.9958916 L97.5295774,30.002016 C97.3520405,28.1915301 97.9656158,25.0982916 98.2319211,24.0164873 C98.321665,23.7160403 98.4192127,23.3931573 98.4874961,23.1863561 L98.7811148,22.3669552 C98.8445208,22.1874674 98.9069513,22.0079795 98.9752348,21.8304427 C99.0640032,21.60023 99.1596,21.3729438 99.2542213,21.1446821 L99.4278562,20.7223005 L98.5294416,20.3428398 L99.4863849,20.5818317 C99.6590443,20.181886 99.8414586,19.7858423 100.032652,19.3878475 L100.626718,18.2162993 C100.83547,17.8241574 101.05105,17.434942 101.281263,17.0418246 L101.37686,16.8779444 C101.594391,16.5101895 101.8168,16.1482874 102.043111,15.7941892 L102.875193,14.5494801 C102.998103,14.3768207 103.12394,14.2080631 103.249776,14.040281 L103.808725,13.2852616 C104.080883,12.9350652 104.363771,12.601452 104.644709,12.2678387 L105.119766,11.7176695 C105.51581,11.2709009 105.920633,10.8358381 106.342039,10.4154074 C106.35277,10.4056526 106.454219,10.2963991 106.463974,10.2846934 C106.592737,10.1578813 106.726377,10.0369222 106.859042,9.91596298 L107.289228,9.51699276 C107.412138,9.40188644 107.535048,9.28580464 107.66186,9.17362475 C107.894999,8.96779904 108.136918,8.77270358 108.37786,8.57663265 L108.713425,8.30154805 C108.830482,8.20400032 108.947539,8.10645259 109.068498,8.01378225 C109.369921,7.78161865 109.680123,7.56408721 110.048853,7.30558573 L110.274188,7.1436565 C110.362957,7.07829952 110.451725,7.01391802 110.539518,6.9544139 C111.041889,6.61884971 111.55499,6.29791768 112.077846,5.99454424 C112.585094,5.70190106 113.078686,5.4424241 113.565449,5.20343216 C113.657144,5.1585602 113.747863,5.11856563 113.838582,5.07759559 L114.258038,4.88445108 C114.422893,4.80738838 114.587749,4.72935019 114.757482,4.6600913 C114.781869,4.65228749 114.894049,4.61424387 114.91746,4.6044891 C115.553471,4.34891405 116.098763,4.16064693 116.56309,4.03481036 C116.578698,4.03090845 116.595281,4.02603106 116.609913,4.02115367 C117.028393,3.90994926 117.438094,3.82215631 117.772682,3.76948053 C117.773658,3.76850505 117.879009,3.7577748 117.879985,3.7577748 C117.899494,3.75679933 117.996067,3.74704455 118.014601,3.7450936 C118.283832,3.70900094 118.552089,3.67583471 118.844732,3.66510446 C118.86229,3.66510446 118.961789,3.66607994 118.982274,3.66705542 L119.266138,3.66998185 L119.44465,3.66900637 C119.510983,3.66900637 119.577315,3.66705542 119.63877,3.67095733 C119.737294,3.67681019 119.830939,3.69144235 119.925561,3.70412355 L120.073833,3.7236331 C120.079686,3.72460858 120.171381,3.73436335 120.177234,3.73436335 L120.383059,3.7577748 C120.615223,3.79874485 120.84446,3.85142062 121.061016,3.91482665 C121.07955,3.92165499 121.244406,3.98018363 121.26294,3.98603649 C121.268793,3.98798745 121.360488,4.02115367 121.365365,4.02310463 L121.505834,4.06992754 C121.578019,4.09431447 121.65118,4.11772593 121.724341,4.14796572 C121.889196,4.21722461 122.05015,4.29233636 122.172085,4.35574239 L133.118891,10.7178053 C133.101332,10.7207317 133.081823,10.7226827 133.063289,10.7246337 C133.062313,10.7246337 133.056461,10.7256091 133.05451,10.7256091 L133.053534,10.7256091 C133.023294,10.7285356 132.928673,10.7392658 132.907213,10.7421922 C132.459468,10.8085247 131.999043,10.9109498 131.539593,11.0309335 C131.528863,11.03386 131.519108,11.0348354 131.507403,11.0377619 C131.474236,11.0475166 131.44107,11.0504431 131.406928,11.0592224 C131.016738,11.1655494 130.584601,11.3128465 130.127102,11.4806286 C129.974928,11.5362308 129.820802,11.5937839 129.666677,11.653288 C129.616928,11.6727976 129.574982,11.6864543 129.526208,11.7059638 C129.204301,11.8357023 128.875565,11.9810484 128.542927,12.1351738 L128.462938,12.170291 C128.341003,12.2278442 128.22102,12.278569 128.098109,12.3380731 C128.0786,12.3478279 128.060066,12.3546562 128.040556,12.364411 C127.516725,12.621937 126.984114,12.901899 126.438823,13.2179536 C125.876948,13.5418121 125.329705,13.8851801 124.791241,14.2441557 C124.788315,14.2470822 124.784413,14.2490331 124.781487,14.2509841 C124.70735,14.3017089 124.636141,14.3563356 124.562004,14.4070604 C124.526887,14.4333983 124.490794,14.4577853 124.454702,14.4831477 L124.264484,14.62069 L124.184495,14.6762922 C123.856734,14.9065048 123.529949,15.135742 123.212919,15.3805868 C123.202189,15.3883906 123.19341,15.3971699 123.183655,15.4039982 C123.101715,15.4674043 123.023677,15.5356877 122.942712,15.6000692 C122.899791,15.6351864 122.855894,15.6693281 122.812973,15.7044453 L122.492041,15.9678241 C122.228663,16.1814536 121.965284,16.3960587 121.705807,16.6233449 C121.687273,16.639928 121.667763,16.658462 121.649229,16.6760206 C121.574117,16.7413776 121.502907,16.811612 121.428771,16.8789199 C121.380973,16.9228164 121.333174,16.9657374 121.285376,17.0106094 L121.039556,17.240822 C120.789834,17.4729856 120.539136,17.7071001 120.294291,17.9519449 C120.275757,17.9695035 120.260149,17.9890131 120.241615,18.0075471 C119.939217,18.3118961 119.648525,18.6328281 119.355882,18.9527846 C119.237849,19.0805722 119.113964,19.2025068 118.998857,19.3332208 L118.762792,19.5887958 C118.706214,19.6541528 118.650612,19.7224362 118.595985,19.7907196 L118.491609,19.9185072 C118.156045,20.3155264 117.825358,20.7183986 117.503451,21.1368783 L117.47126,21.1788238 C117.407854,21.2627149 117.346399,21.3495324 117.283968,21.4343989 L117.196175,21.5524316 C116.908409,21.9377452 116.626496,22.329887 116.351412,22.7337346 L116.321172,22.7786066 C116.227526,22.9161489 116.134856,23.0556422 116.043161,23.1941599 L116.026578,23.2195223 C115.687112,23.7345744 115.352523,24.2564547 115.031591,24.7988201 C114.667738,25.4172727 114.330223,26.0415782 114.008315,26.6678346 L113.99661,26.6922215 C113.944909,26.7936712 113.892234,26.8941453 113.842484,26.995595 L113.819073,27.0404669 C113.518626,27.6472138 113.231835,28.2568871 112.968457,28.8724133 L112.94407,28.9328929 C112.933339,28.9563043 112.92456,28.9797158 112.91383,29.0041027 L112.849448,29.1611546 C112.61826,29.7171766 112.404631,30.2761251 112.203682,30.838 L112.119791,31.0701636 C112.113938,31.0886977 112.10711,31.1062563 112.100282,31.1238149 L112.058336,31.2418476 C111.836903,31.89054 111.634979,32.5441098 111.45354,33.2035325 C111.420374,33.3264426 111.39111,33.4513037 111.361845,33.5751893 L111.301366,33.8200341 C111.180407,34.2989935 111.063349,34.7799038 110.9619,35.2676424 C110.95312,35.3144653 110.946292,35.3583618 110.935562,35.4061602 C110.91215,35.5251684 110.891665,35.6441767 110.869229,35.7631849 C110.741442,36.4265095 110.631213,37.0654471 110.549273,37.6829242 C110.546346,37.6975564 110.535616,37.7677907 110.533665,37.7833984 C110.475137,38.2272405 110.437093,38.6779111 110.400025,39.1285816 L110.353202,39.6329033 C110.337594,39.7899552 110.320036,39.9479825 110.311256,40.1021079 C110.26736,40.8161573 110.249801,41.5409369 110.24785,42.2618146 C110.24785,42.3281471 110.241998,42.3935041 110.241998,42.460812 L110.241998,42.4617875 L110.318085,69.3430153 C110.320036,70.12925 110.3493,70.881343 110.401,71.6022208 C110.402951,71.6207548 110.402951,71.6402644 110.404902,71.6597739 C110.457578,72.363093 110.535616,73.031295 110.635115,73.6712081 C110.639992,73.7024234 110.642919,73.7355896 110.648772,73.7658294 C110.749246,74.3901349 110.874107,74.9793232 111.020428,75.5402226 C111.031159,75.5811927 111.039938,75.6241137 111.049693,75.6641082 C111.196014,76.2094 111.365747,76.7225011 111.555965,77.2082888 C111.573524,77.2551117 111.591083,77.304861 111.609617,77.3507085 C111.633028,77.4092371 111.655464,77.4687412 111.680827,77.5262944 L105.926486,74.1833337 C105.993794,73.2732134 106.03769,72.3582157 106.034764,71.4315122 L105.958677,44.5493089 Z M99.5653985,88.1014437 C96.7560239,92.8520182 93.1574882,96.5159109 88.8722164,98.9897213 C84.6971736,101.403052 81.2859295,101.946393 78.7370073,100.606087 C78.5185004,100.48903 78.3224294,100.334905 78.1205056,100.191509 C77.9771105,100.089084 77.8278624,99.9973894 77.6932466,99.8813076 C77.5215626,99.7340105 77.3684126,99.5594001 77.2103853,99.3906425 C77.0943035,99.2657814 76.9704179,99.1516506 76.8611644,99.0150837 C76.70899,98.8229147 76.5743741,98.6024568 76.4378073,98.3878518 C76.343186,98.2395793 76.2407609,98.1049634 76.1529679,97.9459606 C76.0242049,97.7118461 75.913976,97.4465162 75.8008206,97.1880148 C75.7237579,97.0163308 75.6388914,96.8583034 75.570608,96.6758892 C75.4672074,96.3998291 75.3823409,96.0925538 75.2935724,95.7930822 C75.2350438,95.5960358 75.1667604,95.4136216 75.1150601,95.2068204 C75.0350709,94.8849129 74.9765423,94.5308146 74.9121608,94.1835447 C74.8721662,93.9669887 74.8224169,93.7670159 74.7882752,93.5407052 C74.730722,93.1553916 74.6956049,92.7359364 74.6565858,92.3213585 C74.6361007,92.1048026 74.6048855,91.9048297 74.5883023,91.6794945 C74.5444059,91.0278756 74.5200189,90.3450415 74.518068,89.6280657 L74.44186,62.7458624 C74.4380788,61.281671 74.5287982,59.83894 74.710237,58.4186451 C74.7141389,58.3854789 74.7170654,58.35719 74.7209673,58.3240238 C74.8068093,57.672405 74.9150872,57.026639 75.0399483,56.3847749 C75.0575069,56.2930801 75.0721391,56.2052871 75.0916486,56.1126168 C75.3716106,54.7284145 75.7393656,53.3666482 76.2007663,52.0331707 L76.2027173,52.0282933 C76.4339054,51.3591159 76.6894804,50.6967668 76.9655405,50.0412461 L76.988952,49.9856439 C77.2474535,49.376946 77.5293664,48.776052 77.8259115,48.1790599 L77.9878407,47.8600788 C78.1761078,47.4903729 78.3838845,47.1274954 78.5877593,46.7626669 C78.7135958,46.5353807 78.8277267,46.3061435 78.9603916,46.0817837 C79.2062119,45.6662304 79.4637379,45.2692111 79.7222394,44.8731674 C79.7836944,44.7775706 79.8422231,44.6780719 79.9046536,44.5824751 L80.1924194,44.1532651 C80.4801852,43.729908 80.7757548,43.3172811 81.0781528,42.9153844 L81.2576406,42.6715151 C81.5951558,42.2305994 81.9434012,41.8062667 82.2974994,41.3907134 L82.6077012,41.0327132 C82.7608511,40.8571273 82.9218049,40.6912962 83.0788567,40.5205877 C83.3354073,40.2406257 83.5919578,39.9587127 83.8572876,39.6904565 C84.2211406,39.3246525 84.593773,38.9715297 84.9732336,38.6281617 C85.0415171,38.5637802 85.1098005,38.5003742 85.1790594,38.4379436 C85.5799805,38.0828699 85.9916319,37.7434038 86.4091362,37.414668 C86.4754687,37.3590658 86.5418011,37.3034635 86.61106,37.2498123 C87.0373436,36.920101 87.4753329,36.6059973 87.9191751,36.3026238 C87.9825811,36.2567764 88.0450116,36.2119045 88.1103686,36.168008 C88.6166413,35.8265909 89.1336443,35.5027325 89.662353,35.1983835 C89.6721078,35.1925307 89.6808871,35.1886288 89.6896664,35.1837514 C90.1617974,34.9115932 90.6231981,34.6696748 91.0797215,34.4443396 C91.1372747,34.4150753 91.1958033,34.3867864 91.2533565,34.3584976 C91.3079832,34.3331352 91.3626099,34.3077728 91.4162612,34.2833858 L91.6113566,34.1955929 C91.9118037,34.0570751 92.2093242,33.9244102 92.5019674,33.8073529 C92.9389812,33.631767 93.3194174,33.4991021 93.680344,33.3839958 C93.8793414,33.3225407 94.0773632,33.2610856 94.2705078,33.2103608 C94.6197286,33.1196414 94.967974,33.0474561 95.3181704,32.9918539 C95.4518108,32.9703934 95.5825247,32.9538103 95.7132387,32.9372272 C95.9463777,32.9099138 96.1726885,32.8923552 96.3960728,32.8826004 C96.4838657,32.8786985 96.5716587,32.8708947 96.6584762,32.8699192 L96.8516207,32.8728457 C97.1247543,32.8757721 97.3920351,32.8933307 97.6515121,32.924546 L97.6690707,32.9264969 C97.7939317,32.9421046 97.9148909,32.967467 98.0368256,32.9899029 C98.2377739,33.0269711 98.4377468,33.071843 98.6299158,33.1274452 C98.7225861,33.1537831 98.814281,33.180121 98.9050004,33.2103608 L98.9508478,33.2259684 C99.0786353,33.2708404 99.1849624,33.3127859 99.2942158,33.3557069 C99.4532186,33.4220394 99.6131969,33.4864209 99.7663468,33.56641 C99.7741507,33.5703119 99.78293,33.5742138 99.7907338,33.5781158 C102.573771,35.0627922 103.991139,38.7559492 104.007722,44.5551618 L104.083944,71.4373651 C104.100392,77.3955804 102.580599,83.0016484 99.5653985,88.1014437 L99.5653985,88.1014437 Z M68.5169317,50.774805 C68.5130297,49.401333 68.2750133,48.5087712 67.7560594,47.9527492 C67.6946043,47.8883677 67.6214435,47.854226 67.5531601,47.8044766 C67.5151165,47.7732614 67.4887786,47.7322913 67.4448821,47.7069289 C67.4419557,47.7059534 67.4390292,47.7040025 67.4370783,47.703027 L60.6526337,43.7601478 C60.6916528,43.6352867 60.7277454,43.5074991 60.7687155,43.3884909 L61.0281925,42.6627358 C61.0915985,42.481297 61.15598,42.3008337 61.2242634,42.1203704 C61.3140073,41.8872314 61.411555,41.6560432 61.5071518,41.4248551 L61.6739584,41.0210075 C61.6749339,41.020032 61.734438,40.8737104 61.7354135,40.872735 C61.9070975,40.4737648 62.0895118,40.07577 62.2816808,39.6787508 L62.8757465,38.5072025 C63.0835231,38.1150607 63.3000791,37.7258452 63.5293162,37.3327279 L63.6239375,37.1698232 C63.8424445,36.8010927 64.0648533,36.4391907 64.2921395,36.0841169 L65.1242216,34.8403834 C65.259813,34.6482143 65.3983307,34.4638491 65.537824,34.2785084 L66.0587289,33.5742138 C66.3201568,33.2366987 66.592315,32.9147912 66.8917865,32.5597175 L67.3687949,32.0085728 C67.7648387,31.5608287 68.1696617,31.1267413 68.5910679,30.7053351 C68.6008227,30.6965558 68.7032478,30.5853514 68.7130026,30.5755966 C68.8407901,30.4487846 68.9724796,30.3288009 69.1051445,30.2088172 L69.5177714,29.8274055 C69.6475098,29.7044954 69.7772483,29.5825607 69.9099132,29.464528 C70.1440278,29.2587023 70.3859462,29.0636068 70.626889,28.8675359 L70.9624532,28.5924513 C71.0795105,28.4949036 71.1965678,28.3973558 71.317527,28.3046855 C71.6306552,28.0627671 71.9535382,27.8374319 72.2978817,27.596489 L72.521266,27.4345597 C72.6100344,27.3701782 72.6988028,27.3048213 72.7885467,27.2453171 C73.2899421,26.909753 73.8030431,26.5878454 74.3268744,26.2854475 C74.8341226,25.9928043 75.3277141,25.7333273 75.8144773,25.4943354 C75.9051967,25.4494634 75.9939651,25.4104443 76.083709,25.3704498 L76.5070662,25.1753543 C76.6719219,25.0973161 76.8367775,25.019278 77.0065106,24.9509945 C77.0308975,24.9431907 77.1421019,24.9051471 77.1664888,24.8944169 C77.8005491,24.6398173 78.3448654,24.4525256 78.8111436,24.3257136 C78.8277267,24.3218117 78.8443098,24.3169343 78.858942,24.3120569 C79.2764462,24.199877 79.6861467,24.1130595 80.0051278,24.0603838 C80.0109806,24.0603838 80.1290134,24.048678 80.1338908,24.0477026 C80.1524248,24.0467271 80.2450952,24.0379478 80.2646047,24.0350214 C80.5338365,23.9989287 80.8001418,23.9657625 81.0937604,23.9560077 C81.1103436,23.9560077 81.2088668,23.9569832 81.2313027,23.9569832 L81.5141912,23.9599096 L81.6927035,23.9599096 C81.7600114,23.9599096 81.8263439,23.9579587 81.8907254,23.9618606 C81.9843712,23.9677134 82.0750906,23.9803946 82.16581,23.9930758 L82.3160335,24.0135609 C82.3238373,24.0145363 82.423336,24.0252666 82.4301643,24.0262421 L82.6291617,24.0477026 C82.8632763,24.0886726 83.0915379,24.1413484 83.3090694,24.2047544 C83.3256525,24.2115828 83.4866062,24.2681604 83.5041648,24.2740133 L83.7616908,24.3627817 C83.8329007,24.3871687 83.905086,24.4096046 83.970443,24.4378935 C84.1352986,24.5061769 84.2982034,24.5832396 84.420138,24.6466456 L95.3679197,31.0087086 C95.3513366,31.0106595 95.3328025,31.0126105 95.3152439,31.0155369 C95.2918325,31.0174878 95.1786771,31.0282181 95.1552657,31.03212 C94.6655761,31.1062563 94.1612543,31.2125833 93.6559571,31.3501256 C93.2677171,31.4545017 92.8326542,31.6027742 92.3741799,31.7725073 C92.2220054,31.827134 92.0708065,31.8837117 91.9176565,31.9432158 C91.8679072,31.9627253 91.8259617,31.976382 91.7752368,31.9968671 C91.4523538,32.1256301 91.1245935,32.2709762 90.7919557,32.4251016 L90.6973344,32.4680226 C90.5802771,32.5226493 90.4651708,32.5714232 90.3471381,32.6289763 C90.328604,32.6377556 90.3100699,32.6455595 90.2905604,32.6543388 C89.8262332,32.8826004 89.3531267,33.1381755 88.8722164,33.4103337 C88.8088104,33.4454508 88.7502817,33.4717887 88.6868757,33.5078814 C88.4595895,33.6395708 88.2410826,33.7888188 88.0176983,33.9263611 C87.6909134,34.1273095 87.3641285,34.318503 87.04027,34.535059 C87.0363681,34.5379854 87.0334417,34.5399364 87.0295398,34.5428628 C86.9612564,34.5887102 86.8958994,34.6404105 86.825665,34.686258 C86.7798176,34.7203997 86.7339702,34.7516149 86.6871473,34.7857566 L86.4501063,34.9545142 C86.118444,35.1886288 85.7848308,35.4217678 85.4629232,35.6705146 C85.4512175,35.6792938 85.4395118,35.6890486 85.4287815,35.6988034 C85.3575717,35.7524546 85.2902638,35.8109833 85.2200294,35.8665855 C85.1654027,35.9114574 85.108825,35.9553539 85.0551737,36.0002259 L84.74107,36.2577519 C84.4776912,36.4723569 84.2143123,36.6869619 83.9548353,36.9142481 C83.9343503,36.9318067 83.9158163,36.9503408 83.8953312,36.9678994 C83.8250969,37.0303299 83.7568135,37.0976378 83.6865791,37.1610439 C83.6387807,37.2049403 83.5900068,37.2488368 83.5422085,37.2937088 L83.25932,37.5580631 C83.0183771,37.7833984 82.7774343,38.0077582 82.5433197,38.2418727 C82.5228347,38.2613823 82.5043006,38.2847937 82.4838156,38.3043033 C82.2019026,38.5881671 81.93072,38.8895896 81.6566108,39.1861347 C81.5210195,39.3344073 81.3795753,39.4739005 81.2459349,39.6250995 L81.0108449,39.8806746 C80.9542672,39.9450561 80.8996405,40.012364 80.8459892,40.0796719 L80.7406377,40.2094104 C80.404098,40.6064297 80.0714602,41.0093018 79.7515037,41.4277816 L79.7183374,41.4726535 C79.6578579,41.5526426 79.6003047,41.6355582 79.5408006,41.7145719 L79.4452038,41.8433349 C79.157438,42.2286484 78.8755251,42.6207903 78.6014159,43.0236624 C78.5916612,43.0373191 78.5819064,43.0519513 78.5731271,43.0656079 C78.4804568,43.2011993 78.3887619,43.3397171 78.297067,43.4772594 C78.2892632,43.4879896 78.2824349,43.4987199 78.2756065,43.5094501 C78.0005219,43.9269544 77.7332412,44.3561644 77.4688868,44.7902518 C77.4084072,44.8917014 77.3420748,44.9872982 77.2806197,45.0897233 C77.183072,45.2555545 77.1001564,45.4272385 77.0045596,45.5950206 C76.7480091,46.047642 76.492434,46.501239 76.257344,46.9587378 L76.2485647,46.9753209 C76.1929625,47.0855499 76.1363848,47.1957788 76.0817581,47.3060077 L76.0690769,47.3303947 C75.7666789,47.9361661 75.4798886,48.5468149 75.2184607,49.1613656 L75.1960247,49.2140413 C75.184319,49.2442811 75.1716378,49.2764719 75.1579811,49.3076872 L75.098477,49.4520578 C74.8663134,50.0071044 74.6536593,50.5670283 74.452711,51.1289033 L74.3727219,51.3513121 C74.364918,51.3737481 74.3561388,51.396184 74.3483349,51.41862 L74.3073649,51.5327509 C74.0859315,52.1814433 73.8840077,52.8340376 73.702569,53.4934602 C73.6674518,53.6231987 73.6362365,53.7539127 73.6059967,53.8846266 L73.5503945,54.1109374 C73.4294353,54.5898967 73.3133535,55.070807 73.2109284,55.5575702 C73.2011736,55.6053686 73.1943453,55.6492651 73.1845905,55.6970634 C73.1602036,55.8150962 73.140694,55.9331289 73.1182581,56.0511617 C72.9904705,56.7144863 72.8792661,57.3543994 72.797326,57.972852 C72.7943996,57.9874841 72.7846448,58.058694 72.7826939,58.0743016 C72.7241652,58.5181438 72.6861216,58.9688143 72.6490535,59.4194848 L72.6012551,59.9316104 C72.5856475,60.0847603 72.5690643,60.2379103 72.5593096,60.3939866 C72.5115112,61.1616873 72.4910262,61.9362162 72.4929771,62.6990395 C72.4929771,62.7165981 72.4910262,62.7331812 72.4910262,62.7507398 L72.4910262,62.7517152 L72.5671134,89.6339186 C72.5690643,90.4201533 72.5983287,91.1722463 72.650029,91.8921485 C72.6519799,91.9116581 72.6519799,91.9311676 72.6539309,91.9497017 C72.7066066,92.6530208 72.7846448,93.3221982 72.8841435,93.9621113 C72.8890209,93.9933266 72.8919473,94.0255174 72.8978002,94.0567326 C72.9972989,94.6810381 73.1231354,95.2721774 73.269457,95.8350278 C73.2801873,95.8740468 73.2879911,95.9140414 73.2987214,95.9530605 C73.4440675,96.5003033 73.6157515,97.0153553 73.8059696,97.5030939 C73.8235281,97.5479659 73.8391358,97.5947888 73.8566944,97.6386853 C73.8810813,97.6981894 73.9035173,97.7576935 73.9288797,97.8162221 L68.6417928,94.7434687 L68.5169317,50.774805 Z M66.2294374,110.877863 C65.8753391,111.381209 65.2724942,111.879678 64.4384611,112.361564 L58.2246707,115.94937 C57.6042671,116.30737 57.2365122,116.444912 57.0394658,116.497588 C56.9780107,116.295664 56.9019235,115.904498 56.8999725,115.192399 L56.7799888,73.1229899 L56.7799888,73.1229899 C56.7790134,72.8859489 56.7536509,72.6801232 56.7097545,72.5035618 C56.6843921,72.3991857 56.6424465,72.322123 56.6063539,72.2372565 C56.580016,72.1767769 56.5624574,72.1026406 56.5331931,72.0509403 C56.4844192,71.9670493 56.426866,71.9075452 56.3722393,71.8431637 C56.3439505,71.8109729 56.3195635,71.7670764 56.2912747,71.7387876 C56.2054327,71.655872 56.1176397,71.592466 56.0327732,71.5436921 C56.0317977,71.5436921 56.0317977,71.5436921 56.0308223,71.5427166 C56.0298468,71.5427166 56.0298468,71.5417412 56.0288713,71.5417412 C55.8591383,71.4441934 55.6318521,71.3622533 55.3440862,71.3622533 C55.0504676,71.3622533 54.6953938,71.4471199 54.2769141,71.6890382 L47.0339952,75.8699339 C46.4038368,76.233787 46.0341309,76.3732802 45.840011,76.425956 C45.8263543,76.383035 45.8107466,76.3264573 45.7970899,76.2620758 C45.7941635,76.2454927 45.7902616,76.2250077 45.7863597,76.2074491 C45.7756294,76.1537978 45.7648992,76.0913673 45.7561199,76.0211329 C45.752218,75.9928441 45.7483161,75.9626043 45.7444142,75.931389 C45.7346594,75.8572527 45.7278311,75.7723862 45.7219782,75.6806913 C45.7190518,75.6445987 45.7161253,75.6114324 45.7141744,75.5733888 C45.7063706,75.4377975 45.7005177,75.2895249 45.7005177,75.1178409 L45.6878365,70.9184112 C45.6878365,70.9164602 45.688812,70.9145093 45.688812,70.9135338 C45.6878365,70.8033049 45.6936894,70.7008797 45.6966158,70.5965037 C45.6985667,70.5184655 45.6985667,70.4326235 45.7024687,70.3614136 C45.7122234,70.1936315 45.7249046,70.0336533 45.7444142,69.8824543 C45.7834333,69.5654242 45.836109,69.3703287 45.8653734,69.2825357 C45.9356077,69.0903667 46.0224252,68.9040506 46.1248503,68.7274892 C46.2204471,68.5626335 46.3336025,68.4036307 46.4701693,68.2417015 C46.483826,68.2270693 46.5013846,68.2104862 46.5160167,68.1948786 C46.5530849,68.152933 46.5989323,68.1158649 46.6389269,68.0758703 C46.6711176,68.0456305 46.7003819,68.0183172 46.7452539,67.9773471 C46.8535319,67.8778484 46.9549815,67.7920064 47.0564311,67.7139683 C47.1666601,67.6330036 47.2749381,67.552039 47.3978482,67.4798537 C47.407603,67.4740008 47.4163823,67.4671725 47.4251616,67.4622951 C47.426137,67.4613196 47.426137,67.4613196 47.4271125,67.4603442 L49.4161107,66.3122074 C49.8375169,66.0683381 50.2618495,65.7844742 50.6842312,65.4801252 L50.7700732,65.4167192 C51.0012613,65.2489371 51.2324494,65.0743267 51.464613,64.8880105 C51.4685149,64.8841086 51.4733923,64.8811822 51.4782697,64.8772803 C51.5797194,64.7953402 51.681169,64.7075472 51.7826186,64.6217052 C51.8031037,64.6060976 51.8216377,64.59049 51.8411473,64.5739068 C52.0557523,64.3914926 52.2693818,64.20225 52.4849623,64.0042281 C52.4898397,63.9993507 52.4947171,63.9944733 52.4995945,63.9905714 C52.6127498,63.8861953 52.7259052,63.7808438 52.8380851,63.6725658 C52.8458889,63.664762 52.8527172,63.6589091 52.8605211,63.6520808 L53.0741506,63.4511325 C53.3053387,63.2228708 53.5365268,62.9848543 53.7667395,62.7400095 C54.021339,62.4678514 54.2691103,62.1937422 54.5149305,61.9108538 L54.6495464,61.7479491 C54.6544238,61.7430717 54.6583257,61.7372189 54.6622276,61.7323415 C54.7929416,61.5791915 54.9187781,61.4231152 55.0455902,61.2670388 C55.0465657,61.2660633 55.0475411,61.2650879 55.0485166,61.2641124 L55.2728764,60.9909787 C55.3450617,60.9041613 55.417247,60.8173438 55.4923588,60.7207715 L55.678675,60.4700739 C55.74013,60.3871583 55.8015851,60.3042427 55.8620647,60.2213271 L56.0298468,59.9940409 C56.0961792,59.9052725 56.1634872,59.8165041 56.2288442,59.7228582 L56.578065,59.2009779 C56.6083048,59.1561059 56.6385446,59.111234 56.6678089,59.066362 L56.8316891,58.8224927 C57.0111769,58.5425307 57.1838364,58.2596423 57.3379618,57.9943125 L57.4052698,57.8782307 C57.4081962,57.8733533 57.4081962,57.8675004 57.4111226,57.8616476 C57.4189265,57.8489664 57.4286812,57.8353097 57.4355096,57.821653 C57.8178967,57.0344428 58.1437061,56.3613635 58.4197662,55.7897338 L58.492927,55.6375593 C58.4939024,55.6375593 58.5104856,55.6014667 58.5241422,55.5731778 C58.8811669,54.8318151 59.1435703,54.2816459 59.3074505,53.932425 C59.3474451,53.846583 59.4089001,53.7451334 59.4947421,53.631978 C59.5688784,53.5344303 59.6576469,53.4388335 59.7532436,53.3442122 C59.8342082,53.2671495 59.9307805,53.1920377 60.0410094,53.1042448 C60.0517397,53.096441 60.1717234,52.9949913 60.1844046,52.9832856 L60.1931839,52.9774327 C60.359015,52.8564736 60.5433802,52.7374653 60.7423776,52.6213835 C60.7521324,52.6155307 60.7599362,52.6096778 60.7687155,52.6048004 L65.2334751,50.0275894 C65.5231918,49.8598073 65.774865,49.7359217 66.0070286,49.6354475 C66.1279878,49.5837472 66.2411431,49.5378998 66.4011214,49.4842485 C66.4108762,49.4813221 66.4118517,49.4822976 66.4206309,49.4803466 C66.4859879,49.681295 66.5640261,50.0695349 66.5659771,50.7796824 L66.7298992,108.396249 C66.7337592,109.872146 66.4645274,110.554005 66.2294374,110.877863 L66.2294374,110.877863 Z M44.7230894,78.1135317 C44.7250404,78.1145072 44.7269914,78.1145072 44.7289423,78.1154827 C44.7669859,78.1418206 44.7962502,78.1779132 44.8362448,78.2013247 C44.8459996,78.2071775 44.8567298,78.208153 44.8664846,78.2140059 C44.9318416,78.2500985 45.000125,78.2705836 45.0693839,78.295946 C45.0713348,78.2969214 45.0732858,78.2978969 45.0762122,78.2978969 C46.0780274,78.66175 47.3880934,77.9184363 48.0094725,77.5594606 L54.8300097,73.6224342 L54.9490179,115.198252 C54.9490179,115.264585 54.9558463,115.316285 54.9577972,115.380666 L41.7459327,107.702685 C41.6844777,107.558314 41.5664449,107.169098 41.564494,106.280439 L41.4845048,76.2308605 L44.7230894,78.1135317 Z M30.3640636,66.2058804 L30.3640636,66.2058804 L30.3532968,62.0035242 C30.3523579,61.6172352 30.370892,61.2709407 30.4089356,60.9753711 C30.411862,60.9539106 30.413813,60.9304991 30.4147885,60.9070877 C30.4294206,60.8046626 30.4450283,60.7080903 30.4664888,60.613469 C30.47917,60.5559159 30.4918512,60.5012891 30.5035569,60.4573926 L30.7581565,59.8662534 C30.7708377,59.8467439 30.7835189,59.8262588 30.7952246,59.8057738 C30.7962001,59.8038229 30.798151,59.8018719 30.7991265,59.7989455 L31.1493229,59.3121823 C31.1902929,59.2643839 31.2332139,59.217561 31.2829633,59.1668362 C31.3278352,59.13367 31.3814865,59.0917244 31.4087998,59.066362 C31.6497427,58.8429777 31.8643477,58.6781221 32.0887075,58.5493591 L34.0796567,57.4002468 C34.4220492,57.2022249 34.7644417,56.9807916 35.1058588,56.7447261 C35.1858479,56.6900993 35.2638861,56.6315707 35.3428998,56.5730421 L35.4336192,56.5057341 C35.6648073,56.3369765 35.8969709,56.1623661 36.1301099,55.9750745 C36.2539956,55.8746003 36.3788567,55.7692488 36.5017668,55.6638972 C36.7173473,55.481483 36.9329278,55.2912649 37.1485082,55.0922675 C37.2743448,54.9761857 37.4011569,54.8591284 37.5230915,54.7410957 C37.8274404,54.4484525 38.1308139,54.1480055 38.4302854,53.8280489 C38.7356098,53.503215 39.0272775,53.1705772 39.3130924,52.8350131 C39.4681933,52.6545498 39.6164658,52.47116 39.8047329,52.238021 L39.866188,52.1619337 C40.0125096,51.9824459 40.1568802,51.8019826 40.297349,51.6195683 L40.5909676,51.2205981 C40.7831366,50.9572193 40.9704283,50.6928649 41.1869842,50.3719329 L41.3606192,50.1134314 C41.6064395,49.7359217 41.8454314,49.356461 42.0668648,48.970172 C42.0717422,48.9613927 42.0707667,48.9526134 42.0756441,48.9448096 C42.0824724,48.9311529 42.0932027,48.9223736 42.100031,48.9096924 L44.0031872,44.9580339 L43.1925656,44.4088402 L44.0704951,44.8419521 L43.2471923,44.3190963 L44.1719448,44.7005079 L44.2490075,44.6068621 C44.2851001,44.5649165 44.3231438,44.5239465 44.3728931,44.4741971 C44.3885007,44.4605405 44.4041084,44.4459083 44.4167896,44.4342026 C44.4987297,44.3561644 44.5953019,44.2791017 44.7026044,44.1942352 C44.7133347,44.1854559 44.8401467,44.0791288 44.850877,44.0703495 C45.0264629,43.942562 45.2186319,43.8167255 45.431286,43.6938153 L45.4332369,43.6928398 L49.897021,41.1156288 C49.8979965,41.1156288 49.8979965,41.1146533 49.8979965,41.1146533 C50.1886887,40.9468712 50.4384109,40.8239611 50.6832557,40.7186096 L50.7525146,40.6815414 C50.8442095,40.6434978 50.9251741,40.6200864 51.0080897,40.5947239 L51.0822259,40.5664351 C51.1290489,40.5537539 51.1719699,40.5439991 51.2051361,40.5322934 C51.2080625,40.5322934 51.2109889,40.5332689 51.2168418,40.5332689 L64.4550442,48.2258828 C64.3857853,48.2649019 64.3126245,48.305872 64.2579978,48.3380627 L59.7932382,50.9152737 L59.7922627,50.9152737 C59.7922627,50.9162492 59.7912872,50.9162492 59.7912872,50.9162492 C59.5132762,51.077203 59.2625785,51.2410832 59.0343169,51.4078898 C59.0313904,51.4098407 59.0274885,51.4127672 59.0245621,51.4147181 C59.0157828,51.420571 59.0099299,51.4273993 59.0021261,51.4322767 C58.9514013,51.4712958 58.9006765,51.5142168 58.811908,51.5893285 C58.6792431,51.6956556 58.5495046,51.8029581 58.4324474,51.913187 C58.3300223,52.0107347 58.2471067,52.1112089 58.1593137,52.2107076 C58.0754227,52.3043534 57.9847033,52.3911709 57.9086161,52.4926205 C57.9047142,52.4974979 57.9027632,52.5023753 57.8988613,52.5072527 C57.7749757,52.6760103 57.6774279,52.8486697 57.5906105,53.0232802 C57.5759783,53.05352 57.5506159,53.0837598 57.5369592,53.1139996 L56.7819398,54.6942728 L56.7829153,54.6942728 C56.7692586,54.7235371 56.7536509,54.7557279 56.7390188,54.7859676 L55.69916,56.9300667 C55.5118683,57.2539252 55.3099445,57.5748572 55.1031434,57.8928628 L53.530674,60.0369619 C53.4126412,60.184259 53.2926575,60.3315561 53.1668209,60.4798286 C52.9112459,60.7793002 52.6488425,61.0768207 52.3757088,61.3694639 C52.3640031,61.3811696 52.3542483,61.3928754 52.3435181,61.4055566 C52.3357143,61.4133604 52.326935,61.4211642 52.3181557,61.4299435 C52.0528259,61.7138074 51.7855451,61.9771863 51.5202152,62.2347123 L51.5055831,62.2473935 C51.3904768,62.3585979 51.2763459,62.4649249 51.1622151,62.5702765 C50.9671196,62.7497643 50.7710487,62.9214483 50.5779042,63.0872794 C50.4686507,63.1789743 50.3584218,63.2716446 50.2511193,63.3604131 C50.1330865,63.4550344 50.0160293,63.5399009 49.8979965,63.6296448 C49.8053262,63.6989037 49.7136313,63.77304 49.6229119,63.8393724 L49.3351461,64.0500755 C49.2600344,64.1017758 49.1858981,64.1427459 49.1127373,64.1924952 C48.889353,64.3417432 48.6649932,64.4929422 48.4406334,64.6217052 C48.4396579,64.6226807 48.4396579,64.6226807 48.4386825,64.6236562 L46.4496843,65.771793 C46.2458095,65.8898257 46.0468121,66.0302944 45.8409864,66.1922237 C45.6897874,66.3063545 45.5512697,66.4282892 45.4156783,66.5531503 C45.3971443,66.5707089 45.3805611,66.5824146 45.3600761,66.6009487 C45.2313131,66.7199569 45.1025501,66.8399406 45.0401196,66.9170033 C45.0274384,66.93066 45.0079288,66.953096 44.9913457,66.9726055 C44.9503757,67.0194284 44.9181849,67.0740551 44.8801413,67.1218535 C44.720163,67.3228019 44.5650621,67.5286276 44.4343482,67.7520119 C44.2977813,67.9900283 44.182675,68.2495053 44.0773235,68.5226389 C44.0617158,68.561658 44.0392799,68.5948243 44.0246477,68.6348188 C43.8295522,69.2123014 43.7349309,69.959517 43.7368819,70.9203621 L43.7495631,75.1236938 C43.7495631,75.181247 43.7505386,75.2358737 43.7515141,75.2914759 L30.5416005,67.6144696 C30.4830719,67.4847311 30.3669901,67.1111233 30.3640636,66.2058804 L30.3640636,66.2058804 Z M143.709648,24.2584057 C143.692089,17.8748822 142.020121,13.6695996 138.750322,11.73913 C138.73764,11.7303507 138.730812,11.7176695 138.718131,11.7098657 C138.717155,11.7088902 138.715204,11.7079148 138.711302,11.7049883 L123.29681,2.7481558 L123.283153,2.74132746 L123.282178,2.74035198 L123.126102,2.65450998 C123.126102,2.65450998 123.125126,2.65450998 123.125126,2.65353451 L123.116347,2.64865712 C122.907595,2.53842818 122.69299,2.43795402 122.47936,2.34918559 C122.362303,2.29943625 122.241344,2.2584662 122.120385,2.21847163 L121.75263,2.09068411 C121.728243,2.08092933 121.636548,2.04971406 121.611185,2.04288572 C121.319518,1.95801919 121.021022,1.8887603 120.720575,1.83706001 C120.672776,1.82828071 120.623027,1.82242785 120.580106,1.81950142 C120.512798,1.80877117 120.444515,1.80096735 120.31185,1.78731067 L120.18894,1.77072755 C120.050422,1.75219348 119.910928,1.73365941 119.763631,1.72390464 C119.652427,1.7170763 119.537321,1.7170763 119.425141,1.71805178 L119.210536,1.7170763 C119.120792,1.71512535 119.031048,1.71315338 118.901309,1.71512535 C118.843756,1.71315338 118.785228,1.71122344 118.726699,1.71512535 C118.410644,1.72878203 118.08386,1.76682564 117.731712,1.81267308 C117.678061,1.81657498 117.625385,1.82242785 117.539543,1.8331581 C117.065461,1.90534342 116.573821,2.01069497 116.096812,2.13945797 C116.080229,2.14433536 116.063646,2.14823727 116.047063,2.15311465 C115.495918,2.30431363 114.888196,2.51404125 114.176097,2.79790514 C114.121471,2.81546374 114.064893,2.8339978 114.000512,2.86033569 C113.812244,2.93837388 113.6191,3.02909326 113.425955,3.12078813 L113.043568,3.29637404 C112.931388,3.34709886 112.820184,3.3968482 112.706053,3.45245041 C112.181246,3.70997642 111.649611,3.9899384 111.101393,4.30599304 C110.541469,4.62985151 109.992275,4.97321952 109.452836,5.33512159 C109.340657,5.40925787 109.233354,5.48827153 109.125076,5.56728519 L108.870476,5.74872397 C108.535888,5.98381399 108.202274,6.21792855 107.878416,6.46765073 C107.738923,6.57495324 107.602356,6.6881086 107.465789,6.80126397 L107.147784,7.06171641 C106.887331,7.27437046 106.624928,7.48702451 106.372279,7.70943333 C106.228884,7.83624538 106.089391,7.96695934 105.949897,8.09864877 L105.548001,8.4712811 C105.393875,8.61077435 105.240725,8.75124308 105.096355,8.89463825 L104.958812,9.03900889 C104.51497,9.48382653 104.083809,9.94620277 103.595095,10.4934455 C103.545346,10.5441704 103.495597,10.5958707 103.426338,10.6778107 C103.367809,10.7451187 103.312207,10.8143776 103.255629,10.8846119 L103.154179,11.0084975 C102.854708,11.3625958 102.556212,11.7176695 102.268446,12.0883509 L101.689013,12.8706837 C101.55147,13.0540734 101.413928,13.2374632 101.280288,13.4276812 L100.398456,14.7445756 C100.159464,15.1181834 99.9253496,15.499595 99.6775784,15.9190503 L99.5927119,16.0653719 C99.3537199,16.4740968 99.1244828,16.8857483 98.9040249,17.2993506 L98.2748421,18.5430842 C98.0719428,18.9625394 97.8787983,19.3839456 97.7002859,19.797548 L97.4544656,20.3935646 C97.3510651,20.6393849 97.2486399,20.8842297 97.1540186,21.1310255 C97.0789069,21.3261209 97.0106235,21.5231673 96.9403891,21.7202137 L96.6409176,22.5610752 C96.5638549,22.7912878 96.4585033,23.1346558 96.3502254,23.5024108 C96.3121817,23.6536097 95.6332495,26.4454258 95.5513094,28.8519283 L85.5458388,23.0380836 C85.5448633,23.0380836 85.5438879,23.0380836 85.5429124,23.0371081 L85.5312067,23.0302797 L85.3751303,22.9444377 C85.3751303,22.9444377 85.3741548,22.9444377 85.3741548,22.9444377 L85.3653755,22.9395604 C85.1556479,22.8303069 84.9439693,22.7298327 84.7235115,22.6371624 C84.6103561,22.5903395 84.4952498,22.5513204 84.3781925,22.5123013 L84.0016583,22.3806119 C83.9762958,22.3718326 83.8865519,22.3406173 83.862165,22.333789 C83.5695218,22.247947 83.2710258,22.1796635 82.960824,22.1260123 C82.915952,22.1182085 82.8701046,22.1123556 82.8291345,22.1094292 C82.764753,22.0996744 82.6993961,22.0918706 82.5589273,22.0772384 L82.4291889,22.0606553 C82.292622,22.0411458 82.1550797,22.0235872 82.01266,22.0148079 C81.8995047,22.0070041 81.7843984,22.0070041 81.673194,22.008955 L81.4585889,22.0079795 C81.368845,22.0060286 81.2800766,22.0040776 81.1503381,22.0060286 C81.0918095,22.0031022 81.0342563,22.0021267 80.9757277,22.0060286 C80.659673,22.0196853 80.3319127,22.0577289 79.9865937,22.1026008 C79.9290405,22.1065027 79.8714874,22.1123556 79.889046,22.1133311 C79.8588062,22.115282 79.8178361,22.119184 79.7866209,22.1240613 C79.3125389,22.1962467 78.8208983,22.3015982 78.3458409,22.4303612 C78.3292578,22.4342631 78.3126747,22.4391405 78.2960916,22.4440179 C77.7429959,22.5952169 77.1342981,22.8049445 76.4251261,23.0878329 C76.3685484,23.106367 76.3100198,23.1258765 76.2485647,23.1502635 C76.0612731,23.2283016 75.8681286,23.3199965 75.6749841,23.4107159 L75.2896705,23.5882528 C75.1794416,23.6370266 75.0682372,23.6877514 74.9531309,23.7433537 C74.430275,23.9999042 73.8966889,24.2808416 73.3513971,24.5959208 C72.7914732,24.9197793 72.2422795,25.2631473 71.701865,25.6240739 C71.5906606,25.7001611 71.4804317,25.7791748 71.3711782,25.8591639 L71.1575487,26.0132893 C70.8102788,26.2561832 70.4639843,26.499077 70.1274447,26.758554 C69.9879514,26.8658565 69.8513846,26.9790118 69.7148178,27.0921672 L69.3968122,27.3526196 C69.1353843,27.5652737 68.8739563,27.7769523 68.6213077,28.0003366 C68.4710842,28.1330015 68.3237872,28.2705438 68.178441,28.4080861 L67.794103,28.7641353 C67.640953,28.9036285 67.4887786,29.0421463 67.3414815,29.1884679 L67.2078411,29.3299121 C66.763999,29.7737543 66.3318625,30.237106 65.8441239,30.7823978 C65.7943745,30.8340981 65.7446252,30.8857984 65.6734153,30.9696895 L65.3729683,31.334518 C65.0832516,31.677886 64.7935348,32.021254 64.5174747,32.3792542 L63.9770603,33.1079357 C63.8268368,33.3079085 63.6766133,33.5088569 63.5283408,33.7185845 L63.2659374,34.1117018 C63.1566839,34.2716801 63.0474305,34.4345848 62.9372015,34.6013914 L62.6474848,35.0345034 C62.4094683,35.4081112 62.1753538,35.7885473 61.9002692,36.25385 L61.8417405,36.3552996 C61.6027486,36.7650001 61.3725359,37.1766515 61.1530535,37.5902539 L60.5228952,38.8330119 C60.3209714,39.2524672 60.1278269,39.6738734 59.9493146,40.0874757 L59.7064207,40.6727621 C59.6030201,40.9224843 59.4996195,41.171231 59.4030473,41.4209532 C59.3279355,41.6189751 59.2577012,41.8179725 59.1874668,42.0169698 L58.9240879,42.7544307 L52.0840411,38.7803362 C52.0313653,38.7510719 51.9767386,38.724734 51.9562536,38.7179056 C51.9152836,38.6993716 51.8109075,38.6623034 51.7679865,38.6486467 C51.7143352,38.6340146 51.6577575,38.6203579 51.5865477,38.6076767 C51.5494796,38.6008483 51.423643,38.5871917 51.3865749,38.5842652 L51.2870762,38.5832898 C51.2578119,38.5813388 51.2022096,38.5823143 51.1729453,38.5832898 C51.0910052,38.5871917 51.0051632,38.5949955 50.9124929,38.6096276 C50.8061659,38.6262108 50.692035,38.6505977 50.5915609,38.6779111 C50.5486399,38.6886413 50.5008415,38.7042489 50.456945,38.7218075 L50.456945,38.7218075 C50.4452393,38.7266849 50.43646,38.7296114 50.4325581,38.7296114 C50.2959912,38.7715569 50.1594244,38.8154534 50.0189557,38.873982 C49.9731083,38.8925161 49.9155551,38.9198294 49.897021,38.9334861 C49.6043778,39.0602982 49.2863722,39.215399 48.9215437,39.4251267 C48.9205683,39.4261021 48.9205683,39.4261021 48.9195928,39.4270776 L44.4577596,42.0033132 C44.4567841,42.0033132 44.4567841,42.0042886 44.4558087,42.0052641 C44.1787731,42.1652424 43.9271,42.3281471 43.6988383,42.4949537 C43.6393342,42.5398257 43.5866584,42.5837221 43.4744785,42.6783434 C43.3437645,42.7827195 43.2140261,42.8870956 43.0911159,43.0022019 C43.066729,43.0236624 43.0413666,43.0470739 43.021857,43.0656079 C42.9350396,43.1514499 42.8540749,43.2382674 42.7799387,43.3221585 C42.7243365,43.3855645 42.6736116,43.4489705 42.6414209,43.4899406 L42.5819168,43.5689542 C42.574113,43.5806599 42.5204617,43.6518698 42.5126579,43.6635755 L42.3478022,43.9211015 C42.3409739,43.9318318 42.2882981,44.0274285 42.2824453,44.0381588 L40.3627059,48.0190816 C40.1617576,48.3663516 39.9481281,48.7077686 39.7266947,49.0462592 L39.5325748,49.335976 C39.3667436,49.5827718 39.1921332,49.8276166 39.0175227,50.067584 L38.7434136,50.4392408 C38.6166016,50.6060474 38.4839367,50.7689521 38.3512717,50.9338078 L38.2459202,51.0625708 C38.1103289,51.2313284 37.9727866,51.4010614 37.8313423,51.567868 C37.5640616,51.8780698 37.2938544,52.1882716 37.007064,52.493596 C36.729053,52.7911166 36.4500665,53.0662012 36.1671781,53.3383593 C36.0540227,53.4476128 35.9408673,53.5529643 35.827712,53.6563649 C35.631641,53.8368282 35.4375211,54.0094877 35.2385237,54.1762943 C35.1273193,54.2718911 35.0161149,54.3665124 34.9049105,54.4572318 C34.6990847,54.6230629 34.4913081,54.7781638 34.2815805,54.9303383 L33.9977166,55.1390904 C33.6992205,55.3449161 33.4026754,55.5380606 33.1041794,55.7107201 L31.1132302,56.8598324 C30.7737641,57.0559033 30.4577095,57.2909933 30.1182434,57.6021706 C30.0645921,57.6411897 29.9904558,57.7016693 29.9543632,57.7367865 C29.8587664,57.8314078 29.7670715,57.9289555 29.639284,58.077228 C29.5895347,58.1347812 29.5417363,58.1933098 29.4890605,58.2606178 C29.4373602,58.3269502 29.3876109,58.3942582 29.3456653,58.4547378 L29.2198288,58.6430049 C29.1788587,58.7064109 29.1398396,58.7707924 29.101796,58.8361494 C29.1008205,58.8371249 29.1008205,58.8371249 29.1008205,58.8381003 L28.7320901,59.6087274 C28.7242863,59.6292124 28.6891691,59.7238337 28.6823408,59.7452942 L28.6238121,59.9345368 C28.6004007,60.0213543 28.5769892,60.1140246 28.5584552,60.204744 C28.5262644,60.3569185 28.4970001,60.5207987 28.4735886,60.7080903 C28.4716377,60.7246734 28.4696867,60.7461339 28.4687113,60.7685699 C28.4228638,61.1421777 28.402347,61.5479763 28.402347,62.0074261 L28.402347,62.0074261 L28.402347,62.0084016 L28.4131091,66.2117332 L28.4131091,66.2127087 C28.4179864,67.6466603 28.6579539,68.5216635 29.1905645,69.0493967 C29.2500686,69.1079253 29.3154256,69.1586501 29.3866354,69.2005957 L39.5296483,75.095405 L39.6135394,106.285316 C39.6174413,107.667567 39.8525313,108.56208 40.3549021,109.101519 C40.3578285,109.105421 40.3617305,109.107372 40.3656324,109.110298 C40.3685588,109.113225 40.3695343,109.118102 40.3724607,109.121029 C40.42221,109.171753 40.4846406,109.208821 40.5421938,109.251742 C40.554875,109.260522 40.5636543,109.272228 40.5773109,109.280031 L40.5821883,109.282958 C40.6143791,109.305394 40.640717,109.334658 40.6748587,109.354168 L55.9537596,118.232962 C55.9713181,118.245643 55.9918032,118.254422 56.0093618,118.266128 C56.0103372,118.266128 56.0103372,118.267104 56.0113127,118.267104 C56.0122882,118.268079 56.0132637,118.268079 56.0142392,118.269055 C56.2668878,118.418303 56.5448988,118.485611 56.8394929,118.485611 C57.6003652,118.485611 58.4597607,118.066155 59.200148,117.639872 L65.4139384,114.051091 C66.5103749,113.418006 67.299536,112.746878 67.8155635,112.012343 C68.4028008,111.205624 68.6856892,110.021394 68.6808118,108.390396 L68.6476456,97.004625 L77.5654591,102.187336 C77.5839931,102.197091 77.6035027,102.200993 77.6220367,102.210747 C77.6903202,102.249766 77.7547017,102.293663 77.824936,102.330731 C79.0208712,102.959914 80.3397165,103.274018 81.7736681,103.274018 C84.1538327,103.274018 86.8559048,102.407794 89.8476937,100.680223 C94.4275596,98.0357045 98.2621609,94.1376973 101.244195,89.0944796 C103.603875,85.1047775 105.093428,80.8204812 105.707979,76.3118251 L115.317406,81.8964327 C115.334964,81.9061874 115.353499,81.9100893 115.372033,81.9188686 C115.440316,81.9578877 115.506648,82.0027597 115.576883,82.0408033 C116.771843,82.6690107 118.089712,82.9831144 119.524639,82.9831144 C121.904804,82.9831144 124.606876,82.1168905 127.599641,80.3893202 C132.179506,77.7448013 136.014108,73.846794 138.996142,68.8035764 C142.192781,63.3974812 143.803294,57.4548735 143.786838,51.1415845 L143.709648,24.2584057 Z" id="Fill-5-Copy" stroke="#FFFFFF" stroke-width="0.7" fill="#002A5D"></path>
                    </g>
                </g>
            </g>
        </g>
    </g>
</svg>