<?xml version="1.0" encoding="UTF-8"?>
<svg width="152px" height="152px" viewBox="0 0 152 152" version="1.1" xmlns="http://www.w3.org/2000/svg" xmlns:xlink="http://www.w3.org/1999/xlink">
    <title>Group 6</title>
    <g id="I---Marque" stroke="none" stroke-width="1" fill="none" fill-rule="evenodd">
        <g id="I.1.0---La-marque---Qui-sommes-nous-?" transform="translate(-606.000000, -4772.000000)">
            <g id="//-Chiifres" transform="translate(0.000000, 4493.000000)">
                <g id="Group-6" transform="translate(607.000000, 280.000000)">
                    <circle id="Oval" stroke="#002A5D" stroke-width="1.012" cx="75" cy="75" r="75"></circle>
                    <path d="M105.476534,9.56435133e-05 L105.633642,0.00357138885 C105.889392,0.00472341783 106.034548,0.00472341783 106.178551,0.00933153373 C106.375548,0.00702747578 106.471167,0.00817950476 106.563329,0.0139396496 C106.946955,0.0381322581 107.325972,0.0830613882 107.694621,0.147575011 C107.73379,0.154487185 107.778719,0.163703417 107.817888,0.175223706 C108.089767,0.220152836 108.428464,0.296186749 108.759096,0.392957183 C108.862779,0.422909936 108.966461,0.459774863 109.068992,0.498943849 L109.068992,0.498943849 L109.176131,0.539264863 C109.283269,0.573825732 109.390408,0.611842688 109.496395,0.651011673 C109.633486,0.697092832 109.707216,0.72243747 109.779794,0.753542252 C110.121946,0.896393845 110.452579,1.0576779 110.775147,1.23969848 C110.779755,1.24200254 110.877677,1.29845196 110.882286,1.30075602 L110.882286,1.30075602 L128.996789,11.8279968 C129.000245,11.8291488 129.003701,11.8314529 129.008309,11.8337569 C129.017526,11.8395171 129.023286,11.8487333 129.032502,11.8544935 C129.082039,11.8832942 129.133881,11.9074868 129.183418,11.9385916 C133.02313,14.2933388 134.980428,19.0811712 135.000196,26.1707576 C135.019597,33.0979078 133.475878,39.6368243 130.412633,45.6031823 C127.431182,50.3564539 124.50042,55.011803 121.568506,59.6671521 L121.568506,59.6671521 L121.168752,60.30192 C121.071982,60.458596 120.98558,60.6164239 120.889961,60.7730999 L120.889961,60.7730999 L132.939032,67.4594761 C132.964377,67.4675403 132.993178,67.4779085 133.004698,67.4825166 C133.010458,67.4848207 133.013914,67.4894288 133.019674,67.4917329 C133.024282,67.4940369 133.030043,67.4928849 133.035803,67.495189 C133.064603,67.5078613 133.131421,67.5401181 133.186719,67.5689188 C133.189023,67.5700708 133.190175,67.5689188 133.192479,67.5700708 L133.192479,67.5700708 C133.215519,67.5838952 133.239712,67.5954155 133.248928,67.6011756 C133.30653,67.6334324 133.343394,67.6852737 133.392932,67.7267468 C133.453989,67.777436 133.521959,67.8212132 133.570344,67.8822707 L133.570344,67.8822707 L133.595689,67.9064633 C134.631363,68.848823 134.653251,70.5952989 134.655555,71.2600196 L134.655555,71.2600196 L134.671684,76.6653396 C134.677444,78.5972922 134.346812,79.9935513 133.661354,80.935911 C133.033499,81.8010848 132.071554,82.6109611 130.803171,83.3436516 L130.803171,83.3436516 L100.285923,100.962783 C99.6845639,101.309543 98.535991,101.973112 97.4899487,101.973112 C97.1650765,101.973112 96.8505726,101.89823 96.5648694,101.740402 C96.549893,101.73349 96.5360687,101.731186 96.5210923,101.72197 L96.5210923,101.72197 L96.4416023,101.675889 L96.4416023,101.675889 L96.4335381,101.671281 L90.2471425,98.0757981 L90.2609669,103.284121 C90.266727,105.20801 89.9326386,106.606573 89.2414212,107.560453 C88.6262377,108.431387 87.6965504,109.22283 86.4039738,109.969345 L86.4039738,109.969345 L79.0643972,114.206508 C78.1900072,114.711097 77.1762217,115.206469 76.2776391,115.206469 C75.9354865,115.206469 75.6117664,115.128131 75.319151,114.957631 C75.315695,114.955327 75.3122389,114.955327 75.3099348,114.954175 C75.3018706,114.949567 75.2949584,114.94611 75.2868942,114.941502 L75.2868942,114.941502 L75.2350529,114.91155 L57.1850629,104.422326 C57.0571877,104.34514 56.9465929,104.261042 56.8486705,104.166575 C56.8429103,104.160815 56.8406063,104.151599 56.8336941,104.144687 C56.8256299,104.136623 56.8152616,104.132014 56.8071974,104.12395 C56.2162066,103.489182 55.9374155,102.432772 55.9316554,100.799195 L55.9316554,100.799195 L55.9316554,100.798043 L55.834885,63.9619161 L43.8572397,57.001357 C43.7719896,56.9518198 43.6936516,56.8919143 43.6233778,56.8227925 C42.99437,56.1983928 42.7109709,55.1638708 42.7063628,53.4715402 L42.7063628,53.4715402 L42.6925039,48.5074474 L42.6925039,48.5062953 L42.6952948,48.1822342 C42.703644,47.7569235 42.7305554,47.3593353 42.7766365,46.9971374 C42.8054372,46.7494511 42.8388461,46.5570623 42.875711,46.3808019 C42.8999036,46.2702071 42.9264003,46.1607643 42.955201,46.0582338 C42.9793936,45.9718316 43.0024342,45.8946456 43.0266268,45.8209158 C43.0277788,45.8177477 43.0309469,45.8090355 43.035141,45.7975332 L43.0646978,45.7170712 L43.0646978,45.7170712 L43.07386,45.6930406 C43.113029,45.5939661 43.1487419,45.5041078 43.1879109,45.4154016 C43.2155596,45.350888 43.2535765,45.2656378 43.2950496,45.1826917 L43.2950496,45.1826917 L43.4897425,44.8151945 C43.4989587,44.796762 43.5081749,44.7794816 43.5173912,44.7622012 C43.5208472,44.756441 43.5243033,44.7506809 43.5277594,44.7449207 L43.5277594,44.7449207 L43.9793548,44.077896 C44.0254359,44.0168384 44.0818854,43.9488687 44.1394868,43.880899 C44.1521591,43.8670747 44.2166727,43.7898887 44.2293451,43.7749123 C44.2996188,43.6931183 44.4113656,43.5756113 44.5265685,43.4615605 C44.5761058,43.4131752 44.6970688,43.3175568 44.7546703,43.2783878 C45.0887587,42.9604278 45.4758404,42.6689645 45.895179,42.4270384 L45.895179,42.4270384 L45.897483,42.4270384 L48.244166,41.0711003 C48.2453181,41.0699483 48.2453181,41.0699483 48.2464701,41.0687963 C48.5966869,40.8671912 48.9492078,40.6379374 49.3005766,40.3948593 L49.3005766,40.3948593 L49.6415772,40.144869 C49.8835033,39.9674566 50.1277334,39.784284 50.3719636,39.588439 L50.3719636,39.588439 L50.7728696,39.2543506 C50.9963633,39.0631138 51.2279211,38.8592047 51.4594789,38.6460793 C51.5965704,38.5205082 51.7313578,38.396089 51.8661451,38.2647577 C52.1967775,37.9456457 52.5262577,37.6207735 52.8568901,37.2694047 C53.1944346,36.9099717 53.5135466,36.5436265 53.8280505,36.1761292 C53.9916386,35.9860444 54.1483145,35.7925036 54.3038385,35.5989627 L54.3038385,35.5989627 L54.4489941,35.4180941 C54.603366,35.2280094 54.7577379,35.0367726 54.9051976,34.8443837 L54.9051976,34.8443837 L55.2289177,34.4054607 C55.4362829,34.1220615 55.6424961,33.8329023 55.837189,33.5402869 L55.837189,33.5402869 L56.0687468,33.1969823 C56.3291054,32.7972282 56.5848558,32.390562 56.8233258,31.9769836 L56.8233258,31.9769836 L59.3566375,26.8412384 C59.3658538,26.8297181 59.4015667,26.7813329 59.4269113,26.746772 C59.4372796,26.7317957 59.4487999,26.7156673 59.4614722,26.7006909 C59.5478744,26.58664 59.6100839,26.5106061 59.6769016,26.4357242 C59.7598477,26.3401058 59.8589222,26.2341191 59.9637568,26.1304365 C59.9937096,26.1027878 60.0397907,26.0613148 60.0708955,26.0371222 C60.1457774,25.9599362 60.3105175,25.8239968 60.4787138,25.6903615 C60.6238694,25.5682464 60.688383,25.512949 60.7632649,25.4599557 C61.0270796,25.2664148 61.323151,25.0717219 61.6526313,24.8816371 C61.6537833,24.8816371 61.6537833,24.8816371 61.6537833,24.8816371 L66.9243159,21.8379766 C67.3563268,21.5879863 67.7318882,21.4048137 68.0774969,21.2562019 C68.0982334,21.2412256 68.1581389,21.2124248 68.2053721,21.1928403 C68.3873927,21.1168064 68.5498288,21.0649651 68.7099608,21.0154279 C68.7203291,21.0131238 68.8309238,20.9739548 68.8412921,20.9716508 C69.0198566,20.9209615 69.156948,20.8921608 69.2871273,20.8725763 C69.3862018,20.8564479 69.4875804,20.8472317 69.5866549,20.8426235 C69.6143035,20.8414715 69.673057,20.8426235 69.7018578,20.8414715 L69.7018578,20.8414715 L69.8377972,20.8437756 C69.8792702,20.8460796 70.0255779,20.8633601 70.0670509,20.8702722 C70.1396288,20.8817925 70.2075985,20.8979209 70.2755682,20.9163534 C70.3239534,20.9301777 70.4449164,20.9728028 70.4909976,20.9935393 C70.5439909,21.0131238 70.6188728,21.0499888 70.6845385,21.0903098 L70.6845385,21.0903098 L78.3052101,25.5187092 C78.3524433,25.3574251 78.3996765,25.1995971 78.4492138,25.0440732 L78.4492138,25.0440732 L78.7925184,23.9266051 C78.9584106,23.4312326 79.1323669,22.9439244 79.3178436,22.4612242 L79.3178436,22.4612242 L79.8604493,21.1340869 C80.0447739,20.7089882 80.2371627,20.2884976 80.4387678,19.8714631 L80.4387678,19.8714631 L80.8339137,19.0880834 C80.9076436,18.9394717 80.9825255,18.7908599 81.0608635,18.6445523 C81.280901,18.2309738 81.5078507,17.8220036 81.7451687,17.4164894 L81.7451687,17.4164894 L82.235933,16.608917 C82.3292474,16.4556972 82.4214097,16.3024773 82.5181801,16.1515615 C82.8015792,15.7068784 83.0953466,15.2691074 83.3983302,14.8359445 L83.3983302,14.8359445 L83.5377258,14.6377955 C83.8798784,14.1562474 84.2277911,13.6896756 84.582616,13.2323201 C85.0607081,12.6148326 85.5537765,12.0134735 86.0629733,11.4282427 C86.0767976,11.4121143 86.1401592,11.3441446 86.1562876,11.3280162 C86.2484499,11.2254856 86.3233318,11.1459956 86.3993657,11.0676577 L86.3993657,11.0676577 L86.5353051,10.9248061 C87.0583263,10.3418794 87.5859556,9.76125682 88.1400815,9.21289102 C88.3151899,9.04123871 88.4937544,8.87765059 88.6723189,8.71521451 L88.6723189,8.71521451 L89.0605527,8.35693349 C89.2011002,8.22675422 89.3404957,8.09542292 89.4833473,7.9675477 C90.4072745,7.13578278 91.3669147,6.35009902 92.334619,5.63238497 L92.334619,5.63238497 L92.8668564,5.2522154 C94.0304057,4.41929845 95.0902723,3.73038513 96.1086659,3.14054629 L96.1086659,3.14054629 C96.7849069,2.7511605 97.4427155,2.40670383 98.0855477,2.09104789 C98.2260952,2.02192615 98.3643387,1.95971659 98.5025822,1.89865905 L98.5025822,1.89865905 L98.9656978,1.68553369 C99.1914955,1.57954703 99.4172932,1.47356036 99.6361787,1.38255007 C99.7375572,1.339925 99.8343276,1.3042121 99.9322501,1.2684992 L99.9322501,1.2684992 L100.47716,1.06228602 C101.123448,0.82381602 101.652229,0.652163702 102.142994,0.518528341 C102.171794,0.510464138 102.229396,0.498943849 102.259349,0.493183704 C102.327318,0.472447182 102.447129,0.448254574 102.56694,0.425213994 L102.56694,0.425213994 L102.933286,0.344571966 C103.258158,0.267386024 103.581878,0.192504141 103.894078,0.145270953 C103.924031,0.140662837 104.023105,0.130294576 104.053058,0.127990518 C104.140612,0.116470229 104.241991,0.106101968 104.342217,0.0980377649 L104.342217,0.0980377649 L104.653265,0.0657809536 C104.876758,0.0392842871 105.100252,0.0127876207 105.316834,0.00357138885 C105.423972,-0.00218875603 105.529959,6.28794921e-05 105.633642,0.00357138885 Z" id="Fill-1" fill="#FFFFFF"></path>
                    <path d="M131.797372,79.582277 C131.360753,80.1836361 130.63843,80.7792351 129.651142,81.3483374 L99.133894,98.9663165 C98.3827711,99.4006314 97.9426961,99.5665236 97.7122903,99.6287332 C97.7099862,99.620669 97.7065301,99.6068446 97.7042261,99.5987804 C97.6915538,99.5538513 97.6777294,99.503162 97.6639051,99.4432565 C97.6581449,99.4179119 97.6523848,99.3868071 97.6466246,99.3591584 C97.6362564,99.3004049 97.6258881,99.2358913 97.6155198,99.1644655 C97.6097597,99.1252965 97.6039996,99.0838235 97.5993914,99.0411984 C97.5901752,98.9594043 97.582111,98.86609 97.5751988,98.7681675 C97.5717427,98.7209343 97.5671346,98.6771572 97.5636785,98.6253159 C97.5556143,98.4709441 97.5498542,98.3015958 97.5487022,98.1069029 L97.5487022,98.0965346 L97.5487022,98.0930786 L97.5475501,97.2302089 C97.5452461,96.6576505 97.5682867,96.0620515 97.6109117,95.4491721 C97.6178239,95.3443374 97.6293442,95.2360467 97.6420165,95.127756 L97.6431685,95.1150837 C97.6857936,94.6024308 97.7387869,94.0794096 97.8102127,93.54026 C97.8321013,93.3847361 97.860902,93.2165399 97.8850946,93.0575599 C97.9426961,92.6716302 98.0106658,92.2776363 98.0832436,91.8790343 C98.138541,91.5783547 98.1926864,91.2811312 98.2606561,90.9585631 C98.3217136,90.6555795 98.3965955,90.3422276 98.4668693,90.0311798 C98.5935924,89.4747498 98.7329879,88.9091036 98.8873598,88.330785 C98.9795221,87.9817202 99.0728365,87.6315034 99.1753671,87.2732224 C99.3550836,86.6465186 99.5555366,86.0025345 99.7652059,85.348182 C99.8562162,85.0636308 99.9380103,84.7871439 100.035933,84.4979846 C100.364261,83.521064 100.725998,82.5153427 101.119992,81.4831248 C101.322749,80.9508874 101.542787,80.4036736 101.761672,79.859916 C101.860747,79.6110777 101.948301,79.3737597 102.051983,79.1237694 C102.109585,78.9820699 102.176403,78.8311541 102.23746,78.6883025 C102.632606,77.7482468 103.061161,76.7690222 103.528885,75.7425644 L103.639479,75.4960302 C103.64524,75.4833579 103.651,75.4706856 103.65676,75.4580132 C104.136004,74.4119709 104.670545,73.303719 105.226975,72.1666664 C105.433188,71.7415678 105.652074,71.3049488 105.870959,70.8671778 L105.926257,70.755431 C106.352508,69.9017775 106.800647,69.0239314 107.309844,68.0389466 L108.049446,66.6196469 C108.74988,65.2902055 109.473354,63.9342674 110.25443,62.5103596 C111.619584,60.0196729 112.742812,57.9679093 113.650611,56.3020754 L113.694388,56.2237374 L113.841848,55.9495546 C114.642508,54.4795656 115.261148,53.3367528 115.715047,52.4854034 L115.732328,52.4554507 C115.732328,52.4542986 115.787625,52.3517681 115.787625,52.3517681 L115.853291,52.228501 C115.854443,52.2273489 115.913196,52.1144501 115.914348,52.1132981 L115.936237,52.069521 C116.219636,51.5395876 116.422393,51.1478978 116.549116,50.8956034 L116.550268,50.8944514 C116.550268,50.8932994 116.550268,50.8932994 116.55142,50.8932994 L116.55142,50.8921473 L116.55142,50.8909953 C116.695424,50.6075962 116.832515,50.3253491 116.971911,50.0396459 C117.045641,49.885274 117.114762,49.7320542 117.182732,49.5788343 L117.354384,49.2044249 L117.373969,49.1606478 C117.491476,48.9060494 117.611287,48.650299 117.723034,48.3980046 L117.736858,48.3680519 L117.898142,48.015531 C117.992608,47.7989495 118.077859,47.5869762 118.163109,47.3738509 L118.388906,46.8208769 C118.416555,46.7563633 118.443052,46.6895456 118.471852,46.6204239 C118.500653,46.5489981 118.530606,46.4775723 118.559407,46.4061465 C118.581295,46.3485451 118.602032,46.2990078 118.628528,46.2321901 C118.633136,46.2229739 118.679218,46.107771 118.683826,46.0985548 C118.826677,45.7252974 118.955705,45.3589522 119.082428,44.993759 L119.212607,44.6274138 C119.25408,44.515667 119.294401,44.4039202 119.356611,44.2242036 C119.57204,43.5825235 119.765581,42.9477555 119.945297,42.3003152 C120.040916,41.9535545 120.120406,41.613706 120.201048,41.2738574 L120.332379,40.7347079 C120.371548,40.580336 120.410717,40.42366 120.426846,40.34417 C120.437214,40.3061531 120.44643,40.26468 120.453342,40.223207 C120.573153,39.6564087 120.675684,39.0608098 120.771302,38.4283459 C120.787431,38.3200551 120.805863,38.2094604 120.821992,38.1011696 C120.827752,38.0631527 120.83236,38.0297438 120.83812,37.9917269 C120.842728,37.9663822 120.864617,37.8419631 120.868073,37.8177705 C120.90033,37.560868 120.922218,37.3097257 120.944107,37.0585834 L120.98558,36.6150522 C120.990188,36.5735792 120.993644,36.5321062 120.998252,36.4906331 C121.005164,36.406535 121.016684,36.3201328 121.021293,36.2371867 C121.022445,36.2291225 121.022445,36.2210583 121.023597,36.2129941 C121.06507,35.6058749 121.089262,35.0056678 121.086958,34.416981 C121.085806,33.9941863 121.07659,33.5886721 121.060462,33.1992863 C120.942955,30.4712817 120.439518,28.534721 119.527111,27.2997459 C119.404996,27.1373099 119.25408,26.9656575 119.074364,26.8009174 C119.052475,26.7801809 119.029434,26.7629004 119.006394,26.743316 C118.864694,26.6188968 118.70917,26.5002378 118.528302,26.3942512 C118.522542,26.3896431 118.516782,26.3827309 118.508717,26.3781228 C118.500653,26.3735147 118.490285,26.3735147 118.482221,26.3700586 C118.051362,26.1246764 117.51682,25.951872 116.849796,25.951872 C116.012271,25.951872 114.97314,26.2225989 113.698996,26.9587454 C111.320057,28.3331159 109.661135,30.3848795 108.77292,33.0575868 C108.170409,34.855904 107.868578,36.8880831 107.873186,39.0976747 L107.88125,41.5872093 C107.885858,43.324469 107.571354,44.1331933 107.30754,44.5018426 C106.881289,45.0951375 106.168183,45.6838243 105.185502,46.2494706 L98.973762,49.8368888 C98.2214871,50.2712037 97.8033006,50.4463121 97.6143678,50.520042 C97.5348778,50.3299572 97.4116107,49.8875781 97.4093067,48.9555866 L97.402275,46.0398013 C97.4000904,45.1734755 97.4311952,44.31867 97.4887967,43.4719287 C97.4991649,43.3164048 97.5141413,43.1631849 97.5302697,43.0088131 C97.5867191,42.3175957 97.6581449,41.6298344 97.7537633,40.9512893 C97.7963884,40.66213 97.8482297,40.3764269 97.900071,40.0907237 C98.0060577,39.4651719 98.1108923,38.8396202 98.2502878,38.2255888 C98.256048,38.2025482 98.2618081,38.1795076 98.2675682,38.156467 C98.8412787,35.6634763 99.6972362,33.267256 100.837745,30.9804785 L100.858481,30.9390055 C101.223675,30.2074671 101.622277,29.487449 102.045071,28.7766471 L102.16949,28.57389 C102.595741,27.8700003 103.046184,27.1764788 103.528885,26.4956297 C103.705145,26.2479435 103.892926,26.0117776 104.076098,25.7686994 C104.687826,24.9519109 105.328354,24.1397305 106.018419,23.3517426 L106.358268,22.9911576 C107.089806,22.1778251 107.857057,21.3967495 108.709559,20.5995454 L109.134658,20.2055515 C110.002135,19.4244759 110.905326,18.6848733 111.814277,18.0097843 L112.32117,17.6503512 C113.427118,16.8589073 114.424775,16.209163 115.371742,15.6619492 C115.535331,15.5674829 115.68855,15.4972091 115.849834,15.4073508 C116.308342,15.1550565 116.76685,14.9016101 117.210381,14.6850287 C117.324432,14.6285792 117.43733,14.579042 117.549077,14.5295047 L117.693081,14.4649911 C117.956895,14.341724 118.216102,14.2322813 118.475309,14.1239905 C118.658481,14.0445005 118.847414,13.9557943 119.024826,13.8855206 L119.275969,13.7910542 C120.972907,13.1562862 122.533907,12.8360222 123.94975,12.8348701 C124.000439,12.8348701 124.049977,12.8348701 124.099514,12.8360222 C125.015377,12.8509985 125.86903,13.0019143 126.661626,13.2853135 L126.787198,13.3302426 C126.827519,13.3440669 126.858623,13.3613474 126.895488,13.3751717 C127.269898,13.5249355 127.636243,13.6931317 127.981852,13.903953 C131.09233,15.811713 132.678674,19.9405848 132.696127,26.1776697 C132.714387,32.7327146 131.25707,38.9145021 128.41271,44.4638257 C125.481949,49.129543 122.550035,53.7848921 119.619273,58.4390892 L119.213759,59.0830734 C118.903863,59.585358 118.615856,60.0910987 118.322089,60.5945354 C118.310568,60.6129678 118.290984,60.6233361 118.281768,60.6429206 C118.273703,60.6567449 118.274855,60.6728734 118.266791,60.6890018 C114.937428,66.4272581 112.682907,72.2715011 111.579263,78.1226563 C111.52627,78.4809373 111.366138,79.5730607 112.194447,80.1375549 C112.219791,80.1548354 112.250896,80.1721158 112.280849,80.1893962 C112.284305,80.1917003 112.285457,80.1940044 112.286609,80.1951564 C112.291217,80.1986125 112.295825,80.1997645 112.301585,80.2032206 C112.324626,80.2158929 112.351122,80.2274132 112.377619,80.2400855 C112.391443,80.2469977 112.409876,80.2573659 112.422548,80.2619741 C112.426004,80.2642781 112.431765,80.2665822 112.436373,80.2677342 C112.465173,80.2792545 112.495126,80.2896228 112.525079,80.301143 C112.540055,80.3057512 112.556184,80.3126633 112.567704,80.3161194 C112.574616,80.3184235 112.586136,80.3207275 112.595353,80.3230316 C112.632218,80.3333999 112.671387,80.3426161 112.71286,80.3506803 C112.725532,80.3529844 112.739356,80.3575925 112.750877,80.3598965 C112.767005,80.3633526 112.795806,80.3656567 112.822302,80.3691128 C112.841887,80.3714168 112.861471,80.3737209 112.882208,80.3748729 C112.919073,80.377177 112.95709,80.379481 112.996259,80.379481 C113.013539,80.379481 113.041188,80.377177 113.06538,80.3760249 C113.083813,80.3748729 113.101093,80.3737209 113.120678,80.3725688 C113.149479,80.3702648 113.180583,80.3679607 113.200168,80.3656567 C113.230121,80.3622006 113.265833,80.3552884 113.299242,80.3483762 C113.30385,80.3472242 113.308459,80.3472242 113.313067,80.3460722 C113.325739,80.3437681 113.331499,80.3414641 113.343019,80.338008 C113.352236,80.3368559 113.361452,80.3333999 113.370668,80.3310958 C113.391405,80.3264877 113.419053,80.3218796 113.429422,80.3184235 C113.470895,80.3069032 113.578033,80.2700383 113.635635,80.2469977 C113.639091,80.2458457 113.642547,80.2446936 113.647155,80.2435416 C113.651763,80.2412375 113.662131,80.2377815 113.665588,80.2366294 C113.75199,80.1997645 113.847608,80.1525313 113.948987,80.0949299 L113.955899,80.0914738 L130.777826,70.3798695 L130.778978,70.3787175 C131.017448,70.240474 131.235181,70.1252711 131.437939,70.0227405 C131.503604,69.9881797 131.57503,69.9524668 131.631479,69.9248181 L131.634936,69.9294262 C131.753594,69.8729768 131.868797,69.8188314 131.971328,69.7785104 L131.969024,69.7715982 C132.023169,69.7485576 132.065794,69.7324292 132.106115,69.7174528 L132.111875,69.7301252 C132.1257,69.725517 132.136068,69.7209089 132.14874,69.7163008 C132.229382,69.9109937 132.349193,70.3499168 132.351498,71.2669318 L132.367626,76.6722518 C132.372234,78.4221838 132.061186,79.2205399 131.797372,79.582277 L131.797372,79.582277 Z M90.1261795,55.7329731 L90.3519771,55.2975062 C90.9233835,54.2238151 91.5201345,53.1201714 92.1433822,51.9854228 L92.9336741,50.5453866 L96.4876835,52.6109746 C96.6028864,52.6777923 96.7261535,52.7146572 96.8494206,52.7388498 C96.9335187,52.7711066 97.0014884,52.8194918 97.0936507,52.8436844 C97.7871722,52.9611914 98.6673223,52.6731841 100.125791,51.833355 L106.337531,48.2459368 C107.604763,47.5143984 108.560947,46.7068261 109.180739,45.8428043 C109.86274,44.8889244 110.191068,43.4938173 110.185308,41.5802971 L110.177244,39.0919145 C110.172636,37.1334653 110.434146,35.3489724 110.958319,33.7868211 C111.673729,31.633679 112.947873,30.0530952 114.851025,28.9540596 C116.337143,28.095798 117.027208,28.1798961 117.376273,28.3941735 C117.483412,28.4609912 117.58479,28.5496974 117.6758,28.6729645 C117.739162,28.7570626 117.803676,28.8561371 117.867037,28.9690359 C118.316329,29.767392 118.774836,31.3376075 118.782946,34.4238931 C118.784052,34.9699549 118.763316,35.5263849 118.721843,36.0920311 L118.69189,36.407687 C118.653873,36.8523702 118.604336,37.3028135 118.540974,37.759017 C118.519086,37.9226051 118.492589,38.074673 118.469548,38.2313489 C118.195365,39.9697606 117.748378,41.7807502 117.110154,43.6666216 L117.109002,43.6689257 C116.898181,44.2898693 116.665471,44.9200291 116.416633,45.5559491 L116.225396,46.0236729 C116.029551,46.5086771 115.82449,46.9959854 115.605604,47.4902058 C115.499618,47.7286758 115.385567,47.97521 115.245019,48.2770416 C115.006549,48.7908465 114.768079,49.3058034 114.505417,49.8299766 C114.499657,49.8403449 114.495048,49.8507132 114.49044,49.8622334 L113.882169,51.0269347 L113.883321,51.0269347 C113.863737,51.0637997 113.846456,51.0949044 113.82572,51.1340734 L111.669121,55.1223977 C111.620736,55.211104 111.570047,55.3055704 111.52051,55.3954286 L108.366254,61.1601816 C108.321325,61.2419757 108.2787,61.3180096 108.233771,61.4021077 C105.582952,66.2348693 103.381425,70.5549779 101.648773,74.3140485 C101.615364,74.3866263 101.5785,74.4649643 101.543939,74.5375421 L101.535874,74.5548225 C100.941427,75.8531592 100.401126,77.0846781 99.9218819,78.2436193 C99.7456214,78.6721741 99.5912495,79.0834484 99.4242053,79.505091 C99.2732895,79.8898687 99.1108535,80.2838626 98.9668498,80.6628801 C98.9633937,80.6709443 98.9610897,80.6790086 98.9576336,80.6859207 C98.5578795,81.7388752 98.1834701,82.7699411 97.8482297,83.7722064 C97.8436216,83.7848787 97.8378614,83.799855 97.8344053,83.8125274 L97.6454726,84.4023662 C97.5982394,84.5463698 97.5613745,84.6823092 97.5164453,84.8251608 C97.3263606,85.4230639 97.1385798,86.0175108 96.9726877,86.5958294 C96.9600154,86.6419105 96.9427349,86.6902957 96.9300626,86.7352249 C96.8597888,86.9840631 96.7941232,87.2282933 96.7307616,87.4725234 L96.6823764,87.6522399 C96.6420554,87.7973956 96.6074945,87.9425512 96.5694775,88.0865549 C96.4657949,88.489765 96.3678725,88.887215 96.2768622,89.2789049 C96.2446054,89.4194524 96.2100445,89.5542398 96.1777877,89.6993954 C96.1190342,89.9539938 96.0602807,90.2097443 96.0095914,90.4597346 C95.993463,90.5380725 95.9819428,90.6060422 95.9658143,90.6832282 C95.9162771,90.9263063 95.8725,91.1670804 95.8275709,91.4067024 C95.7238883,91.9700445 95.6317259,92.5114982 95.5603001,93.0241511 C95.5487799,93.100185 95.5338035,93.179675 95.5245872,93.2545569 C95.5222832,93.2718373 95.5188271,93.2902698 95.516523,93.3075502 C95.4600736,93.736105 95.4220567,94.1508354 95.3759755,94.6427518 L95.3517829,94.8777657 C95.3402626,94.9826003 95.3321984,95.0828268 95.3229822,95.1830534 C95.3195261,95.2210703 95.3137659,95.2602393 95.3114619,95.2982563 C95.3114619,95.3017123 95.3103099,95.3040164 95.3103099,95.3074725 C95.2653807,95.9698892 95.2411881,96.6138733 95.2423401,97.235969 L95.2423401,97.237121 L95.2423401,97.2382731 L95.2446442,98.1045988 C95.2446442,98.1840888 95.2538604,98.2451464 95.2561645,98.3234843 L90.2390783,95.407699 L90.1261795,55.7329731 Z M87.3670701,106.220643 C86.9465795,106.816242 86.2346256,107.406081 85.2519449,107.974031 L77.9123683,112.211194 C77.1796778,112.632836 76.7453629,112.796424 76.5126531,112.857482 C76.4389232,112.620164 76.350217,112.1582 76.3479129,111.317219 L76.2073654,61.6336655 L76.2073654,61.6325135 L76.2073654,61.6313615 C76.2062133,61.3790671 76.1762606,61.1532694 76.1290274,60.9436002 C76.114051,60.8825426 76.0921625,60.8330054 76.074882,60.776556 C76.0357131,60.6475287 75.9907839,60.5242616 75.9320305,60.4136668 C75.8986216,60.3514573 75.8594526,60.30192 75.8214357,60.2489267 C75.7695944,60.1740448 75.7189051,60.0991629 75.6578476,60.0358013 C75.556469,59.9332708 75.4550905,59.8526287 75.3537119,59.7915712 C75.3433436,59.784659 75.3364315,59.7765948 75.3260632,59.7696826 C75.3249112,59.7696826 75.3237592,59.7696826 75.3237592,59.7685306 C75.3226071,59.7673786 75.3203031,59.7662266 75.319151,59.7650745 C74.9136368,59.5335167 74.2258755,59.3745367 73.250107,59.9390309 L64.6962918,64.8777791 C63.9509291,65.3074859 63.5154621,65.471074 63.2862084,65.5344356 C63.271232,65.4837464 63.2527995,65.4169287 63.2355191,65.3397427 C63.232063,65.3213103 63.2274549,65.2982697 63.2251508,65.2786852 C63.2113265,65.2130195 63.1986542,65.1381377 63.1871339,65.0551916 C63.1825258,65.0217827 63.1790697,64.9872219 63.1744616,64.9503569 C63.1640933,64.8628027 63.1548771,64.7614242 63.1468129,64.6531335 C63.1433568,64.6105084 63.1399007,64.5724914 63.1375966,64.5264103 C63.1295324,64.3674303 63.1226203,64.1923219 63.1226203,63.9895648 L63.1076439,59.0266239 C63.1076439,59.0116476 63.1087959,58.9989753 63.1087959,58.9851509 C63.1087959,58.7570492 63.1145561,58.5542921 63.1249243,58.3699674 C63.1352926,58.1706664 63.151421,57.9828857 63.1733095,57.8100813 C63.2090224,57.5255302 63.2574077,57.2939724 63.3046408,57.1384485 C63.3080969,57.1280802 63.311553,57.1107998 63.3150091,57.1004315 C63.3749146,56.9368434 63.4544046,56.7870796 63.5304385,56.6373159 C63.5638474,56.5739543 63.5868879,56.5048325 63.6202968,56.444927 C63.6398813,56.4115182 63.6663779,56.3838695 63.6871145,56.3504606 C63.786189,56.1914806 63.8921756,56.0336527 64.0304191,55.8689125 C64.1006929,55.7871185 64.183639,55.7145406 64.264281,55.6408108 L64.3541392,55.5578647 C64.4797104,55.4392057 64.6006734,55.3412833 64.7181804,55.2479689 C64.8564239,55.1477424 64.9923633,55.0440598 65.1478872,54.9542015 C65.1501913,54.9518975 65.1547994,54.9495934 65.1582555,54.9472893 L65.1582555,54.9461373 L67.5083946,53.5901992 C68.0095272,53.3010399 68.5106598,52.9646475 69.0129444,52.6040624 L69.1120189,52.5314846 C69.3827457,52.3333356 69.6546246,52.1282744 69.9276554,51.9093889 C69.9345676,51.9036288 69.9426318,51.8967166 69.949544,51.8909565 C70.0716591,51.793034 70.1914701,51.6893514 70.3135851,51.5868208 C70.3331696,51.5695404 70.346994,51.5580201 70.3700346,51.5395876 C70.624633,51.3241582 70.8792314,51.0995126 71.1338298,50.8656507 C71.1476541,50.8541304 71.1603264,50.840306 71.1729988,50.8287858 C71.2939618,50.7158869 71.4160769,50.6029881 71.5370399,50.4866331 C71.5531683,50.4705047 71.5681447,50.4578324 71.5831211,50.442856 L71.8319593,50.2089942 C72.1049902,49.9394194 72.3791731,49.6583243 72.6464438,49.3703171 C72.9482754,49.050053 73.2420428,48.7251808 73.53005,48.3957006 L73.68903,48.2010077 C73.6982463,48.1894874 73.7074625,48.1779671 73.7178308,48.1664468 C73.8802668,47.97521 74.0357908,47.7816691 74.1936187,47.5881282 C74.2189634,47.5570235 74.2396999,47.5316788 74.2661966,47.49827 L74.403288,47.3335298 C74.4989064,47.219479 74.5933728,47.1065801 74.6763189,46.9982894 L74.8744679,46.7298667 C74.9723903,46.6019914 75.0668567,46.4729642 75.1613231,46.3427849 L75.316847,46.1331156 C75.397489,46.0248249 75.4792831,45.9165342 75.5518609,45.8128516 L75.8790371,45.3255433 C75.953919,45.2137965 76.0311049,45.1020497 76.1036828,44.9891509 L76.2684229,44.7437687 C76.4792442,44.4131364 76.6831533,44.0802 76.8801503,43.7426555 L76.9377517,43.642429 C76.9389038,43.6389729 76.9412078,43.6366689 76.9423599,43.6343648 L76.9423599,43.6332128 L76.9446639,43.6297567 C76.9504241,43.6205405 76.949272,43.6101722 76.9538802,43.602108 C76.9607923,43.5871316 76.9734646,43.5767633 76.9803768,43.561787 L79.1899684,38.9732556 C79.1911204,38.9721035 79.1922725,38.9721035 79.1922725,38.9709515 C79.1934245,38.9686474 79.1945765,38.9674954 79.1945765,38.9651914 C79.2429617,38.8638128 79.3074754,38.7555221 79.3973336,38.6357111 C79.4019417,38.6287989 79.4065498,38.6218867 79.411158,38.6161266 C79.4998642,38.5009237 79.6035468,38.3880248 79.7187497,38.275126 C79.8051519,38.1910279 79.9088345,38.1103859 80.050534,37.996335 L80.2279465,37.8477233 C80.4318556,37.7002635 80.6553493,37.5551079 80.9007314,37.4122563 C80.9064916,37.4088002 80.9110997,37.4053441 80.9168598,37.401888 L86.1885444,34.3582275 C86.1885444,34.3582275 86.1896965,34.3582275 86.1896965,34.3582275 C86.5330011,34.1589265 86.8313766,34.0137708 87.1044075,33.8951118 C87.244955,33.8340543 87.3774383,33.7799089 87.5698272,33.7165473 C87.5813475,33.7142433 87.5824995,33.7142433 87.5928677,33.7119392 C87.6689017,33.9481052 87.761064,34.4077647 87.763368,35.2464418 L87.8209695,55.290594 C87.7702802,55.4979592 87.759912,55.7087805 87.8221215,55.9057775 L87.9569584,103.291033 C87.961517,105.032901 87.643557,105.839321 87.3670701,106.220643 L87.3670701,106.220643 Z M61.9671352,67.5262937 C61.9671352,67.5262937 61.9682872,67.5262937 61.9682872,67.5274458 C62.0109123,67.5573985 62.0454732,67.5988716 62.0915543,67.6265203 C62.1053787,67.6334324 62.1203551,67.6357365 62.1341794,67.6438007 C62.2067572,67.6841217 62.2827911,67.7083143 62.3599771,67.737115 C62.3668893,67.7394191 62.3761055,67.7440272 62.3841697,67.7463313 C63.5673035,68.172582 65.1133263,67.298192 65.8483208,66.8730933 L73.9044595,62.2212003 L74.043855,111.173216 L74.043855,111.324131 C74.043855,111.402469 74.0530712,111.463527 74.0553753,111.539561 L58.4511428,102.471941 C58.3785649,102.302592 58.2391694,101.842933 58.2357134,100.79113 L58.142399,65.3040298 L61.9671352,67.5262937 Z M45.0104207,53.4646281 L44.9954443,48.5074474 C44.9954443,48.5051433 44.9965964,48.5028393 44.9965964,48.5016872 C44.9954443,48.0500919 45.0173329,47.6399695 45.063414,47.2574959 C45.0818465,47.1169484 45.1037351,46.9856171 45.1302317,46.8600459 C45.1440561,46.7920762 45.1601845,46.7275626 45.1751609,46.6734172 L45.4712323,45.9821999 C45.4896648,45.9557032 45.5057932,45.9292065 45.5207695,45.9015578 L45.9424121,45.3163271 C45.9896453,45.2610297 46.0403346,45.2080364 46.09448,45.151587 C46.1463213,45.11357 46.2119869,45.0617287 46.2430917,45.0317759 C46.5264908,44.7691133 46.7810892,44.5755725 47.0472079,44.4223526 C47.04836,44.4223526 47.04836,44.4212006 47.049512,44.4212006 L49.395043,43.0664145 C49.396195,43.0652625 49.397347,43.0652625 49.3984991,43.0652625 C49.8028612,42.8314006 50.2072234,42.56989 50.6138896,42.2876429 L50.9963633,42.0088519 C51.2705462,41.8095509 51.543577,41.6033377 51.820064,41.3809961 L52.2624431,41.0123468 C52.5158895,40.7969174 52.7693359,40.5722718 53.0216302,40.340714 C53.1690899,40.2036225 53.3177017,40.0665311 53.4651614,39.9248315 C53.8234424,39.5792228 54.1805714,39.2255499 54.5365483,38.8453803 C54.8971334,38.4617547 55.24159,38.0689128 55.5791345,37.6749189 C55.756547,37.4664017 55.9270473,37.2567324 56.1609092,36.9664211 L56.2415512,36.8661946 C56.4108995,36.6588293 56.5779437,36.4503121 56.7369237,36.2417949 L57.0871405,35.7671589 C57.3152422,35.4572631 57.5364318,35.1427592 57.7472531,34.8305594 L57.9960913,34.459606 C58.2864026,34.0149228 58.5674977,33.5656315 58.8313123,33.1094281 C58.8370725,33.0990598 58.8370725,33.0875395 58.8428326,33.0771713 C58.8508968,33.0633469 58.8612651,33.0518266 58.8693293,33.0368502 L61.0892891,28.4264303 L60.0950881,27.8411996 L61.1584109,28.297403 L60.1596017,27.7213886 L61.2402049,28.1695278 L60.32895,27.4644861 L61.3162388,28.0669972 L61.4107052,27.9540984 C61.4602425,27.896497 61.5120838,27.8388955 61.5063236,27.8388955 L61.5051716,27.8388955 C61.5351243,27.8158549 61.5800535,27.7766859 61.6065501,27.7501893 C61.6975604,27.6626351 61.8081552,27.5773849 61.9475507,27.4656381 C61.960223,27.4564219 62.1099868,27.3308507 62.1215071,27.3216345 C62.3265682,27.1707187 62.553518,27.022107 62.8046603,26.8769513 C62.8046603,26.8769513 62.8058123,26.8769513 62.8058123,26.8769513 L68.0774969,23.8332908 L68.0774969,23.8321387 L68.0786489,23.8321387 C68.4208015,23.6351418 68.719177,23.4888341 68.9910559,23.3713271 C69.034833,23.3517426 69.0855222,23.326398 69.0866743,23.3217899 C69.194965,23.2768608 69.2917354,23.24806 69.4783641,23.1835464 C69.5244453,23.1720261 69.5670704,23.1605058 69.631584,23.1420734 L85.2692253,32.23043 C85.1931914,32.2742071 85.1137014,32.3191362 85.0514918,32.3536971 C85.0457317,32.3571532 85.0411236,32.3606092 85.0353634,32.3629133 L85.0353634,32.3640653 L79.7648309,35.4065739 C79.6761246,35.4572631 79.6046988,35.5137125 79.5206007,35.5655539 C79.294803,35.7049494 79.0667013,35.8443449 78.8697043,35.9871965 C78.8662483,35.9895005 78.8639442,35.9929566 78.8604881,35.9952607 C78.8385996,36.010237 78.8224712,36.0263654 78.8005826,36.0424938 C78.7591096,36.0759027 78.7164845,36.1093115 78.6761635,36.1438724 L78.6784675,36.1461765 C78.6404506,36.1749772 78.6081938,36.206082 78.5724809,36.2360347 L78.5690248,36.2325786 C78.4088928,36.3604538 78.2522168,36.4894811 78.1151254,36.6208124 C78.1139733,36.6208124 78.1139733,36.6219644 78.1139733,36.6219644 C78.098997,36.6380928 78.0851726,36.6530692 78.0690442,36.6680456 C77.8778074,36.8581304 77.7073071,37.0470631 77.6186009,37.1726343 C77.5944083,37.1979789 77.5609994,37.241756 77.5391109,37.2694047 C77.5333507,37.2763169 77.5321987,37.2832291 77.5275906,37.2901412 C77.3904991,37.4756179 77.2856645,37.6668547 77.18659,37.8592435 C77.1623974,37.9064767 77.1232284,37.9548619 77.1013399,38.0009431 L76.2073654,39.8741422 C76.2062133,39.8752942 76.154372,39.9824329 76.15322,39.9824329 L74.9320693,42.5053764 C74.6924473,42.9212589 74.4343928,43.3336852 74.1671221,43.7426555 L73.9632129,44.0456391 C73.7569997,44.3509268 73.5427224,44.6550625 73.3215328,44.955742 L73.0312215,45.3485839 C72.8457448,45.5928141 72.6487479,45.8335881 72.454055,46.0755142 L72.4321664,46.1020109 C72.2731864,46.2990078 72.1142064,46.4971568 71.9471622,46.6918497 C71.6292022,47.0639551 71.3054821,47.4326043 70.9656335,47.7943414 C70.6326972,48.1514704 70.2986088,48.4821027 69.9633683,48.8035188 C69.8389492,48.9233298 69.713378,49.0396848 69.5889589,49.1537356 C69.3781376,49.3484285 69.1684683,49.5327532 68.957647,49.7136217 C68.9069578,49.7562468 68.8654847,49.7942637 68.8101873,49.8403449 C68.7042007,49.9302032 68.600518,50.0189094 68.4945314,50.1041595 C68.2456931,50.3057646 67.9957028,50.4935453 67.7468646,50.6744139 L67.4150802,50.917492 C67.2687726,51.0188705 67.1224649,51.1041207 66.9761572,51.197435 C66.769944,51.3333744 66.5625788,51.475074 66.3563656,51.594885 C66.3552136,51.594885 66.3552136,51.5960371 66.3540615,51.5960371 L64.0062265,52.9508231 C64.0062265,52.9519752 64.0050745,52.9519752 64.0039224,52.9519752 C63.7643004,53.0902186 63.5304385,53.2572628 63.2862084,53.4496517 C63.1099479,53.583287 62.9452078,53.7261386 62.7873798,53.8747504 C62.7574271,53.901247 62.7355385,53.9162234 62.7044337,53.9438721 C62.5880788,54.0510108 62.4728759,54.1708218 62.356521,54.298697 C62.2666627,54.4000756 62.1871727,54.5095183 62.1042267,54.616657 C61.9337264,54.8355425 61.7632261,55.054428 61.6284387,55.2894419 C61.4441141,55.6062499 61.2851341,55.9449464 61.1422825,56.3343322 L61.1422825,56.3343322 C61.1422825,56.3354843 61.1411304,56.3366363 61.1411304,56.3377883 C61.1296101,56.3700451 61.122698,56.4080621 61.1134817,56.4414709 C60.9049645,57.1084957 60.8012819,57.9494769 60.8035859,59.0151037 L60.8035859,59.0312321 L60.8035859,59.0323841 L60.8185623,63.996477 C60.8185623,64.0632946 60.8197143,64.1289603 60.8208664,64.1946259 L45.22009,55.1281579 C45.1509682,54.973786 45.0138768,54.5337109 45.0104207,53.4646281 L45.0104207,53.4646281 Z M90.1123551,50.8967555 L90.107747,48.9025933 L90.9395119,49.3875975 L90.1227234,50.877171 C90.1192673,50.8829311 90.1158112,50.8898433 90.1123551,50.8967555 L90.1123551,50.8967555 Z M80.5078895,26.1972542 C80.5516666,26.0417303 80.6000519,25.8885105 80.6472851,25.7352906 L80.9790694,24.6523834 C81.1322893,24.1938758 81.2947253,23.7399764 81.4698337,23.2837729 L81.9744224,22.0511019 C82.1460747,21.655956 82.3257913,21.2631141 82.513572,20.8748803 L83.0953466,19.7263075 C83.2992558,19.3403778 83.5123811,18.9579041 83.7335707,18.5788866 L84.4593489,17.3899927 C84.7254676,16.9775663 84.9984985,16.566292 85.2899618,16.1527136 L85.416685,15.971845 C85.7392531,15.5202497 86.0664294,15.0778705 86.4039738,14.6435556 C86.8555692,14.0594769 87.323293,13.4915266 87.8048411,12.9362487 C87.8186654,12.9224243 87.8912433,12.8452384 87.9027635,12.831414 L88.2472202,12.4662209 C88.7414406,11.916703 89.2379651,11.3683372 89.7575302,10.8533803 C89.909598,10.7036165 90.0651219,10.563069 90.2217979,10.4202174 L91.02361,9.68061479 C91.8945439,8.89608305 92.7977347,8.15648045 93.7078376,7.4825435 L94.2101222,7.12426249 C95.3091578,6.3374267 96.3068149,5.68768236 97.2606949,5.13701251 C97.2618469,5.13586048 97.2618469,5.13586048 97.2618469,5.13586048 C97.8897027,4.77297135 98.5014301,4.45270729 99.1016372,4.15893991 C99.2156881,4.10249049 99.3262829,4.05295324 99.4380297,4.00341599 L99.9483785,3.76955411 C100.140767,3.67854382 100.333156,3.58753353 100.518633,3.51034759 L101.275516,3.22349238 C101.775496,3.03916774 102.268565,2.87212354 102.682143,2.75692064 C102.709792,2.75231253 102.768545,2.73964021 102.796194,2.73272803 C102.86762,2.71314354 102.936742,2.70047122 103.005863,2.68664687 L103.460915,2.58757238 C103.72473,2.52536282 103.987392,2.46200122 104.221254,2.42628833 C104.247751,2.42398427 104.338761,2.41476804 104.365258,2.41131195 L104.923992,2.35255847 C105.091036,2.33297398 105.25808,2.31223746 105.42282,2.30532528 L105.761517,2.3099334 C105.87672,2.30762934 105.994227,2.30878137 106.109429,2.31223746 L106.417021,2.31338949 C106.703876,2.33182195 106.986124,2.36407876 107.268371,2.41131195 C107.293715,2.41822412 107.320212,2.42283224 107.338644,2.42628833 C107.601307,2.47352151 107.861666,2.53112296 108.115112,2.60485282 C108.163497,2.61867716 108.209578,2.63710963 108.255659,2.65554209 L108.890427,2.87903571 C109.149634,2.98732644 109.401928,3.11059354 109.739473,3.30183035 L122.35419,10.6321907 C122.28622,10.6379509 122.220555,10.6460151 122.151433,10.6552313 C122.100744,10.6621435 122.046598,10.6782719 121.994757,10.6863361 C121.500537,10.76237 120.995948,10.8625965 120.479839,10.9939278 C120.424542,11.0066001 120.370396,11.0158164 120.312795,11.0307927 C120.125014,11.081482 119.924561,11.1436916 119.72526,11.2047491 C119.668811,11.2220296 119.611209,11.238158 119.552456,11.2554384 C119.419972,11.2992155 119.274817,11.3499048 119.135421,11.397138 C118.860086,11.4904523 118.581295,11.5883748 118.3002,11.6966655 L118.191909,11.7369865 C118.175781,11.7438987 118.157349,11.7531149 118.14122,11.7600271 C116.885509,12.2507914 115.58026,12.8809513 114.219713,13.666635 C109.276357,16.5213628 105.048411,20.3875721 101.651077,25.1604281 C101.182202,25.8216928 100.71563,26.5336467 100.224865,27.3377629 L100.206433,27.3677157 C100.1592,27.4460536 100.109663,27.5232396 100.063581,27.6015775 L100.035933,27.6465067 C99.6200503,28.3434842 99.2260563,29.0623503 98.8643193,29.7766082 L98.8101739,29.8825949 C98.7951975,29.9148517 98.7779171,29.9459565 98.7617887,29.9782133 L98.7122514,30.0749838 C98.3631866,30.7834816 98.0290982,31.5219321 97.7203545,32.273055 L97.5855671,32.6036874 C97.30332,33.3110331 97.0348972,34.061004 96.787211,34.8317114 L96.7399778,34.9872353 C96.7307616,35.016036 96.7226974,35.0459888 96.7123291,35.0759415 L96.6362952,35.3236278 C96.4473625,35.9480275 96.2791662,36.5793393 96.1259464,37.2141073 L96.070649,37.4329928 C96.0602807,37.4744659 96.0522165,37.5159389 96.0406962,37.557412 C96.0268719,37.6196215 96.0107435,37.6818311 95.9969191,37.7440406 C95.9865509,37.7866657 95.9738785,37.8304428 95.9646623,37.8730679 C95.8989967,38.1679873 95.8460033,38.4663628 95.794162,38.7658903 L95.6973916,39.3004318 C95.6766551,39.4133306 95.6605267,39.5273815 95.6397901,39.6402803 C95.5833407,39.9720647 95.5188271,40.302697 95.4715939,40.6379374 C95.4669858,40.6678902 95.4612257,40.6966909 95.4566175,40.7254916 C95.3782796,41.3015061 95.3206781,41.8867368 95.2688368,42.4685115 L95.2400361,42.7611268 C95.237732,42.7761032 95.237732,42.7922316 95.235428,42.80836 C95.2216036,42.9731002 95.2008671,43.1366883 95.1904988,43.3025805 C95.1893468,43.3141007 95.1881948,43.325621 95.1870428,43.3371413 C95.1870428,43.3417494 95.1893468,43.3452055 95.1881948,43.3498136 C95.1294413,44.23918 95.0960325,45.1377626 95.0983365,46.0467135 L95.1052487,48.9624988 C95.1052487,49.010884 95.1075528,49.0834619 95.1075528,49.1433674 L90.0996828,46.2321901 L90.067426,35.2395297 C90.0628179,33.6197769 89.7817228,32.5645184 89.1688434,31.9067098 C89.0962656,31.8306759 89.0098634,31.7903549 88.9303734,31.7327534 C88.8842922,31.6947365 88.8520354,31.6463513 88.7990421,31.6152465 L88.7978901,31.6152465 C88.796738,31.6152465 88.796738,31.6140945 88.795586,31.6140945 L80.3765582,26.7225794 C80.4180313,26.545167 80.4595043,26.3677545 80.5078895,26.1972542 L80.5078895,26.1972542 Z M129.739848,68.3188897 C129.702983,68.3396262 129.663814,68.3615147 129.624645,68.3845553 L129.624645,68.3845553 L114.083774,77.355405 C115.134424,72.4880825 117.035272,67.5942634 119.728716,62.7638059 L129.739848,68.3188897 Z M133.595689,67.9064633 C133.588777,67.8972471 133.578408,67.8914869 133.570344,67.8822707 C133.521959,67.8212132 133.453989,67.777436 133.392932,67.7267468 C133.343394,67.6852737 133.30653,67.6334324 133.248928,67.6011756 C133.239712,67.5954155 133.215519,67.5838952 133.198239,67.5746789 C133.195935,67.5735269 133.194783,67.5712229 133.192479,67.5700708 C133.190175,67.5689188 133.189023,67.5700708 133.186719,67.5689188 C133.131421,67.5401181 133.064603,67.5078613 133.035803,67.495189 C133.030043,67.4928849 133.024282,67.4940369 133.019674,67.4917329 C133.013914,67.4894288 133.010458,67.4848207 133.004698,67.4825166 C132.993178,67.4779085 132.964377,67.4675403 132.939032,67.4594761 L120.889961,60.7730999 C120.98558,60.6164239 121.071982,60.458596 121.168752,60.30192 L121.568506,59.6671521 C124.50042,55.011803 127.431182,50.3564539 130.412633,45.6031823 C133.475878,39.6368243 135.019597,33.0979078 135.000196,26.1707576 C134.980428,19.0811712 133.02313,14.2933388 129.183418,11.9385916 C129.133881,11.9074868 129.082039,11.8832942 129.032502,11.8544935 C129.023286,11.8487333 129.017526,11.8395171 129.008309,11.8337569 C129.003701,11.8314529 129.000245,11.8291488 128.996789,11.8279968 L110.882286,1.30075602 C110.877677,1.29845196 110.779755,1.24200254 110.775147,1.23969848 C110.452579,1.0576779 110.121946,0.896393845 109.779794,0.753542252 C109.707216,0.72243747 109.633486,0.697092832 109.496395,0.651011673 C109.390408,0.611842688 109.283269,0.573825732 109.176131,0.539264863 L109.068992,0.498943849 C108.966461,0.459774863 108.862779,0.422909936 108.759096,0.392957183 C108.428464,0.296186749 108.089767,0.220152836 107.817888,0.175223706 C107.778719,0.163703417 107.73379,0.154487185 107.694621,0.147575011 C107.325972,0.0830613882 106.946955,0.0381322581 106.563329,0.0139396496 C106.471167,0.00817950476 106.375548,0.00702747578 106.178551,0.00933153373 C106.034548,0.00472341783 105.889392,0.00472341783 105.633642,0.00357138885 C105.529959,6.28794919e-05 105.423972,-0.00218875603 105.316834,0.00357138885 C105.100252,0.0127876207 104.876758,0.0392842871 104.653265,0.0657809536 L104.342217,0.0980377649 C104.241991,0.106101968 104.140612,0.116470229 104.053058,0.127990518 C104.023105,0.130294576 103.924031,0.140662837 103.894078,0.145270953 C103.581878,0.192504141 103.258158,0.267386024 102.933286,0.344571966 L102.56694,0.425213994 C102.447129,0.448254574 102.327318,0.472447182 102.259349,0.493183704 C102.229396,0.498943849 102.171794,0.510464138 102.142994,0.518528341 C101.652229,0.652163702 101.123448,0.82381602 100.47716,1.06228602 L99.9322501,1.2684992 C99.8343276,1.3042121 99.7375572,1.339925 99.6361787,1.38255007 C99.4172932,1.47356036 99.1914955,1.57954703 98.9656978,1.68553369 L98.5025822,1.89865905 C98.3643387,1.95971659 98.2260952,2.02192615 98.0855477,2.09104789 C97.4427155,2.40670383 96.7849069,2.7511605 96.11097,3.14054629 C96.11097,3.14054629 96.109818,3.14054629 96.1086659,3.14054629 C95.0902723,3.73038513 94.0304057,4.41929845 92.8668564,5.2522154 L92.334619,5.63238497 C91.3669147,6.35009902 90.4072745,7.13578278 89.4833473,7.9675477 C89.3404957,8.09542292 89.2011002,8.22675422 89.0605527,8.35693349 L88.6723189,8.71521451 C88.4937544,8.87765059 88.3151899,9.04123871 88.1400815,9.21289102 C87.5859556,9.76125682 87.0583263,10.3418794 86.5353051,10.9248061 L86.3993657,11.0676577 C86.3233318,11.1459956 86.2484499,11.2254856 86.1562876,11.3280162 C86.1401592,11.3441446 86.0767976,11.4121143 86.0629733,11.4282427 C85.5537765,12.0134735 85.0607081,12.6148326 84.582616,13.2323201 C84.2277911,13.6896756 83.8798784,14.1562474 83.5377258,14.6377955 L83.3983302,14.8359445 C83.0953466,15.2691074 82.8015792,15.7068784 82.5181801,16.1515615 C82.4214097,16.3024773 82.3292474,16.4556972 82.235933,16.608917 L81.7451687,17.4164894 C81.5078507,17.8220036 81.280901,18.2309738 81.0608635,18.6445523 C80.9825255,18.7908599 80.9076436,18.9394717 80.8339137,19.0880834 L80.4387678,19.8714631 C80.2371627,20.2884976 80.0447739,20.7089882 79.8604493,21.1340869 L79.3178436,22.4612242 C79.1323669,22.9439244 78.9584106,23.4312326 78.7925184,23.9266051 L78.4492138,25.0440732 C78.3996765,25.1995971 78.3524433,25.3574251 78.3052101,25.5187092 L70.6845385,21.0903098 C70.6188728,21.0499888 70.5439909,21.0131238 70.4909976,20.9935393 C70.4449164,20.9728028 70.3239534,20.9301777 70.2755682,20.9163534 C70.2075985,20.8979209 70.1396288,20.8817925 70.0670509,20.8702722 C70.0255779,20.8633601 69.8792702,20.8460796 69.8377972,20.8437756 L69.7018578,20.8414715 C69.673057,20.8426235 69.6143035,20.8414715 69.5866549,20.8426235 C69.4875804,20.8472317 69.3862018,20.8564479 69.2871273,20.8725763 C69.156948,20.8921608 69.0198566,20.9209615 68.8412921,20.9716508 C68.8309238,20.9739548 68.7203291,21.0131238 68.7099608,21.0154279 C68.5498288,21.0649651 68.3873927,21.1168064 68.2053721,21.1928403 C68.1581389,21.2124248 68.0982334,21.2412256 68.0774969,21.2562019 C67.7318882,21.4048137 67.3563268,21.5879863 66.9243159,21.8379766 L61.6537833,24.8816371 C61.6537833,24.8816371 61.6537833,24.8816371 61.6526313,24.8816371 C61.323151,25.0717219 61.0270796,25.2664148 60.7632649,25.4599557 C60.688383,25.512949 60.6238694,25.5682464 60.4787138,25.6903615 C60.3105175,25.8239968 60.1457774,25.9599362 60.0708955,26.0371222 C60.0397907,26.0613148 59.9937096,26.1027878 59.9637568,26.1304365 C59.8589222,26.2341191 59.7598477,26.3401058 59.6769016,26.4357242 C59.6100839,26.5106061 59.5478744,26.58664 59.4614722,26.7006909 C59.4487999,26.7156673 59.4372796,26.7317957 59.4269113,26.746772 C59.4015667,26.7813329 59.3658538,26.8297181 59.3566375,26.8412384 L56.8233258,31.9769836 C56.5848558,32.390562 56.3291054,32.7972282 56.0687468,33.1969823 L55.837189,33.5402869 C55.6424961,33.8329023 55.4362829,34.1220615 55.2289177,34.4054607 L54.9051976,34.8443837 C54.7577379,35.0367726 54.603366,35.2280094 54.4489941,35.4180941 L54.3038385,35.5989627 C54.1483145,35.7925036 53.9916386,35.9860444 53.8280505,36.1761292 C53.5135466,36.5436265 53.1944346,36.9099717 52.8568901,37.2694047 C52.5262577,37.6207735 52.1967775,37.9456457 51.8661451,38.2647577 C51.7313578,38.396089 51.5965704,38.5205082 51.4594789,38.6460793 C51.2279211,38.8592047 50.9963633,39.0631138 50.7728696,39.2543506 L50.3719636,39.588439 C50.1277334,39.784284 49.8835033,39.9674566 49.6415772,40.144869 L49.3005766,40.3948593 C48.9492078,40.6379374 48.5966869,40.8671912 48.2464701,41.0687963 C48.2453181,41.0699483 48.2453181,41.0699483 48.244166,41.0711003 L45.897483,42.4270384 C45.896331,42.4270384 45.896331,42.4270384 45.895179,42.4270384 C45.4758404,42.6689645 45.0887587,42.9604278 44.7546703,43.2783878 C44.6970688,43.3175568 44.5761058,43.4131752 44.5265685,43.4615605 C44.4113656,43.5756113 44.2996188,43.6931183 44.2293451,43.7749123 C44.2166727,43.7898887 44.1521591,43.8670747 44.1394868,43.880899 C44.0818854,43.9488687 44.0254359,44.0168384 43.9793548,44.077896 L43.5277594,44.7449207 C43.5243033,44.7506809 43.5208472,44.756441 43.5173912,44.7622012 C43.5081749,44.7794816 43.4989587,44.796762 43.4897425,44.8151945 L43.2950496,45.1826917 C43.2535765,45.2656378 43.2155596,45.350888 43.1879109,45.4154016 C43.1487419,45.5041078 43.113029,45.5939661 43.07386,45.6930406 C43.0680999,45.7068649 43.0312349,45.8082435 43.0266268,45.8209158 C43.0024342,45.8946456 42.9793936,45.9718316 42.955201,46.0582338 C42.9264003,46.1607643 42.8999036,46.2702071 42.875711,46.3808019 C42.8388461,46.5570623 42.8054372,46.7494511 42.7766365,46.9971374 C42.7190351,47.4498848 42.6913864,47.9579295 42.6925039,48.5062953 L42.6925039,48.5062953 L42.6925039,48.5074474 L42.7063628,53.4715402 C42.7109709,55.1638708 42.99437,56.1983928 43.6233778,56.8227925 C43.6936516,56.8919143 43.7719896,56.9518198 43.8572397,57.001357 L55.834885,63.9619161 L55.9316554,100.798043 L55.9316554,100.799195 L55.9316554,100.799195 C55.9374155,102.432772 56.2162066,103.489182 56.8071974,104.12395 C56.8152616,104.132014 56.8256299,104.136623 56.8336941,104.144687 C56.8406063,104.151599 56.8429103,104.160815 56.8486705,104.166575 C56.9465929,104.261042 57.0571877,104.34514 57.1850629,104.422326 L75.2350529,114.91155 C75.2523334,114.92307 75.2707658,114.931134 75.2868942,114.941502 C75.2949584,114.94611 75.3018706,114.949567 75.3099348,114.954175 C75.3122389,114.955327 75.315695,114.955327 75.319151,114.957631 C75.6117664,115.128131 75.9354865,115.206469 76.2776391,115.206469 C77.1762217,115.206469 78.1900072,114.711097 79.0643972,114.206508 L86.4039738,109.969345 C87.6965504,109.22283 88.6262377,108.431387 89.2414212,107.560453 C89.9326386,106.606573 90.266727,105.20801 90.2609669,103.284121 L90.2471425,98.0757981 L96.4335381,101.671281 C96.4358422,101.672433 96.4392983,101.673585 96.4416023,101.675889 L96.5210923,101.72197 C96.5360687,101.731186 96.549893,101.73349 96.5648694,101.740402 C96.8505726,101.89823 97.1650765,101.973112 97.4899487,101.973112 C98.535991,101.973112 99.6845639,101.309543 100.285923,100.962783 L130.803171,83.3436516 C132.071554,82.6109611 133.033499,81.8010848 133.661354,80.935911 C134.346812,79.9935513 134.677444,78.5972922 134.671684,76.6653396 L134.655555,71.2600196 C134.653251,70.5952989 134.631363,68.848823 133.595689,67.9064633 L133.595689,67.9064633 Z" id="Fill-1-Copy-5" stroke="#FFFFFF" stroke-width="0.7" fill="#002A5D"></path>
                </g>
            </g>
        </g>
    </g>
</svg>