<?xml version="1.0" encoding="UTF-8"?>
<svg width="152px" height="152px" viewBox="0 0 152 152" version="1.1" xmlns="http://www.w3.org/2000/svg" xmlns:xlink="http://www.w3.org/1999/xlink">
    <title>Group 3</title>
    <g id="I---Marque" stroke="none" stroke-width="1" fill="none" fill-rule="evenodd">
        <g id="I.1.0---La-marque---Qui-sommes-nous-?" transform="translate(-805.000000, -5035.000000)">
            <g id="//-Chiifres" transform="translate(0.000000, 4493.000000)">
                <g id="05" transform="translate(791.000000, 542.000000)">
                    <g id="Group-3" transform="translate(15.385000, 0.515000)">
                        <circle id="Oval" stroke="#002A5D" stroke-width="1.012" cx="75" cy="75" r="75"></circle>
                        <path d="M88.2599059,113.175116 C83.1365283,116.133155 79.0780904,116.993342 76.1989786,115.731658 C73.4113762,114.510008 71.9906942,111.040661 71.9746801,105.417414 L71.9630148,101.300639 C71.9620975,100.946041 71.9792555,100.641772 72.008996,100.379827 C72.0101399,100.369532 72.0170031,100.361525 72.018147,100.35123 C72.0410243,100.157917 72.0673332,99.9726102 72.1130879,99.7724336 C72.1153756,99.7655704 72.1165195,99.7575633 72.1165195,99.7507001 C72.1554109,99.5962782 72.2011656,99.4544387 72.2560712,99.3206064 C72.2629344,99.3023045 72.2697976,99.2817149 72.2778046,99.2645569 C72.3269909,99.1547458 72.3818965,99.0563732 72.445953,98.9705833 C72.5774976,98.793284 72.7685233,98.596539 73.0476267,98.3506077 C73.1174026,98.2911266 73.1860346,98.2293578 73.2603859,98.1698768 C73.2695368,98.1618697 73.2729684,98.1504311 73.2821193,98.142424 C73.5543595,97.9296648 73.8620596,97.7191934 74.2166582,97.5132975 L80.5479587,93.8586443 C81.2697384,93.4411331 81.6975444,93.2764163 81.9354686,93.2089282 C81.9366125,93.2077844 81.9377564,93.2089282 81.9400441,93.2077844 C81.9606337,93.202065 81.9640653,93.2032089 81.9823671,93.1986334 C82.0544307,93.4205435 82.1482278,93.8746585 82.1505155,94.7497163 L82.1608103,98.3368813 C82.1676735,100.686383 82.8013755,102.223739 84.0390389,102.93408 L84.0321757,102.945519 C84.1042393,102.987842 84.1785906,103.02559 84.2472226,103.057618 C84.2495103,103.058762 84.2586613,103.062193 84.2632367,103.064481 C84.2964089,103.079351 84.3455951,103.101085 84.3604654,103.107948 C84.4874345,103.159422 84.6155476,103.205177 84.7459483,103.242924 C84.7459483,103.242924 84.7482361,103.242924 84.7493799,103.244068 C84.7871275,103.254363 84.826019,103.260082 84.8626227,103.270377 C84.954132,103.293254 85.0456413,103.317276 85.1348629,103.332146 C85.1611719,103.336721 85.1863369,103.339009 85.2126458,103.343584 C85.2767024,103.352735 85.3441905,103.359599 85.4105347,103.366462 C85.4356998,103.371037 85.5294968,103.381332 85.5558058,103.38362 C85.6290132,103.388195 85.7033645,103.389339 85.7788597,103.390483 C85.8097441,103.390483 85.8417724,103.390483 85.8726567,103.390483 C85.9138359,103.389339 85.9550151,103.389339 85.9984821,103.387051 C86.0648263,103.38362 86.1311706,103.373325 86.1986587,103.367606 C86.2798732,103.359599 86.3622316,103.353879 86.4445899,103.342441 C86.4571725,103.340153 86.4674673,103.340153 86.4800498,103.339009 C86.5029271,103.335577 86.5246606,103.331002 86.5475379,103.326426 C86.6127383,103.316132 86.6825142,103.296686 86.7488584,103.28296 C86.8357923,103.264658 86.9204384,103.249787 87.0062283,103.228054 C87.0222425,103.223479 87.0359689,103.222335 87.051983,103.217759 C87.1171834,103.199457 87.1858154,103.173148 87.2533035,103.150271 C87.3962868,103.10566 87.5392701,103.058762 87.6845411,103.001568 C87.7211448,102.99013 87.7840575,102.967252 87.8115103,102.955814 C87.8458263,102.940944 87.8847177,102.916922 87.9190337,102.902052 C88.2095758,102.776227 88.5046933,102.635531 88.8055302,102.46052 C89.6153876,101.992678 90.3348796,101.447054 90.9823079,100.841949 C91.0600908,100.776748 91.1378738,100.711548 91.2076496,100.642916 C91.238534,100.613175 91.2659868,100.580003 91.2957273,100.549119 C91.3597838,100.485062 91.418121,100.417574 91.4798898,100.352374 C91.5782623,100.248282 91.6789226,100.148766 91.7727196,100.040098 L91.9591698,99.8170444 L91.9557382,99.8136128 C91.9934858,99.7678581 92.0358089,99.7232474 92.0735565,99.6763488 C92.0804197,99.6683418 92.1479078,99.5836956 92.154771,99.5768325 C92.2600067,99.4407124 92.3629547,99.3011607 92.4556078,99.1684721 C92.5173766,99.0803944 92.5780016,98.9865974 92.6386265,98.8950881 C92.6523529,98.8756424 92.6660793,98.8561966 92.6786618,98.835607 C92.6946759,98.8127297 92.7095462,98.7909962 92.7255603,98.766975 C92.805631,98.6400059 92.8845577,98.5118928 92.9543336,98.390643 C93.019534,98.279688 93.0870221,98.159582 93.1705243,97.9994407 C93.1899701,97.962837 93.2094158,97.9262332 93.2288615,97.8896295 C93.2780478,97.7935447 93.3283779,97.6963161 93.3752764,97.6002313 C93.4427645,97.4595358 93.5079649,97.3176963 93.5697337,97.1724253 C93.5868917,97.13239 93.6029058,97.0912108 93.6200638,97.0511755 L93.687552,96.8876026 C93.712717,96.8224022 93.7413137,96.7606334 93.7664787,96.6942891 C93.8339669,96.5181337 93.8968795,96.3408344 93.9597922,96.1543842 L94.0238487,95.9564953 C94.0261364,95.9519198 94.0284241,95.9473444 94.029568,95.941625 C94.0307119,95.9370496 94.0318557,95.9324741 94.0329996,95.9278987 C94.0924807,95.7391607 94.1519617,95.5458473 94.2045796,95.35139 C94.2903695,95.0448338 94.3692963,94.7211196 94.4482231,94.3516508 C94.4756759,94.22125 94.4962655,94.0782667 94.5214306,93.9455782 C94.5225744,93.9352834 94.5248622,93.9272763 94.526006,93.9169815 L94.594638,93.5257792 C94.6518313,93.2157914 94.7078808,92.9069475 94.7502038,92.5832333 C94.7513477,92.5809456 94.7547793,92.5454857 94.757067,92.5123136 C94.7753689,92.3750496 94.7868076,92.226347 94.8028217,92.0856514 C94.8325622,91.7779514 94.860015,91.4530933 94.8874678,91.0904877 C94.8920433,91.0344382 94.8977626,90.9818204 94.9011942,90.9257709 L94.9149206,90.7804999 C94.9194961,90.7381768 94.9217838,90.6924222 94.9252154,90.6489552 C94.9789771,89.8127889 95.0110054,88.9400188 95.0087176,87.9951852 C95.0064299,87.295139 94.9892719,86.6408474 94.9583875,86.0197279 C94.9492366,85.8287023 94.9320786,85.6571223 94.9194961,85.4718159 C94.8931871,85.060024 94.8645905,84.6516637 94.8245552,84.2753317 C94.8016778,84.0591409 94.7696496,83.8623959 94.7421968,83.6576438 C94.7010176,83.3487999 94.6586945,83.0422437 94.6060767,82.757421 C94.5660413,82.543518 94.5202867,82.3467729 94.4756759,82.1465963 C94.4425038,81.9978937 94.4173387,81.8320331 94.3795911,81.6913375 C94.3601454,81.6124107 94.3304049,81.5506419 94.3098153,81.4740029 C94.2400394,81.2292155 94.1634004,81.0015861 94.0833297,80.779676 C94.0215609,80.6103838 93.9597922,80.4410915 93.892304,80.2855257 C93.8019386,80.0784859 93.7024222,79.8897479 93.6006181,79.7078732 C93.5274107,79.5774724 93.4553471,79.4447839 93.3752764,79.3269657 C93.2597459,79.1542418 93.1350645,79.0032515 93.0058076,78.8579804 C92.9234492,78.7641834 92.8422347,78.6658109 92.7530131,78.5834525 C92.6157491,78.4553395 92.4681904,78.3489599 92.3194877,78.2482997 C92.2474242,78.1991134 92.1856554,78.1304814 92.1113041,78.0870145 C92.086139,78.0721442 92.0563985,78.0721442 92.0300895,78.0595617 C91.983191,78.0343966 91.9431557,77.9943613 91.8951133,77.971484 C90.4172379,77.2314024 88.327394,77.6935245 85.3236009,79.4276259 L83.1594057,80.6778719 C82.4044538,81.113685 81.9823671,81.2921281 81.7650325,81.3641917 C81.6849619,81.1777415 81.5579927,80.7339213 81.555705,79.7868 L81.5431224,75.2284924 C81.5419786,74.7663704 81.5625682,74.3728803 81.6003158,74.033152 C81.6014596,74.0182817 81.6094667,74.0068431 81.6117544,73.9919728 C81.6380634,73.767775 81.6643723,73.5470088 81.7101269,73.3319619 C81.7124147,73.3216671 81.7147024,73.3113723 81.7169901,73.3022214 C81.7650325,73.0860306 81.8245136,72.8892856 81.8965772,72.7028354 C81.8988649,72.697116 81.9022965,72.689109 81.9045842,72.6833896 C81.9720723,72.5243922 82.0429921,72.389416 82.1161995,72.286468 C82.1173434,72.2853241 82.1173434,72.2841803 82.1184872,72.2830364 C82.2694776,72.0748527 82.4662226,71.8678129 82.6847011,71.661917 C82.6892766,71.6584854 82.693852,71.6573415 82.6972836,71.6539099 C82.848274,71.5097827 83.0175662,71.3679433 83.2543466,71.1872124 L83.4110563,71.0682503 C83.6741455,70.8795123 83.9532489,70.6930621 84.2689561,70.5111874 L87.103457,68.8743146 C87.5575719,68.6123691 88.0002482,68.3218271 88.4486439,68.0095516 C88.5779008,67.92033 88.7105893,67.8333961 88.8364146,67.7418868 C88.8364146,67.7418868 88.8375584,67.740743 88.8387023,67.740743 C88.9599521,67.6503775 89.0731949,67.5577243 89.1852938,67.4650712 L89.3259894,67.3506845 C89.3442913,67.3369581 89.3603054,67.3198001 89.3774634,67.3060737 C89.7034653,67.0464161 90.022604,66.7844707 90.3120022,66.5110866 C90.3245848,66.4985041 90.3405989,66.4882093 90.3543253,66.4756267 C90.4229573,66.4195773 90.4904454,66.362384 90.5487826,66.3051906 C90.776412,66.0787051 90.9914589,65.8499318 91.1950671,65.6165831 C91.1973548,65.6142953 91.2293831,65.57426 91.2545481,65.5456633 C91.2717061,65.5262176 91.2854325,65.505628 91.3025905,65.4861823 C91.4078262,65.3626447 91.5130619,65.2391072 91.6080029,65.1144257 C91.7143824,64.9771617 91.8173304,64.83761 91.9168468,64.6957706 C92.0026368,64.5733769 92.0872829,64.4486955 92.2073888,64.2599575 C92.2085327,64.2588137 92.2096766,64.2565259 92.2108204,64.2553821 L92.214252,64.2485189 C92.2886034,64.1295567 92.3640985,64.007163 92.4338744,63.8847693 C92.5208082,63.7372106 92.6054543,63.5850763 92.685525,63.434086 C92.7084023,63.3894752 92.7301358,63.3437205 92.7530131,63.2991097 C92.7724588,63.262506 92.7907607,63.2259023 92.8090626,63.1892986 C92.847954,63.1115157 92.8902771,63.0337327 92.9280247,62.954806 C93.0115269,62.783226 93.0915976,62.6082144 93.1659489,62.4343468 L93.2620337,62.200998 C93.2700407,62.1826961 93.2780478,62.1643943 93.284911,62.1449486 L93.292918,62.1266467 C93.2952058,62.1197835 93.3398166,62.0111162 93.3432482,62.004253 L93.4038731,61.8544065 C93.4850876,61.6393596 93.5640144,61.4208811 93.6383657,61.198971 C93.6566676,61.1474971 93.6692501,61.0937353 93.6864081,61.0411175 C93.6944152,61.0159524 93.7024222,60.9907874 93.7092854,60.9644784 C93.7699103,60.7723089 93.832823,60.5812832 93.8865847,60.385682 C93.9197568,60.2644322 93.9494974,60.1386069 93.9792379,60.0127816 L94.0021152,59.9178407 C94.0227048,59.8354823 94.0421505,59.7531239 94.0627401,59.6696217 L94.0936245,59.5392209 C94.1142141,59.4625819 94.1336598,59.3859428 94.1473862,59.3173108 C94.174839,59.1937733 94.1874216,59.0610848 94.2125866,58.9352595 C94.2709238,58.6378542 94.3223978,58.3347296 94.3681525,58.0258857 C94.3853105,57.9023481 94.4139071,57.7856737 94.4299212,57.6598484 C94.4413599,57.5786339 94.4482231,57.4939878 94.4550863,57.4081978 L94.4585179,57.3715941 C94.57748,56.3615601 94.6415365,55.3023398 94.6381049,54.1847823 C94.6369611,53.7775659 94.6243785,53.3897952 94.6015012,53.0214702 C94.5957819,52.9345363 94.5831993,52.8578973 94.5763361,52.7732512 C94.5557465,52.4998671 94.5328692,52.2276269 94.4985532,51.9759763 C94.4871146,51.8970495 94.4688127,51.8284175 94.457374,51.7506346 C94.4184826,51.508135 94.3784473,51.2667791 94.3269733,51.0460129 C94.3098153,50.96823 94.2835063,50.9030296 94.2640606,50.8275344 C94.2102989,50.6216385 94.1553933,50.4157425 94.0890491,50.2304362 C94.0627401,50.1572287 94.029568,50.0966038 93.9998275,50.026828 C93.9323394,49.855248 93.8637074,49.6813803 93.7836367,49.5292461 C93.747033,49.4594702 93.7012784,49.4034208 93.6623869,49.3382204 C93.5800285,49.2009564 93.5011017,49.0602609 93.4084486,48.939011 C93.3626939,48.8783861 93.3077883,48.8326315 93.2586021,48.776582 C93.1636611,48.6667708 93.071008,48.5535281 92.9646284,48.459731 C92.9097228,48.4105448 92.8456663,48.3750849 92.7873291,48.3293302 C92.6798057,48.2481157 92.5757138,48.160038 92.4601833,48.0925499 C92.4578956,48.091406 92.4567517,48.091406 92.454464,48.0902622 L92.4476008,48.0856867 C91.2316708,47.3879282 89.66343,47.5789539 87.7909207,48.6587638 C86.3542245,49.4880669 85.1977756,50.6788318 84.3604654,52.1875916 C83.5048533,53.6974952 83.0736157,55.3297926 83.0781911,57.0375851 L83.079335,57.6964521 C83.0816227,58.3164277 82.9992644,58.7968516 82.8448424,59.1022639 C82.445633,59.854928 81.6106106,60.6007289 80.3626523,61.3202209 L74.8801007,64.4864431 C74.4328489,64.743813 74.1354437,64.8833647 73.9627198,64.957716 C73.910102,64.7586833 73.8506209,64.4006531 73.8494771,63.7955478 L73.8403261,60.9793487 C73.8368945,59.9315671 73.9318355,58.8814977 74.0999838,57.8314284 C74.1308682,57.628964 74.1651842,57.4276435 74.2017879,57.2274669 C74.7313981,54.4352891 75.8523871,51.6419673 77.5647551,48.8749545 L77.6734224,48.6987991 C78.0234455,48.1417362 78.3940583,47.5846732 78.7909799,47.0310419 C79.4658611,46.0896398 80.194504,45.1779783 81.0169439,44.2445833 C81.084432,44.1668004 81.1564956,44.0924491 81.2274153,44.0180978 L81.4344551,43.7996193 C82.094466,43.0778396 82.7682034,42.3972391 83.4339336,41.7795513 L83.8869047,41.36204 C84.6681654,40.6619938 85.4974686,39.9882565 86.349649,39.35913 L86.8518064,39.0022437 C87.8835739,38.2690253 88.7746458,37.6913728 89.6554229,37.1823522 C90.297132,36.8117395 90.9205391,36.4788744 91.5325077,36.1757498 C91.624017,36.1299951 91.7132386,36.0899598 91.8024601,36.0499245 C91.9717524,35.9698538 92.1318937,35.9023657 92.2966104,35.8268705 C92.6397703,35.6667293 92.9840741,35.5043002 93.3135076,35.3704679 L93.405017,35.3361519 C93.6692501,35.2297723 93.9220446,35.1497016 94.1805584,35.0581923 C94.4116194,34.9758339 94.6472559,34.8854685 94.8714537,34.8156927 L95.0876444,34.7482045 C95.4067831,34.6544075 95.7133393,34.5846316 96.0210394,34.5148558 L96.3287395,34.4450799 C96.4431261,34.418771 96.5540811,34.3970376 96.6627484,34.3753041 C97.085979,34.3009528 97.4989148,34.2426156 97.8946926,34.2174505 C97.9129944,34.2163067 97.9347279,34.2140189 97.9530297,34.2128751 C98.3053406,34.1934293 98.6382057,34.2094435 98.9687831,34.2288892 C99.0648679,34.2346085 99.1460824,34.2277453 99.2467426,34.2380401 L99.3782873,34.2529104 C99.7534754,34.2940896 100.117225,34.3581461 100.46496,34.453087 C100.479831,34.4565186 100.498132,34.4599502 100.514147,34.4645257 C100.877896,34.5674736 101.223344,34.7047376 101.555065,34.8660228 C101.574511,34.8763176 101.598532,34.880893 101.617978,34.8911878 C101.619122,34.8923317 101.621409,34.8934756 101.623697,34.8946194 C104.407868,36.3004312 105.826262,39.8429855 105.84342,45.4261973 C105.854859,49.486923 105.203999,53.1106918 103.913718,56.1979872 C102.240241,59.0324881 100.589642,61.8178028 98.9687831,64.547068 C98.8223682,64.7929993 98.7743258,65.0858291 98.8338069,65.3660763 C99.132356,66.7844707 100.763509,67.8013679 104.104743,68.6581238 C105.133079,68.9406588 106.860317,70.5969773 106.883411,78.5228276 C106.904928,86.1020863 105.286357,92.988162 102.070949,98.9865974 C98.8601158,104.964443 94.2137305,109.737798 88.2599059,113.175116 Z M53.7666148,90.7255943 C53.7654709,90.3790028 53.7872044,90.0655834 53.815801,89.8024941 C53.8169449,89.7979186 53.8238081,89.6903952 53.8238081,89.6869636 C53.8432538,89.5439803 53.8661312,89.4078602 53.9095981,89.2099713 L52.805767,88.9148538 L53.9496334,89.0532616 L53.9919565,88.9159977 C53.9931003,88.9114222 54.0308479,88.8027549 54.0319918,88.7981794 L52.9636206,88.3898191 L54.0994799,88.6426136 L53.1134671,88.056954 L54.1578171,88.5328024 C54.1635364,88.5236515 54.2207297,88.4355738 54.2253052,88.4264228 L53.3205069,87.7263766 L54.3019443,88.3246187 L54.4209064,88.1816354 C54.4861067,88.1049964 54.5570265,88.0306451 54.7034414,87.8979566 L55.0580399,87.5982636 C55.3874735,87.3363182 55.6940297,87.1269906 56.0211754,86.9371088 L62.3501882,83.2835995 L62.3513321,83.2824557 C62.7002113,83.0811352 63.0033359,82.9324325 63.2858709,82.8100388 C63.328194,82.791737 63.3785241,82.7665719 63.3853873,82.7585649 C63.4666018,82.7253927 63.5386654,82.7025154 63.6576275,82.6647678 C63.6610591,82.6636239 63.7662948,82.6247325 63.7697264,82.6235886 C63.8120495,82.61215 63.8520848,82.6018552 63.935587,82.5915604 L79.6614622,91.7310529 C79.5710968,91.781383 79.4784436,91.8340008 79.4040923,91.8774677 L73.0727918,95.5321209 C71.9906942,96.1578158 71.1911316,96.8304092 70.6329248,97.5784979 C70.6272054,97.5865049 70.6180545,97.5956559 70.6111913,97.6036629 C70.6043281,97.6128139 70.5997526,97.6253964 70.5940333,97.6334034 C70.4361798,97.8484503 70.2989158,98.0875184 70.1822414,98.3506077 C70.1776659,98.3609025 70.1696589,98.3677657 70.1650834,98.3792043 C70.0838689,98.5667984 70.0140931,98.7875646 69.9443172,99.0357836 C69.9260153,99.100984 69.9065696,99.1627528 69.8905555,99.2290971 C69.8848361,99.2508305 69.8791168,99.2668447 69.8745414,99.289722 C69.8390815,99.4452878 69.817348,99.623731 69.792183,99.7964548 C69.7224071,100.257433 69.6743647,100.748152 69.6755086,101.307502 L69.6869473,105.424277 C69.6949543,108.298814 70.0770057,110.682631 70.7839151,112.624916 L57.4532962,104.877509 C55.0294433,103.46941 53.7929237,100.092716 53.7769096,94.8423694 L53.7666148,90.7255943 Z M76.2630352,83.715981 C76.2893441,83.5958751 76.3099337,83.4666181 76.3305233,83.3373612 L76.3591199,83.1543426 C76.435759,82.7448385 76.5089664,82.3341904 76.563872,81.892658 C76.5959003,81.6432951 76.6130583,81.3710549 76.6359356,81.1056779 L80.6486189,83.4380215 C80.7572862,83.5009341 80.8728167,83.5375379 80.9883472,83.5627029 C81.076425,83.5947312 81.1450569,83.6439174 81.2411417,83.6679386 C81.9343248,83.8063465 82.8196773,83.5158044 84.3032721,82.6601923 L86.4674673,81.4099464 C89.5662013,79.6197955 90.6208462,79.8943234 90.8919425,80.0270119 C90.9193953,80.0407383 90.9491358,80.0590402 90.9811641,80.077342 C91.0006098,80.0899246 91.0223433,80.1059387 91.0429329,80.1208089 C91.066954,80.1368231 91.0898314,80.1539811 91.1149964,80.1734268 C91.1310106,80.1860093 91.1458808,80.2020235 91.1607511,80.214606 C91.1927793,80.2432026 91.2248076,80.2717993 91.2579797,80.3072592 C91.2659868,80.3152662 91.2739939,80.325561 91.2808571,80.334712 C91.375798,80.4376599 91.4753143,80.5714923 91.5759746,80.7407845 C91.7784389,81.0816567 91.9843349,81.5666561 92.1662097,82.2667023 C92.3435089,82.9495905 92.4784852,83.7685989 92.5711384,84.7100009 C92.5734261,84.7294466 92.5757138,84.7466046 92.5768577,84.7660504 C92.6191807,85.2052951 92.651209,85.6777119 92.6740863,86.1707183 C92.6786618,86.2542206 92.6820934,86.3388667 92.685525,86.4246566 C92.7049707,86.926814 92.7186971,87.4484171 92.7209849,88.0020484 C92.7232726,88.7753021 92.7049707,89.5073766 92.6649354,90.2074228 C92.6351949,90.7724928 92.5871525,91.3055346 92.5288153,91.8202744 C92.5185205,91.9243663 92.5093696,92.0284581 92.496787,92.1371254 C92.4384499,92.6106861 92.3629547,93.0510747 92.2805963,93.4788807 L92.265726,93.57039 C92.2554312,93.6355904 92.2428487,93.7122294 92.2279784,93.793444 C92.1193111,94.3127593 91.9934858,94.7966148 91.8493587,95.2427227 C91.8493587,95.2450104 91.8470709,95.2507297 91.8470709,95.2564491 C91.7635687,95.5183945 91.6709155,95.771189 91.5713991,96.019408 C91.5542411,96.0640188 91.5347954,96.1086295 91.5164935,96.1532403 C91.4249842,96.3717188 91.3254679,96.5833341 91.221376,96.7903739 L91.1573195,96.9173431 C91.0406451,97.1358216 90.9171075,97.3485807 90.7855629,97.5544767 C90.7569663,97.5967997 90.7260819,97.6414105 90.6974852,97.6848774 C90.579667,97.859889 90.4572733,98.0303251 90.3280164,98.1950418 C90.3200093,98.2064805 90.31429,98.2144876 90.305139,98.2259262 L90.1735944,98.3860675 C90.0797973,98.4981664 89.9814248,98.6068337 89.8830523,98.7143572 C89.8018378,98.8024349 89.7217672,98.8916565 89.6359772,98.9763026 C89.6005173,99.0129063 89.5593381,99.0472223 89.5215905,99.0826822 C89.4952816,99.1055595 89.4678288,99.1295807 89.4415199,99.152458 L89.2539258,99.3114554 C89.1509778,99.4029648 89.0480299,99.4944741 88.9416503,99.5814079 C88.4795283,99.9565961 88.0734557,100.242563 87.6616638,100.479343 C87.411157,100.624614 87.1743767,100.742432 86.9478912,100.837373 L86.8083395,100.885416 C86.6470543,100.947184 86.4892007,100.998658 86.341642,101.032974 C86.2993189,101.042125 86.255852,101.05242 86.2112412,101.060427 C86.0510999,101.090168 85.9001095,101.101606 85.7582701,101.097031 C85.7273857,101.095887 85.7056523,101.097031 85.6644731,101.093599 C85.5031879,101.079873 85.3521975,101.046701 85.2172213,100.984932 C84.732222,100.760734 84.4531186,99.7930232 84.4485431,98.3300181 L84.4382483,94.7439969 C84.4336728,93.0796713 84.1419869,92.0170194 83.5528957,91.4313599 C83.4705373,91.3432821 83.3755964,91.292952 83.285231,91.2277516 C83.2429079,91.1934356 83.2131674,91.147681 83.1639811,91.1202282 L83.0770473,91.0698981 C83.0747595,91.0676103 83.0713279,91.0653226 83.0678963,91.0641787 L75.3673878,86.5893734 C75.5412555,86.1890202 75.7002529,85.7829476 75.8306537,85.368868 C75.9919388,84.8701422 76.1383537,84.3119354 76.2630352,83.715981 Z M63.3579345,69.2117551 L63.3463328,64.6523037 C63.3442081,64.2393679 63.3659416,63.8470217 63.4151278,63.4192157 C63.421991,63.365454 63.4254226,63.3036852 63.4231349,63.2762324 C63.4448683,63.0989331 63.473465,62.9319286 63.5169319,62.7351836 C63.5352338,62.655113 63.5523918,62.5761862 63.5775568,62.4903962 L63.7971792,61.9127437 C63.7983231,61.9104559 63.8154811,61.8830031 63.8257759,61.8647013 L72.651849,66.9937982 C72.694172,67.0235387 72.7410705,67.0464161 72.7868252,67.072725 L72.8016955,67.080732 C72.8074148,67.0830198 72.8131341,67.0841636 72.8177096,67.0875952 C73.0350442,67.2065573 73.2741123,67.2923473 73.5486402,67.3220879 C74.1354437,67.3735618 74.8846762,67.124199 76.0239671,66.4687635 L81.5065187,63.3025413 C83.130809,62.3645709 84.2620929,61.3122138 84.8763491,60.154621 C85.2103581,59.4946101 85.3704994,58.6881843 85.3670678,57.6907328 L85.3659239,57.0330096 C85.3636362,55.7255703 85.6942136,54.4741805 86.3553684,53.3062929 C86.9936458,52.1567072 87.8618404,51.2587721 88.9347871,50.6399404 C90.0203163,50.0142454 90.862202,49.812925 91.307166,50.0680072 C91.4650196,50.1606603 91.7223895,50.3962968 91.9431557,51.0059776 C91.9431557,51.0105531 91.9442996,51.0151285 91.9454434,51.0185601 C91.9992052,51.1684066 92.051823,51.3388427 92.0987215,51.5378755 C92.1067286,51.5710476 92.1124479,51.6168023 92.120455,51.6522621 C92.1593465,51.8284175 92.1959502,52.0137239 92.2279784,52.2310585 C92.2428487,52.3397258 92.2508558,52.4769898 92.2645822,52.5970958 C92.2817402,52.7641003 92.3034736,52.9185222 92.3160561,53.108404 C92.3366457,53.4332621 92.3492283,53.79358 92.3504729,54.1905016 C92.3526599,54.9511728 92.3160561,55.711844 92.2325539,56.5914772 L92.1867992,57.0959223 C92.1650658,57.2880918 92.1387569,57.4756859 92.1113041,57.66328 C92.0701249,57.9435273 92.0220825,58.2180552 91.9694646,58.4902954 C91.9328609,58.6847527 91.897401,58.8803539 91.8539341,59.0690918 L91.7978847,59.3047283 C91.7246772,59.6021336 91.6468943,59.8938195 91.5599605,60.1752106 C91.5508095,60.2072389 91.5405147,60.2381233 91.5313638,60.2701515 C91.427272,60.5961535 91.3163169,60.9118606 91.1927793,61.2172729 L91.1721898,61.2687469 C91.0520838,61.5650083 90.9228269,61.849831 90.784419,62.1255028 C90.7684049,62.1552434 90.7523908,62.1872716 90.7375205,62.2170121 C90.5933934,62.4995471 90.4401153,62.7717873 90.2753985,63.0325889 C90.2742546,63.0348766 90.2742546,63.0371643 90.2731108,63.0394521 C90.048913,63.3940507 89.7926869,63.7406422 89.501001,64.0780828 C89.2768031,64.3365966 89.0182893,64.5848156 88.7574878,64.8318907 C88.4943985,65.0812536 88.2084319,65.3191778 87.9053073,65.557102 L87.7520292,65.6829273 C87.6582322,65.753847 87.5758738,65.8293422 87.4786452,65.9002619 C87.3402373,66.0009222 87.2041172,66.0901437 87.0679971,66.1850847 C86.7214056,66.4207211 86.3679509,66.6540699 85.9824679,66.8782677 C85.9756047,66.8828432 85.9675977,66.8874186 85.9595906,66.8919941 L83.1285213,68.527723 C83.0999246,68.5437372 83.0816227,68.5586074 83.0587454,68.5723338 C82.71101,68.7747982 82.3930152,68.9841257 82.0933222,69.1980287 C82.0887467,69.2014603 82.0830274,69.2048919 82.0784519,69.2083235 L81.8073556,69.4130756 C81.7913415,69.4245143 81.7799028,69.4370968 81.7627448,69.4496793 C81.5499856,69.6166838 81.3509529,69.7859761 81.1656465,69.957556 C81.153064,69.9689947 81.1381937,69.9792895 81.1256112,69.9907282 C81.1233235,69.9941598 81.1221796,69.9975914 81.118748,70.001023 C80.7927461,70.3075791 80.4976286,70.6209985 80.2608482,70.9470005 C80.2585605,70.9504321 80.2562727,70.9550075 80.253985,70.9584391 C80.1052824,71.1666228 79.9737378,71.4114102 79.8502002,71.6836504 C79.8364738,71.7179664 79.8181719,71.7488508 79.8033017,71.7843107 C79.7941507,71.8037564 79.7861437,71.8197705 79.7769927,71.841504 C79.6786202,72.0862914 79.595118,72.3619632 79.5196228,72.6628001 C79.5116157,72.697116 79.5024648,72.7280004 79.4944577,72.7634603 C79.4875945,72.7909131 79.4795875,72.8149343 79.4727243,72.8446748 C79.4212503,73.082599 79.3880782,73.3525515 79.3560499,73.6259356 C79.2942811,74.1200858 79.2531019,74.6439766 79.2553897,75.2342117 L79.2679722,79.7936632 C79.2679722,79.8474249 79.2702599,79.9252078 79.2702599,79.991552 L63.6336063,70.9092529 C63.6324624,70.908109 63.4814721,70.7376729 63.4025453,70.0685111 C63.3739486,69.8134289 63.3590784,69.5274623 63.3579345,69.2117551 Z M101.291976,65.1144257 C102.812174,62.5544527 104.358682,59.9464373 105.923491,57.2938112 C105.9498,57.2503443 105.972677,57.2045896 105.992123,57.1576911 C107.4231,53.7695588 108.142592,49.820932 108.131153,45.420478 C108.112851,39.2664768 106.447382,35.180586 103.219391,33.2062726 C103.171348,33.1662373 103.138176,33.1159072 103.082127,33.0838789 L103.082127,33.0827351 C103.076407,33.0804473 103.072976,33.0781596 103.0684,33.0758719 L84.7905591,22.4539285 C84.6796041,22.3921597 84.5652175,22.3315348 84.4473992,22.2720538 C84.2689561,22.1828322 84.0916568,22.1004738 83.9086381,22.0238348 C83.627247,21.9060165 83.336705,21.8030685 83.045019,21.7172786 C83.0255733,21.7104154 83.0038398,21.7035522 82.9832502,21.6978328 C82.6663992,21.6063235 82.3438289,21.5308283 82.0086761,21.4724912 C81.9137352,21.456477 81.8165065,21.4461822 81.6163299,21.4255926 C81.5030871,21.4107224 81.3875566,21.396996 81.2033941,21.3764064 C81.1198919,21.3649677 81.0363896,21.3546729 80.956319,21.3500975 C80.5845624,21.3260763 80.202511,21.3226447 79.8341861,21.3386588 C79.8147403,21.3386588 79.7964385,21.3398027 79.7792805,21.3398027 C79.3320287,21.3592484 78.8744821,21.405003 78.4009215,21.4782105 C78.3460159,21.4873614 78.2865348,21.4988001 78.2224783,21.5148142 C78.0257333,21.5479863 77.8244128,21.593741 77.6219484,21.6406395 L77.1941424,21.731005 C77.0248502,21.7641771 76.855558,21.7984931 76.6702516,21.8476793 L75.9976582,22.0547192 C75.5412555,22.1965586 75.0734141,22.3601315 74.5941341,22.5465817 L74.2315284,22.6838457 C74.2143705,22.6907089 74.1182857,22.7273126 74.1022715,22.7341758 C73.8082979,22.8554256 73.5028856,22.9995528 73.1986171,23.14368 L72.7239125,23.3633023 C72.5900802,23.4227834 72.4539601,23.4834083 72.3155522,23.5520403 C71.6658361,23.8757545 70.998962,24.230353 70.3126422,24.6272747 C69.3815349,25.1648919 68.404673,25.79745 67.3294386,26.5626966 L67.1567148,26.6850903 C67.0331772,26.7708803 66.9107835,26.8566703 66.795253,26.9436041 C65.8904547,27.6093344 65.0051021,28.3288263 64.1597848,29.0826343 L63.4254226,29.7609471 C63.2206705,29.9462534 63.0159185,30.1315598 62.8214612,30.3248732 C62.4508485,30.6909104 62.0996815,31.0763934 61.7473706,31.4630203 L61.3744702,31.8656612 C61.2829609,31.9606021 61.1914516,32.0566869 61.0633385,32.1985263 C61.01644,32.2465687 60.9706853,32.2946111 60.9352255,32.3357903 C60.4776789,32.8631127 60.0304272,33.4064493 59.5980457,33.9646561 C59.3052159,34.3432758 59.0169615,34.7299027 58.7367143,35.121105 L58.5193797,35.4276612 C58.2185428,35.8554672 57.9302885,36.2844171 57.6591921,36.7110793 L57.2485441,37.3779534 C57.1501716,37.5380947 57.0517991,37.6970921 56.9557143,37.8595211 C56.7692641,38.1798037 56.5908209,38.5012302 56.4169532,38.8260882 C56.4146655,38.8318076 56.3597599,38.9290362 56.3563283,38.9347555 C56.1733097,39.2779155 55.999442,39.6222192 55.8347252,39.9653792 C55.7455036,40.1483978 55.6631453,40.3325603 55.5807869,40.5155789 L55.3691716,40.8701775 L56.4798659,41.3048467 L57.523072,41.7738319 L57.6683431,41.4535493 C57.7415505,41.2888326 57.8159018,41.1241158 57.8959725,40.9571113 C58.0481067,40.6414042 58.208248,40.3245532 58.3569506,40.0443059 C58.3661016,40.0282918 58.4278703,39.9184806 58.4370213,39.9013226 C58.5948748,39.6050612 58.7595916,39.3087999 58.9300277,39.0148262 C59.0146738,38.870699 59.1038954,38.7265719 59.193117,38.5835886 L59.586607,37.9430234 C59.8428331,37.5415263 60.1127855,37.1400292 60.3907451,36.7419637 L60.5943533,36.4559971 C60.8608742,36.0853844 61.1308266,35.7216348 61.4064984,35.3647485 C61.8137149,34.8420016 62.2312261,34.332981 62.7070745,33.7896445 C62.7196571,33.777062 62.8065909,33.6832649 62.8180296,33.6706824 C62.8843738,33.5951872 62.9552935,33.5231236 63.0239255,33.4499162 L63.439149,33.0038083 C63.7640071,32.646922 64.0877213,32.2900357 64.4297373,31.9514512 C64.6024611,31.7810151 64.7809043,31.6185861 64.9616352,31.4561571 L65.6857026,30.7869952 C66.4761143,30.0823735 67.3054174,29.4086362 68.156454,28.7817974 L68.6551798,28.4271988 C69.6732209,27.7042753 70.5894578,27.1094648 71.4576524,26.6084513 C72.1005054,26.2355508 72.7250564,25.9026857 73.3347372,25.600705 C73.4422606,25.5469433 73.5463525,25.5011886 73.6504443,25.4542901 L74.1766229,25.2117904 C74.4477192,25.0836774 74.7165278,24.9555643 75.0105015,24.8354584 C75.0253717,24.829739 75.1100178,24.7988546 75.1237442,24.7919914 L75.425725,24.6776048 C75.8512433,24.512888 76.2687545,24.3664731 76.6736832,24.2406478 L77.2719253,24.0553415 C77.394319,24.0221694 77.5109934,24.0004359 77.6288116,23.9775586 L78.1332567,23.8700351 C78.2911103,23.8334314 78.4466761,23.7968277 78.5976665,23.7716626 L78.7509446,23.7384905 C79.1307082,23.6801533 79.5024648,23.6424057 79.8627827,23.6263916 C79.877653,23.6263916 79.8913794,23.6252477 79.9062496,23.6241038 C80.2150936,23.6126652 80.5159304,23.6138091 80.887687,23.6424057 L81.6209054,23.7281957 C81.846247,23.7670871 82.0670133,23.8162734 82.3106568,23.8837615 C82.3289587,23.8906247 82.3484044,23.8963441 82.3655624,23.9020634 C82.5920479,23.9684076 82.8128141,24.0450467 83.0255733,24.1342683 C83.1605495,24.1903177 83.293238,24.2520865 83.4190633,24.316143 C83.5025656,24.3573222 83.584924,24.4007891 83.7347705,24.4865791 L96.734812,32.0406728 C96.6330079,32.055543 96.5266283,32.072701 96.4191049,32.0910029 C96.2235038,32.1230312 96.0198955,32.1687858 95.8174312,32.2156843 L95.493717,32.2877479 C95.1997433,32.3529483 94.9057697,32.4170048 94.6015012,32.5050825 L94.1942848,32.629764 C93.7390259,32.7716034 93.2723285,32.9351763 92.7919046,33.1216265 L92.7267042,33.1456477 C92.6958198,33.1593741 92.6637915,33.1696689 92.6317633,33.1822514 L92.454464,33.2508834 C92.0392405,33.4190318 91.6091467,33.6192084 91.1481686,33.8353992 L90.921683,33.9383471 C90.9056689,33.9452103 90.8907986,33.9532174 90.8747845,33.9600806 C90.7741242,34.008123 90.6757517,34.0481583 90.5739476,34.0984884 C90.5545019,34.1087832 90.5350562,34.1167903 90.5144666,34.1259412 C89.8636066,34.4496554 89.1978764,34.8053979 88.5115565,35.2011756 C84.4645572,37.5380947 80.9586067,40.5624774 78.0646247,44.2022603 C77.6699908,44.6975544 77.2948027,45.1928486 76.932197,45.6972937 C76.5089664,46.2875287 76.1154764,46.8789077 75.742576,47.4702866 L75.7185548,47.5114658 C75.6796633,47.5720907 75.6430596,47.6350033 75.6041681,47.6967721 L75.5641328,47.7619725 C75.2301238,48.305309 74.912129,48.8475017 74.5735445,49.4766282 C74.2624128,50.0577124 73.9798778,50.6387965 73.6836164,51.2999513 C73.6813287,51.3056706 73.6321425,51.4120502 73.6298547,51.4189134 C73.3839235,51.9748324 73.1643011,52.5330392 72.9481104,53.1324252 L72.856601,53.3886513 C72.6632876,53.9434265 72.4928515,54.4982017 72.3464366,55.0472576 L72.3166961,55.1627881 C72.3064013,55.2073989 72.2961065,55.2520097 72.2846678,55.2966204 L72.2434887,55.4624811 C72.1393968,55.8731291 72.052463,56.2837771 71.9723923,56.6990006 C71.9643853,56.7401798 71.9586659,56.7802152 71.9518027,56.8213944 C71.9083358,57.0490238 71.8705882,57.277797 71.8339845,57.5065703 L71.8248336,57.5671952 C71.7825105,57.8440109 71.7470506,58.1219704 71.7150224,58.39993 C71.7138785,58.4056493 71.7173101,58.4113686 71.7161662,58.417088 C71.6177937,59.2727 71.5503056,60.129456 71.5525934,60.9873558 L71.5617443,63.7143332 L55.8290059,54.5714092 C55.7809635,54.4707489 55.6539943,54.1150065 55.6517066,53.2216468 L55.6436995,50.4043039 C55.6414118,49.7202718 55.6883103,48.9836218 55.7901144,48.0948376 C55.8004092,48.0101915 55.8038408,47.9266893 55.8072724,47.7997201 C55.8152795,47.7299442 55.8301498,47.6613123 55.8427323,47.5926803 L55.8873431,47.3387419 C55.9273784,47.0790843 55.9708453,46.8182827 56.0223193,46.550618 L56.0898074,46.1536964 C56.1264112,45.9832603 56.1698781,45.813968 56.213345,45.6446758 L56.3975075,44.8988749 C56.49588,44.5419886 56.6056912,44.1851023 56.7223655,43.8327914 L57.0792519,42.8399154 C57.2005017,42.5242083 57.3309025,42.2085012 57.4704542,41.8859308 L57.4532962,41.8859308 L57.523072,41.7738319 L57.523072,41.7795513 L55.4206456,40.8701775 C55.4149263,40.8816161 55.3737471,40.9719816 55.3691716,40.9834203 C55.2193251,41.3265802 55.0786295,41.6720278 54.9436533,42.0197632 L54.5535949,43.1052924 C54.4231941,43.4999263 54.3019443,43.8945602 54.1944208,44.2857625 L53.9976758,45.0761742 C53.9473457,45.2740631 53.8958717,45.471952 53.8524048,45.6744163 C53.8306713,45.7750766 53.8146572,45.8768807 53.7997869,45.9786848 L53.7757657,46.1205242 C53.7185724,46.4099224 53.67053,46.7004645 53.6259192,46.9932943 L53.5950348,47.1694497 C53.5744452,47.2804048 53.5538556,47.3925037 53.5366976,47.5137535 C53.5275467,47.5983996 53.5241151,47.6819019 53.5183958,47.8283168 C53.405153,48.8154735 53.353679,49.6356257 53.3559667,50.4111671 L53.3639738,53.2273661 C53.3674054,54.3277656 53.4978062,55.8628343 54.603925,56.5056872 L61.8480309,60.7151156 L61.7931253,60.8100565 C61.761097,60.8683937 61.7290688,60.9290186 61.6981844,60.9953628 L61.5895171,61.2435818 C61.5837977,61.2561644 61.5506256,61.3385227 61.5460501,61.3511053 C61.5163096,61.4277443 61.4877129,61.507815 61.4579724,61.5947488 C61.427088,61.6919775 61.3950598,61.79035 61.3710386,61.8830031 C61.3390103,61.9985337 61.3092698,62.1197835 61.298975,62.1746891 C61.2932557,62.1998541 61.2760977,62.26963 61.2703783,62.2947951 C61.2234798,62.5121297 61.1845884,62.7431907 61.1548478,62.9685324 C61.1468408,63.0337327 61.1422653,63.1092279 61.1434092,63.1561264 C61.0839281,63.6708663 61.0564753,64.1627289 61.058763,64.6591669 L61.0702017,69.2186183 C61.0713456,69.6281225 61.093079,69.9987352 61.1308266,70.3304565 C61.2783854,71.6035798 61.709623,72.431739 62.4508485,72.8629767 L75.3799703,80.3758912 L74.4111155,80.3038276 C74.3790872,80.7487916 74.347059,81.1937556 74.2944411,81.6078353 C74.244111,82.0047569 74.1766229,82.3730819 74.1091347,82.7436946 L74.0702433,82.988482 C74.0565169,83.0719842 74.0439344,83.1577742 74.0256325,83.2401326 C73.9169652,83.7617357 73.7911399,84.2410157 73.6504443,84.6745411 C73.5703737,84.931911 73.4765766,85.1847055 73.3770603,85.4317806 L64.9662107,80.5440395 C64.9421895,80.531457 64.9193121,80.5177306 64.8941471,80.5062919 C64.8552556,80.4868462 64.8106448,80.4651127 64.7500199,80.4388038 C64.71456,80.4239335 64.6047489,80.3861859 64.5681451,80.3747473 C64.5052325,80.3564454 64.441176,80.3415752 64.3496667,80.325561 C64.3073436,80.3186978 64.1609287,80.3026837 64.1186057,80.300396 L63.9893488,80.2981082 C63.9607521,80.2981082 63.9024149,80.2969644 63.8726744,80.2981082 C63.7754457,80.3038276 63.6747855,80.3129785 63.5775568,80.3278488 C63.4505877,80.3472945 63.3156114,80.3758912 63.1108594,80.4342283 L62.9209775,80.4982849 C62.788289,80.5406079 62.6567444,80.5840748 62.5183366,80.6412682 C62.4657187,80.6618577 62.4016622,80.693886 62.3719217,80.7133317 C62.0218986,80.865466 61.6432788,81.0496285 61.2051779,81.3024229 L54.8761652,84.9559322 C54.4483592,85.2041512 54.0537252,85.4741037 53.6316385,85.8104004 C53.5389854,85.8847517 53.4520515,85.9602469 53.3651177,86.0357421 C53.3639738,86.0368859 53.2701768,86.1146689 53.2690329,86.1158127 C53.1809552,86.1867324 53.0940213,86.2599399 53.0185262,86.3342912 C52.9041395,86.4486778 52.7931845,86.5653522 52.6879488,86.6877459 C52.6158852,86.7712482 52.5461093,86.8547504 52.4877722,86.9313895 L52.2761569,87.226507 C52.2647182,87.243665 52.1995178,87.3489007 52.1903669,87.3660587 L52.0977137,87.5307754 C52.0942821,87.5399264 52.0462397,87.6360112 52.0416643,87.6451621 L51.8963932,87.9803149 C51.8677966,88.0512347 51.8426315,88.1244421 51.8220419,88.1862109 C51.7934453,88.2754325 51.7648486,88.3669418 51.7454029,88.4401492 L51.6802025,88.7020946 C51.6744831,88.7215404 51.6573252,88.7936039 51.6527497,88.8141935 C51.6150021,88.9972122 51.58183,89.1905256 51.5578088,89.3804074 C51.5566649,89.3895583 51.5486578,89.503945 51.547514,89.5142398 C51.5040471,89.889428 51.4783086,90.2886373 51.4783086,90.7324575 L51.4891768,94.8492326 C51.5074787,100.970062 53.1271935,105.010198 56.3025666,106.856398 L74.4991932,117.431443 C74.5907025,117.484061 74.6856434,117.522952 74.7817282,117.548117 C74.9510204,117.637339 75.1031546,117.749438 75.2804539,117.827221 C76.4220326,118.32709 77.6814295,118.576453 79.0563569,118.576453 C81.9949497,118.576453 85.459721,117.433731 89.4037723,115.157437 C95.7316412,111.502783 100.670856,106.426304 104.087585,100.067551 C107.482581,93.7305313 109.193805,86.4795622 109.171376,78.5159644 C109.149194,71.2169529 107.690764,67.2706139 104.691547,66.4470301 C102.529639,65.8922549 101.644287,65.3900975 101.291976,65.1144257 Z" id="Fill-1" stroke="#FFFFFF" stroke-width="0.7" fill="#002A5D"></path>
                    </g>
                </g>
            </g>
        </g>
    </g>
</svg>