<?xml version="1.0" encoding="UTF-8"?>
<svg width="152px" height="154px" viewBox="0 0 152 154" version="1.1" xmlns="http://www.w3.org/2000/svg" xmlns:xlink="http://www.w3.org/1999/xlink">
    <title>Group 7</title>
    <g id="I---Marque" stroke="none" stroke-width="1" fill="none" fill-rule="evenodd">
        <g id="I.1.0---La-marque---Qui-sommes-nous-?" transform="translate(-207.000000, -4770.000000)">
            <g id="//-Chiifres" transform="translate(0.000000, 4493.000000)">
                <g id="01" transform="translate(177.000000, 277.999893)">
                    <g id="Group-7" transform="translate(31.385000, 0.000000)">
                        <circle id="Oval" stroke="#002A5D" stroke-width="1.012" cx="75" cy="76.7482005" r="75"></circle>
                        <path d="M103.861091,4.36730096e-05 L103.956697,0.0025605729 C104.092859,0.000103908103 104.194981,0.0025605729 104.292847,0.00468810702 L104.292847,0.00468810702 L104.526876,0.00575187408 C104.6524,0.00681564114 104.775797,0.00468810702 104.896003,0.0121344764 C105.056632,0.022772147 105.209814,0.0429837212 105.361933,0.0631952953 L105.361933,0.0631952953 L105.494904,0.0812793353 C105.639576,0.0961720742 105.71404,0.104682211 105.78744,0.116383648 C105.836373,0.119574949 105.890625,0.125957552 105.943814,0.135531455 C106.267199,0.19191111 106.593775,0.267438571 106.911842,0.359986305 C106.940563,0.367432674 107.041621,0.403600755 107.070343,0.413174658 C107.138424,0.435513766 107.207569,0.459980409 107.27565,0.485510818 L107.27565,0.485510818 L107.461809,0.549336842 C107.59478,0.594015058 107.726687,0.638693275 107.856467,0.692945395 C108.091559,0.790811964 108.322397,0.900379972 108.551107,1.01952188 L108.551107,1.01952188 L108.561744,1.02590448 C108.562808,1.02696825 108.562808,1.02590448 108.563872,1.02696825 L108.563872,1.02696825 L108.740457,1.12483482 C108.770243,1.14079133 108.825559,1.17270434 108.82875,1.17483187 L108.82875,1.17483187 L125.559678,10.896599 C125.574571,10.9061729 125.583081,10.9210657 125.597974,10.9317033 C129.166912,13.0347708 130.991273,17.6217344 131.010421,24.5862173 L131.010421,24.5862173 L131.093549,53.9025737 C131.112542,60.7872741 129.356263,67.2677431 125.869234,73.1631401 C122.618362,78.6628158 118.436694,82.913629 113.441244,85.7975015 C110.177607,87.6824967 107.232036,88.6260581 104.636444,88.6260581 C103.071643,88.6260581 101.634493,88.2835251 100.331379,87.5984591 C100.256915,87.558036 100.185643,87.5101665 100.112243,87.4686795 C100.090967,87.4580419 100.067564,87.4537868 100.046289,87.4410216 L100.046289,87.4410216 L91.8393262,82.6721539 C91.1180922,87.1187002 89.7437051,91.2673917 87.7119101,95.0607851 C84.5344378,100.974266 79.9410917,105.695264 74.0563323,109.092936 C70.3873997,111.210897 67.1663131,112.2736 64.4334955,112.2736 C63.1548475,112.2736 61.9836399,112.040635 60.9220004,111.575769 C60.7571165,111.504496 60.6156355,111.400247 60.4571342,111.317273 C60.3677778,111.292807 60.2794851,111.257702 60.1954475,111.208769 L60.1954475,111.208769 L43.2730411,101.374243 C40.3200238,99.6562588 38.8137296,95.9000973 38.7967093,90.2078797 L38.7967093,90.2078797 L38.7860397,86.3783183 C38.7850079,85.9666405 38.8105383,85.5953858 38.8509615,85.2454064 C38.8512274,85.2432789 38.8518922,85.2350347 38.8527566,85.2237155 L38.8587402,85.1432349 L38.8587402,85.1432349 L38.8605354,85.1209456 C38.8828745,84.9443603 38.9137237,84.7656474 38.948828,84.5954447 C38.9530831,84.5762969 38.9690396,84.5092796 38.9743584,84.4911955 L38.9743584,84.4911955 L39.0349932,84.2475929 C39.0520134,84.1795118 39.0796714,84.0933467 39.1062655,84.0114366 C39.1254134,83.9539932 39.1488162,83.8859121 39.1754104,83.8199585 L39.1754104,83.8199585 L39.3105088,83.5082748 C39.3137001,83.4987009 39.3583783,83.4104082 39.3626334,83.4018981 L39.3626334,83.4018981 L39.4477348,83.2487156 C39.4501282,83.2447265 39.455713,83.235618 39.4629101,83.2239498 L39.5128074,83.1437019 L39.5128074,83.1437019 L39.5285811,83.118936 L39.725378,82.8444841 C39.7796301,82.7732117 39.8445199,82.6955567 39.9115372,82.616838 C40.0094038,82.5030149 40.1115254,82.3955744 40.2189659,82.2891977 C40.2891745,82.2200529 40.3700208,82.1519718 40.4519309,82.0860182 C40.4529946,82.0849545 40.5402235,82.0126183 40.5412873,82.0104908 C40.6221336,81.9413459 40.7029799,81.8711373 40.789145,81.8019924 C41.1816751,81.4892449 41.5486747,81.2371321 41.9454598,81.0084222 L41.9454598,81.0084222 L41.9465236,81.0084222 L41.9465236,81.0073584 L47.8323467,77.6096864 L48.0703923,77.4759156 C48.3795485,77.3069383 48.656979,77.1741802 48.9173891,77.0618464 C48.9450471,77.0437624 49.004618,77.0139769 49.0535513,76.9948291 C49.1822671,76.9416407 49.3046003,76.9012176 49.4279973,76.8618582 L49.4279973,76.8618582 L49.6045827,76.8022872 C49.794997,76.7480351 49.9205215,76.7214409 50.0385996,76.7033569 C50.1290198,76.6895279 50.2226313,76.679954 50.3130515,76.675699 C50.3407095,76.6735714 50.3949616,76.6746352 50.4215558,76.6746352 L50.4215558,76.6746352 L50.5417614,76.6767627 C50.5811208,76.6788903 50.717283,76.693783 50.7566424,76.7012294 C50.84068,76.7161221 50.9013147,76.7299511 50.9598219,76.7469713 C50.9938624,76.7565453 51.0959841,76.7927133 51.1289609,76.8065423 C51.1853405,76.8310089 51.2268274,76.8501568 51.2629955,76.8693046 C51.2853346,76.8799422 51.3076737,76.8916437 51.3300128,76.9044089 L51.3300128,76.9044089 L59.151892,81.4498855 C59.2444398,81.2201118 59.3316687,80.9850193 59.4061324,80.7456717 C59.5369757,80.342504 59.6539901,79.8967856 59.7550479,79.4117078 C59.7720682,79.3340528 59.7837697,79.2553341 59.7954711,79.1766153 L59.7954711,79.1766153 L59.8327029,78.9500329 C59.8954652,78.6053724 59.9582275,78.2628394 60.0050332,77.8926485 C60.0539665,77.5086286 60.083752,77.0937594 60.1135374,76.6810178 L60.1135374,76.6810178 L61.0145481,76.7480351 L48.9907891,69.7601493 C48.301468,69.3601729 47.9004278,68.5900055 47.7632019,67.404969 C47.7280976,67.0964766 47.707886,66.7528798 47.7068222,66.3709874 L47.7068222,66.3709874 L47.6951208,62.1329395 C47.6929933,61.669137 47.7195874,61.212781 47.7749033,60.733022 C47.7738396,60.6894076 47.7780946,60.6202627 47.785541,60.559628 C47.8131989,60.3500659 47.849367,60.1351849 47.8929815,59.9330692 C47.8983003,59.9096663 47.913193,59.8447765 47.9195756,59.8213737 C47.9291495,59.7703128 47.9568075,59.6575535 47.986593,59.5501131 C48.0089321,59.4639479 48.0387175,59.3714002 48.0674393,59.28098 C48.0940334,59.2011975 48.1216914,59.1267338 48.1493493,59.0543976 C48.1536044,59.0437599 48.1844536,58.9661049 48.1897725,58.9554673 L48.1897725,58.9554673 L48.2908303,58.7235661 C48.3195521,58.6629313 48.3493375,58.6065517 48.379123,58.5512358 L48.379123,58.5512358 L48.4301838,58.4640069 L41.693347,54.5493441 C40.6646843,53.951507 40.5434148,52.5239316 40.5402235,51.5005877 L40.5402235,51.5005877 L40.5327772,48.8815932 C40.5306496,48.1603591 40.5785192,47.3976382 40.6838321,46.4796072 C40.6880872,46.343445 40.6912785,46.26579 40.7008524,46.1870712 C40.7168089,46.0732482 40.7348929,45.9700628 40.7551045,45.8668774 L40.7551045,45.8668774 L40.7838262,45.7030572 C40.8253131,45.4296691 40.8699913,45.160536 40.9231797,44.8903392 L40.9231797,44.8903392 L40.9455188,44.7584321 C40.9593478,44.6648206 40.9742405,44.5701453 40.9944521,44.4765338 C41.0348752,44.288247 41.0827447,44.1042153 41.1295505,43.9191199 L41.1295505,43.9191199 L41.3114547,43.1851206 C41.4125125,42.8213123 41.5252718,42.4543126 41.6465413,42.087313 L41.6465413,42.087313 L42.0092859,41.0777981 C42.1348104,40.7533491 42.2656537,40.4331552 42.4050072,40.1129613 C42.4092623,40.1023237 42.4475579,40.0182861 42.4528767,40.0087122 L42.4528767,40.0087122 L43.4368612,40.4118799 L42.5167027,39.8661674 L42.6018041,39.6789444 C42.6783953,39.5076779 42.7549866,39.3374752 42.8379604,39.1672724 C42.9911428,38.8481423 43.1528354,38.5279484 43.3230382,38.2088183 C43.3262295,38.2034995 43.3772903,38.1120155 43.3794178,38.1066967 C43.5411104,37.8056506 43.7059943,37.506732 43.8793883,37.2088773 C43.9687448,37.0578223 44.0602287,36.908895 44.1527765,36.7610313 L44.1527765,36.7610313 L44.5346689,36.1397914 C44.7867816,35.74407 45.0548509,35.3451574 45.3346217,34.9462447 L45.3346217,34.9462447 L45.5367374,34.6611552 C45.7973604,34.2973468 46.0654297,33.9388573 46.337754,33.5867504 C46.739858,33.0676321 47.1557909,32.5623427 47.5812977,32.0719461 C47.6142745,32.0336505 47.6568252,31.9889723 47.7004396,31.9442941 C47.8195815,31.812387 47.9046829,31.7230305 47.9897843,31.6347379 L47.9897843,31.6347379 L48.3365723,31.2602919 C48.6642126,30.9007386 48.9907891,30.5422491 49.3343858,30.2018436 C49.51629,30.022067 49.7067043,29.8497367 49.8971186,29.6774065 L49.8971186,29.6774065 L50.5800571,29.0465926 C51.3661809,28.3455701 52.1895366,27.6764606 53.0309764,27.0562844 C53.1384168,26.9765019 53.2522399,26.8967194 53.366063,26.8158731 L53.366063,26.8158731 L53.5277556,26.7031138 C54.5276966,25.9914536 55.4361537,25.4031904 56.3020601,24.9032199 L56.3020601,24.9032199 C56.9403203,24.5340927 57.5604965,24.204325 58.1647162,23.9022151 C58.293432,23.8383891 58.4189565,23.7830732 58.544481,23.7277573 L58.544481,23.7277573 L58.9859444,23.523514 C59.2689064,23.3894794 59.5529322,23.2554447 59.8263203,23.1426854 C59.8401493,23.1363028 59.9305695,23.1022623 59.946526,23.0958797 L59.946526,23.0958797 L60.2826764,22.9682276 C60.7294586,22.7937698 61.1645393,22.6427149 61.5889824,22.5108078 L61.5889824,22.5108078 L62.2144774,22.318266 C62.3868077,22.2714602 62.5431814,22.240611 62.7016827,22.2097617 L62.7016827,22.2097617 L63.0995316,22.1257241 C63.2878184,22.0821097 63.4750414,22.0384952 63.6580093,22.0087097 C63.7175802,21.993817 63.7728961,21.9821156 63.823957,21.9746692 C64.2643565,21.9065881 64.6898633,21.8640374 65.1057963,21.8459534 C65.1217528,21.8448896 65.138773,21.8438258 65.1557933,21.8448896 C65.4993901,21.8299969 65.8546883,21.8331882 66.2004126,21.8555273 C66.2748763,21.8597824 66.3514675,21.8693563 66.4301862,21.8799939 L66.5474832,21.8932744 C66.6546411,21.9055908 66.7344236,21.9153642 66.8142062,21.9257359 C67.0003654,21.9448837 67.0907856,21.9544576 67.1790783,21.9693504 C67.490762,22.0236025 67.7907443,22.0938111 68.0854078,22.1778487 C68.1045556,22.1842313 68.1237034,22.1906139 68.1428512,22.1969965 C68.4141118,22.276779 68.6843086,22.3714543 68.9459953,22.4820861 C69.1161981,22.5533585 69.281082,22.6299497 69.4470296,22.7118598 C69.5565976,22.7682394 69.6629743,22.8235553 69.765096,22.8820625 L69.765096,22.8820625 L78.4103309,27.9062343 C78.7879682,25.9808159 79.3379358,23.8628557 79.3677212,23.7479689 C79.3904858,23.6709522 79.4133356,23.5943184 79.4359981,23.5189781 L79.5675477,23.0897439 C79.6091964,22.9566964 79.6479175,22.8361078 79.6815325,22.7352626 L79.6815325,22.7352626 L80.0144916,21.7991476 C80.0878915,21.5906493 80.1612915,21.3821509 80.2400102,21.1757801 C80.3442594,20.9087746 80.4527636,20.6449604 80.5633954,20.3822099 L80.5633954,20.3822099 L80.8367835,19.7216106 C81.0314529,19.2705733 81.2420788,18.811026 81.4633423,18.3536061 L81.4633423,18.3536061 L82.1494721,16.9973031 C82.3898834,16.5473297 82.6388049,16.09842 82.8983641,15.6527016 L82.8983641,15.6527016 L83.0132509,15.4569684 C83.2643,15.0325254 83.5185403,14.6165924 83.780227,14.2091697 C83.8461806,14.1059843 83.9142616,14.0049264 83.9844703,13.9038685 L83.9844703,13.9038685 L84.7408087,12.7752117 C84.8929273,12.5571394 85.0524924,12.3454498 85.2109937,12.1337601 L85.2109937,12.1337601 L85.8088308,11.3263609 C86.1162595,10.9295758 86.4268794,10.5604486 86.7374994,10.193449 L86.7374994,10.193449 L86.8949369,10.0019709 C86.9555717,9.92537971 87.0172702,9.84985225 87.0810962,9.77645232 C87.1566236,9.68709589 87.2108758,9.63071623 87.2651279,9.57540035 C87.7980752,8.97862703 88.2682602,8.47440144 88.7522742,7.98932366 L88.7522742,7.98932366 L88.8926915,7.8393325 C89.0586391,7.67657614 89.223523,7.52552122 89.3894707,7.37553007 L89.3894707,7.37553007 L89.8107225,6.98512755 C89.9702875,6.83407263 90.1298526,6.68408148 90.2936727,6.53940916 C90.5691884,6.29687027 90.8553417,6.06496905 91.1393675,5.83306783 L91.1393675,5.83306783 L91.4861556,5.54904202 C91.635083,5.42564504 91.7840104,5.30224807 91.936129,5.18523369 C92.2892997,4.91290932 92.653108,4.65760523 93.0179801,4.40123737 L93.0179801,4.40123737 L93.2913683,4.20550423 C93.4105102,4.11827533 93.5307159,4.03104643 93.6551766,3.9480726 C94.242376,3.55554255 94.8402131,3.18109655 95.4518792,2.82686212 C96.0486525,2.48326536 96.6284055,2.17796421 97.2007122,1.89712971 C97.325173,1.83649498 97.4464424,1.78224286 97.5687756,1.72692698 L97.5687756,1.72692698 L97.9857723,1.53544891 C98.1963982,1.4354548 98.4070241,1.33652447 98.6123311,1.2514231 C98.6825397,1.22270139 98.7442382,1.20248982 98.8038092,1.18334201 C99.5803591,0.873785795 100.243086,0.645075877 100.844114,0.480191983 C100.862198,0.474873148 100.880282,0.470618079 100.898367,0.465299244 C101.419612,0.323818225 101.955751,0.20999515 102.472742,0.131276387 C102.56529,0.119574949 102.622733,0.113192347 102.680176,0.108937279 C103.064196,0.0589402271 103.420558,0.0174533117 103.766283,0.0025605729 C103.829045,-0.00169449534 103.892871,0.000103908103 103.956697,0.0025605729 Z M66.1365865,23.9873165 C65.7908622,23.9607223 65.5100277,23.9596585 65.2238744,23.97136 L65.2238744,23.97136 C65.2100454,23.9702962 65.1972802,23.97136 65.1834513,23.97136 C64.8473009,23.9873165 64.5026403,24.0224208 64.1494697,24.0766729 L64.1494697,24.0766729 L64.0069249,24.1075222 C63.8665076,24.130925 63.7218353,24.1649656 63.5750355,24.1990061 L63.5750355,24.1990061 L63.1059142,24.2990002 C62.9963462,24.3202756 62.8878419,24.3404871 62.7740189,24.3702726 L62.7740189,24.3702726 L62.2176687,24.5426029 C61.8410952,24.6596173 61.4528202,24.7957794 61.0570988,24.9500257 L61.0570988,24.9500257 L60.7762643,25.0553386 L60.7762643,25.0553386 L60.7015642,25.0851241 L60.7015642,25.0851241 L60.6709514,25.0968255 C60.3975633,25.2074573 60.1465142,25.327663 59.8954652,25.4468049 L59.8954652,25.4468049 L59.4061324,25.6723235 C59.3093295,25.7159379 59.2125267,25.7584886 59.1125326,25.8074219 C58.5455448,26.0893202 57.964728,26.3988764 57.3679547,26.7446007 L57.3679547,26.7446007 L57.3668909,26.7446007 L57.0176466,26.9497775 C56.3133273,27.3712897 55.5721639,27.8607963 54.7606616,28.4370541 L54.7606616,28.4370541 L54.2957954,28.7668219 C53.5054165,29.3497662 52.7341854,29.976325 51.9991223,30.6316055 L51.9991223,30.6316055 L51.3257578,31.2539093 C51.1576826,31.4049642 50.9917349,31.5560191 50.8311061,31.7145204 C50.5130397,32.0293954 50.2119937,32.3612908 49.90882,32.6931861 L49.90882,32.6931861 L49.5237364,33.1080552 C49.4599103,33.1750726 49.3939568,33.2420899 49.3311945,33.3133623 C49.3288011,33.3162876 49.321953,33.3239335 49.3128445,33.3339395 L49.2486196,33.4034168 L49.2486196,33.4034168 L49.2290729,33.4239941 C48.7865458,33.9282197 48.3982708,34.4026598 48.0195697,34.8888013 C47.7632019,35.2206966 47.5121529,35.5589746 47.2642951,35.9036351 L47.2642951,35.9036351 L47.0749446,36.1695768 C46.8164492,36.5397678 46.5654002,36.9120863 46.3271163,37.2865323 L46.3271163,37.2865323 L45.9611805,37.8822418 C45.8782066,38.0152127 45.7952328,38.1492473 45.7165141,38.283282 C45.5580128,38.5556064 45.4048303,38.8321858 45.2569667,39.1077015 C45.2495203,39.123658 45.1920769,39.2247158 45.1835668,39.2396086 C45.045277,39.5012953 44.8963497,39.794895 44.7548686,40.0895585 C44.6793412,40.2438047 44.6112601,40.3969871 44.543179,40.5501696 L44.543179,40.5501696 L44.4867993,40.6735666 L43.4368612,40.4118799 L44.4080806,40.8490881 L43.3826091,40.5320856 L44.3591473,40.9522735 C44.2293677,41.2533196 44.1080983,41.5458556 43.995339,41.8394553 L43.995339,41.8394553 L43.6634436,42.7628051 C43.5549394,43.0915091 43.4528178,43.4234044 43.3613338,43.7552998 L43.3613338,43.7552998 L43.1900673,44.4478121 C43.1496441,44.6063134 43.109221,44.7637509 43.0751804,44.9222522 L43.0751804,44.9222522 L43.0124182,45.2913794 C42.9645487,45.5392371 42.9241255,45.781776 42.8868937,46.0243149 L42.8868937,46.0243149 L42.8454068,46.2604712 C42.8337053,46.3242972 42.8198764,46.3881232 42.81243,46.453013 C42.8092387,46.5710912 42.8060474,46.6487462 42.7964735,46.7274649 C42.7017982,47.5540119 42.6581838,48.2390779 42.6603113,48.8752106 L42.6603113,48.8752106 L42.6677577,51.4942051 L42.6702207,51.6773827 C42.6876167,52.3754134 42.7914001,52.6631215 42.8326416,52.750514 L42.8326416,52.750514 L57.4636937,61.2521404 L57.4551836,58.7161197 C57.453056,57.9193582 57.5158183,57.1225966 57.6073023,56.3258351 C57.608366,56.32158 57.6051747,56.3162612 57.6062385,56.3109424 C57.636024,56.052447 57.667937,55.7939516 57.7083601,55.5354562 L57.7083601,55.5354562 L57.7168703,55.4801403 C57.7509108,55.2673869 57.7860151,55.0546335 57.8253745,54.84188 C57.8328209,54.8046482 57.8381397,54.7674164 57.8445223,54.7291207 C57.9200498,54.3429733 58.0008961,53.9610809 58.0976989,53.5781248 L58.0976989,53.5781248 L58.1359945,53.4238786 C58.1466322,53.3834554 58.1551423,53.3419685 58.16578,53.3004816 L58.16578,53.3004816 L58.1934379,53.1930411 C58.3285363,52.6824329 58.4881014,52.1665059 58.667878,51.6505789 L58.667878,51.6505789 L58.7529794,51.4112313 C58.9540314,50.8548811 59.1582746,50.3357628 59.3869845,49.8177082 C59.3891121,49.8123894 59.4348541,49.7134591 59.4369816,49.7081402 C59.7124973,49.0932829 59.9752477,48.5528892 60.2645924,48.0124955 C60.5794674,47.4274236 60.8751947,46.9231981 61.1858146,46.4179087 L61.1858146,46.4179087 L61.2230465,46.3562102 C61.2581508,46.2998306 61.2932551,46.2413234 61.3294232,46.1838799 L61.3294232,46.1838799 L61.3517623,46.1466481 C61.6974866,45.5966805 62.0644862,45.046713 62.45808,44.4978092 C62.7952942,44.0286879 63.1442098,43.567013 63.5122732,43.1074656 C66.2025401,39.7225588 69.4629861,36.908895 73.226594,34.7366826 C73.8648542,34.3686192 74.4839667,34.0367239 75.0892501,33.7367416 C75.1083979,33.7271677 75.126482,33.7197213 75.144566,33.7112112 C75.2392413,33.6644054 75.3307252,33.6271736 75.4243367,33.5824954 C75.4381657,33.575049 75.4530585,33.5676026 75.4679512,33.5622838 L75.4679512,33.5622838 L75.6785771,33.4665447 C76.1062114,33.2654928 76.5072516,33.0782698 76.8933991,32.921896 L76.8933991,32.921896 L77.0582829,32.8591338 L77.0582829,32.8591338 L77.1465756,32.8250932 L77.2072103,32.8027541 C77.6539925,32.6293601 78.0880095,32.4772414 78.5113887,32.3453343 L78.5113887,32.3453343 L78.8900898,32.2293837 C79.1730519,32.1474736 79.44644,32.0868389 79.7198281,32.0272679 L79.7198281,32.0272679 L80.0208742,31.9602506 C80.209161,31.9166361 80.3985115,31.8740855 80.5793519,31.8432362 C80.6804098,31.8272797 80.7793401,31.8113232 80.8740154,31.7974942 L80.8740154,31.7974942 L78.6603161,30.5103361 L78.6592524,30.5103361 L68.7843028,24.7713128 C68.6449493,24.692594 68.5672943,24.6521709 68.490703,24.6128115 C68.3736887,24.5543043 68.2502917,24.4968609 68.1237034,24.4447363 C67.9269065,24.3617625 67.7215995,24.2904901 67.5109736,24.2287916 C67.4950171,24.2234728 67.476933,24.2181539 67.458849,24.2117713 C67.2333304,24.1490091 67.0280233,24.1022033 66.8184612,24.0660352 L66.8184612,24.0660352 Z" id="Fill-3" fill="#FFFFFF"></path>
                        <path d="M116.103853,64.3055773 C116.095343,64.4342931 116.079386,64.5608814 116.066621,64.6885335 C116.048537,64.8821391 116.03258,65.0757447 116.00705,65.2650952 C115.997476,65.3129647 115.988966,65.3682806 115.987902,65.3821096 L115.960244,65.5395471 C115.947479,65.626776 115.930459,65.7097498 115.91663,65.795915 C115.886844,65.9629264 115.861314,66.1320654 115.82621,66.2958855 C115.8177,66.3320536 115.808126,66.3660941 115.799616,66.4022622 C115.738981,66.6639489 115.6709,66.9203168 115.594308,67.1734933 L115.560268,67.2841251 C115.124123,68.7159556 114.426292,69.8680153 113.484858,70.7328579 L113.306146,70.8871041 C113.006163,71.1445358 112.690224,71.3828196 112.342373,71.5828078 C112.334926,71.5870628 112.329607,71.5891904 112.322161,71.5934455 C112.178552,71.6753555 112.037071,71.7476917 111.886016,71.8072626 C111.875379,71.8125815 111.865805,71.8157728 111.855167,71.8200278 C111.814744,71.8338568 111.690283,71.8753437 111.677518,71.8806626 L111.587098,71.9136393 C111.53391,71.9285321 111.483913,71.9402335 111.434979,71.9498074 C111.393492,71.9572538 111.348814,71.9647002 111.289243,71.9721465 L111.289243,71.9721465 C111.244565,71.9774654 111.198823,71.9817204 111.157336,71.9827842 C111.129678,71.983848 111.105211,71.9827842 111.078617,71.9827842 C111.025429,71.9806567 110.973304,71.9764016 110.924371,71.9689552 C110.922244,71.9689552 110.917988,71.9689552 110.915861,71.9678915 C110.910542,71.9668277 110.879693,71.9604451 110.849907,71.9529987 C110.811612,71.9455523 110.776507,71.9359784 110.742467,71.9253408 C110.720128,71.9178944 110.699916,71.910448 110.677577,71.9030017 C110.645664,71.8902365 110.615879,71.8774713 110.586093,71.8625785 C110.564818,71.8530046 110.543542,71.8434307 110.521203,71.8306655 C110.479716,71.8083264 110.439293,71.7849235 110.402061,71.7604569 C110.20952,71.6391874 109.584025,71.0307127 109.576578,68.3234255 L109.481856,35.0168789 C109.476584,32.6989304 109.919111,30.7447903 110.798847,29.2108382 C111.400939,28.1683465 112.210465,27.3620111 113.274233,26.7482175 C114.019933,26.3184556 114.492246,26.2142064 114.776272,26.2142064 C114.878393,26.2142064 114.954984,26.2280354 115.012428,26.2439919 C115.040086,26.2525021 115.096465,26.2759049 115.160291,26.3163281 C115.212416,26.3493049 115.261349,26.3950468 115.310283,26.4471714 C115.326239,26.4641917 115.340068,26.4748294 115.357088,26.4961047 C115.418787,26.5726959 115.479422,26.6631161 115.537929,26.7748117 C115.764511,27.2003185 116.035772,28.1077118 116.040027,30.0075998 L116.134702,63.3152102 C116.135766,63.6502968 116.125128,63.9800646 116.103853,64.3055773 M118.119691,28.6715083 C118.023952,27.4375386 117.793115,26.4844033 117.420797,25.7855083 C117.270805,25.4950999 117.100603,25.2642625 116.925081,25.065338 C116.876148,25.0089584 116.819768,24.9642801 116.767644,24.9121556 C116.61127,24.7589731 116.45596,24.6313211 116.299586,24.5323907 C116.267673,24.5121791 116.24427,24.4802661 116.212357,24.4611183 C116.194273,24.4504807 116.172998,24.4515444 116.154914,24.4419705 C115.961308,24.33453 115.773021,24.2504924 115.608137,24.2015592 C114.632663,23.9175334 113.52209,24.1483708 112.210465,24.905773 C110.833951,25.7004069 109.739335,26.7907682 108.954274,28.1491987 C107.885189,30.0139824 107.347986,32.326612 107.354313,35.0232615 L107.449044,68.3298081 C107.45649,71.0753909 108.049009,72.7848646 109.251065,73.5497131 C109.279787,73.5688609 109.313828,73.5858812 109.344677,73.6039652 C109.347868,73.6060927 109.348932,73.6103478 109.353187,73.6124753 C109.374462,73.6263043 109.425523,73.6571535 109.446799,73.6699188 C109.478712,73.6880028 109.512752,73.700768 109.544665,73.7177883 C109.597854,73.7454462 109.652106,73.7709766 109.707422,73.7975708 C109.745717,73.8145911 109.782949,73.8369302 109.821245,73.8528867 C109.874433,73.874162 109.929749,73.8911823 109.984001,73.9103301 C110.024424,73.9241591 110.063784,73.9401156 110.10527,73.9528808 C110.131865,73.9613909 110.155267,73.9720286 110.182925,73.9805387 L110.402061,74.0326633 C110.425464,74.0379822 110.510566,74.05713 110.535032,74.061385 C110.541415,74.0635126 110.549925,74.0635126 110.557371,74.0645763 C110.563754,74.0656401 110.5712,74.0656401 110.577583,74.0667039 C110.682896,74.0837241 110.788209,74.0975531 110.903096,74.1049995 C110.978623,74.1103183 111.053087,74.1124458 111.121168,74.1124458 C111.167974,74.1124458 111.212652,74.1113821 111.254139,74.1092545 C111.27435,74.1081908 111.443489,74.0943618 111.463701,74.0922343 C111.51157,74.0879792 111.562631,74.0815966 111.613692,74.0762778 C111.622202,74.075214 111.628585,74.0741502 111.637095,74.0730865 C111.650924,74.0709589 111.663689,74.0709589 111.678582,74.0688314 C111.824318,74.0454285 111.973245,74.0145793 112.129619,73.9720286 C112.139193,73.9699011 112.156213,73.9635185 112.167915,73.9592634 C112.1977,73.9507533 112.230677,73.9379881 112.261526,73.9284141 C112.287057,73.9188402 112.304077,73.9145852 112.337054,73.9028837 L112.526404,73.8379939 C112.554062,73.8294838 112.677459,73.7858694 112.705117,73.7741679 C112.716819,73.7688491 112.729584,73.7614027 112.742349,73.7560839 C112.956166,73.6656637 113.17743,73.5582232 113.40614,73.4263161 C113.992275,73.0880382 114.519904,72.6848705 115.002854,72.2327695 C115.054979,72.1880912 115.107103,72.143413 115.156036,72.0955435 C115.210289,72.0423551 115.259222,71.9849117 115.31241,71.9295958 C115.378364,71.860451 115.446445,71.7902424 115.510271,71.7179062 C115.542184,71.6838657 115.576224,71.6508889 115.60601,71.6168483 C115.71345,71.4934513 115.816636,71.3679268 115.917694,71.239211 C115.918757,71.2370835 115.940033,71.2094255 115.959181,71.1817676 C115.983647,71.1509184 116.004923,71.1190053 116.029389,71.0881561 L116.175125,70.8892317 C116.250653,70.782855 116.322989,70.6732869 116.396389,70.5594639 C116.4166,70.5286146 116.435748,70.4945741 116.454896,70.4637248 C116.475108,70.4318118 116.493192,70.3998988 116.513403,70.3690496 C116.542125,70.32118 116.570847,70.2754381 116.600632,70.225441 C116.664458,70.1148092 116.72722,70.0020499 116.787855,69.8892906 L116.899551,69.6701546 L116.936782,69.5935634 C116.949548,69.5690967 116.963377,69.5425026 116.967632,69.5339924 C117.028266,69.4063404 117.089965,69.275497 117.146345,69.1414624 C117.189959,69.042532 117.230382,68.9404104 117.269742,68.8393525 C117.281443,68.8095671 117.294208,68.7819091 117.30591,68.7521236 C117.311228,68.7382947 117.316547,68.7265932 117.321866,68.713828 C117.384628,68.5489441 117.445263,68.3819327 117.499515,68.2138575 C117.538875,68.1010982 117.573979,67.9883389 117.603764,67.8862172 C117.605892,67.8808984 117.60802,67.8766433 117.609083,67.8723883 C117.610147,67.8670694 117.611211,67.8628144 117.613338,67.8574955 C117.651634,67.7340986 117.688866,67.608574 117.725034,67.4777307 C117.772903,67.3054004 117.813327,67.1256238 117.854813,66.9479747 C117.871834,66.8777661 117.890982,66.809685 117.905874,66.7394764 C117.912257,66.7107546 117.920767,66.6841605 117.92715,66.6554388 C117.9697,66.4501317 118.006932,66.2256769 118.047355,65.9682452 C118.068631,65.8374019 118.093097,65.7097498 118.111181,65.5778427 C118.117564,65.5438022 118.127138,65.4874225 118.129265,65.4704023 C118.157987,65.25233 118.17288,65.0289389 118.192028,64.8066116 C118.202665,64.6895972 118.217558,64.5757742 118.225004,64.457696 C118.250535,64.0779312 118.2633,63.694975 118.262298,63.3088276 L118.167561,30.0012172 C118.166497,29.5267771 118.150541,29.0831862 118.119691,28.6715083 M124.038491,72.0802253 C120.974842,77.2607708 117.052733,81.2562799 112.377477,83.9550569 C107.82349,86.5857529 104.101369,87.1772074 101.324937,85.717719 C101.08559,85.5900669 100.871772,85.420928 100.650509,85.2634904 C100.495199,85.1528587 100.333506,85.0528646 100.186706,84.92734 C99.9973558,84.7645837 99.8271531,84.5720418 99.6526953,84.3848188 C99.5292983,84.2507842 99.3973912,84.1305785 99.2814406,83.9837787 C99.1091103,83.7688977 98.9601829,83.5221038 98.8059367,83.2806286 C98.7080701,83.1263824 98.6006297,82.9859652 98.5091457,82.8200175 C98.3612821,82.5519482 98.2346938,82.2519659 98.105978,81.9551749 C98.0304505,81.7807171 97.9442854,81.621152 97.873013,81.4360565 C97.7517436,81.1147989 97.6528132,80.7584369 97.5506916,80.4073938 C97.4943119,80.2137882 97.4272946,80.0372029 97.3772976,79.8350871 C97.2815585,79.452131 97.2092224,79.0330068 97.1347587,78.6181376 C97.0985906,78.4149581 97.0507211,78.2298626 97.0198718,78.0192368 C96.9496632,77.5511792 96.9039212,77.0448261 96.859243,76.5374092 C96.8432865,76.3501862 96.8145648,76.1799835 96.8017996,75.9885054 C96.7528663,75.2757815 96.7252084,74.529017 96.7230808,73.7450207 L96.640107,44.4307918 C96.640107,44.4127078 96.6422345,44.3956875 96.6422345,44.3776035 C96.6390432,42.0362522 96.8581792,39.7459617 97.2900687,37.5099233 C97.3124078,37.397164 97.3315556,37.2886598 97.3538947,37.1748367 C97.6591958,35.6727976 98.0591722,34.1952252 98.5602065,32.7463744 L98.5612703,32.7431831 C99.0580495,31.3081614 99.6548228,29.9018613 100.34308,28.5232192 L100.48988,28.2306833 C100.829222,27.5658289 101.186647,26.9073571 101.569604,26.2573954 C101.903626,25.6914713 102.253606,25.144695 102.608904,24.6074927 L102.904631,24.1660293 C103.22057,23.7022269 103.543955,23.2501259 103.875851,22.8086626 L104.076903,22.5352744 C104.439647,22.0608343 104.815157,21.6044783 105.195985,21.1566323 L105.55873,20.7375081 C105.709785,20.5651778 105.867222,20.4034852 106.021469,20.2354101 C106.315068,19.9130886 106.607604,19.591831 106.910778,19.2865298 C107.306499,18.888681 107.710731,18.504661 108.123472,18.1312788 C108.199,18.0600064 108.275591,17.9897978 108.352182,17.9206529 C108.779817,17.5408881 109.220216,17.1792073 109.664871,16.8271004 C109.745717,16.7590193 109.828691,16.692002 109.911665,16.6271122 C110.363766,16.2771328 110.827568,15.9452375 111.295626,15.6239798 C111.379663,15.5622814 111.463701,15.5016466 111.55093,15.4431394 C112.100897,15.0729485 112.664694,14.7208416 113.239128,14.3889463 C113.76782,14.0836451 114.28162,13.8145121 114.792228,13.5623993 C114.84648,13.5358051 114.901796,13.5081472 114.957112,13.481553 C115.024129,13.44964 115.09221,13.417727 115.159228,13.3890053 L115.365599,13.2953938 C115.692175,13.1443388 116.016624,12.9996665 116.336818,12.8720145 C116.811258,12.6816002 117.225063,12.5369278 117.61653,12.4114033 C117.833538,12.344386 118.049483,12.2784324 118.261172,12.2220528 C118.644129,12.1220587 119.028149,12.0433399 119.417487,11.9805777 C119.558968,11.9582386 119.699386,11.9412183 119.838739,11.924198 C120.098298,11.892285 120.353602,11.8731372 120.603588,11.8624995 C120.690816,11.8593082 120.779109,11.8518619 120.863147,11.8507981 L121.079091,11.8529256 C121.376946,11.8561169 121.668418,11.8752647 121.95138,11.910369 C121.952444,11.910369 121.965209,11.9114328 121.974783,11.9124966 C122.183282,11.9390908 122.388589,11.9741951 122.591768,12.0178095 C122.728994,12.0486588 122.878985,12.0901457 123.032168,12.1337601 C123.127907,12.1614181 123.223646,12.189076 123.317257,12.220989 C123.341724,12.2284354 123.365127,12.2380093 123.368318,12.2390731 C123.506608,12.2869426 123.624686,12.3337483 123.743828,12.3805541 C123.922541,12.4550178 124.103381,12.5273539 124.274648,12.6177741 C124.277839,12.6188379 124.28103,12.6199017 124.283158,12.6209654 C127.318085,14.2400189 128.864803,18.267441 128.882887,24.5925999 L128.966007,53.9078926 C128.983944,60.4053818 127.326595,66.5188511 124.038491,72.0802253 L124.038491,72.0802253 Z M96.5422404,32.0698186 L96.4943709,32.2017257 C96.2528958,32.9091308 96.032696,33.6218547 95.8369629,34.3367062 C95.7965397,34.4813785 95.7614354,34.6271146 95.7273948,34.7739145 L95.6688877,35.0132621 C95.5369805,35.5355717 95.4103923,36.0600088 95.2986967,36.5897648 C95.2880591,36.644017 95.2806127,36.694014 95.2689112,36.7482661 C95.2444446,36.8684718 95.2231693,36.9897412 95.2008302,37.1099469 C95.0593491,37.8386274 94.9380797,38.5417774 94.8476595,39.2289709 C94.845532,39.2406723 94.831703,39.3247099 94.8295754,39.3374752 C94.767877,39.8182979 94.7274538,40.3065669 94.6870307,40.7958998 L94.6338423,41.3607601 C94.616822,41.5277715 94.598738,41.6958467 94.5881003,41.8649857 C94.5370395,42.7159993 94.5104453,43.5797782 94.5125729,44.4361107 L94.5125729,44.4361107 L94.5955467,73.7514033 C94.5976742,74.602417 94.6295872,75.4140712 94.6849031,76.1938125 C94.6870307,76.223598 94.6880944,76.2544472 94.690222,76.2852964 C94.7476654,77.0384435 94.831703,77.7554225 94.9380797,78.4415523 C94.9444623,78.4894218 94.9508449,78.5394188 94.9582913,78.5862246 C95.0657317,79.251079 95.1997664,79.8787016 95.3540126,80.47973 C95.3699691,80.5382372 95.3827343,80.5999356 95.3976271,80.6573791 C95.5540008,81.2371321 95.7348412,81.7817808 95.9358932,82.2998354 C95.9603598,82.3647252 95.9837627,82.4328063 96.0092931,82.4966323 C96.0337598,82.5562033 96.0571626,82.616838 96.082693,82.6753452 L92.1573926,80.3946286 C92.3488707,78.6447318 92.4446097,76.8522843 92.4392909,75.0183499 C92.4190793,68.2293885 91.0627763,64.5604559 88.2735791,63.7945436 C86.2630593,63.2786166 85.4397036,62.8116229 85.1120634,62.555255 C86.5258098,60.1745443 87.9640228,57.7480917 89.4192562,55.2822796 C89.4437228,55.2407927 89.4649982,55.1993058 89.4830822,55.1556913 C90.8138548,52.0037495 91.4829643,48.3316256 91.4723266,44.2403775 C91.4553063,38.516247 89.9064615,34.716471 86.9045109,32.8804091 C86.8598326,32.844241 86.8279196,32.7974353 86.7768588,32.766586 L86.7768588,32.766586 L86.775795,32.766586 C86.77154,32.7644585 86.7683487,32.762331 86.7640936,32.7602034 L80.364471,29.0412738 C80.7091315,27.0477743 81.4176004,24.3202756 81.4176004,24.3202756 C81.5133394,23.9926353 81.6207799,23.6426559 81.6984349,23.4086272 C81.6994986,23.4075634 81.7346029,23.3075693 81.7346029,23.3075693 L82.0239476,22.5012339 C82.0888374,22.3129471 82.1547909,22.1257241 82.2249996,21.9416924 C82.3207386,21.6938347 82.423924,21.4481045 82.5271094,21.2013105 L82.7175237,20.7385719 C82.7185875,20.7375081 82.7834773,20.577943 82.784541,20.5768793 C82.9728278,20.1407348 83.1717522,19.7088454 83.3802506,19.2748284 L84.0280847,17.9972442 C84.2557309,17.5696098 84.4918872,17.144103 84.734426,16.7281701 L84.8439941,16.5398833 C85.0822779,16.1377793 85.323753,15.7441855 85.5726745,15.3559105 L86.4821953,13.9964162 C86.6215488,13.7974918 86.7672849,13.60495 86.9119572,13.4124081 L87.4970291,12.6199017 C87.7789274,12.2571571 88.0703995,11.910369 88.4097412,11.5103926 L88.9277958,10.910428 C89.3596852,10.4232227 89.8011486,9.94878258 90.2606959,9.49029898 L90.3904755,9.34988173 C90.5308928,9.21159201 90.6755651,9.08181243 90.8191736,8.95096908 L91.2712746,8.53184486 C91.4127557,8.39781021 91.5542367,8.26483933 91.6999728,8.13612351 C91.9542131,7.91166866 92.2180273,7.69891525 92.4807778,7.48509807 L92.8467136,7.18511576 C92.9743657,7.07873906 93.1020177,6.97236235 93.2339249,6.87130448 C93.5626289,6.61812792 93.9009068,6.38090786 94.3030108,6.09900959 L94.5455496,5.9245518 C94.6423524,5.8532794 94.7391552,5.78200701 94.8380856,5.71605345 C95.3848619,5.35011758 95.9433396,5.00013822 96.5156462,4.66930667 C97.0677413,4.35017655 97.6070712,4.06721451 98.137891,3.80659158 C98.2378851,3.75765829 98.3368154,3.71404385 98.4357458,3.66936563 L98.8931656,3.45873975 C99.0729423,3.37470215 99.2527189,3.28960079 99.4378144,3.21407333 C99.4644085,3.20556319 99.5867417,3.16407628 99.6122722,3.1534386 C100.305848,2.87473163 100.89943,2.66942459 101.406847,2.53219864 C101.423867,2.52794357 101.440888,2.52262474 101.457908,2.5173059 C101.915328,2.39497269 102.36211,2.30029742 102.725918,2.24179023 C102.728046,2.24179023 102.841869,2.2300888 102.842933,2.2300888 C102.863144,2.22902503 102.968457,2.21838736 102.988669,2.21625982 C103.282269,2.17690044 103.574804,2.14073236 103.894998,2.12903093 C103.913082,2.12903093 104.023714,2.13009469 104.044989,2.13115846 L104.353482,2.13434976 L104.548151,2.13328599 C104.621551,2.13328599 104.693887,2.13115846 104.759841,2.13541353 C104.867281,2.14179613 104.970467,2.15775264 105.074716,2.17158161 L105.235345,2.19285695 C105.241727,2.19392072 105.341722,2.20455839 105.348104,2.20455839 L105.571495,2.2300888 C105.826799,2.27476701 106.075721,2.33221043 106.310813,2.40135529 C106.332089,2.40986543 106.515057,2.47369145 106.538459,2.48113782 C106.545906,2.48432912 106.638454,2.5173059 106.644836,2.51943344 L106.7927,2.56943049 C106.873546,2.59602467 106.954392,2.62261884 107.035239,2.65559562 C107.215015,2.73112308 107.391601,2.81409691 107.523508,2.882178 L119.461102,9.82006677 C119.443018,9.82325807 119.422806,9.8253856 119.403658,9.82751314 C119.396212,9.82857691 119.389829,9.82857691 119.383447,9.82964067 C119.346215,9.83283197 119.25154,9.84346964 119.229201,9.84666095 C118.731358,9.92112464 118.218622,10.0338839 117.70695,10.1679186 L117.705886,10.1679186 C117.668654,10.1785563 117.631422,10.1817476 117.593127,10.1923852 C117.168684,10.3072721 116.696371,10.4689647 116.197464,10.6529964 C116.030453,10.7136311 115.861314,10.7753296 115.692175,10.8423469 C115.64005,10.8625585 115.596436,10.8763875 115.544311,10.8976628 C115.192205,11.0391438 114.834779,11.1976451 114.473098,11.3635928 L114.373104,11.4093348 C114.241197,11.4699695 114.112481,11.5252854 113.97951,11.5901752 C113.960362,11.5986853 113.942278,11.6061317 113.92313,11.6157056 C113.352951,11.8965401 112.772134,12.2018412 112.174297,12.5465017 C111.562631,12.9007362 110.96373,13.2741184 110.379722,13.6655847 C110.377595,13.6677122 110.375467,13.668776 110.374403,13.6698398 C110.286111,13.7294107 110.201009,13.7943005 110.113781,13.8538715 C110.07974,13.8794019 110.045699,13.9028047 110.010595,13.9272714 L109.782949,14.0910915 C109.404248,14.3559695 109.026611,14.6219113 108.659611,14.9038095 C108.648973,14.9123197 108.638336,14.9208298 108.628762,14.92934 C108.536214,15.0006124 108.447921,15.0782673 108.355374,15.1495397 C108.312823,15.1867716 108.268145,15.2208121 108.22453,15.2569802 L107.924548,15.5027104 C107.618183,15.7505681 107.313946,15.9973621 107.017155,16.257985 C106.996943,16.2760691 106.978859,16.2941531 106.959711,16.3111734 C106.872482,16.3877646 106.788445,16.4696747 106.70228,16.5473297 C106.65441,16.5930716 106.604413,16.6366861 106.55548,16.6824281 L106.288474,16.9334771 C106.01615,17.1866537 105.742762,17.4419578 105.475756,17.7089633 C105.456608,17.7270473 105.439588,17.7483227 105.42044,17.7664067 C105.08429,18.1057484 104.760905,18.4621104 104.435392,18.8174086 C104.313059,18.952507 104.183279,19.0790953 104.063074,19.2152574 L103.972653,19.313124 C103.914146,19.372695 103.856703,19.4333297 103.802451,19.4982195 L103.509915,19.8535177 C103.142915,20.2864709 102.781234,20.7268704 102.431255,21.1821627 L102.399342,21.2257772 C102.327006,21.3204525 102.257861,21.4193828 102.186588,21.5151218 L102.097232,21.6353275 C101.783421,22.0555155 101.475992,22.4831499 101.17601,22.9235494 L101.14516,22.9703552 C101.040911,23.1224739 100.939853,23.2756563 100.837732,23.4288388 L100.821775,23.4533054 C100.451584,24.0149744 100.086712,24.5840898 99.7367329,25.1755443 C99.3399478,25.8489088 98.9718844,26.5297197 98.6176499,27.2201046 L98.5942471,27.2647828 C98.5410587,27.3679682 98.4889341,27.4711536 98.4378733,27.5754028 L98.4155342,27.6190172 C98.0857664,28.2796166 97.7751464,28.9455347 97.4815467,29.6263457 L97.44857,29.7093195 C97.4475062,29.7103833 97.4475062,29.711447 97.4475062,29.711447 L97.357086,29.9327106 C97.1049732,30.5390578 96.8698807,31.1496601 96.6528722,31.7613261 L96.5603245,32.0187578 C96.5550056,32.0357781 96.5475593,32.0527983 96.5422404,32.0698186 L96.5422404,32.0698186 Z M85.8364887,94.0555252 C82.8504946,99.6137081 78.5294728,104.053872 72.9925652,107.250492 C68.2279526,110.00033 64.4537071,110.800282 61.7762054,109.626947 C59.183805,108.491908 57.8626063,105.265502 57.8477136,100.036024 L57.8370259,96.2075259 C57.8360122,95.8777582 57.8519687,95.5947961 57.8796266,95.3501297 C57.8806904,95.3416196 57.8860092,95.3331094 57.887073,95.3245993 C57.9083483,95.1448227 57.932815,94.9724924 57.9753657,94.7863332 C57.9764294,94.7799506 57.978557,94.7725042 57.9796207,94.7661216 C58.0157888,94.6214493 58.0583395,94.4895421 58.1083365,94.3661452 C58.1157829,94.3491249 58.1221655,94.3299771 58.1296119,94.3140206 C58.1753539,94.2118989 58.2264147,94.1193512 58.2849219,94.0406324 C58.4083188,93.8757485 58.5859679,93.6917168 58.8455271,93.4640707 C58.9093531,93.407691 58.9742429,93.3513114 59.042324,93.2959955 C59.0518979,93.2885491 59.0550892,93.2779115 59.0635994,93.2704651 C59.3167759,93.0715407 59.6029293,92.8758075 59.932697,92.6853932 L65.819584,89.2866575 C66.4918847,88.8983825 66.8897336,88.7452 67.1099334,88.681374 C67.1120609,88.681374 67.1141885,88.681374 67.1152522,88.681374 C67.1344,88.6760552 67.1375913,88.6771189 67.1535478,88.6728639 C67.2216289,88.8792347 67.3088578,89.3004864 67.3109854,90.115332 L67.3205593,93.4502417 C67.3258781,95.636283 67.9162688,97.0649222 69.0672648,97.7255215 L69.0608822,97.737223 C69.1278995,97.7755186 69.1970444,97.8116867 69.2608704,97.8404084 C69.2629979,97.8414721 69.2715081,97.8457272 69.2757631,97.8478548 C69.2768269,97.8478548 69.2768269,97.8489185 69.2768269,97.8489185 C69.2778907,97.8489185 69.2789544,97.8489185 69.2789544,97.8499823 C69.3066124,97.8616837 69.3523544,97.8818953 69.3651196,97.8872141 C69.4842615,97.9361474 69.6034034,97.9786981 69.7236091,98.0127386 C69.7246728,98.0138024 69.7257366,98.0138024 69.7278641,98.0138024 C69.7629684,98.0244401 69.7991365,98.0297589 69.8331771,98.0382691 C69.9182784,98.0595444 70.0033798,98.0829473 70.0863536,98.0967762 C70.1108203,98.1010313 70.1342232,98.1031588 70.1586898,98.1063501 C70.2182607,98.1159241 70.281023,98.1212429 70.3416577,98.1276255 L70.3416577,98.129753 C70.3661244,98.1329443 70.4533533,98.1425182 70.4767561,98.143582 C70.545901,98.1478371 70.6150459,98.1499646 70.6852545,98.1499646 C70.7139762,98.1510284 70.7426979,98.1499646 70.7724834,98.1499646 C70.810779,98.1499646 70.8490746,98.1489008 70.8894978,98.1478371 C70.9511963,98.1446458 71.0128947,98.1350719 71.075657,98.1286893 C71.1511845,98.1212429 71.2267119,98.1169878 71.3054307,98.1052864 C71.3150046,98.1042226 71.3256423,98.1042226 71.3373437,98.1020951 C71.358619,98.0989038 71.3788306,98.0957125 71.400106,98.0914574 C71.4607407,98.0808197 71.5256305,98.0627357 71.587329,98.0510343 C71.6681753,98.0329502 71.746894,98.020185 71.8266765,97.9989097 C71.8415693,97.9946546 71.8543345,97.9935908 71.8692272,97.9893358 C71.9298619,97.9733793 71.993688,97.9489126 72.0564502,97.9265735 C72.1894211,97.8861504 72.322392,97.8414721 72.4574904,97.7882838 C72.491531,97.7776461 72.5500381,97.7574346 72.5755686,97.7457331 C72.6074816,97.7329679 72.6436496,97.7106288 72.6755627,97.6967998 C72.9457595,97.5797855 73.2191476,97.4489421 73.4999821,97.2861857 C74.2531292,96.851105 74.9222387,96.3436881 75.5243308,95.7809554 C75.596667,95.7203206 75.6690032,95.6596859 75.733893,95.5958599 C75.7626147,95.5682019 75.7881451,95.5362889 75.815803,95.5075672 C75.875374,95.4479963 75.9296261,95.3862978 75.9870695,95.3256631 C76.0785535,95.2288602 76.172165,95.1352487 76.2593939,95.0352546 L76.4327879,94.8267563 L76.4295966,94.8246288 C76.4647009,94.7810143 76.5029965,94.7405912 76.5391646,94.6969767 C76.5455472,94.6884666 76.6083095,94.6108116 76.6146921,94.6033652 C76.7125587,94.4778407 76.8082977,94.3480611 76.8944628,94.2236004 C76.9519062,94.1416903 77.0082859,94.0555252 77.0646655,93.9704238 C77.0774308,93.9523398 77.0891322,93.933192 77.1018974,93.9151079 C77.1167901,93.8927688 77.1306191,93.8725572 77.1455118,93.8502181 C77.2199755,93.7332038 77.2933755,93.6140619 77.3582653,93.5013025 C77.4189,93.3981171 77.4805985,93.2864216 77.5593172,93.1364304 C77.5774013,93.1034537 77.5954853,93.0683494 77.6125056,93.0343088 C77.6593113,92.9449524 77.7061171,92.8545322 77.7497315,92.7651757 C77.8124938,92.6353962 77.8731285,92.5024253 77.9305719,92.3683906 C77.9475922,92.3311588 77.9624849,92.2917994 77.9773777,92.2556313 L78.0401399,92.1024489 C78.0635428,92.0428779 78.090137,91.9843707 78.1135399,91.9226722 C78.1763021,91.7599159 78.2348093,91.5939682 78.2933165,91.4216379 L78.3528875,91.2376062 C78.355015,91.2322874 78.3571425,91.2280323 78.3582063,91.2237773 C78.3592701,91.2195222 78.3603338,91.2142034 78.3613976,91.2099483 C78.4167135,91.0344267 78.4720294,90.8546501 78.5209627,90.6748735 C78.6007452,90.3897839 78.6730813,90.0887378 78.747545,89.7440773 C78.7730754,89.6238716 78.7922233,89.4909007 78.8156261,89.36644 C78.8166899,89.3579298 78.8188174,89.3494197 78.8198812,89.3409096 L78.8837072,88.9760375 C78.9368956,88.6888204 78.9890202,88.4016033 79.0273158,88.1005572 C79.0283795,88.0984296 79.0315708,88.0643891 79.0347621,88.0346036 C79.0517824,87.9069516 79.0624201,87.7686619 79.0751853,87.6378185 C79.1049708,87.3506014 79.1305012,87.0495553 79.1560316,86.7123412 C79.1602867,86.6602166 79.1656055,86.6112833 79.1687968,86.5580949 L79.181562,86.4240603 C79.1858171,86.3836371 79.1879446,86.3421502 79.1921997,86.3017271 C79.241133,85.5241134 79.2709184,84.7124591 79.2687909,83.8337875 C79.2666634,83.1827621 79.2496431,82.5742873 79.2219851,81.9966618 C79.213475,81.8179489 79.1975185,81.6583839 79.1858171,81.4871174 C79.1602867,81.1030975 79.1347562,80.7233326 79.0975244,80.3733533 C79.0751853,80.1723013 79.0464636,79.9903971 79.0219969,79.7999828 C78.9826376,79.5127657 78.9422144,79.2266124 78.8943449,78.9627981 C78.857113,78.7638737 78.8145624,78.579842 78.7730754,78.3947465 C78.7422262,78.2564568 78.7177596,78.1022106 78.683719,77.9713672 C78.665635,77.8969035 78.637977,77.8405239 78.6188292,77.7692515 C78.5539394,77.5405416 78.482667,77.3299157 78.4071396,77.1235449 C78.3507599,76.9661074 78.2933165,76.8076061 78.2294905,76.6639975 C78.1454529,76.4703919 78.0529051,76.2959341 77.9592936,76.1267952 C77.8912126,76.0044619 77.8241952,75.881065 77.7497315,75.771497 C77.6422911,75.6108681 77.5252767,75.4715146 77.4061348,75.3364162 C77.3295435,75.2491873 77.2540161,75.1577034 77.1710423,75.0800484 C77.0433902,74.9609065 76.9061643,74.8630399 76.7668108,74.7683646 C76.7008572,74.7226226 76.6434138,74.6598604 76.5742689,74.6194372 C76.5498023,74.6056083 76.5232081,74.6056083 76.4987415,74.5928431 C76.455127,74.5705039 76.4178952,74.5332721 76.373217,74.5119968 C74.9988299,73.8237395 73.0553275,74.2524376 70.2618752,75.8661722 L68.2492279,77.0288696 C67.5471417,77.4341649 67.1535478,77.5990488 66.9524959,77.6671299 C66.8780322,77.4937358 66.759954,77.0809942 66.7578265,76.2001951 L66.7461251,71.9610833 C66.7450613,71.5313215 66.7652729,71.1653856 66.7982497,70.848383 C66.8003772,70.8356178 66.8088873,70.8249801 66.8099511,70.8111512 C66.8344177,70.6026528 66.8588844,70.396282 66.9014351,70.1962938 C66.9035626,70.1877837 66.9056901,70.1782098 66.9078177,70.1696996 C66.9524959,69.9686476 67.0078118,69.7846159 67.0748291,69.6122857 C67.0769566,69.6069668 67.0801479,69.5995205 67.0822755,69.5942016 C67.1450377,69.446338 67.2109913,69.3197497 67.2790724,69.2250745 C67.2801361,69.2240107 67.2801361,69.2229469 67.2811999,69.2218832 C67.4216171,69.0272138 67.6045851,68.834672 67.8077646,68.6442577 C67.8109559,68.6410664 67.815211,68.6400026 67.8184023,68.6368113 C67.9598833,68.5027766 68.1173208,68.3708695 68.3375206,68.2017306 L68.4821929,68.0921625 C68.7279231,67.916641 68.9874823,67.7421832 69.2800182,67.574108 L71.9170967,66.0518573 C72.3383485,65.8082547 72.7510901,65.5380578 73.1680868,65.2476494 C73.2882925,65.1646756 73.4116895,65.0838293 73.5287038,64.9987279 C73.5287038,64.9976642 73.5297676,64.9976642 73.5308314,64.9966004 C73.6435907,64.9136266 73.7489036,64.8274614 73.8531528,64.7412963 L73.9839961,64.6338558 C74.0010164,64.6210906 74.0159092,64.6061979 74.0318657,64.5934327 C74.3350393,64.3519576 74.6318303,64.1083549 74.9009633,63.8541146 C74.9126648,63.8424131 74.9275575,63.8328392 74.9403227,63.820074 C75.0041488,63.7690132 75.066911,63.7158249 75.1211631,63.6615727 C75.3328528,63.4520106 75.532841,63.2381935 75.7221915,63.0222487 C75.7243191,63.0201212 75.7541045,62.9828894 75.7764436,62.9562952 C75.7924001,62.9371474 75.8062291,62.9190633 75.8221856,62.9009793 C75.9200522,62.7860925 76.016855,62.6701418 76.1051477,62.555255 C76.2051418,62.4265392 76.3008808,62.2978234 76.3934285,62.1659163 C76.4732111,62.0520932 76.5519298,61.9350788 76.6636254,61.7595572 C76.6646891,61.7584935 76.6657529,61.7574297 76.6668167,61.7563659 L76.670008,61.7499833 C76.7402166,61.6393516 76.8093615,61.5255285 76.8742512,61.4117054 C76.9550975,61.2734157 77.0327525,61.1329984 77.10828,60.9925812 C77.1295553,60.9510943 77.1497669,60.9085436 77.1710423,60.8659929 C77.1891263,60.8330161 77.2061466,60.7989756 77.2231668,60.764935 C77.2593349,60.6915351 77.2986943,60.6202627 77.3337986,60.5468628 C77.4114536,60.386234 77.4859173,60.2234776 77.5550622,60.0628488 L77.6444186,59.8458403 C77.651865,59.8277563 77.6582476,59.810736 77.6656939,59.7937157 L77.6731403,59.7766954 C77.6752678,59.7703128 77.7167548,59.669255 77.7199461,59.6628724 L77.7763257,59.5224551 C77.8518532,59.3235307 77.9252531,59.1203512 77.994398,58.9139804 C78.0092907,58.8661108 78.0231197,58.81505 78.0390762,58.7671805 C78.0465225,58.7437776 78.0529051,58.719311 78.0603515,58.6959081 C78.1167312,58.5171952 78.1752384,58.3395461 78.2252354,58.157642 C78.2560847,58.0448827 78.2837426,57.9278683 78.3114005,57.8108539 L78.3326759,57.7225612 C78.3518237,57.64597 78.3699077,57.568315 78.3890555,57.4917238 L78.4177772,57.3693906 C78.4369251,57.2981182 78.4539453,57.2279096 78.4677743,57.1640835 C78.4933047,57.0491967 78.5060699,56.924736 78.528409,56.8087853 C78.5826611,56.5322059 78.6294669,56.2503076 78.6730813,55.9630905 C78.6890378,55.8471399 78.715632,55.7396994 78.7305248,55.6226851 C78.7411624,55.5471576 78.747545,55.4673751 78.7539276,55.3886563 L78.7571189,55.353552 C78.8677507,54.4153095 78.9273217,53.4302612 78.9241304,52.389897 C78.9230666,52.0111959 78.9113652,51.6516426 78.8900898,51.3091167 C78.884771,51.2271996 78.8730695,51.156991 78.8666869,51.0782722 C78.8475391,50.8240319 78.8262638,50.5697915 78.7943508,50.3368266 C78.7837131,50.2623629 78.7666928,50.1996006 78.7560552,50.1272644 C78.7188233,49.9017458 78.6826552,49.6762272 78.6347857,49.4719839 C78.6188292,49.3996478 78.5943626,49.339013 78.5762785,49.2688044 C78.5252177,49.0773264 78.4752207,48.8858483 78.4135222,48.713518 C78.3890555,48.6454369 78.3582063,48.5890573 78.3316121,48.5241675 C78.2677861,48.3646024 78.2039601,48.2029098 78.1294964,48.0614288 C78.0954558,47.996539 78.0529051,47.9444144 78.0156733,47.8827159 C77.9401458,47.7550639 77.8667459,47.6242205 77.7816445,47.512525 C77.7380301,47.4561454 77.6869693,47.4135947 77.6412273,47.3614701 C77.5529346,47.2593484 77.4667695,47.1529717 77.3678392,47.0657428 C77.3167783,47.0200009 77.2561436,46.9880878 77.2029553,46.9455372 C77.1029612,46.8689459 77.0061584,46.7880996 76.8987179,46.7253374 C76.8965904,46.7242736 76.8955266,46.7242736 76.8933991,46.7232098 L76.8870164,46.7189548 C75.7562321,46.0689931 74.2978074,46.2466422 72.5564207,47.2519021 C71.2203293,48.0231332 70.1448608,49.1294509 69.3651196,50.5336235 C68.5694218,51.9367322 68.1683816,53.4557916 68.1737005,55.0439958 L68.1747642,55.6567256 C68.1768918,56.2332874 68.1003005,56.6790058 67.956692,56.9640953 C67.5854373,57.6629903 66.8088873,58.3576302 65.6483175,59.0267397 L60.5496819,61.9712469 C60.133749,62.2105945 59.8571696,62.3403741 59.6965408,62.4095189 C59.6476075,62.2233597 59.5922916,61.8904006 59.5912278,61.3287316 L59.5827177,58.7097371 C59.5805901,57.7353265 59.667819,56.7587883 59.8241928,55.7822501 C59.8529145,55.5939634 59.8837638,55.4067404 59.9199318,55.2205811 C60.4113922,52.6239257 61.4538839,50.0262066 63.0463432,47.4529541 L63.1463373,47.2891339 C63.4718501,46.7710794 63.8175743,46.2530248 64.1867015,45.7370978 C64.8143241,44.8626813 65.4919437,44.0148589 66.2567922,43.146825 C66.3195545,43.0744888 66.3865718,43.005344 66.4525254,42.9361991 L66.6450672,42.7330196 C67.2588608,42.0607188 67.8854196,41.4288412 68.504532,40.854407 L68.92472,40.466132 C69.6523367,39.8140428 70.4235678,39.1885478 71.2160743,38.6034759 L71.683068,38.2715806 C72.6425859,37.5897059 73.4712604,37.0525035 74.2903611,36.5791272 C74.8871344,36.2344666 75.4668874,35.9249104 76.0360028,35.6430122 C76.1211042,35.6004615 76.204078,35.5632296 76.2870518,35.5259978 C76.4444894,35.4504703 76.592353,35.3887718 76.7465992,35.3174994 C77.0657293,35.168572 77.3859232,35.0185809 77.6922881,34.8941201 L77.7773895,34.8622071 C78.0231197,34.7632768 78.2582122,34.6888131 78.4975598,34.6037117 C78.7135045,34.5271205 78.9326405,34.4430829 79.1411388,34.3781931 L79.3411271,34.3154309 C79.6389818,34.228202 79.9240714,34.1622484 80.2102247,34.0973586 L80.4963781,34.0335326 C80.6027548,34.0090659 80.7059402,33.9877906 80.8069981,33.967579 C81.1995281,33.8984342 81.583548,33.8452458 81.9526752,33.8218429 C81.9696955,33.8207792 81.989907,33.8186516 82.0069273,33.8175879 C82.3345676,33.7995038 82.6441238,33.8133328 82.9515525,33.8314168 C83.0409089,33.8377995 83.1164364,33.8314168 83.2100479,33.839927 L83.3313173,33.8548197 C83.6812967,33.8931153 84.0195746,33.9516225 84.3429598,34.040979 C84.3567887,34.0441703 84.373809,34.0473616 84.3887018,34.0516166 C84.7269797,34.1473557 85.0482373,34.2739439 85.3567298,34.4249989 C85.3748138,34.433509 85.3960892,34.4388278 85.4141732,34.4484017 C85.4163007,34.4494655 85.4184283,34.4505293 85.4205558,34.451593 C88.0097648,35.757899 89.328836,39.0534493 89.3447925,44.2456964 C89.3554302,48.0210057 88.7501467,51.3910197 87.5502175,54.2631908 C85.9939262,56.8992055 84.4589104,59.4894783 82.9515525,62.0276265 C82.8153903,62.2563365 82.7707121,62.5286608 82.8260279,62.7892838 C83.1036711,64.1083549 84.620603,65.0540438 87.7278666,65.8508054 C88.6841931,66.1135558 90.2904814,67.6538905 90.3119371,75.0247325 C90.3309046,82.073253 88.8256742,88.4771307 85.8364887,94.0555252 L85.8364887,94.0555252 Z M55.7201795,100.042406 C55.7276259,102.714589 56.0818603,104.932543 56.7403321,106.73882 L44.3431908,99.5339255 C42.0890684,98.2244283 40.9391362,95.0841879 40.9242435,90.2014971 L40.9136058,86.3729995 C40.912542,86.0496143 40.9338174,85.7592059 40.9604115,85.5134757 C40.9614753,85.5102844 40.9678579,85.4102903 40.9678579,85.4060352 C40.9859419,85.2741281 41.0072173,85.1475398 41.0476404,84.9635081 L40.0211052,84.6890562 L41.0848723,84.817772 L41.1242317,84.69012 C41.1252954,84.6858649 41.1603997,84.584807 41.1614635,84.580552 L40.1679051,84.2007871 L41.2242258,84.4348159 L40.3072586,83.8912309 L41.2784779,84.333758 C41.2837967,84.3252479 41.3369851,84.2433378 41.3412401,84.2348277 L40.4998004,83.5838022 L41.4125125,84.1401524 L41.5231443,84.0061178 C41.583779,83.9359091 41.6497326,83.8667643 41.7858948,83.7423035 L42.1156626,83.4646603 C42.4220275,83.2210577 42.707117,83.0263883 43.0113544,82.849803 L48.8971776,79.452131 L48.8982413,79.4510672 C49.2226903,79.2627804 49.5045886,79.1255545 49.767339,79.0117314 C49.8066984,78.9947111 49.8535042,78.9713083 49.8598868,78.9638619 C49.9354142,78.9319489 50.0024315,78.9117373 50.1130633,78.876633 C50.1162546,78.8755692 50.2141212,78.8394012 50.2173125,78.8383374 C50.2566719,78.8276997 50.2939037,78.8181258 50.3715587,78.8085519 L64.9962283,87.306987 C64.9121907,87.3548565 64.8260255,87.4037898 64.7558169,87.4431491 L58.86893,90.8429487 C57.8626063,91.4248292 57.1190332,92.0492605 56.5999148,92.7449642 C56.594596,92.7534743 56.5850221,92.7609207 56.5797033,92.7694308 C56.5733207,92.7779409 56.5701294,92.7885786 56.5637468,92.7970888 C56.4169469,92.997077 56.2892949,93.2194043 56.1807906,93.4640707 C56.1765356,93.4725808 56.1690892,93.4800272 56.1648341,93.4896011 C56.0903704,93.6651227 56.0233531,93.8693659 55.9595271,94.1012672 C55.9425068,94.1608381 55.9244228,94.2193453 55.90953,94.2810438 C55.9042112,94.3012554 55.8988924,94.3161481 55.8935735,94.3374235 C55.8616605,94.4820958 55.8414489,94.6480434 55.8180461,94.8086723 C55.7520925,95.2373704 55.7084781,95.6937265 55.7095418,96.2139085 L55.7201795,100.042406 Z M61.4326086,81.3903146 C61.5836635,80.9265121 61.7198257,80.4084576 61.8357763,79.8542349 C61.860243,79.7425394 61.8793908,79.6212699 61.8985386,79.502128 L61.9251327,79.3319253 C61.9964051,78.9510967 62.0644862,78.5692043 62.1155471,78.1585902 C62.1442688,77.926689 62.161289,77.6724487 62.1825644,77.4256547 L65.9142592,79.5946758 C66.0153171,79.6542467 66.1227576,79.6882873 66.230198,79.7106264 C66.3099806,79.7414756 66.3769979,79.7872176 66.4652906,79.8095567 C67.1088696,79.9372088 67.9332891,79.6670119 69.312995,78.8713142 L71.3256423,77.7096805 C74.2073872,76.0448851 75.1881805,76.3001892 75.4392295,76.4235862 C75.4658237,76.4363514 75.4934816,76.4523079 75.5232671,76.4703919 C75.5413511,76.4820934 75.5626265,76.4959223 75.5807105,76.5108151 C75.6030496,76.5257078 75.6243249,76.5406005 75.6477278,76.5597483 C75.6615568,76.5714498 75.6764495,76.5852788 75.6902785,76.598044 C75.720064,76.6246381 75.7487857,76.6512323 75.7806987,76.6842091 C75.7881451,76.6905917 75.7945277,76.7012294 75.801974,76.7097395 C75.8902667,76.8054785 75.9817507,76.9299393 76.0764259,77.0873768 C76.2647127,77.4043794 76.4561908,77.8554166 76.6253298,78.5064421 C76.7902136,79.141511 76.9157382,79.9031682 77.0019033,80.7786485 C77.0040308,80.7956688 77.0061584,80.8116253 77.0072221,80.8307731 C77.0465815,81.2392596 77.076367,81.6775317 77.0976423,82.137079 C77.1018974,82.2136703 77.1050887,82.2934528 77.10828,82.3721716 C77.126364,82.8391653 77.1391292,83.3242431 77.1412568,83.8401701 C77.1433843,84.5582129 77.1253003,85.2400876 77.0891322,85.891113 C77.0614742,86.4166139 77.016796,86.9123294 76.9625439,87.3910246 C76.95297,87.4867636 76.9444599,87.5846302 76.9327584,87.685688 C76.8785063,88.1260876 76.8082977,88.5356379 76.7317065,88.9334868 L76.7178775,89.0175244 C76.7083036,89.0792229 76.6966021,89.1494315 76.6817094,89.2260227 C76.5817153,89.7079092 76.4647009,90.1589464 76.3306663,90.5738156 C76.3306663,90.5748794 76.3285387,90.581262 76.327475,90.585517 C76.2508837,90.8301835 76.1647186,91.065276 76.0721709,91.2950497 C76.0562144,91.3376003 76.0381303,91.3790873 76.0211101,91.4205742 C75.9360087,91.6237537 75.843461,91.8205506 75.7466582,92.0130924 L75.6870872,92.1311706 C75.578583,92.3343501 75.4636961,92.5322108 75.3413629,92.7226251 C75.3147687,92.7630482 75.286047,92.8045351 75.2594528,92.8449583 C75.1498848,93.0077146 75.0371255,93.1651522 74.9158561,93.3193984 C74.9073459,93.330036 74.9030909,93.3364187 74.8945807,93.3481201 L74.7722475,93.4970475 C74.6839549,93.6012966 74.5945984,93.7023545 74.5020507,93.8012849 C74.4265232,93.8842587 74.3520595,93.9661687 74.272277,94.0459513 C74.2393002,94.0799918 74.2010046,94.1108411 74.1659003,94.1448816 C74.1414337,94.166157 74.1159033,94.1884961 74.0914366,94.2097714 L73.9169788,94.357635 C73.8212398,94.4416726 73.7255007,94.5278378 73.6265704,94.6076203 C73.1968085,94.9575996 72.8191712,95.2224776 72.4362151,95.4426774 C72.2021863,95.5777758 71.9819865,95.6873439 71.7724244,95.7756365 L71.6426448,95.8203147 C71.4926537,95.8788219 71.3458538,95.9266914 71.2086279,95.9586045 C71.1692685,95.9671146 71.1288454,95.9766885 71.0873584,95.9841349 C70.938431,96.0117928 70.7980138,96.0224305 70.6661067,96.0171116 C70.637385,96.0171116 70.6171734,96.0181754 70.5788778,96.0149841 C70.4288866,96.0011551 70.2884694,95.9703059 70.1629449,95.9139262 C69.7119076,95.7043641 69.4523485,94.805481 69.4480934,93.4438591 L69.4385195,90.1100132 C69.4342644,88.5622321 69.1630038,87.5729287 68.6141,87.02828 C68.5385726,86.9474337 68.4502799,86.9006279 68.3662423,86.8399932 C68.3268829,86.8080802 68.299225,86.7655295 68.253483,86.7389353 L68.1715729,86.6921296 C68.1694454,86.6910658 68.1673179,86.6889383 68.1641266,86.6868108 L61.0028467,82.525354 C61.1645393,82.1540993 61.3124029,81.776462 61.4326086,81.3903146 L61.4326086,81.3903146 Z M50.0907242,67.9442989 C50.0885967,67.9421714 49.9492432,67.7836701 49.8758433,67.1613664 C49.8492491,66.9241463 49.8354201,66.6592683 49.8343563,66.3646048 L49.8225099,62.1254931 L49.8225099,62.1254931 L49.8225099,62.1244293 C49.8205274,61.7414732 49.8418027,61.3766011 49.8875447,60.9787522 C49.8939273,60.9287552 49.8971186,60.8713117 49.8949911,60.8447176 C49.9152026,60.6808974 49.9417968,60.5255875 49.98222,60.3415558 C49.9981765,60.2681558 50.0151967,60.1947559 50.0385996,60.1139096 L50.2428429,59.577771 C50.2439067,59.5756435 50.2598632,59.5501131 50.2694371,59.5330928 L58.4774637,64.3019605 C58.5168231,64.3306822 58.5604375,64.3508938 58.6029882,64.3753604 L58.6168172,64.3838706 C58.622136,64.3859981 58.6274549,64.3870619 58.6317099,64.3902532 C58.8338257,64.500885 59.056153,64.5806675 59.3114571,64.6083254 C59.8571696,64.6561949 60.553937,64.4242937 61.6123852,63.8136914 L66.7120845,60.8691842 C68.2226337,59.997959 69.2746994,59.0192933 69.8459423,57.9416973 C70.1565623,57.3289674 70.3054896,56.5790117 70.3022983,55.6514068 L70.3012346,55.038677 C70.2980433,53.823855 70.6065357,52.6600938 71.2213931,51.5739876 C71.8149751,50.503838 72.6223743,49.6698446 73.6201878,49.0943466 C74.6297027,48.512466 75.4126353,48.3241793 75.8264407,48.5624631 C75.8275045,48.5635269 75.8275045,48.5645906 75.8285682,48.5645906 C75.9721768,48.6486282 76.2125881,48.8677642 76.4168314,49.4347521 C76.4178952,49.4379434 76.4189589,49.4432622 76.4200227,49.4464535 C76.4700198,49.585807 76.518953,49.7443083 76.5625675,49.92834 C76.5700139,49.960253 76.5753327,50.0028037 76.5827791,50.0347167 C76.6189471,50.1996006 76.6529877,50.3708671 76.6817094,50.5729828 C76.6966021,50.6751045 76.7051123,50.8027565 76.7168137,50.9144521 C76.7327702,51.0697621 76.7529818,51.2133706 76.7646832,51.3888922 C76.783831,51.6920658 76.7955325,52.0260886 76.7966899,52.3962796 C76.7987238,53.1036847 76.7646832,53.8110898 76.6870282,54.6291266 L76.6444776,55.0982479 C76.624266,55.2769608 76.5987356,55.4514186 76.5742689,55.6258764 C76.5359733,55.8854355 76.4912951,56.1418034 76.4423618,56.39498 C76.4083213,56.5747566 76.3753445,56.7577245 76.3349213,56.9332461 L76.281733,57.1523821 C76.2147157,57.4289615 76.1423795,57.6991584 76.0604694,57.9619031 C76.0530231,57.9906305 76.0434492,58.020416 76.034939,58.0502015 C75.9381362,58.3533751 75.8349508,58.6469748 75.720064,58.9310006 L75.7009162,58.9788701 C75.5892206,59.253322 75.469015,59.5182 75.3402991,59.7756317 C75.3254064,59.8032896 75.3105137,59.8320113 75.2966847,59.860733 C75.16265,60.1224197 75.0201053,60.3766601 74.8669228,60.619199 C74.865859,60.6213265 74.8647953,60.6223903 74.8637315,60.6245178 C74.6562969,60.9553493 74.4180131,61.2776708 74.1467525,61.591482 C74.1456887,61.5925458 74.1456887,61.5936096 74.144625,61.5936096 C73.9382542,61.8318934 73.6978428,62.0627309 73.4553039,62.2914408 C73.4542401,62.2925045 73.4531764,62.2935683 73.4521126,62.2946321 C73.2106375,62.5244058 72.9446957,62.7456693 72.6627975,62.9669329 L72.5202527,63.0828835 C72.4330238,63.1499008 72.3564325,63.2190456 72.2660123,63.2849992 C72.1372965,63.3796745 72.0107082,63.4626483 71.88412,63.5498772 C71.5617985,63.770077 71.2330945,63.9870855 70.8735413,64.1955838 C70.8671587,64.1998389 70.8607761,64.2040939 70.8533297,64.208349 C70.8522659,64.2094128 70.8522659,64.2094128 70.8512021,64.2104765 L68.22157,65.7295359 C68.2194424,65.7305997 68.2173149,65.7295359 68.2162511,65.7305997 C68.193912,65.7433649 68.1768918,65.7582576 68.1556164,65.7710228 C67.8322312,65.9593096 67.536504,66.153979 67.257797,66.3529034 C67.253542,66.3560947 67.2482231,66.359286 67.243968,66.3624773 L66.9918553,66.5518278 C66.9769625,66.5635293 66.9652611,66.5752307 66.9503683,66.5869322 C66.7514439,66.7411784 66.5674122,66.8986159 66.3940182,67.0592447 C66.3833805,67.0698824 66.3684878,67.0794563 66.3578501,67.090094 C66.3546588,67.0932853 66.353595,67.0964766 66.3514675,67.0996679 C66.0482939,67.3847575 65.773842,67.6762296 65.5536422,67.9794032 C65.5515147,67.9815308 65.5504509,67.9857858 65.5472596,67.9889771 C65.4089699,68.1836465 65.2866367,68.4112927 65.1717498,68.6644692 C65.1579208,68.6963822 65.1419643,68.725104 65.1281354,68.757017 C65.1196252,68.7761648 65.1111151,68.7910575 65.1036687,68.8102053 C65.0121848,69.0389152 64.933466,69.2952831 64.8643211,69.5750538 C64.8568748,69.6059031 64.8473009,69.6356886 64.8409183,69.6676016 C64.8345357,69.6941957 64.8270893,69.7165348 64.8207067,69.743129 C64.7728372,69.9643926 64.7419879,70.2165054 64.7111387,70.4696819 C64.654759,70.9292293 64.6175272,71.4174984 64.6185909,71.9664022 L64.6302924,76.2055139 C64.6302924,76.255511 64.6324199,76.3289109 64.6324199,76.3906094 L50.0907242,67.9442989 Z M131.010421,24.5862173 C130.991273,17.6217344 129.166912,13.0347708 125.597974,10.9317033 C125.583081,10.9210657 125.574571,10.9061729 125.559678,10.896599 L108.82875,1.17483187 C108.825559,1.17270434 108.770243,1.14079133 108.743649,1.12589859 L108.740457,1.12483482 L108.563872,1.02696825 C108.562808,1.02590448 108.562808,1.02696825 108.561744,1.02590448 L108.551107,1.01952188 C108.322397,0.900379972 108.091559,0.790811964 107.856467,0.692945395 C107.726687,0.638693275 107.59478,0.594015058 107.461809,0.549336842 L107.27565,0.485510818 C107.207569,0.459980409 107.138424,0.435513766 107.070343,0.413174658 C107.041621,0.403600755 106.940563,0.367432674 106.911842,0.359986305 C106.593775,0.267438571 106.267199,0.19191111 105.943814,0.135531455 C105.890625,0.125957552 105.836373,0.119574949 105.78744,0.116383648 C105.71404,0.104682211 105.639576,0.0961720742 105.494904,0.0812793353 L105.361933,0.0631952953 C105.209814,0.0429837212 105.056632,0.022772147 104.896003,0.0121344764 C104.775797,0.00468810701 104.6524,0.00681564113 104.526876,0.00575187407 L104.292847,0.00468810701 C104.194981,0.00256057289 104.092859,0.0001039081 103.956697,0.00256057289 C103.892871,0.0001039081 103.829045,-0.00169449535 103.766283,0.00256057289 C103.420558,0.0174533117 103.064196,0.0589402271 102.680176,0.108937279 C102.622733,0.113192347 102.56529,0.119574949 102.472742,0.131276387 C101.955751,0.20999515 101.419612,0.323818225 100.898367,0.465299244 C100.880282,0.470618079 100.862198,0.474873148 100.844114,0.480191983 C100.243086,0.645075877 99.5803591,0.873785795 98.8038092,1.18334201 C98.7442382,1.20248982 98.6825397,1.22270139 98.6123311,1.2514231 C98.4070241,1.33652447 98.1963982,1.4354548 97.9857723,1.53544891 L97.5687756,1.72692698 C97.4464424,1.78224286 97.325173,1.83649498 97.2007122,1.89712971 C96.6284055,2.17796421 96.0486525,2.48326536 95.4518792,2.82686212 C94.8402131,3.18109655 94.242376,3.55554255 93.6551766,3.9480726 C93.5307159,4.03104643 93.4105102,4.11827533 93.2913683,4.20550423 L93.0179801,4.40123737 C92.653108,4.65760523 92.2892997,4.91290932 91.936129,5.18523369 C91.7840104,5.30224807 91.635083,5.42564504 91.4861556,5.54904202 L91.1393675,5.83306783 C90.8553417,6.06496905 90.5691884,6.29687027 90.2936727,6.53940916 C90.1298526,6.68408148 89.9702875,6.83407263 89.8107225,6.98512755 L89.3894707,7.37553007 C89.223523,7.52552122 89.0586391,7.67657614 88.8926915,7.8393325 L88.7522742,7.98932366 C88.2682602,8.47440144 87.7980752,8.97862703 87.2651279,9.57540035 C87.2108758,9.63071623 87.1566236,9.68709589 87.0810962,9.77645232 C87.0172702,9.84985225 86.9555717,9.92537971 86.8949369,10.0019709 L86.7374994,10.193449 C86.4268794,10.5604486 86.1162595,10.9295758 85.8088308,11.3263609 L85.2109937,12.1337601 C85.0524924,12.3454498 84.8929273,12.5571394 84.7408087,12.7752117 L83.9844703,13.9038685 C83.9142616,14.0049264 83.8461806,14.1059843 83.780227,14.2091697 C83.5185403,14.6165924 83.2643,15.0325254 83.0132509,15.4569684 L82.8983641,15.6527016 C82.6388049,16.09842 82.3898834,16.5473297 82.1494721,16.9973031 L81.4633423,18.3536061 C81.2420788,18.811026 81.0314529,19.2705733 80.8367835,19.7216106 L80.5633954,20.3822099 C80.4527636,20.6449604 80.3442594,20.9087746 80.2400102,21.1757801 C80.1612915,21.3821509 80.0878915,21.5906493 80.0144916,21.7991476 L79.6815325,22.7352626 C79.5974949,22.9873754 79.4815443,23.3628852 79.3677212,23.7479689 C79.3379358,23.8628557 78.7879682,25.9808159 78.4103309,27.9062343 L69.765096,22.8820625 C69.6629743,22.8235553 69.5565976,22.7682394 69.4470296,22.7118598 C69.281082,22.6299497 69.1161981,22.5533585 68.9459953,22.4820861 C68.6843086,22.3714543 68.4141118,22.276779 68.1428512,22.1969965 C68.1237034,22.1906139 68.1045556,22.1842313 68.0854078,22.1778487 C67.7907443,22.0938111 67.490762,22.0236025 67.1790783,21.9693504 C67.0907856,21.9544576 67.0003654,21.9448837 66.8142062,21.9257359 C66.7078295,21.9119069 66.6014527,21.8991417 66.4301862,21.8799939 C66.3514675,21.8693563 66.2748763,21.8597824 66.2004126,21.8555273 C65.8546883,21.8331882 65.4993901,21.8299969 65.1557933,21.8448896 C65.138773,21.8438258 65.1217528,21.8448896 65.1057963,21.8459534 C64.6898633,21.8640374 64.2643565,21.9065881 63.823957,21.9746692 C63.7728961,21.9821156 63.7175802,21.993817 63.6580093,22.0087097 C63.4750414,22.0384952 63.2878184,22.0821097 63.0995316,22.1257241 L62.7016827,22.2097617 C62.5431814,22.240611 62.3868077,22.2714602 62.2144774,22.318266 L61.5889824,22.5108078 C61.1645393,22.6427149 60.7294586,22.7937698 60.2826764,22.9682276 L59.946526,23.0958797 C59.9305695,23.1022623 59.8401493,23.1363028 59.8263203,23.1426854 C59.5529322,23.2554447 59.2689064,23.3894794 58.9859444,23.523514 L58.544481,23.7277573 C58.4189565,23.7830732 58.293432,23.8383891 58.1647162,23.9022151 C57.5604965,24.204325 56.9403203,24.5340927 56.3020601,24.9021561 L56.3020601,24.9032199 C55.4361537,25.4031904 54.5276966,25.9914536 53.5277556,26.7031138 L53.366063,26.8158731 C53.2522399,26.8967194 53.1384168,26.9765019 53.0309764,27.0562844 C52.1895366,27.6764606 51.3661809,28.3455701 50.5800571,29.0465926 L49.8971186,29.6774065 C49.7067043,29.8497367 49.51629,30.022067 49.3343858,30.2018436 C48.9907891,30.5422491 48.6642126,30.9007386 48.3365723,31.2602919 L47.9897843,31.6347379 C47.9046829,31.7230305 47.8195815,31.812387 47.7004396,31.9442941 C47.6568252,31.9889723 47.6142745,32.0336505 47.5812977,32.0719461 C47.1557909,32.5623427 46.739858,33.0676321 46.337754,33.5867504 C46.0654297,33.9388573 45.7973604,34.2973468 45.5367374,34.6611552 L45.3346217,34.9462447 C45.0548509,35.3451574 44.7867816,35.74407 44.5346689,36.1397914 L44.1527765,36.7610313 C44.0602287,36.908895 43.9687448,37.0578223 43.8793883,37.2088773 C43.7059943,37.506732 43.5411104,37.8056506 43.3794178,38.1066967 C43.3772903,38.1120155 43.3262295,38.2034995 43.3230382,38.2088183 C43.1528354,38.5279484 42.9911428,38.8481423 42.8379604,39.1672724 C42.7549866,39.3374752 42.6783953,39.5076779 42.6018041,39.6789444 L42.5167027,39.8661674 L43.4368612,40.4118799 L44.4867993,40.6735666 L44.543179,40.5501696 C44.6112601,40.3969871 44.6793412,40.2438047 44.7548686,40.0895585 C44.8963497,39.794895 45.045277,39.5012953 45.1835668,39.2396086 C45.1920769,39.2247158 45.2495203,39.123658 45.2569667,39.1077015 C45.4048303,38.8321858 45.5580128,38.5556064 45.7165141,38.283282 C45.7952328,38.1492473 45.8782066,38.0152127 45.9611805,37.8822418 L46.3271163,37.2865323 C46.5654002,36.9120863 46.8164492,36.5397678 47.0749446,36.1695768 L47.2642951,35.9036351 C47.5121529,35.5589746 47.7632019,35.2206966 48.0195697,34.8888013 C48.3982708,34.4026598 48.7865458,33.9282197 49.2290729,33.4239941 C49.2407743,33.4122926 49.3216206,33.3250637 49.3311945,33.3133623 C49.3939568,33.2420899 49.4599103,33.1750726 49.5237364,33.1080552 L49.90882,32.6931861 C50.2119937,32.3612908 50.5130397,32.0293954 50.8311061,31.7145204 C50.9917349,31.5560191 51.1576826,31.4049642 51.3257578,31.2539093 L51.9991223,30.6316055 C52.7341854,29.976325 53.5054165,29.3497662 54.2957954,28.7668219 L54.7606616,28.4370541 C55.7074143,27.7647533 56.5584279,27.2105307 57.3668909,26.7446007 L57.3668909,26.7446007 L57.3679547,26.7446007 C57.964728,26.3988764 58.5455448,26.0893202 59.1125326,25.8074219 C59.2125267,25.7584886 59.3093295,25.7159379 59.4061324,25.6723235 L59.8954652,25.4468049 C60.1465142,25.327663 60.3975633,25.2074573 60.6709514,25.0968255 C60.6847804,25.0915067 60.7634991,25.0617212 60.7762643,25.0553386 L61.0570988,24.9500257 C61.4528202,24.7957794 61.8410952,24.6596173 62.2176687,24.5426029 L62.7740189,24.3702726 C62.8878419,24.3404871 62.9963462,24.3202756 63.1059142,24.2990002 L63.5750355,24.1990061 C63.7218353,24.1649656 63.8665076,24.130925 64.0069249,24.1075222 L64.1494697,24.0766729 C64.5026403,24.0224208 64.8473009,23.9873165 65.1834513,23.97136 C65.1972802,23.97136 65.2100454,23.9702962 65.2238744,23.9702962 L65.2238744,23.97136 C65.5100277,23.9596585 65.7908622,23.9607223 66.1365865,23.9873165 L66.8184612,24.0660352 C67.0280233,24.1022033 67.2333304,24.1490091 67.458849,24.2117713 C67.476933,24.2181539 67.4950171,24.2234728 67.5109736,24.2287916 C67.7215995,24.2904901 67.9269065,24.3617625 68.1237034,24.4447363 C68.2502917,24.4968609 68.3736887,24.5543043 68.490703,24.6128115 C68.5672943,24.6521709 68.6449493,24.692594 68.7843028,24.7713128 L78.6592524,30.5103361 L78.6603161,30.5103361 L80.8740154,31.7974942 C80.7793401,31.8113232 80.6804098,31.8272797 80.5793519,31.8432362 C80.3985115,31.8740855 80.209161,31.9166361 80.0208742,31.9602506 L79.7198281,32.0272679 C79.44644,32.0868389 79.1730519,32.1474736 78.8900898,32.2293837 L78.5113887,32.3453343 C78.0880095,32.4772414 77.6539925,32.6293601 77.2072103,32.8027541 L77.1465756,32.8250932 C77.1178539,32.8367946 77.0880684,32.8474323 77.0582829,32.8591338 L76.8933991,32.921896 C76.5072516,33.0782698 76.1062114,33.2654928 75.6785771,33.4665447 L75.4679512,33.5622838 C75.4530585,33.5676026 75.4381657,33.575049 75.4243367,33.5824954 C75.3307252,33.6271736 75.2392413,33.6644054 75.144566,33.7112112 C75.126482,33.7197213 75.1083979,33.7271677 75.0892501,33.7367416 C74.4839667,34.0367239 73.8648542,34.3686192 73.226594,34.7366826 C69.4629861,36.908895 66.2025401,39.7225588 63.5122732,43.1074656 C63.1442098,43.567013 62.7952942,44.0286879 62.45808,44.4978092 C62.0644862,45.046713 61.6974866,45.5966805 61.3517623,46.1466481 L61.3294232,46.1838799 C61.2932551,46.2413234 61.2581508,46.2998306 61.2230465,46.3562102 L61.1858146,46.4179087 C60.8751947,46.9231981 60.5794674,47.4274236 60.2645924,48.0124955 C59.9752477,48.5528892 59.7124973,49.0932829 59.4369816,49.7081402 C59.4348541,49.7134591 59.3891121,49.8123894 59.3869845,49.8177082 C59.1582746,50.3357628 58.9540314,50.8548811 58.7529794,51.4112313 L58.667878,51.6505789 C58.4881014,52.1665059 58.3285363,52.6824329 58.1934379,53.1930411 L58.16578,53.3004816 C58.1551423,53.3419685 58.1466322,53.3834554 58.1359945,53.4238786 L58.0976989,53.5781248 C58.0008961,53.9610809 57.9200498,54.3429733 57.8445223,54.7291207 C57.8381397,54.7674164 57.8328209,54.8046482 57.8253745,54.84188 C57.7860151,55.0546335 57.7509108,55.2673869 57.7168703,55.4801403 L57.7083601,55.5354562 C57.667937,55.7939516 57.636024,56.052447 57.6062385,56.3109424 C57.6051747,56.3162612 57.608366,56.32158 57.6073023,56.3258351 C57.5158183,57.1225966 57.453056,57.9193582 57.4551836,58.7161197 L57.4636937,61.2521404 L42.8326416,52.750514 C42.7879633,52.6558387 42.6698852,52.326071 42.6677577,51.4942051 L42.6677577,51.4942051 L42.6603113,48.8752106 C42.6581838,48.2390779 42.7017982,47.5540119 42.7964735,46.7274649 C42.8060474,46.6487462 42.8092387,46.5710912 42.81243,46.453013 C42.8198764,46.3881232 42.8337053,46.3242972 42.8454068,46.2604712 L42.8868937,46.0243149 C42.9241255,45.781776 42.9645487,45.5392371 43.0124182,45.2913794 L43.0751804,44.9222522 C43.109221,44.7637509 43.1496441,44.6063134 43.1900673,44.4478121 L43.3613338,43.7552998 C43.4528178,43.4234044 43.5549394,43.0915091 43.6634436,42.7628051 L43.995339,41.8394553 C44.1080983,41.5458556 44.2293677,41.2533196 44.3591473,40.9522735 L43.3826091,40.5320856 L44.4080806,40.8490881 L43.4368612,40.4118799 L42.4528767,40.0087122 C42.4475579,40.0182861 42.4092623,40.1023237 42.4050072,40.1129613 C42.2656537,40.4331552 42.1348104,40.7533491 42.0092859,41.0777981 L41.6465413,42.087313 C41.5252718,42.4543126 41.4125125,42.8213123 41.3114547,43.1851206 L41.1295505,43.9191199 C41.0827447,44.1042153 41.0348752,44.288247 40.9944521,44.4765338 C40.9742405,44.5701453 40.9593478,44.6648206 40.9455188,44.7584321 L40.9231797,44.8903392 C40.8699913,45.160536 40.8253131,45.4296691 40.7838262,45.7030572 L40.7551045,45.8668774 C40.7348929,45.9700628 40.7168089,46.0732482 40.7008524,46.1870712 C40.6912785,46.26579 40.6880872,46.343445 40.6838321,46.4796072 C40.5785192,47.3976382 40.5306496,48.1603591 40.5327772,48.8815932 L40.5402235,51.5005877 C40.5434148,52.5239316 40.6646843,53.951507 41.693347,54.5493441 L48.4301838,58.4640069 L48.379123,58.5512358 C48.3493375,58.6065517 48.3195521,58.6629313 48.2908303,58.7235661 L48.1897725,58.9554673 C48.1844536,58.9661049 48.1536044,59.0437599 48.1493493,59.0543976 C48.1216914,59.1267338 48.0940334,59.2011975 48.0674393,59.28098 C48.0387175,59.3714002 48.0089321,59.4639479 47.986593,59.5501131 C47.9568075,59.6575535 47.9291495,59.7703128 47.9195756,59.8213737 C47.913193,59.8447765 47.8983003,59.9096663 47.8929815,59.9330692 C47.849367,60.1351849 47.8131989,60.3500659 47.785541,60.559628 C47.7780946,60.6202627 47.7738396,60.6894076 47.7749033,60.733022 C47.7195874,61.212781 47.6929933,61.669137 47.6951208,62.1308119 L47.6951208,62.1318757 L47.6951208,62.1329395 L47.7068222,66.3709874 C47.707886,66.7528798 47.7280976,67.0964766 47.7632019,67.404969 C47.9004278,68.5900055 48.301468,69.3601729 48.9907891,69.7601493 L61.0145481,76.7480351 L60.1135374,76.6810178 C60.083752,77.0937594 60.0539665,77.5086286 60.0050332,77.8926485 C59.9582275,78.2628394 59.8954652,78.6053724 59.8327029,78.9500329 L59.7954711,79.1766153 C59.7837697,79.2553341 59.7720682,79.3340528 59.7550479,79.4117078 C59.6539901,79.8967856 59.5369757,80.342504 59.4061324,80.7456717 C59.3316687,80.9850193 59.2444398,81.2201118 59.151892,81.4498855 L51.3300128,76.9044089 C51.3076737,76.8916437 51.2853346,76.8799422 51.2629955,76.8693046 C51.2268274,76.8501568 51.1853405,76.8310089 51.1289609,76.8065423 C51.0959841,76.7927133 50.9938624,76.7565453 50.9598219,76.7469713 C50.9013147,76.7299511 50.84068,76.7161221 50.7566424,76.7012294 C50.717283,76.693783 50.5811208,76.6788903 50.5417614,76.6767627 L50.4215558,76.6746352 C50.3949616,76.6746352 50.3407095,76.6735714 50.3130515,76.675699 C50.2226313,76.679954 50.1290198,76.6895279 50.0385996,76.7033569 C49.9205215,76.7214409 49.794997,76.7480351 49.6045827,76.8022872 L49.4279973,76.8618582 C49.3046003,76.9012176 49.1822671,76.9416407 49.0535513,76.9948291 C49.004618,77.0139769 48.9450471,77.0437624 48.9173891,77.0618464 C48.5918764,77.2022637 48.2397695,77.3745939 47.8323467,77.6096864 L47.8323467,77.6096864 L41.9465236,81.0073584 L41.9465236,81.0084222 L41.9454598,81.0084222 C41.5486747,81.2371321 41.1816751,81.4892449 40.789145,81.8019924 C40.7029799,81.8711373 40.6221336,81.9413459 40.5412873,82.0104908 C40.5402235,82.0126183 40.4529946,82.0849545 40.4519309,82.0860182 C40.3700208,82.1519718 40.2891745,82.2200529 40.2189659,82.2891977 C40.1115254,82.3955744 40.0094038,82.5030149 39.9115372,82.616838 C39.8445199,82.6955567 39.7796301,82.7732117 39.725378,82.8444841 L39.5285811,83.118936 C39.5179434,83.1348925 39.4573087,83.2327591 39.4477348,83.2487156 L39.3626334,83.4018981 C39.3583783,83.4104082 39.3137001,83.4987009 39.3105088,83.5082748 L39.1754104,83.8199585 C39.1488162,83.8859121 39.1254134,83.9539932 39.1062655,84.0114366 C39.0796714,84.0933467 39.0520134,84.1795118 39.0349932,84.2475929 L38.9743584,84.4911955 C38.9690396,84.5092796 38.9530831,84.5762969 38.948828,84.5954447 C38.9137237,84.7656474 38.8828745,84.9443603 38.8605354,85.1209456 C38.8594716,85.1305195 38.8520252,85.2368963 38.8509615,85.2454064 C38.8105383,85.5953858 38.7850079,85.9666405 38.7860397,86.3783183 L38.7967093,90.2078797 C38.8137296,95.9000973 40.3200238,99.6562588 43.2730411,101.374243 L60.1954475,111.208769 C60.2794851,111.257702 60.3677778,111.292807 60.4571342,111.317273 C60.6156355,111.400247 60.7571165,111.504496 60.9220004,111.575769 C61.9836399,112.040635 63.1548475,112.2736 64.4334955,112.2736 C67.1663131,112.2736 70.3873997,111.210897 74.0563323,109.092936 C79.9410917,105.695264 84.5344378,100.974266 87.7119101,95.0607851 C89.7437051,91.2673917 91.1180922,87.1187002 91.8393262,82.6721539 L100.046289,87.4410216 C100.067564,87.4537868 100.090967,87.4580419 100.112243,87.4686795 C100.185643,87.5101665 100.256915,87.558036 100.331379,87.5984591 C101.634493,88.2835251 103.071643,88.6260581 104.636444,88.6260581 C107.232036,88.6260581 110.177607,87.6824967 113.441244,85.7975015 C118.436694,82.913629 122.618362,78.6628158 125.869234,73.1631401 C129.356263,67.2677431 131.112542,60.7872741 131.093549,53.9025737 L131.010421,24.5862173 Z" id="Fill-3-Copy" stroke="#FFFFFF" stroke-width="0.7" fill="#002A5D"></path>
                    </g>
                </g>
            </g>
        </g>
    </g>
</svg>