<?xml version="1.0" encoding="UTF-8"?>
<svg width="152px" height="152px" viewBox="0 0 152 152" version="1.1" xmlns="http://www.w3.org/2000/svg" xmlns:xlink="http://www.w3.org/1999/xlink">
    <title>Group 5</title>
    <g id="I---Marque" stroke="none" stroke-width="1" fill="none" fill-rule="evenodd">
        <g id="I.1.0---La-marque---Qui-sommes-nous-?" transform="translate(-1001.000000, -4772.000000)">
            <g id="//-Chiifres" transform="translate(0.000000, 4493.000000)">
                <g id="03" transform="translate(1002.000000, 279.000000)">
                    <g id="Group-5" transform="translate(0.385000, 0.515000)">
                        <circle id="Oval" stroke="#002A5D" stroke-width="1.012" cx="75" cy="75" r="75"></circle>
                        <path d="M107.088671,1.02232212 L107.191117,1.02419867 C107.329008,1.02308664 107.426867,1.02419867 107.522502,1.02642273 L107.522502,1.02642273 L107.579632,1.02697874 C107.607294,1.02725675 107.634817,1.02753476 107.635929,1.02753476 L107.791613,1.02753476 C107.917272,1.02419867 108.04738,1.0253107 108.169703,1.03420693 C108.336507,1.0442152 108.497752,1.06534377 108.657884,1.08758437 L108.657884,1.08758437 L108.794664,1.10537684 C108.953684,1.12316932 109.02819,1.13095353 109.102696,1.14318586 C109.144953,1.14652195 109.197219,1.15097007 109.248372,1.1598663 C109.604221,1.22213997 109.944503,1.29998206 110.275887,1.39672866 C110.3048,1.40451287 110.409331,1.44120985 110.437132,1.45121812 L110.437132,1.45121812 L110.856367,1.59800606 C110.993147,1.64359928 111.129926,1.69030453 111.262258,1.74590602 C111.511353,1.8493248 111.753775,1.96386387 111.99175,2.08841121 L111.99175,2.08841121 L112.005094,2.09619542 L112.180795,2.19182998 L112.188579,2.19739013 L112.192332,2.19822415 L112.197475,2.20072622 C112.220828,2.21518261 112.289774,2.25521568 112.29311,2.25743974 L112.29311,2.25743974 L129.76977,12.4124961 L129.76421,12.4213923 C133.525095,14.607643 135.446683,19.4127239 135.468923,26.7232079 L135.468923,26.7232079 L135.555806,57.3685258 C135.574566,64.5666949 133.738605,71.3411806 130.094483,77.5040499 C126.69612,83.252132 122.324731,87.6969153 117.102639,90.7116281 C113.690931,92.6810329 110.61172,93.6685154 107.897256,93.6685154 C106.262572,93.6685154 104.759108,93.3104418 103.396871,92.5931826 C103.316805,92.5509254 103.241187,92.4997721 103.163345,92.4541788 C103.142216,92.4452826 103.121088,92.4408345 103.101071,92.4286022 L103.101071,92.4286022 L94.0558205,87.1720372 C93.5298304,91.9971346 91.915163,96.6643238 89.1962501,101.080194 C85.8312479,106.560277 81.139594,111.062886 75.2525082,114.461249 C71.553897,116.596346 68.3634834,117.663895 65.6979479,117.663895 C64.1911475,117.663895 62.8589358,117.310269 61.6913044,116.627483 C61.6879683,116.626371 61.6857443,116.625259 61.6824082,116.624147 L61.6807402,116.622618 L61.6790721,116.621923 L44.2001873,106.464643 C43.2827627,105.930868 42.4676449,105.185808 41.7792984,104.250591 C39.7353876,101.490533 38.7312246,97.1669612 38.7145442,91.0341168 L38.7145442,91.0341168 L38.6331043,62.5728254 C38.6289179,61.2128129 38.6811833,59.7905268 38.7890502,58.2225647 C38.8124028,57.9134205 38.8424276,57.6131724 38.8724524,57.3129243 L38.8724524,57.3129243 L38.9614148,56.3521306 C38.9936637,55.956248 39.0259125,55.5603653 39.0748419,55.1800511 C39.1037546,54.9565331 39.1437877,54.7430234 39.1838208,54.5295137 C39.2082854,54.3960701 39.2338621,54.2615145 39.2549907,54.1247348 C39.3339448,53.6120891 39.4195711,53.1061155 39.5140936,52.6057021 C39.5363342,52.4822668 39.5574628,52.3499352 39.5763673,52.2164917 C39.6119523,51.9951977 39.6464252,51.7739038 39.6920184,51.5615061 C39.863271,50.7608446 40.0556522,49.9768636 40.2669378,49.2117871 C40.2758341,49.1795382 40.2914025,49.133945 40.3025228,49.1039202 C40.4459746,48.576818 40.6238994,47.9952264 40.8129445,47.4258672 C40.9786369,46.9265658 41.1543376,46.4372727 41.3389346,45.9568758 L41.3389346,45.9568758 L41.5735729,45.3619398 C41.6714315,45.1250775 41.765954,44.9004474 41.8627006,44.6758174 C42.0517457,44.2410138 42.248575,43.8106582 42.4531885,43.3836388 C42.5521591,43.1801373 42.6566899,42.9777479 42.7612207,42.7764705 L42.7612207,42.7764705 L43.0737011,42.160406 C43.2972191,41.7389466 43.5229612,41.3352798 43.7553754,40.9360611 C43.9955738,40.523498 44.2446685,40.1153831 44.5026594,39.7117163 C44.5104436,39.6994839 44.5182279,39.6883637 44.5260121,39.6772434 C44.7962353,39.255784 45.0753548,38.8398849 45.3622585,38.4284339 C45.6736268,37.98807 45.9950035,37.5554904 46.3241643,37.128471 C46.3252763,37.1262469 46.3953342,37.0306124 46.3964462,37.0295003 C46.8201296,36.4834937 47.2593814,35.9486073 47.7175377,35.4215052 C47.8009399,35.3258706 47.8865662,35.2369083 47.9721925,35.1490579 L47.9721925,35.1490579 L48.1301007,34.9822534 C48.4259007,34.6519806 48.7339329,34.331716 49.0419652,34.0103394 L49.0419652,34.0103394 L49.3055162,33.7267718 C49.4523042,33.5666395 49.5990921,33.4065072 49.7570004,33.251935 C49.8782116,33.1318358 50.0072071,33.0150727 50.1373146,32.8983095 L50.1373146,32.8983095 L50.3730649,32.6836878 C50.6710889,32.4012322 50.975785,32.1221127 51.2860414,31.8441053 C51.7786706,31.4048535 52.2902043,30.9744979 52.8117463,30.5508146 L52.8117463,30.5508146 L52.949638,30.4384996 C53.2198612,30.2172056 53.4900845,29.9959117 53.771428,29.7812899 C54.3519076,29.3342539 54.9601879,28.8994503 55.5784765,28.4690947 L55.5784765,28.4690947 L55.8909569,28.2478008 C56.0766659,28.1143572 56.2623748,27.9820257 56.4569801,27.8530302 C57.4667031,27.1813642 58.4141525,26.5908764 59.3504817,26.0515419 C60.0599567,25.6423149 60.7394069,25.2597767 61.3888323,24.9039271 L61.3888323,24.9039271 L62.3562983,24.3879453 C62.6643305,24.2222528 62.9701387,24.0576724 63.2592665,23.9097725 L63.2592665,23.9097725 L64.2545332,23.4182553 C64.4947316,23.2981561 64.733818,23.1802809 64.957336,23.0746381 C65.1174683,22.99902 65.2653683,22.9345223 65.4121562,22.8700246 L65.4121562,22.8700246 L65.849184,22.6754194 C66.0704779,22.5753367 66.2939959,22.475254 66.4986094,22.3907397 C66.9990228,22.1816781 67.416034,22.0215458 67.8074685,21.8836541 C67.826373,21.878094 67.901991,21.8536293 67.9220075,21.8480692 C68.273409,21.7268579 68.6136901,21.618991 68.9239464,21.5344768 C68.9550833,21.5255805 69.0117968,21.5122362 69.0440456,21.506676 C69.1074313,21.4877715 69.2219704,21.4644189 69.3387335,21.4410663 L69.3387335,21.4410663 L69.5978365,21.3843527 C69.7379523,21.3509918 69.87918,21.318743 70.0059514,21.2998385 C70.0337522,21.2953903 70.100474,21.2887182 70.1282747,21.2864941 L70.1282747,21.2864941 L70.2205732,21.2764858 C70.4463152,21.2497971 70.5675265,21.2353407 70.6787295,21.2308926 C70.8288535,21.2242204 70.9678572,21.2253325 71.1024128,21.2320046 C71.1046369,21.2320046 71.107973,21.2308926 71.1101971,21.2308926 C71.1213174,21.2320046 71.1947113,21.2342287 71.2258482,21.2364528 L71.2258482,21.2364528 L71.2383585,21.2370088 L71.2383585,21.2370088 C71.2469767,21.2375648 71.2480888,21.2386768 71.2492008,21.2386768 C71.3626278,21.246461 71.4749428,21.2586934 71.5805857,21.2775979 L71.5805857,21.2775979 C71.6906766,21.2953903 71.7974315,21.320967 71.8975142,21.3498798 L71.8975142,21.3498798 C71.9953728,21.3787926 72.0876713,21.4110414 72.1777457,21.4477384 C72.1821938,21.4499625 72.1855299,21.4521866 72.188866,21.4532986 L72.188866,21.4532986 C72.2778284,21.4911076 72.3634547,21.5333647 72.4457449,21.578958 L72.4457449,21.578958 L72.4579772,21.5856301 C72.4613133,21.5878542 72.4635374,21.5878542 72.4657614,21.5900782 L72.4657614,21.5900782 L81.176291,26.652038 C81.2841579,26.317317 81.4954436,25.7057006 81.6511278,25.2531045 L81.6511278,25.2531045 L81.8668616,24.6303678 C81.8679736,24.6259197 81.9035585,24.526949 81.9046706,24.5225009 L81.9046706,24.5225009 L82.1493171,23.8363785 C82.2293833,23.6095244 82.3094494,23.3826703 82.3950757,23.1569283 C82.4996065,22.885593 82.6119215,22.6153697 82.7264606,22.3451465 L82.7264606,22.3451465 L83.0100282,21.6534639 C83.2213139,21.1652829 83.4414958,20.684886 83.672798,20.2078252 L83.672798,20.2078252 L84.3900572,18.7910992 C84.641376,18.3173745 84.902703,17.8480979 85.1751503,17.3821574 L85.1751503,17.3821574 L85.276345,17.2097928 C85.5543525,16.7371801 85.8212396,16.3034885 86.0936869,15.877581 L86.0936869,15.877581 L86.4239598,15.3827278 C86.5496191,15.1925707 86.6741665,15.0068617 86.7987138,14.8244888 L86.7987138,14.8244888 L87.0989619,14.3763408 C87.252422,14.1572709 87.4103302,13.9459852 87.5682385,13.7358116 L87.5682385,13.7358116 L88.2287842,12.8450757 C88.5534969,12.4269525 88.893778,12.0221736 89.2351712,11.6185068 L89.2351712,11.6185068 L89.5398673,11.2482009 C89.6288297,11.1436701 89.6822072,11.0869566 89.7366966,11.0313551 L89.7366966,11.0313551 L89.8156507,10.9479528 C90.2938236,10.4086184 90.7864528,9.87929216 91.2924263,9.37331859 L91.2924263,9.37331859 L91.4447744,9.21207427 C91.6104669,9.04749385 91.7828315,8.89069765 91.9551961,8.73501347 L91.9551961,8.73501347 L92.4266968,8.29798575 C92.583493,8.14897375 92.7414012,8.00107379 92.9026455,7.85873397 C93.1995575,7.59851899 93.5009176,7.3527604 93.8033897,7.10700181 L93.8033897,7.10700181 L94.1536791,6.82009811 C94.3082512,6.69110265 94.4628234,6.56321922 94.6207316,6.44200797 C94.9799172,6.16511255 95.3491111,5.90489757 95.7194171,5.64579462 L95.7194171,5.64579462 L96.0341215,5.42116459 C96.1608929,5.32775409 96.2887764,5.23545561 96.4188838,5.14760526 C97.0393965,4.73281813 97.6710294,4.33804754 98.2959902,3.97663785 C98.9209509,3.61745222 99.5258952,3.29829966 100.123055,3.00472378 C100.254275,2.94022605 100.381046,2.88351253 100.50893,2.82679901 L100.50893,2.82679901 L100.952629,2.62218552 C101.171699,2.51876675 101.389657,2.41646001 101.604279,2.32860965 C101.666553,2.30192093 101.734386,2.27968034 101.803332,2.25743974 C102.611778,1.93495109 103.304573,1.69586468 103.932869,1.52350006 C103.951774,1.51793991 103.970678,1.51349179 103.989583,1.50793164 C104.531141,1.3611437 105.091604,1.24104448 105.633163,1.15875427 C105.667636,1.15319413 105.716565,1.14763398 105.751038,1.14652195 C105.727686,1.14652195 105.789959,1.13984977 105.854457,1.13540165 C106.254788,1.08313625 106.626206,1.03976708 106.985391,1.02419867 C107.055449,1.0216966 107.122171,1.0216966 107.191117,1.02419867 Z" id="Fill-3" fill="#FFFFFF"></path>
                        <path d="M114.340023,31.556868 C114.960536,30.4826471 115.830143,29.6163759 116.927716,28.9836309 C117.706137,28.5332589 118.20099,28.425392 118.49679,28.425392 C118.603545,28.425392 118.683611,28.4387363 118.743661,28.4565288 C118.773686,28.465425 118.832623,28.4898897 118.903793,28.5343709 C118.952723,28.5666198 119.00054,28.612213 119.048357,28.6622543 C119.068374,28.6833829 119.086166,28.6967273 119.107295,28.7223039 C119.17068,28.8012581 119.232954,28.8957806 119.293004,29.0114317 C119.381966,29.1782362 119.477601,29.4162105 119.562115,29.7520436 C119.703343,30.3136186 119.815658,31.148753 119.818994,32.3908903 L119.917964,67.2096562 L119.917964,67.2174404 C119.919077,67.5643937 119.906844,67.9057868 119.884604,68.2427319 C119.875707,68.397304 119.855691,68.546316 119.841234,68.6975521 C119.824554,68.879925 119.808986,69.0634099 119.784521,69.2424467 L119.736704,69.5315745 C119.720023,69.6361053 119.700007,69.738412 119.683326,69.8429428 C119.654413,69.998627 119.632173,70.1576472 119.598812,70.3111074 C119.58658,70.3655968 119.569899,70.4200863 119.557667,70.4745757 C119.490945,70.7614794 119.417551,71.045047 119.331925,71.3219425 C118.877105,72.833191 118.143165,74.0453035 117.153458,74.95828 L116.955517,75.1295326 C116.641925,75.3953077 116.313876,75.6444024 115.953578,75.852352 C115.797894,75.9435384 115.643322,76.0191565 115.478741,76.0847662 C115.462061,76.0925504 115.445381,76.0981106 115.4287,76.1047827 C115.380883,76.1214632 115.2808,76.1548241 115.270792,76.1581602 C115.265232,76.1592722 115.196286,76.1848489 115.164037,76.1970812 C115.103987,76.2126496 115.047274,76.227106 114.992784,76.2382263 C114.954975,76.2448985 114.916054,76.2504587 114.866013,76.2571308 C114.810412,76.263803 114.75481,76.2693632 114.703657,76.2693632 C114.682528,76.2704752 114.659175,76.2693632 114.636935,76.2693632 C114.501267,76.264915 114.381168,76.2426744 114.274413,76.2070895 C114.255509,76.2015293 114.23438,76.1948572 114.215476,76.187073 C114.182115,76.1737286 114.150978,76.1603842 114.120953,76.1459279 C114.094264,76.1336955 114.068688,76.1214632 114.041999,76.1070068 C114.000854,76.0847662 113.960821,76.0614136 113.924124,76.038061 C113.722846,75.9101775 113.068973,75.2740965 113.062301,72.4450926 L112.96333,37.6263267 C112.956658,35.2043258 113.420374,33.161527 114.340023,31.556868 L114.340023,31.556868 Z M107.088671,1.02232212 L107.191117,1.02419867 C107.329008,1.02308664 107.426867,1.02419867 107.522502,1.02642273 L107.522502,1.02642273 L107.579632,1.02697874 C107.607294,1.02725675 107.634817,1.02753476 107.635929,1.02753476 L107.791613,1.02753476 C107.917272,1.02419867 108.04738,1.0253107 108.169703,1.03420693 C108.336507,1.0442152 108.497752,1.06534377 108.657884,1.08758437 L108.657884,1.08758437 L108.794664,1.10537684 C108.953684,1.12316932 109.02819,1.13095353 109.102696,1.14318586 C109.144953,1.14652195 109.197219,1.15097007 109.248372,1.1598663 C109.604221,1.22213997 109.944503,1.29998206 110.275887,1.39672866 C110.3048,1.40451287 110.409331,1.44120985 110.437132,1.45121812 L110.437132,1.45121812 L110.856367,1.59800606 C110.993147,1.64359928 111.129926,1.69030453 111.262258,1.74590602 C111.511353,1.8493248 111.753775,1.96386387 111.99175,2.08841121 L111.99175,2.08841121 L112.005094,2.09619542 L112.180795,2.19182998 L112.188579,2.19739013 L112.192332,2.19822415 L112.197475,2.20072622 C112.220828,2.21518261 112.289774,2.25521568 112.29311,2.25743974 L112.29311,2.25743974 L129.76977,12.4124961 L129.76421,12.4213923 C133.525095,14.607643 135.446683,19.4127239 135.468923,26.7232079 L135.468923,26.7232079 L135.555806,57.3685258 C135.574566,64.5666949 133.738605,71.3411806 130.094483,77.5040499 C126.69612,83.252132 122.324731,87.6969153 117.102639,90.7116281 C113.690931,92.6810329 110.61172,93.6685154 107.897256,93.6685154 C106.262572,93.6685154 104.759108,93.3104418 103.396871,92.5931826 C103.316805,92.5509254 103.241187,92.4997721 103.163345,92.4541788 C103.142216,92.4452826 103.121088,92.4408345 103.101071,92.4286022 L103.101071,92.4286022 L94.0558205,87.1720372 C93.5298304,91.9971346 91.915163,96.6643238 89.1962501,101.080194 C85.8312479,106.560277 81.139594,111.062886 75.2525082,114.461249 C71.553897,116.596346 68.3634834,117.663895 65.6979479,117.663895 C64.1911475,117.663895 62.8589358,117.310269 61.6913044,116.627483 C61.6879683,116.626371 61.6857443,116.625259 61.6824082,116.624147 L61.6807402,116.622618 L61.6790721,116.621923 L44.2001873,106.464643 C43.2827627,105.930868 42.4676449,105.185808 41.7792984,104.250591 C39.7353876,101.490533 38.7312246,97.1669612 38.7145442,91.0341168 L38.7145442,91.0341168 L38.6331043,62.5728254 C38.6289179,61.2128129 38.6811833,59.7905268 38.7890502,58.2225647 C38.8124028,57.9134205 38.8424276,57.6131724 38.8724524,57.3129243 L38.8724524,57.3129243 L38.9614148,56.3521306 C38.9936637,55.956248 39.0259125,55.5603653 39.0748419,55.1800511 C39.1037546,54.9565331 39.1437877,54.7430234 39.1838208,54.5295137 C39.2082854,54.3960701 39.2338621,54.2615145 39.2549907,54.1247348 C39.3339448,53.6120891 39.4195711,53.1061155 39.5140936,52.6057021 C39.5363342,52.4822668 39.5574628,52.3499352 39.5763673,52.2164917 C39.6119523,51.9951977 39.6464252,51.7739038 39.6920184,51.5615061 C39.863271,50.7608446 40.0556522,49.9768636 40.2669378,49.2117871 C40.2758341,49.1795382 40.2914025,49.133945 40.3025228,49.1039202 C40.4459746,48.576818 40.6238994,47.9952264 40.8129445,47.4258672 C40.9786369,46.9265658 41.1543376,46.4372727 41.3389346,45.9568758 L41.3389346,45.9568758 L41.5735729,45.3619398 C41.6714315,45.1250775 41.765954,44.9004474 41.8627006,44.6758174 C42.0517457,44.2410138 42.248575,43.8106582 42.4531885,43.3836388 C42.5521591,43.1801373 42.6566899,42.9777479 42.7612207,42.7764705 L42.7612207,42.7764705 L43.0737011,42.160406 C43.2972191,41.7389466 43.5229612,41.3352798 43.7553754,40.9360611 C43.9955738,40.523498 44.2446685,40.1153831 44.5026594,39.7117163 C44.5104436,39.6994839 44.5182279,39.6883637 44.5260121,39.6772434 C44.7962353,39.255784 45.0753548,38.8398849 45.3622585,38.4284339 C45.6736268,37.98807 45.9950035,37.5554904 46.3241643,37.128471 C46.3252763,37.1262469 46.3953342,37.0306124 46.3964462,37.0295003 C46.8201296,36.4834937 47.2593814,35.9486073 47.7175377,35.4215052 C47.8009399,35.3258706 47.8865662,35.2369083 47.9721925,35.1490579 L47.9721925,35.1490579 L48.1301007,34.9822534 C48.4259007,34.6519806 48.7339329,34.331716 49.0419652,34.0103394 L49.0419652,34.0103394 L49.3055162,33.7267718 C49.4523042,33.5666395 49.5990921,33.4065072 49.7570004,33.251935 C49.8782116,33.1318358 50.0072071,33.0150727 50.1373146,32.8983095 L50.1373146,32.8983095 L50.3730649,32.6836878 C50.6710889,32.4012322 50.975785,32.1221127 51.2860414,31.8441053 C51.7786706,31.4048535 52.2902043,30.9744979 52.8117463,30.5508146 L52.8117463,30.5508146 L52.949638,30.4384996 C53.2198612,30.2172056 53.4900845,29.9959117 53.771428,29.7812899 C54.3519076,29.3342539 54.9601879,28.8994503 55.5784765,28.4690947 L55.5784765,28.4690947 L55.8909569,28.2478008 C56.0766659,28.1143572 56.2623748,27.9820257 56.4569801,27.8530302 C57.4667031,27.1813642 58.4141525,26.5908764 59.3504817,26.0515419 C60.0599567,25.6423149 60.7394069,25.2597767 61.3888323,24.9039271 L61.3888323,24.9039271 L62.3562983,24.3879453 C62.6643305,24.2222528 62.9701387,24.0576724 63.2592665,23.9097725 L63.2592665,23.9097725 L64.2545332,23.4182553 C64.4947316,23.2981561 64.733818,23.1802809 64.957336,23.0746381 C65.1174683,22.99902 65.2653683,22.9345223 65.4121562,22.8700246 L65.4121562,22.8700246 L65.849184,22.6754194 C66.0704779,22.5753367 66.2939959,22.475254 66.4986094,22.3907397 C66.9990228,22.1816781 67.416034,22.0215458 67.8074685,21.8836541 C67.826373,21.878094 67.901991,21.8536293 67.9220075,21.8480692 C68.273409,21.7268579 68.6136901,21.618991 68.9239464,21.5344768 C68.9550833,21.5255805 69.0117968,21.5122362 69.0440456,21.506676 C69.1074313,21.4877715 69.2219704,21.4644189 69.3387335,21.4410663 L69.3387335,21.4410663 L69.5978365,21.3843527 C69.7379523,21.3509918 69.87918,21.318743 70.0059514,21.2998385 C70.0337522,21.2953903 70.100474,21.2887182 70.1282747,21.2864941 L70.1282747,21.2864941 L70.2205732,21.2764858 C70.4463152,21.2497971 70.5675265,21.2353407 70.6787295,21.2308926 C70.8288535,21.2242204 70.9678572,21.2253325 71.1024128,21.2320046 C71.1046369,21.2320046 71.107973,21.2308926 71.1101971,21.2308926 C71.1213174,21.2320046 71.1947113,21.2342287 71.2258482,21.2364528 L71.2258482,21.2364528 L71.2383585,21.2370088 L71.2383585,21.2370088 C71.2469767,21.2375648 71.2480888,21.2386768 71.2492008,21.2386768 C71.3626278,21.246461 71.4749428,21.2586934 71.5805857,21.2775979 L71.5805857,21.2775979 C71.6906766,21.2953903 71.7974315,21.320967 71.8975142,21.3498798 L71.8975142,21.3498798 C71.9953728,21.3787926 72.0876713,21.4110414 72.1777457,21.4477384 C72.1821938,21.4499625 72.1855299,21.4521866 72.188866,21.4532986 L72.188866,21.4532986 C72.2778284,21.4911076 72.3634547,21.5333647 72.4457449,21.578958 L72.4457449,21.578958 L72.4579772,21.5856301 C72.4613133,21.5878542 72.4635374,21.5878542 72.4657614,21.5900782 L72.4657614,21.5900782 L81.176291,26.652038 C81.2841579,26.317317 81.4954436,25.7057006 81.6511278,25.2531045 L81.6511278,25.2531045 L81.8668616,24.6303678 C81.8679736,24.6259197 81.9035585,24.526949 81.9046706,24.5225009 L81.9046706,24.5225009 L82.1493171,23.8363785 C82.2293833,23.6095244 82.3094494,23.3826703 82.3950757,23.1569283 C82.4996065,22.885593 82.6119215,22.6153697 82.7264606,22.3451465 L82.7264606,22.3451465 L83.0100282,21.6534639 C83.2213139,21.1652829 83.4414958,20.684886 83.672798,20.2078252 L83.672798,20.2078252 L84.3900572,18.7910992 C84.641376,18.3173745 84.902703,17.8480979 85.1751503,17.3821574 L85.1751503,17.3821574 L85.276345,17.2097928 C85.5543525,16.7371801 85.8212396,16.3034885 86.0936869,15.877581 L86.0936869,15.877581 L86.4239598,15.3827278 C86.5496191,15.1925707 86.6741665,15.0068617 86.7987138,14.8244888 L86.7987138,14.8244888 L87.0989619,14.3763408 C87.252422,14.1572709 87.4103302,13.9459852 87.5682385,13.7358116 L87.5682385,13.7358116 L88.2287842,12.8450757 C88.5534969,12.4269525 88.893778,12.0221736 89.2351712,11.6185068 L89.2351712,11.6185068 L89.5398673,11.2482009 C89.6288297,11.1436701 89.6822072,11.0869566 89.7366966,11.0313551 L89.7366966,11.0313551 L89.8156507,10.9479528 C90.2938236,10.4086184 90.7864528,9.87929216 91.2924263,9.37331859 L91.2924263,9.37331859 L91.4447744,9.21207427 C91.6104669,9.04749385 91.7828315,8.89069765 91.9551961,8.73501347 L91.9551961,8.73501347 L92.4266968,8.29798575 C92.583493,8.14897375 92.7414012,8.00107379 92.9026455,7.85873397 C93.1995575,7.59851899 93.5009176,7.3527604 93.8033897,7.10700181 L93.8033897,7.10700181 L94.1536791,6.82009811 C94.3082512,6.69110265 94.4628234,6.56321922 94.6207316,6.44200797 C94.9799172,6.16511255 95.3491111,5.90489757 95.7194171,5.64579462 L95.7194171,5.64579462 L96.0341215,5.42116459 C96.1608929,5.32775409 96.2887764,5.23545561 96.4188838,5.14760526 C97.0393965,4.73281813 97.6710294,4.33804754 98.2959902,3.97663785 C98.9209509,3.61745222 99.5258952,3.29829966 100.123055,3.00472378 C100.254275,2.94022605 100.381046,2.88351253 100.50893,2.82679901 L100.50893,2.82679901 L100.952629,2.62218552 C101.171699,2.51876675 101.389657,2.41646001 101.604279,2.32860965 C101.666553,2.30192093 101.734386,2.27968034 101.803332,2.25743974 C102.611778,1.93495109 103.304573,1.69586468 103.932869,1.52350006 C103.951774,1.51793991 103.970678,1.51349179 103.989583,1.50793164 C104.531141,1.3611437 105.091604,1.24104448 105.633163,1.15875427 C105.667636,1.15319413 105.716565,1.14763398 105.751038,1.14652195 C105.727686,1.14652195 105.789959,1.13984977 105.854457,1.13540165 C106.254788,1.08313625 106.626206,1.03976708 106.985391,1.02419867 C107.055449,1.0216966 107.122171,1.0216966 107.191117,1.02419867 Z M88.4912232,33.6117218 C88.3444353,33.6088966 88.1687346,33.622241 87.9841376,33.6422575 C87.9830256,33.6433695 87.9296482,33.6489297 87.8962873,33.6511537 C87.8718226,33.6544898 87.8451339,33.66005 87.8195572,33.6644981 C87.7339309,33.6789545 87.6405204,33.698971 87.5393257,33.7212116 L87.5393257,33.7212116 L87.2568701,33.7812612 C87.214613,33.7901575 87.1690198,33.8001657 87.1245386,33.810174 C87.067825,33.8246304 87.0122236,33.8390868 86.953286,33.8557672 C86.7219838,33.9191529 86.4773372,33.995883 86.2226824,34.0815093 C86.0947989,34.1248784 85.9669155,34.1682476 85.8279118,34.2182889 C85.5877133,34.3061393 85.3341705,34.40511 85.0706195,34.5118648 C84.940512,34.5641302 84.8137406,34.6152836 84.6747369,34.6731091 C84.5435173,34.7309347 84.4122978,34.7876482 84.2755182,34.8499219 L84.2755182,34.8499219 L83.824034,35.0511993 C83.7728807,35.0734399 83.7206153,35.0979045 83.6694619,35.1201451 C83.5171138,35.190203 83.3669898,35.2591489 83.2079695,35.3347669 C83.041165,35.414833 82.8732485,35.4971232 82.7008839,35.5827495 L82.7008839,35.5827495 L82.0303299,35.9130224 C81.8635255,35.9975367 81.6911608,36.085387 81.5154601,36.1765735 C81.2841579,36.2977847 81.0506317,36.42122 80.8115452,36.5491035 L80.8115452,36.5491035 L80.1065183,36.9249695 C79.9686266,36.9994755 79.8240628,37.0806537 79.6817229,37.1584958 C79.1223719,37.4676401 78.5496766,37.7879047 77.9447324,38.137082 C76.9783784,38.695321 76.0531696,39.2769126 75.1568736,39.8740726 C74.9878451,39.9874997 74.8254887,40.1042628 74.6597963,40.222138 L74.6597963,40.222138 L74.5241286,40.3188846 C73.8469025,40.7870491 73.1819086,41.2618859 72.5458276,41.7545151 C72.3423261,41.9124233 72.1432728,42.0725556 71.9453315,42.2337999 C71.3170346,42.7375494 70.7087543,43.2501952 70.1249386,43.7772973 C69.9381176,43.9463258 69.7535207,44.1164664 69.5711478,44.286607 C68.9806599,44.8403978 68.4124127,45.405309 67.8686301,45.9824525 C67.7207301,46.1381366 67.5783903,46.2893727 67.4438347,46.4361606 C65.4243886,48.6535481 63.7363273,51.0433002 62.3985554,53.6054169 L62.3985554,53.6054169 L62.3373938,53.7266282 C61.8948059,54.5817791 61.4866909,55.4558345 61.1219452,56.3487945 C61.1208331,56.3521306 61.1186091,56.3543546 61.117497,56.3576907 C61.0652316,56.4855742 61.0207505,56.6245779 60.9707091,56.7546854 C60.7961204,57.1994973 60.6237558,57.6454213 60.4669596,58.1058016 C60.4135822,58.2670459 60.3679889,58.4382985 60.3146115,58.6017669 C60.1700476,59.0499149 60.0254838,59.4969509 59.8976003,59.9606674 C59.5995763,61.0304401 59.3771704,62.1369097 59.1803411,63.1788817 C59.0913787,63.6526064 59.0102005,64.1352273 58.9345825,64.6222964 C58.805587,65.4629909 58.6966081,66.3670712 58.6065337,67.3067364 L58.6065337,67.3067364 L58.5631645,67.7437641 C58.5364758,68.0073152 58.5097871,68.2697542 58.4897706,68.5388654 C58.3852398,70.0412177 58.3351984,71.4112385 58.3393742,72.7256577 L58.3393742,72.7256577 L58.4208247,101.186949 C58.4352811,106.750434 59.3204569,110.754854 61.0507753,113.090116 C61.5600849,113.780687 62.1483487,114.321133 62.8011102,114.700335 C62.8344711,114.720352 62.8533756,114.751489 62.8834004,114.773729 C64.6904489,115.76566 67.9865053,116.089261 74.1404783,112.535213 C79.7039635,109.323671 84.1320663,105.076829 87.3013513,99.9147869 C90.4617401,94.7816573 92.0552788,89.3049104 92.038728,83.6357823 L92.038728,83.6357823 L91.9985653,69.1382495 C91.9818848,63.6181335 90.6808099,60.2853801 88.1298135,59.2311758 C88.0808842,59.2122713 88.0275068,59.202263 87.9763534,59.1855826 C87.8073249,59.126645 87.6349603,59.0743796 87.4581475,59.0332345 L87.4581475,59.0332345 L87.3035754,58.9965375 C87.2179491,58.9798571 87.1300987,58.9742969 87.0433604,58.9598405 C86.879892,58.9353759 86.7175356,58.9086871 86.5473951,58.8986789 C86.3861508,58.8886706 86.2393628,58.8953428 86.0903508,58.8986789 C85.9569072,58.8997909 85.8256877,58.8975668 85.6889081,58.9064631 L85.6889081,58.9064631 L85.4498216,58.9309277 C85.3630833,58.940936 85.2707848,58.9553924 85.1818225,58.9665127 C85.0628353,58.9831931 84.942736,58.9987616 84.8204128,59.0210022 C84.6669527,59.0499149 84.5112685,59.0843879 84.3544723,59.1210848 C84.268846,59.1411014 84.1832197,59.164454 84.0964814,59.1855826 C84.0130791,59.2067111 83.9307889,59.2278397 83.8462746,59.2511923 C83.3792221,59.3857479 82.9332982,59.538096 82.4884862,59.7193569 C82.2405036,59.8205516 81.9847367,59.9417629 81.7289699,60.0618621 L81.7289699,60.0618621 L81.3386474,60.2397868 C80.9360926,60.4399522 80.5257536,60.6601341 80.1042943,60.9025566 C78.9922645,61.5453099 77.9113715,62.2903698 76.8927521,63.11772 C76.3634259,63.5414034 75.8552283,63.9917755 75.3781675,64.4610521 L75.3781675,64.4610521 L75.0679633,64.7710999 C74.7730843,65.0717649 74.4949378,65.3743066 74.240561,65.6787247 C73.82911,66.1824742 73.4421236,66.6884478 73.0651455,67.2111018 L73.0651455,67.2111018 L72.8438516,67.5057897 C72.8171628,67.5413747 72.7960343,67.5647273 72.7704576,67.5969762 C72.7270884,67.6514656 72.6837193,67.703731 72.6425742,67.7537724 C72.6125493,67.7893573 72.5769644,67.8360626 72.5491636,67.8683114 C72.5413794,67.8772077 72.4657614,67.9583859 72.4579772,67.9672821 L72.4579772,67.9672821 L72.4324005,67.9939708 C72.413496,68.0150994 72.3934795,68.03734 72.3734629,68.0562445 L72.3734629,68.0562445 L72.3189735,68.1162941 C72.265596,68.1696715 72.2188908,68.2063685 72.1710735,68.2486256 C72.1466089,68.2686422 72.1221442,68.2931068 72.0987916,68.3120113 C72.0287337,68.3709489 71.9575638,68.4187662 71.88973,68.4599113 C71.8774976,68.4676955 71.8652653,68.4788158 71.854145,68.485488 C71.853033,68.485488 71.8519209,68.485488 71.8508089,68.4866 C71.815224,68.5066166 71.7262616,68.5522098 71.6917887,68.5666662 C71.5983781,68.6055872 71.5383285,68.6256038 71.480503,68.6411722 C71.4360218,68.6534045 71.3526196,68.6700849 71.3059143,68.6756451 C71.3014662,68.6767571 71.2903459,68.6778692 71.2825617,68.6778692 C71.2803376,68.6789812 71.2781136,68.6789812 71.2758895,68.6789812 C71.2436406,68.6823173 71.2036076,68.6867654 71.1791429,68.6878774 C71.1613504,68.6889895 71.1346617,68.6889895 71.107973,68.6889895 L71.0655769,68.6888505 L71.0655769,68.6888505 L71.0290189,68.6878774 C70.9800896,68.6845413 70.9267121,68.6789812 70.8788949,68.6700849 C70.8321896,68.6623007 70.7532355,68.6445083 70.7087543,68.6311639 C70.7054182,68.6300519 70.699858,68.6278278 70.6954099,68.6267158 L70.6954099,68.6267158 L70.6942979,68.6267158 C70.6564889,68.6133714 70.6097836,68.597803 70.5830949,68.5877947 C70.5530701,68.5744504 70.511925,68.5555459 70.4718919,68.5355293 C70.4496513,68.524409 70.4274107,68.5110647 70.4051701,68.4977203 C70.3929378,68.4910481 70.3795935,68.484376 70.3684732,68.4765918 C70.361801,68.4732557 70.3551288,68.4710316 70.3495687,68.4665835 C70.3428965,68.4621354 70.3395604,68.4543512 70.3317762,68.449903 C70.0604409,68.2719783 69.8335868,68.0039791 69.6589981,67.6370092 C69.5889403,67.4879972 69.5511312,67.3267529 69.5511312,67.1621725 L69.5511312,67.1621725 L69.5444591,64.5544626 C69.5355628,61.3351362 69.8725079,58.7774676 70.5775348,56.7357809 C71.8741615,53.0749787 74.3272993,50.1859252 77.8724504,48.1397903 C79.4904538,47.2056853 81.5432609,46.5395794 83.973046,46.1614893 C84.5513015,46.0814231 85.7567419,45.6777563 88.3088503,44.2043168 C89.1050637,43.7439364 89.2073704,43.3024606 89.2062584,42.9699637 L89.2062584,42.9699637 L89.1840178,34.9511166 C89.1806817,33.6289131 88.7725668,33.6200169 88.5279202,33.6133447 C88.5156879,33.6133447 88.5023435,33.6133447 88.4912232,33.6117218 Z M70.7699159,23.4538402 C70.7143144,23.4560643 70.6542648,23.4649605 70.5931032,23.4727447 L70.5931032,23.4727447 L70.4140664,23.4916492 L70.4140664,23.4916492 L70.2939672,23.5038816 C70.2683905,23.5094417 70.1883243,23.5294583 70.1082582,23.5494748 L70.1082582,23.5494748 L69.7746492,23.6217567 C69.7012553,23.6362131 69.6289733,23.6506695 69.5466831,23.6717981 C69.5188824,23.6795823 69.4643929,23.6907026 69.4354801,23.6962627 C69.2408749,23.7529763 68.9484111,23.8474988 68.645939,23.9509176 L68.645939,23.9509176 L68.5662847,23.9762883 L68.5662847,23.9762883 L68.534736,23.9865025 C68.1900067,24.1077138 67.8096925,24.2522776 67.4082498,24.4190821 C67.1658273,24.5213889 66.9645499,24.6125753 66.7643845,24.7026497 L66.7643845,24.7026497 L66.3028921,24.9083752 C66.1738967,24.9639767 66.0437892,25.0206903 65.9047854,25.0863 C65.6968359,25.1852707 65.4699818,25.2975857 65.2442397,25.4099007 L65.2442397,25.4099007 L64.2723257,25.8902976 C63.9965423,26.0315254 63.7029664,26.1894336 63.4071665,26.3473418 L63.4071665,26.3473418 L62.4552689,26.8555395 C61.8202999,27.2024928 61.1575301,27.5772468 60.4625115,27.9775776 C59.5662154,28.4946714 58.6587991,29.0595826 57.6879971,29.7045599 C57.5156324,29.820211 57.351052,29.9380861 57.1842476,30.0570733 L57.1842476,30.0570733 L56.8484145,30.2950477 C56.2612628,30.7042747 55.6818953,31.1179498 55.1258804,31.5449692 C54.8612173,31.7473587 54.6087865,31.9541962 54.3552437,32.1610338 L54.3552437,32.1610338 L54.2151279,32.2755728 C53.7191626,32.6781276 53.2343176,33.0873546 52.7672651,33.5043658 C52.4725772,33.7656928 52.1845615,34.0314679 51.9009939,34.2994671 L51.9009939,34.2994671 L51.6229864,34.5541219 C51.5195676,34.6475325 51.4161489,34.7398309 51.3182902,34.8354655 C51.1892948,34.9633489 51.0669715,35.0956805 50.9468723,35.228012 L50.9468723,35.228012 L50.6444002,35.5527247 C50.3541604,35.8551968 50.0639206,36.157669 49.7859131,36.4668132 C49.7158553,36.5446553 49.6424613,36.6213854 49.5679553,36.6981155 C49.5090177,36.7581651 49.4500801,36.8193267 49.3944786,36.8816004 C48.9674592,37.3753416 48.55156,37.8802032 48.1512293,38.3939609 L48.1512293,38.3939609 L47.2048919,37.8068092 L48.0856195,38.4851474 C47.7753632,38.8877022 47.4740031,39.2935931 47.1837633,39.7061561 C46.9135401,40.0920305 46.6511011,40.483465 46.3975583,40.8793476 C46.3730936,40.9204927 46.3441808,40.9594137 46.315268,40.9972228 C46.1362312,41.2874625 45.902705,41.6688888 45.678075,42.0558751 C45.4578931,42.4317412 45.2477194,42.8098314 45.0431059,43.1923696 L45.0431059,43.1923696 L44.7372977,43.7962018 C44.6416632,43.9796867 44.5471406,44.1631717 44.4581782,44.3488806 C44.2657971,44.7492114 44.0800881,45.1517662 43.9043874,45.5598811 C43.8120889,45.7722788 43.7220145,45.9869006 43.6330521,46.2015223 L43.6330521,46.2015223 L43.4139822,46.7553132 C43.2438417,47.2034612 43.0792613,47.6616175 42.9224651,48.127558 C42.7456523,48.6624443 42.5777358,49.210675 42.4220516,49.768914 C42.4187155,49.7800343 42.4142674,49.7967148 42.4087073,49.8122832 C42.4053712,49.8256275 42.4009231,49.8389719 42.3964749,49.8512042 C42.1951975,50.5940401 42.0217209,51.3035152 41.8660367,52.0285586 C41.8293397,52.1998112 41.802651,52.377736 41.7759623,52.5556608 C41.7514976,52.7102329 41.728145,52.864805 41.6992322,53.0160411 C41.6080458,53.4942139 41.5268676,53.9734988 41.4534737,54.4594558 C41.427897,54.6229242 41.3989842,54.7808324 41.3700714,54.9398527 C41.3367105,55.1122173 41.3044617,55.2834699 41.281109,55.4636187 C41.2355158,55.8116841 41.206603,56.1719817 41.1776903,56.5345035 L41.1776903,56.5345035 L41.0853918,57.5386664 C41.056479,57.8166739 41.0286783,58.0935693 41.0075497,58.3793609 C40.9030189,59.8917215 40.8529775,61.2617423 40.8571533,62.5661532 L40.8571533,62.5661532 L40.9386038,91.0274446 C40.9541723,96.5909298 41.838236,100.595349 43.5685544,102.9295 C44.076752,103.62007 44.6650158,104.161629 45.3188893,104.541943 L45.3188893,104.541943 L57.8236647,111.809058 C57.6779888,111.450984 57.5434332,111.075118 57.4177738,110.685908 C57.3921971,110.606954 57.3699565,110.522439 57.3466039,110.443485 C57.2287287,110.065395 57.1219739,109.671737 57.0230032,109.265846 C56.9896423,109.130178 56.9585055,108.992286 56.9273687,108.853283 C56.8328461,108.426263 56.7461078,107.983675 56.6693777,107.524407 L56.6693777,107.524407 L56.6271206,107.286433 C56.5414943,106.741538 56.4714364,106.172179 56.4113868,105.582803 C56.3969304,105.447135 56.3858101,105.305908 56.3746898,105.166904 C56.3324327,104.693179 56.2968478,104.204998 56.270159,103.702361 C56.2612628,103.53222 56.2512545,103.362079 56.2445824,103.188603 C56.2167816,102.543625 56.1989891,101.884192 56.1967651,101.193621 L56.1967651,101.193621 L56.1155869,72.7323299 C56.1033546,67.9872986 56.6226725,63.6570545 57.6501881,59.7849666 C57.686885,59.6426268 57.7157978,59.4969509 57.7558309,59.3546111 C57.8881624,58.8808864 58.0371744,58.4260662 58.1839624,57.970134 C58.3329744,57.4997454 58.4942187,57.039365 58.6599111,56.5856568 C58.7922427,56.2275832 58.9179021,55.8617254 59.0580178,55.5169962 C59.1280757,55.3446316 59.2103659,55.1711549 59.2837599,54.9987903 C59.6373854,54.1714401 60.0176996,53.3563222 60.4335987,52.5601089 C60.4369348,52.5534367 60.443607,52.5400923 60.444719,52.5378683 C60.632652,52.1786826 60.8294813,51.8295053 61.0251986,51.4803279 C61.0707918,51.4002618 61.1119369,51.3179716 61.1586422,51.2379054 C61.4299774,50.7675168 61.7079849,50.3071364 61.9915525,49.8634365 C62.011569,49.8322997 62.0338096,49.8011629 62.0538262,49.7744742 C62.5475674,48.9949413 63.1547357,48.1320061 63.8063852,47.2868634 C64.1310979,46.8654041 64.4513625,46.4761937 64.7605068,46.114784 C67.9253436,42.3383307 71.9575638,39.0255939 76.8327025,36.2110464 C77.4865761,35.8329562 78.0915203,35.4948992 78.6742239,35.1735226 C78.7376096,35.1390496 78.8087795,35.0979045 78.8699412,35.0634316 L78.8699412,35.0634316 L79.0556502,34.964461 C81.9491518,33.3876027 83.9841663,32.4857465 85.4498216,31.984221 L85.4498216,31.984221 Z M74.7641047,74.7844697 C76.5689291,73.7424978 78.056825,73.5445565 79.1955435,74.19843 C79.1977676,74.2006541 79.1999916,74.2028781 79.2033277,74.2039902 L79.2049958,74.2049632 C79.2733856,74.2440232 79.3289871,74.2940646 79.3912608,74.3374337 C79.475775,74.3963713 79.5636254,74.4497488 79.6414675,74.5175826 C79.6959569,74.5642878 79.7415501,74.6232254 79.7927035,74.6743788 C79.8705456,74.7533329 79.9517238,74.8256148 80.0217817,74.9145772 C80.0640388,74.9679547 80.0985117,75.0324524 80.1385448,75.0902779 C80.2086027,75.1903606 80.2808846,75.2871072 80.3431583,75.3983102 C80.3754072,75.4572478 80.4009838,75.5284177 80.4321207,75.5906914 C80.4910583,75.7130146 80.5533319,75.8320018 80.6044853,75.9676695 C80.632286,76.0421755 80.6534146,76.1300258 80.6789913,76.210092 C80.7234725,76.3457596 80.7712898,76.4758671 80.8079868,76.6237671 C80.8346755,76.7305219 80.8524679,76.8517332 80.8747085,76.9640482 C80.9025093,77.0986038 80.9325341,77.2253752 80.9536627,77.367715 C80.9759033,77.517839 80.9881356,77.6846435 81.003704,77.8436638 C81.0159363,77.964875 81.0337288,78.07719 81.042625,78.2039614 C81.0615296,78.4964253 81.0726499,78.8044576 81.0737619,79.1280582 L81.0737619,79.1280582 L81.1093848,91.8407832 C81.1104589,92.2210974 81.0871062,92.615868 81.0470732,93.0295431 C81.0370649,93.1463062 81.0292807,93.2641814 81.0148243,93.3809445 C81.0137123,93.3887287 81.0137123,93.3965129 81.0126002,93.4054092 C81.0148243,93.4131934 81.0126002,93.4643467 81.0059281,93.5155001 C80.9603348,93.8657895 80.9036213,94.1949503 80.8335634,94.5218871 L80.8335634,94.5218871 L80.8090988,94.6253059 C80.8057627,94.6408743 80.8024266,94.6553307 80.7990905,94.6697871 L80.7990905,94.6697871 L80.7890822,94.7087081 C80.7479371,94.8877449 80.70568,95.0667817 80.6567507,95.2447065 C80.6000372,95.44932 80.5377635,95.6505974 80.4721537,95.8507627 C80.4699297,95.8574349 80.4354568,95.9541815 80.4332327,95.9597417 L80.4332327,95.9597417 L80.4287846,95.971974 C80.4210004,95.9942146 80.4121041,96.0164552 80.4043199,96.0386958 L80.4043199,96.0386958 L80.3943117,96.0664965 C80.3653989,96.1510108 80.3242538,96.272222 80.2775485,96.3923213 C80.2141628,96.5546776 80.146329,96.7214821 80.0751591,96.8871745 C80.0139975,97.0284023 79.9506118,97.1674061 79.885002,97.3052978 L79.885002,97.3052978 L79.885002,97.3075218 L79.884029,97.3086338 C79.8160561,97.4498616 79.7548945,97.5699609 79.6926208,97.687836 C79.6325712,97.800151 79.5691855,97.911354 79.5057998,98.022557 C79.437966,98.1382081 79.3712442,98.248299 79.3011863,98.357278 L79.3011863,98.357278 L79.1788631,98.5418749 C79.1555104,98.5707877 79.1343819,98.6008125 79.1132533,98.6319493 L79.1132533,98.6319493 C78.9853699,98.8243305 78.8952955,98.9466538 78.8007729,99.067865 C78.6951301,99.2024206 78.5839271,99.3392003 78.467164,99.4737559 L78.467164,99.4737559 L78.2914633,99.661689 C78.2625505,99.6939378 78.2325257,99.7250747 78.2025009,99.7562115 L78.2025009,99.7562115 L78.1847084,99.775116 C78.0790656,99.8896551 78.0301362,99.9430325 77.9778708,99.9941859 C77.8522115,100.118733 77.7132077,100.235496 77.574204,100.350035 L77.574204,100.350035 L77.3540221,100.53908 C77.350686,100.541305 77.3462379,100.544641 77.3429018,100.547977 C77.2650597,100.612474 77.1916658,100.68142 77.1104876,100.744806 C77.1071515,100.74703 77.1049274,100.749254 77.1027034,100.751478 C76.7201651,101.04839 76.3409629,101.304157 75.9484164,101.532123 C75.9395202,101.537683 75.9295119,101.541019 75.9195036,101.54658 C75.6081353,101.725616 75.3078872,101.871292 75.0165354,101.998064 C74.9776144,102.013632 74.9353572,102.040321 74.8986603,102.055889 C74.8641873,102.070346 74.8108099,102.08925 74.7741129,102.10037 C74.6729182,102.138179 74.5839558,102.170428 74.4972175,102.201565 C74.4527363,102.217133 74.4071431,102.232702 74.3626619,102.247158 C74.2970521,102.268287 74.2314424,102.290527 74.1702807,102.307208 C74.0524056,102.339457 73.9400906,102.360585 73.8266635,102.380602 C73.7554936,102.395058 73.6843237,102.406179 73.6153778,102.416187 C73.4652538,102.438427 73.3484907,102.452884 73.248408,102.457332 L73.248408,102.457332 L73.1427652,102.459556 C73.1194125,102.459556 73.0938359,102.465116 73.0715953,102.465116 C73.0304502,102.465116 72.9948652,102.457332 72.9548321,102.45622 L72.9548321,102.45622 L72.8847742,102.453996 C72.8558615,102.451772 72.7235299,102.438427 72.6957292,102.433979 L72.6957292,102.433979 C72.5567255,102.417299 72.4255059,102.389498 72.2953984,102.355025 L72.2953984,102.355025 L72.2297887,102.340569 C72.2153323,102.337233 72.2019879,102.330561 72.1886436,102.326112 C72.1052413,102.299424 72.0240632,102.272735 71.943997,102.239374 C71.9384369,102.23715 71.9317647,102.234926 71.9250925,102.232702 C71.832794,102.194893 71.7382715,102.148188 71.644861,102.095922 L71.644861,102.095922 C71.4747204,101.99584 71.309028,101.882413 71.1533438,101.744521 C70.152517,100.852673 69.6432073,99.3191838 69.6376472,97.1885346 L69.6376472,97.1885346 L69.5998055,84.4746976 C69.59539,82.4341229 70.0457621,80.5314399 70.9409461,78.821138 C71.8472504,77.0841474 73.1338689,75.726359 74.7641047,74.7844697 Z M77.7165438,76.0455116 C77.2784041,76.0455116 76.6278666,76.2768138 75.8761345,76.7105054 C74.6173167,77.4377729 73.619826,78.4942012 72.911463,79.8508776 C72.1752992,81.2587074 71.8194497,82.7688439 71.8238566,84.4680255 L71.8238566,84.4680255 L71.8617068,97.1818624 C71.8650429,98.6141569 72.1386022,99.6438965 72.6312314,100.083148 C72.7457705,100.185455 72.8981186,100.227712 73.0727073,100.233272 C73.0816035,100.233272 73.0938359,100.234384 73.1016201,100.234384 C73.1816862,100.234384 73.2650884,100.2266 73.3518268,100.212144 C73.3785155,100.206584 73.3996441,100.202135 73.4229967,100.197687 C73.4863824,100.185455 73.5486561,100.168775 73.6142658,100.150982 C73.7176846,100.120957 73.8244395,100.079812 73.9345304,100.038667 C73.9534349,100.030883 74.0201567,100.008642 74.0401732,100.00197 C74.2136499,99.9308002 74.3815664,99.849622 74.5372506,99.7695558 C74.6328851,99.7184025 74.7307438,99.6672491 74.8341625,99.6071995 C75.1388587,99.4303867 75.4368827,99.2291094 75.7438029,98.991135 C75.7905082,98.95555 75.8283172,98.918853 75.8683503,98.8832681 L75.8683503,98.8832681 L76.0329307,98.7431523 C76.2086314,98.5930283 76.3843321,98.4406802 76.5433524,98.2749878 L76.5433524,98.2749878 L76.5716885,98.244757 L76.5716885,98.244757 L76.5789373,98.2371787 L76.6667877,98.1426562 L76.6667877,98.1426562 L76.6856922,98.1237517 C76.9114342,97.874657 77.1238319,97.6155541 77.313989,97.3353226 L77.313989,97.3353226 L77.310653,97.3330985 L77.3362296,97.2941775 C77.535283,96.9961535 77.7154318,96.6847851 77.8766761,96.3511762 L77.8766761,96.3511762 C78.0390325,96.0064469 78.1769242,95.6672778 78.2981354,95.3258847 L78.2981354,95.3258847 L78.3048076,95.3080922 C78.3059196,95.3036441 78.3226001,95.2580508 78.3359445,95.2202418 C78.4415873,94.9122096 78.5272136,94.6019532 78.6017196,94.2883608 C78.6072797,94.2638962 78.6139519,94.2405436 78.6195121,94.2160789 C78.6197901,94.2158009 78.6215971,94.2088507 78.6241687,94.1985471 L78.6426562,94.1230333 L78.6426562,94.1230333 L78.6473128,94.1048759 C78.6484248,94.1026519 78.6484248,94.1004278 78.6484248,94.0982037 C78.7162587,93.7923955 78.7640759,93.4832512 78.8018849,93.1707709 L78.8018849,93.1707709 L78.804109,93.1451942 C78.8196774,93.0117506 78.8274616,92.8927634 78.8385819,92.767104 C78.8641586,92.4646319 78.8863992,92.1610478 78.8853272,91.8496794 L78.8853272,91.8496794 L78.8497022,79.1347304 C78.8485902,78.8367064 78.8385819,78.5675952 78.8219015,78.3251727 C78.8152293,78.2273141 78.802997,78.151696 78.7941007,78.0616216 C78.7796444,77.9292901 78.7696361,77.7880623 78.7518436,77.6724112 C78.7440594,77.6179217 78.7318271,77.5778887 78.7240429,77.5267353 C78.7006902,77.3977398 78.6784496,77.2676323 78.6517609,77.1619895 C78.6417527,77.1252925 78.6328564,77.1019399 78.6228481,77.068579 C78.5928233,76.9629362 78.5627985,76.8584054 78.5316617,76.7738911 C78.5261016,76.7605467 78.5205414,76.7516505 78.5149813,76.7394182 C78.4782843,76.6460077 78.4415873,76.5614934 78.4026662,76.4936596 C78.4015542,76.4903235 78.3993302,76.4880994 78.3971061,76.4847633 C78.2714467,76.2601333 78.1513475,76.1644988 78.0857377,76.1266897 C77.9901032,76.0722003 77.8655558,76.0455116 77.7165438,76.0455116 Z M124.860159,13.4088748 C124.770084,13.4099869 124.676674,13.4188831 124.584375,13.4222192 C124.320824,13.4333395 124.052825,13.453356 123.779266,13.4878289 C123.635814,13.5045094 123.492362,13.5223019 123.345574,13.5456545 C122.945243,13.6101522 122.546025,13.6924424 122.14347,13.7969732 C121.922176,13.8547988 121.696434,13.9248567 121.46958,13.9949145 C121.059241,14.1261341 120.624437,14.2784821 120.128472,14.4775355 C119.794863,14.6109791 119.454582,14.7622151 119.112076,14.9201234 L119.112076,14.9201234 L118.890783,15.020206 C118.826285,15.0491188 118.759563,15.0802557 118.693953,15.1113925 C118.633904,15.1403053 118.573854,15.169218 118.514916,15.1992428 C117.981142,15.4627939 117.44292,15.7441375 116.891353,16.06329 C116.291969,16.4091313 115.705929,16.7761011 115.13101,17.1619755 C115.030927,17.2275852 114.935292,17.2976431 114.839658,17.368813 C114.359261,17.6990859 113.885536,18.037143 113.42182,18.3952166 C113.33953,18.4586023 113.260576,18.524212 113.181621,18.5898218 C112.702337,18.9679119 112.229724,19.3571224 111.769344,19.7652373 C111.699286,19.828623 111.629228,19.8942328 111.560282,19.9598425 C111.12103,20.3546131 110.691787,20.7638401 110.272551,21.1864114 C109.973415,21.4877715 109.6854,21.8047 109.39516,22.1205165 C109.211675,22.3206818 109.024854,22.513063 108.844705,22.7176765 L108.844705,22.7176765 L108.497752,23.1191193 C108.092973,23.595068 107.693754,24.0810251 107.30788,24.5847746 L107.30788,24.5847746 L107.116611,24.8449895 C106.765209,25.31093 106.423816,25.7902149 106.089095,26.2806201 L106.089095,26.2806201 L105.766607,26.763241 C105.399637,27.3192559 105.037115,27.8841671 104.690162,28.4702068 C104.533365,28.7359819 104.396586,29.0084292 104.248686,29.2764284 C104.021832,29.6823193 103.79053,30.0870981 103.581468,30.4985492 L103.581468,30.4985492 L103.403543,30.8488386 C103.06215,31.5327369 102.739661,32.2210834 102.442749,32.9183261 L102.442749,32.9183261 L102.413837,32.989496 C101.473059,35.2202278 100.765808,37.5199055 100.285412,39.8818568 C100.260947,40.0019561 100.24093,40.1176072 100.217578,40.2365944 C100.078574,40.9649739 99.9529146,41.6966895 99.856168,42.4350773 C99.8528319,42.460654 99.8506079,42.4840066 99.8472718,42.5095833 C99.6415463,44.1209145 99.5381275,45.7578224 99.5403516,47.418083 C99.5403516,47.4347634 99.5392395,47.4503318 99.5392395,47.4670123 L99.5392395,47.4670123 L99.6259779,78.1123302 C99.6282019,78.9296721 99.6560027,79.708093 99.707156,80.4509289 C99.7249485,80.7078078 99.7605335,80.9357739 99.7838861,81.1848686 C99.8283673,81.6552572 99.8684004,82.13343 99.9351221,82.5737938 C99.9729312,82.8295607 100.029645,83.0564148 100.075238,83.3021734 C100.14752,83.699168 100.216466,84.1050589 100.307652,84.4731408 C100.365478,84.705555 100.442208,84.9101685 100.506705,85.1314624 C100.609012,85.4773037 100.706871,85.8298172 100.825858,86.1478577 C100.904812,86.3524712 100.999335,86.5292839 101.083849,86.7227771 C101.215068,87.0208011 101.34184,87.3254973 101.490852,87.5957205 C101.58871,87.7736453 101.70325,87.9259934 101.810004,88.0916858 C101.969025,88.3396685 102.122485,88.5932113 102.298186,88.8133932 C102.420509,88.9679653 102.559513,89.0958488 102.68962,89.2359645 C102.870881,89.4316818 103.048806,89.6329592 103.246747,89.8019877 C103.399095,89.9320952 103.567012,90.036626 103.729368,90.1511651 C103.96067,90.3168575 104.1853,90.4936703 104.435507,90.6271138 C107.340129,92.1550428 111.228897,91.5334181 115.990609,88.7844804 C120.87798,85.9632608 124.978034,81.7875888 128.18068,76.3720035 C131.616852,70.5583116 133.349394,64.1663642 133.331738,57.375198 L133.331738,57.375198 L133.244864,26.7298801 C133.224847,20.1177508 131.606844,15.9064938 128.435335,14.2150964 C128.435335,14.2150964 128.434223,14.2150964 128.43311,14.2139844 C128.249626,14.1183499 128.056132,14.0393957 127.863751,13.9604416 C127.741428,13.9126243 127.622441,13.8648071 127.478989,13.8147657 C127.476765,13.8136537 127.458972,13.8069815 127.444516,13.8014214 C127.334425,13.7647244 127.224334,13.7335875 127.112019,13.7024507 C126.958559,13.6579695 126.807323,13.6157124 126.670543,13.5856876 C126.459258,13.5400943 126.245748,13.5022853 126.026678,13.4744846 L126.026678,13.4744846 L125.997765,13.4722605 C125.701965,13.4344515 125.396157,13.415547 125.084789,13.4110989 L125.084789,13.4110989 Z M107.148547,3.24718104 L107.118835,3.24714629 C106.789674,3.25826658 106.482754,3.2960756 106.175834,3.3372207 C106.154705,3.34055679 106.04795,3.35056506 106.027934,3.35167709 C106.025988,3.3519551 106.016188,3.35299762 106.002461,3.35442241 L105.904394,3.36450018 L105.904394,3.36450018 L105.878922,3.36724551 C105.517512,3.42618309 105.050459,3.52626577 104.575623,3.65303717 C104.564502,3.65637326 104.553382,3.65970935 104.542262,3.66304544 C103.990695,3.81205744 103.370182,4.02667919 102.646251,4.31803101 C102.61845,4.32915131 102.492791,4.37140844 102.46499,4.38141671 C102.269273,4.4592588 102.084676,4.54710915 101.900079,4.63384748 L101.900079,4.63384748 L101.415234,4.85736547 C101.311815,4.9029587 101.208396,4.94855192 101.103865,5.00081732 C100.548963,5.27326463 99.9862755,5.57017659 99.40802,5.90378554 C98.811972,6.24740275 98.2270443,6.61326057 97.656573,6.99579883 C97.5487061,7.06808076 97.4463994,7.14258676 97.3452047,7.21709276 L97.3452047,7.21709276 L96.9960273,7.46618744 C96.6535221,7.70638588 96.3099049,7.94769636 95.977408,8.20457525 C95.8406283,8.30910605 95.7094088,8.419197 95.5770773,8.52928795 L95.5770773,8.52928795 L95.2056593,8.83398413 C94.9254278,9.06195024 94.6451963,9.28880432 94.3716369,9.52900277 C94.2315212,9.65243808 94.0925174,9.7836576 93.9535137,9.91487712 L93.9535137,9.91487712 L93.4497642,10.3819296 C93.3007522,10.5164853 93.1517402,10.6510409 93.0082884,10.7933807 L93.0082884,10.7933807 L92.8603884,10.9501769 C92.3888878,11.4216775 91.9285074,11.9165308 91.4781353,12.4258405 L91.4781353,12.4258405 L90.9343527,13.0530253 C90.6140882,13.4333395 90.2915995,13.8147657 89.9813432,14.2139844 L89.9813432,14.2139844 L89.3485982,15.0691354 C89.2029223,15.2626285 89.0583584,15.4561217 88.9171306,15.6551751 L88.9171306,15.6551751 L87.9685692,17.0730131 C87.7105783,17.477792 87.4570355,17.889243 87.2090528,18.3095903 L87.2090528,18.3095903 L87.102298,18.4930752 C86.8376349,18.9445593 86.5918763,19.3882592 86.3539019,19.8352952 L86.3539019,19.8352952 L85.6755637,21.171955 C85.4587179,21.6234391 85.2507683,22.0771473 85.053939,22.5319675 L85.053939,22.5319675 L83.9630378,22.2595202 L84.9872172,22.6920998 L84.7781556,23.2036335 C84.6725128,23.4538402 84.567982,23.7029349 84.4712354,23.9542537 C84.3933933,24.1599792 84.3211114,24.3657047 84.2477174,24.5725422 L84.2477174,24.5725422 L83.7539762,25.9781479 C83.5816115,26.4785614 83.3280687,27.2080529 83.2580109,27.4482514 C83.2213139,27.5672386 83.1579282,27.6673212 83.0900944,27.7640678 L83.0900944,27.7640678 L89.9479823,31.7495827 C89.9490943,31.7495827 89.9502063,31.7506948 89.9513184,31.7518068 C90.6941543,32.16993 91.4025173,33.0617779 91.4080774,34.9444444 L91.4080774,34.9444444 L91.430318,42.9644035 C91.4325421,43.878492 91.0855888,45.1695587 89.4208802,46.1303524 C87.0589288,47.494813 85.4309171,48.203176 84.2977587,48.3621963 C82.1571013,48.6958052 80.3633972,49.2696126 78.9844802,50.065826 C78.6152863,50.2793357 78.2594368,50.5039657 77.9180436,50.738604 L77.9180436,50.738604 L89.0650306,57.2150657 C89.2874366,57.3107003 89.5053944,57.4152311 89.714456,57.5319942 L89.714456,57.5319942 C89.7222402,57.5375544 89.7233523,57.5375544 89.7255763,57.5386664 C89.7711695,57.5642431 89.8000823,57.6076122 89.8401154,57.6398611 C92.7213847,59.3590592 94.2059445,63.2011223 94.2226249,69.1315773 L94.2226249,69.1315773 L94.262658,83.6291102 C94.2630287,83.7488387 94.2605575,83.868073 94.256686,83.9871014 L94.2281851,84.7011069 L98.9543118,87.4467085 C98.9265111,87.3810988 98.8998224,87.3121529 98.8731337,87.2454311 C98.8520051,87.1942778 98.8342126,87.1409003 98.8141961,87.089747 C98.5973503,86.5337321 98.402745,85.9465803 98.2359406,85.3227316 C98.2248203,85.2793624 98.214812,85.2315451 98.2025797,85.188176 C98.0368872,84.5465348 97.8934354,83.8726447 97.7788963,83.1598336 C97.7722241,83.1253606 97.768888,83.0897757 97.7633279,83.0553028 C97.6499009,82.3258112 97.5609385,81.5618467 97.5008889,80.7589612 C97.4986648,80.7378326 97.4986648,80.715592 97.4964407,80.6944634 C97.4375032,79.8726734 97.4041423,79.0152984 97.4019182,78.1190024 L97.4019182,78.1190024 L97.3151799,47.4736845 C97.3129558,46.56182 97.3396445,45.6577398 97.394134,44.7847963 C97.4052543,44.6035355 97.4252708,44.4189385 97.4441753,44.2354536 L97.4441753,44.2354536 L97.4919926,43.7205838 C97.5353618,43.1923696 97.5787309,42.6630434 97.6476768,42.1403894 C97.6499009,42.123709 97.6621332,42.0436428 97.6654693,42.0258503 C97.7599918,41.3163753 97.8856512,40.5879958 98.0313271,39.8351516 C98.0569038,39.6983719 98.0813684,39.5604802 98.1080571,39.4248126 C98.1191774,39.3725472 98.1269617,39.3236179 98.1369699,39.2713525 C98.251509,38.7186736 98.3849526,38.1693309 98.5250683,37.6211002 L98.5250683,37.6211002 L98.587342,37.3619973 C98.6218149,37.2140973 98.6562878,37.0661973 98.6963209,36.9194094 C98.9031585,36.1687893 99.1344607,35.4237293 99.3857794,34.6853415 L99.3857794,34.6853415 L99.4324847,34.556346 L99.4324847,34.556346 L99.4647335,34.4684957 L99.5492478,34.2316333 C99.78055,33.5822079 100.024085,32.9439028 100.288748,32.3111578 L100.288748,32.3111578 L100.355469,32.1499135 C100.369926,32.1132165 100.385494,32.0765195 100.401063,32.0398225 L100.401063,32.0398225 L100.424415,31.981997 C100.723551,31.2814182 101.050488,30.5852875 101.392993,29.894717 L101.392993,29.894717 L101.419682,29.8435636 C101.477508,29.7256884 101.538669,29.6067013 101.599831,29.4888261 L101.599831,29.4888261 L101.608727,29.4699216 C101.975697,28.7559984 102.360459,28.0431873 102.775246,27.3392724 C103.141104,26.7198718 103.52253,26.1249359 103.909517,25.5388962 L103.909517,25.5388962 L103.929533,25.5088714 C104.035176,25.3487391 104.141931,25.1886068 104.248686,25.0306985 L104.248686,25.0306985 L104.277599,24.9884414 C104.593415,24.525837 104.914792,24.079913 105.240616,23.6406612 L105.240616,23.6406612 L105.359604,23.480529 C105.425213,23.3926786 105.489711,23.3014921 105.555321,23.2147538 L105.555321,23.2147538 L105.592018,23.1658245 C105.9601,22.6876517 106.337078,22.2283834 106.719616,21.7757872 L106.719616,21.7757872 L106.838603,21.6301113 C106.900877,21.5522692 106.964263,21.4744271 107.02876,21.3988091 L107.02876,21.3988091 L107.295648,21.1096814 C107.432427,20.9562212 107.578103,20.8138814 107.717107,20.6615333 C108.048492,20.3001237 108.376541,19.9364899 108.720158,19.5917607 L108.720158,19.5917607 L108.774647,19.5339351 C109.041534,19.2659359 109.316206,19.0101691 109.590877,18.7544022 L109.590877,18.7544022 L109.902245,18.4641624 C109.950063,18.4174572 110.001216,18.372976 110.050145,18.3262707 C110.142444,18.2428685 110.232518,18.1550181 110.325929,18.0727279 C110.345945,18.0549354 110.36485,18.0360309 110.384866,18.0182385 C110.669546,17.7680317 110.96201,17.5300574 111.254474,17.292083 L111.254474,17.292083 L111.64146,16.9751545 L111.64146,16.9751545 L111.797144,16.8506071 C111.891667,16.7749891 111.982853,16.696035 112.078488,16.622641 C112.086272,16.6159688 112.095168,16.6081846 112.104065,16.6015125 C112.479931,16.3112727 112.866917,16.0399374 113.256127,15.7663781 L113.256127,15.7663781 L113.510782,15.5840052 C113.554151,15.5528683 113.597521,15.5239556 113.64089,15.4917067 C113.726516,15.4338811 113.807694,15.3704954 113.893321,15.3126699 L113.893321,15.3126699 L113.901105,15.3071097 C114.513833,14.8978828 115.137682,14.5064483 115.779323,14.1361423 C116.40206,13.7769567 117.009228,13.4566921 117.606388,13.1642283 C117.626405,13.15422 117.644197,13.1464358 117.663102,13.1375395 C117.806553,13.0674817 117.946669,13.0085441 118.087897,12.9418223 L118.087897,12.9418223 L118.177971,12.9017892 C118.558286,12.7272005 118.93304,12.5615081 119.298897,12.4136081 C119.351163,12.3924796 119.394532,12.3791352 119.445685,12.3591187 C119.630282,12.2868367 119.812655,12.2190029 119.993916,12.1533932 C120.51101,11.9632361 121.000303,11.7964316 121.442891,11.6763324 C121.4807,11.6652121 121.516285,11.662988 121.554094,11.6529797 C121.580783,11.6451955 121.607471,11.6429715 121.63416,11.6362993 C122.147918,11.5039677 122.659452,11.3883166 123.153193,11.3149227 C123.176545,11.3104745 123.267732,11.3015783 123.311101,11.2971302 C123.322221,11.2960182 123.33223,11.2949061 123.341126,11.2937941 C123.358918,11.29157 123.376711,11.289346 123.394503,11.2871219 L123.394503,11.2871219 L110.915305,4.0344634 C110.776301,3.96218146 110.590592,3.87544314 110.402659,3.79648902 C110.322593,3.76312812 110.238078,3.73643941 110.154676,3.70752663 L110.154676,3.70752663 L109.995656,3.6541492 C109.994544,3.65359319 109.987038,3.65081311 109.976317,3.64692101 L109.898857,3.61912026 L109.898857,3.61912026 L109.878893,3.61189207 C109.858876,3.60633192 109.667607,3.5384981 109.648703,3.53182592 C109.40072,3.45954398 109.139393,3.39838234 108.873618,3.35167709 L108.873618,3.35167709 L108.755743,3.34055679 C108.747959,3.33944476 108.524441,3.31386808 108.515544,3.31275605 L108.515544,3.31275605 L108.357636,3.29162748 C108.249769,3.27717109 108.141902,3.26049064 108.030699,3.25381846 C107.960641,3.25048238 107.886135,3.25159441 107.810517,3.25159441 L107.810517,3.25159441 L107.278967,3.24937035 C107.255614,3.24714629 107.137739,3.24714629 107.118835,3.24714629 Z M115.815686,27.0575953 C117.185707,26.264718 118.346666,26.0222955 119.36751,26.3214315 C119.539874,26.3714729 119.735592,26.4604353 119.936869,26.5716383 C119.956886,26.5805345 119.976902,26.5805345 119.995807,26.5916548 C120.029167,26.6105593 120.054744,26.6450322 120.086993,26.6650488 C120.250461,26.7684675 120.411706,26.9019111 120.575174,27.0609314 C120.631888,27.1165329 120.693049,27.1654622 120.746427,27.2266238 C120.9288,27.4345734 121.1045,27.6736598 121.262409,27.9761319 C121.780614,28.9513821 122.038605,30.3959088 122.043053,32.3842182 L122.043053,32.3842182 L122.142084,67.201872 C122.143136,67.6077629 122.12868,68.0080936 122.103103,68.4017522 C122.094207,68.5474281 122.075302,68.6886558 122.061958,68.8321077 C122.043053,69.0433934 122.028597,69.2580151 122.001908,69.4637406 C122.000796,69.4793091 121.9919,69.5271263 121.985228,69.5638233 C121.965211,69.7072752 121.939635,69.8473909 121.91517,69.9886187 C121.872913,70.258842 121.835104,70.4923682 121.789511,70.7047659 C121.785063,70.7281185 121.777278,70.7503591 121.773942,70.7725997 C121.752814,70.8671223 121.727237,70.9583087 121.704996,71.0506072 C121.663851,71.2218598 121.627154,71.3964485 121.579337,71.564365 C121.544864,71.6911364 121.504831,71.8234679 121.463686,71.9557995 C121.461462,71.9613596 121.461462,71.9669198 121.459238,71.9724799 C121.458126,71.976928 121.455902,71.9813762 121.45479,71.9858243 L121.45479,71.9858243 L121.345811,72.3316656 C121.285761,72.5084783 121.223488,72.6808429 121.15899,72.8509835 C121.154542,72.8632158 121.148982,72.8754481 121.144533,72.8876805 C121.128965,72.9243774 121.114509,72.9610744 121.09894,72.9977714 C121.057795,73.1011902 121.01665,73.206833 120.972169,73.3080277 C120.915455,73.4392473 120.853182,73.5749149 120.789796,73.7083585 C120.78646,73.7150307 120.772003,73.7417194 120.758659,73.7672961 L120.758659,73.7672961 L120.706394,73.8729389 L120.600751,74.0820005 C120.532917,74.2065478 120.469531,74.3210869 120.403922,74.4334019 C120.377233,74.4801072 120.349432,74.5223643 120.321631,74.5679575 C120.296055,74.6102147 120.27159,74.6524718 120.246013,74.6936169 C120.227109,74.7225297 120.208204,74.7547785 120.190412,74.7836913 C120.11813,74.8960063 120.039176,75.0138815 119.957998,75.1295326 L119.957998,75.1295326 L119.837898,75.293001 C119.834562,75.2974491 119.821218,75.3174656 119.806762,75.3352581 C119.768952,75.3864115 119.730031,75.4364528 119.69111,75.4864942 L119.69111,75.4864942 C119.589916,75.6221618 119.480937,75.7544934 119.369734,75.8823768 C119.336373,75.9212978 119.300788,75.9535467 119.267427,75.9913557 C119.197369,76.0691978 119.126199,76.1448158 119.052805,76.2193218 C118.999428,76.2749233 118.949387,76.336085 118.893785,76.3894624 C118.84708,76.4350556 118.794814,76.4784248 118.743661,76.5217939 C118.251032,76.9866224 117.709473,77.3991855 117.113425,77.7483628 C117.096745,77.7572591 117.082288,77.7694914 117.06672,77.7783876 L117.06672,77.7783876 C116.82541,77.9173914 116.592995,78.0308184 116.368365,78.1242289 C116.357245,78.1297891 116.345013,78.1375733 116.333892,78.1420214 C116.326664,78.1450795 116.312833,78.1503616 116.295684,78.156721 L116.179233,78.1986307 L116.179233,78.1986307 L116.140399,78.2120793 L115.929114,78.2832492 C115.921329,78.2854732 115.914657,78.2865853 115.906873,78.2899214 C115.860168,78.3043777 115.810126,78.3255063 115.764533,78.3377386 C115.752301,78.3410747 115.737844,78.3477469 115.7245,78.351083 C115.568816,78.3933401 115.413132,78.426701 115.256335,78.4511657 C115.240767,78.4533897 115.227423,78.4533897 115.210742,78.4556138 C115.208518,78.4567258 115.207406,78.4567258 115.205182,78.4567258 C115.149581,78.463398 115.093979,78.4700702 115.040602,78.4745183 C115.035042,78.4745183 114.932735,78.4845266 114.927175,78.4845266 C114.839324,78.4900867 114.778163,78.4911988 114.712553,78.4923108 C114.700321,78.4923108 114.686976,78.4945348 114.674744,78.4945348 C114.670296,78.4945348 114.66696,78.4934228 114.662512,78.4934228 L114.64875,78.4939788 L114.64875,78.4939788 L114.635823,78.4945348 C114.563541,78.4945348 114.502379,78.4923108 114.44233,78.4878627 C114.328903,78.4811905 114.209915,78.4667341 114.09204,78.4478296 L114.09204,78.4478296 L114.090928,78.4467176 L114.070912,78.4444935 C114.040887,78.4400454 113.9497,78.4189168 113.9219,78.4122446 C113.910779,78.4089085 113.707278,78.3610913 113.696158,78.3577552 C113.669469,78.351083 113.645004,78.3388507 113.619428,78.3310665 C113.57161,78.315498 113.527129,78.2977056 113.480424,78.2821371 C113.42371,78.2610086 113.366997,78.2454402 113.311395,78.2220875 C113.272474,78.2054071 113.232441,78.1820545 113.19352,78.164262 C113.139031,78.1386853 113.086765,78.1142206 113.035612,78.0875319 C113.001139,78.0686274 112.966666,78.0552831 112.931081,78.0363786 C112.921073,78.0297064 112.914401,78.0185861 112.90328,78.0119139 C112.842119,77.9763289 112.776509,77.9440801 112.720907,77.9084951 C111.464314,77.1078337 110.844913,75.3219138 110.838241,72.4506527 L110.838241,72.4506527 L110.739191,37.6329989 C110.731486,34.8151153 111.294173,32.3975625 112.412875,30.4481742 C113.231329,29.0292242 114.375608,27.8882816 115.815686,27.0575953 Z M76.0698501,52.2353962 C74.5330249,53.7010515 73.3920823,55.4491624 72.6770471,57.4697206 C72.0665427,59.23896 71.7596225,61.6231519 71.7685187,64.5477904 L71.7685187,64.5477904 L71.7696307,65.2227925 C72.0120532,64.9025279 72.263372,64.5844874 72.524699,64.2642228 C72.9016771,63.8116266 73.3231364,63.3590305 73.8202137,62.8719614 C74.3384196,62.3659879 74.8933225,61.8689105 75.4960427,61.3862896 C76.6002883,60.4899936 77.7779279,59.6770998 78.9922645,58.976521 C79.4548689,58.7096338 79.906353,58.4672113 80.3500529,58.2470294 L80.3500529,58.2470294 L80.3945341,58.2270129 C80.4579198,58.195876 80.5179694,58.1714114 80.580243,58.1413866 C80.6013716,58.1313783 80.6225002,58.120258 80.6447408,58.1113618 L80.6447408,58.1113618 L80.7859686,58.0479761 C81.0728723,57.9134205 81.3642241,57.7766408 81.6455676,57.6609897 C81.6722563,57.6509814 81.697833,57.6443092 81.7245217,57.634301 C82.2449517,57.4241273 82.7531493,57.2495386 83.2513387,57.1083109 C83.2602349,57.1049748 83.2691312,57.1005266 83.2791394,57.0983026 C83.4726326,57.0438131 83.6605657,56.9993319 83.8473867,56.9559628 C83.9296769,56.9370583 84.0108551,56.9170417 84.0931453,56.8992493 L84.0931453,56.8992493 Z" id="Fill-1-Copy-4" stroke="#FFFFFF" stroke-width="0.7" fill="#002A5D"></path>
                    </g>
                </g>
            </g>
        </g>
    </g>
</svg>