<?xml version="1.0" encoding="UTF-8"?>
<svg width="42px" height="27px" viewBox="0 0 42 27" version="1.1" xmlns="http://www.w3.org/2000/svg" xmlns:xlink="http://www.w3.org/1999/xlink">
    <title>Shape</title>
    <g id="D---Fiche-produit" stroke="none" stroke-width="1" fill="none" fill-rule="evenodd">
        <g id="D.1.0---Fiche-produit---Particulier-Deploy" transform="translate(-532.000000, -1347.000000)" fill="#AAAAAA" fill-rule="nonzero">
            <g id="//-Intro---Slider-01" transform="translate(0.000000, 120.000000)">
                <g id="infos" transform="translate(93.000000, 64.000000)">
                    <g id="paiement" transform="translate(0.000000, 1159.000000)">
                        <path d="M478.852629,20.64481 C478.852629,20.64481 478.854247,20.646853 478.857212,20.6508679 L478.889025,20.6980476 C478.998211,20.8722987 479.289375,21.4581203 478.852629,22.2149406 C478.596592,22.5699063 478.099075,22.7504669 477.425118,22.7504669 L477.425118,22.7504669 L475.395334,22.7504669 L475.395334,21.8522838 L477.417122,21.8522838 C477.617535,21.8522838 477.758133,21.8271231 477.84312,21.74878 C477.915976,21.6842838 477.96781,21.5895213 477.96781,21.4758456 C477.96781,21.3534419 477.91599,21.2561856 477.839081,21.1980288 C477.762186,21.1348975 477.65204,21.1059044 477.468956,21.1059044 C476.480566,21.0730656 475.249346,21.1349106 475.249346,19.8086294 C475.249346,19.2010863 475.655328,18.5618988 476.757723,18.5618988 L476.757723,18.5618988 L478.852629,18.5618988 Z M454.063461,18.5619119 L455.356937,19.9348919 L456.69425,18.5619119 L460.05353,18.5619119 C460.88795,18.5619119 461.825926,18.7817294 461.825926,19.9412969 C461.825926,21.1059175 460.913191,21.3458425 459.995053,21.3458425 L459.995053,21.3458425 L458.683063,21.3458425 L458.683063,22.7504669 L456.638557,22.7504669 L455.345081,21.3635481 L453.999938,22.7504669 L449.835353,22.7504669 L449.835353,18.5619119 L454.063461,18.5619119 Z M464.745933,18.5618988 C465.277942,18.5618988 465.666678,18.5845788 466.011562,18.7588919 C466.343405,18.9509106 466.551566,19.2111794 466.551566,19.689835 C466.551566,20.3580288 466.083246,20.6991213 465.805993,20.803885 C466.040829,20.8860738 466.231826,21.0337956 466.32219,21.1550838 C466.470618,21.359755 466.49182,21.5504219 466.495859,21.9205206 L466.495859,21.9205206 L466.495859,22.7504538 L465.439907,22.7504538 L465.439907,22.226215 C465.439907,21.9749238 465.466416,21.6009663 465.270029,21.4064669 C465.116059,21.2561856 464.882657,21.2206956 464.499146,21.2206956 L464.499146,21.2206956 L463.375549,21.2206956 L463.375549,22.7504538 L462.319432,22.7504538 L462.319432,18.5618988 Z M470.643116,18.5619119 L470.643116,19.4283587 L468.182109,19.4283587 L468.182109,20.1900419 L470.58337,20.1900419 L470.58337,21.0439937 L468.182109,21.0439937 L468.182109,21.8776806 L470.643116,21.8813687 L470.643116,22.7504669 L467.135407,22.7504669 L467.135407,18.5619119 L470.643116,18.5619119 Z M474.761065,18.561925 L474.761065,19.4537687 L472.832163,19.4537687 C472.641166,19.4537687 472.516394,19.4600162 472.410204,19.5294737 C472.294848,19.5964375 472.252361,19.6974606 472.252361,19.8300362 C472.252361,19.98793 472.350555,20.0954369 472.483157,20.1419781 C472.593303,20.1787412 472.712698,20.1900419 472.891909,20.1900419 L472.891909,20.1900419 L473.45834,20.2039806 C474.028809,20.2178275 474.420137,20.3113169 474.658984,20.5412537 C474.863367,20.7434575 474.973334,20.9972425 474.973334,21.4293437 C474.973334,22.3298369 474.381662,22.7504931 473.321671,22.7504931 L473.321671,22.7504931 L471.27329,22.7504931 L471.27329,21.85231 L473.313675,21.85231 C473.512751,21.85231 473.653349,21.8271494 473.742113,21.7488062 C473.815231,21.68431 473.866899,21.5895475 473.866899,21.4758719 C473.866899,21.3534681 473.811206,21.2562119 473.738336,21.198055 C473.658656,21.1349237 473.547256,21.1059306 473.364089,21.1059306 C472.381007,21.0730919 471.149952,21.1349369 471.149952,19.8086556 C471.149952,19.2011125 471.550543,18.561925 472.652939,18.561925 L472.652939,18.561925 L474.761065,18.561925 Z M457.635534,19.0113906 L456.021396,20.6633162 L457.635534,22.3694744 L457.635534,19.0113906 Z M453.517985,19.4281225 L450.882054,19.4281225 L450.882054,20.189635 L453.190181,20.189635 L453.190181,21.04423 L450.882054,21.04423 L450.882054,21.8776806 L453.466992,21.8776806 L454.667926,20.6487344 L453.517985,19.4281225 Z M460.053613,19.42828 L458.682636,19.42828 L458.682636,20.494765 L460.04133,20.494765 C460.445465,20.494765 460.696443,20.3041112 460.696443,19.9416906 C460.696443,19.5753587 460.433168,19.42828 460.053613,19.42828 L460.053613,19.42828 Z M464.669865,19.4282931 L463.37537,19.4282931 L463.37537,20.3689225 L464.65244,20.3689225 C464.857154,20.3689225 465.030989,20.3621106 465.171669,20.28256 C465.30798,20.2042169 465.389342,20.0599338 465.389342,19.8804363 C465.389342,19.701385 465.30798,19.5717756 465.171669,19.5039194 C465.044375,19.4319813 464.857154,19.4282931 464.669865,19.4282931 L464.669865,19.4282931 Z M444.904006,11.3538981 L446.692062,15.3188819 L446.692062,11.3538981 L448.408007,11.3538981 L449.783864,14.1947913 L451.047893,11.3538981 L452.798343,11.3538981 L452.798343,15.5417313 L451.720761,15.5417313 L451.71664,12.2617675 L450.192106,15.5417313 L449.269005,15.5417313 L447.740612,12.25888 L447.740612,15.5417313 L445.602198,15.5417313 L445.198326,14.6075856 L443.009182,14.6075856 L442.601105,15.5417313 L441.459159,15.5417313 L443.341949,11.3538981 L444.904006,11.3538981 Z M457.09418,11.3538981 L457.09418,12.2259494 L454.633504,12.2259494 L454.633504,12.9807419 L457.035026,12.9807419 L457.035026,13.8392612 L454.633504,13.8392612 L454.633504,14.6754419 L457.09418,14.6754419 L457.09418,15.5417313 L453.581936,15.5417313 L453.581936,11.3538981 L457.09418,11.3538981 Z M463.728677,11.3538981 L463.728677,15.5417313 L462.655893,15.5417313 L462.655893,11.3538981 L463.728677,11.3538981 Z M460.241013,11.3538981 C460.778328,11.3538981 461.174288,11.36743 461.514127,11.5544875 C461.846563,11.7416237 462.046052,12.0146238 462.046052,12.4817425 C462.046052,13.1493587 461.578077,13.49431 461.305208,13.5978925 C461.535329,13.6813675 461.731882,13.8286037 461.825361,13.9506925 C461.973872,14.1588156 461.999361,14.3449937 461.999361,14.7190169 L461.999361,14.7190169 L461.999361,15.5417312 L460.938942,15.5417312 L460.934986,15.0135812 C460.934986,14.7615681 460.96031,14.3991475 460.768982,14.1976788 C460.615425,14.0504294 460.381183,14.0183912 460.0028,14.0183912 L460.0028,14.0183912 L458.874171,14.0183912 L458.874171,15.5417312 L457.822755,15.5417312 L457.822755,11.3538981 Z M467.425012,11.3538981 L467.425012,12.25111 L466.428462,12.25111 C466.044785,12.25111 465.828133,12.3054213 465.61938,12.4992906 C465.440155,12.6756119 465.31723,13.0089475 465.31723,13.4478606 C465.31723,13.8964731 465.410792,14.2201094 465.606421,14.4313563 C465.768138,14.5970988 466.062292,14.6473281 466.339022,14.6473281 L466.339022,14.6473281 L466.811132,14.6473281 L468.293082,11.3540556 L469.868346,11.3540556 L471.648324,15.3150231 L471.648324,11.3540556 L473.249077,11.3540556 L475.097127,14.2706538 L475.097127,11.3540556 L476.17395,11.3540556 L476.17395,15.5417313 L474.684253,15.5417313 L472.691317,12.3985037 L472.691317,15.5417313 L470.550133,15.5417313 L470.14105,14.6075856 L467.957117,14.6075856 L467.560068,15.5417313 L466.329772,15.5417313 C465.818869,15.5417313 465.171752,15.4340669 464.805335,15.07855 C464.435885,14.7228625 464.243619,14.2412538 464.243619,13.4796625 C464.243619,12.8586662 464.358548,12.2909312 464.810463,11.8421612 C465.150302,11.508025 465.682489,11.3538981 466.407094,11.3538981 L466.407094,11.3538981 L467.425012,11.3538981 Z M444.099046,12.0651813 L443.383609,13.7346419 L444.818688,13.7346419 L444.099046,12.0651813 Z M469.054977,12.0651813 L468.331709,13.7346419 L469.782697,13.7346419 L469.054977,12.0651813 Z M460.168639,12.2259494 L458.874061,12.2259494 L458.874061,13.1560919 L460.151214,13.1560919 C460.355928,13.1560919 460.526895,13.153375 460.671201,13.0699 C460.807595,13.001965 460.88795,12.8547287 460.88795,12.6716744 C460.88795,12.4924 460.803556,12.3625412 460.66708,12.3014181 C460.543066,12.2337981 460.351806,12.2259494 460.168639,12.2259494 L460.168639,12.2259494 Z M477.427641,4 L442.3178,4 C440.488264,4 439,5.41696187 439,7.15884625 L439,26.9412006 C439,28.683085 440.488264,30.1000469 442.3178,30.1000469 L477.427627,30.1000469 C479.257163,30.1000469 480.745427,28.683085 480.745427,26.9412006 L480.745427,7.15884625 C480.745427,5.41696187 479.257163,4 477.427641,4 Z M459.909073,14.8374175 L459.738946,14.8374175 L459.743234,16.3642094 L450.959377,16.3642094 L450.959377,15.642505 L450.643938,16.3670838 L448.809108,16.3670838 L448.493587,15.6529919 L448.493587,16.3641963 L444.959134,16.3641963 L444.555097,15.4340538 L443.648414,15.4340538 L443.243452,16.3641963 L441.44707,16.3641963 L441.446904,16.3641963 L440.040926,16.3670838 L442.720101,10.5234794 L445.461793,10.5234794 L445.815101,11.21329 L445.815101,10.5234794 L449.029827,10.5234794 L449.733065,12.03208 L450.41805,10.5234794 L460.624538,10.5234794 C461.088404,10.5234794 461.505814,10.6059175 461.812003,10.8644275 L461.812003,10.5234794 L464.605777,10.5234794 L464.605777,10.8644275 C465.087054,10.61353 465.682517,10.5234794 466.360265,10.5234794 L470.408653,10.5234794 L470.784251,11.21329 L470.784251,10.5234794 L473.781388,10.5234794 L474.190389,11.21329 L474.190389,10.5234794 L477.111209,10.5234794 L477.111209,16.3641963 L474.159923,16.3641963 L473.602163,15.4805163 L473.602163,16.3641963 L469.919118,16.3641963 L469.519036,15.4340538 L468.612353,15.4340538 L468.20327,16.3641963 L466.292206,16.3641963 C465.542098,16.3641963 464.972222,16.1957238 464.60579,16.0086794 L464.60579,16.3641963 L460.062753,16.3641963 L460.062753,15.0388731 C460.062712,14.8518419 460.027876,14.8411844 459.909073,14.8374175 Z M479.711518,22.1031156 C479.70344,22.13035 479.691157,22.1744106 479.691157,22.1744106 C479.62081,22.5862469 479.240083,23.0006556 479.014415,23.1938688 C479.007936,23.19883 479.001209,23.2052481 478.993296,23.2102094 C478.986734,23.2165356 478.978738,23.2216675 478.972094,23.2266288 C478.919006,23.2645994 478.852615,23.3036988 478.852615,23.3036988 C478.430739,23.4970038 477.877515,23.5727875 477.310919,23.5727875 L474.585976,23.5727875 L474.585976,23.1988431 C474.270289,23.4400544 473.701074,23.5727875 473.155942,23.5727875 L464.566874,23.5727875 L464.566874,22.2224744 C464.566874,22.0569681 464.549628,22.0494344 464.375794,22.0494344 L464.239152,22.0494344 L464.239152,23.5727744 L461.412059,23.5727744 L461.412059,21.9963175 C460.939783,22.1908169 460.402385,22.2072494 459.947355,22.2010806 L459.610287,22.2010806 L459.610287,23.5765413 L456.183526,23.5727744 L455.341125,22.6644981 L454.445622,23.5727744 L448.885493,23.5727744 L448.885493,17.7282119 L454.553066,17.7282119 L455.366269,18.6225494 L456.234009,17.7282119 L460.028289,17.7282119 C460.466074,17.7282119 461.186391,17.77243 461.510239,18.0705119 L461.510239,17.7282119 L464.899889,17.7282119 C465.218195,17.7282119 465.908226,17.7901356 466.3168,18.0705119 L466.3168,17.7282119 L471.456389,17.7282119 L471.456389,18.0705119 C471.712426,17.8368344 472.252347,17.7282119 472.712685,17.7282119 L475.59026,17.7282119 L475.59026,18.0705119 C475.892823,17.8621525 476.32009,17.7282119 476.906454,17.7282119 L479.691143,17.7282119 L479.691143,20.032135 L479.334224,20.032135 C479.561146,20.20276 479.691143,20.4882681 479.691143,20.4882681 C479.703178,20.5347306 479.701661,20.5715069 479.711504,20.6166831 C479.880224,21.3901394 479.757713,21.94786 479.711518,22.1031156 Z" id="Shape"></path>
                    </g>
                </g>
            </g>
        </g>
    </g>
</svg>