<?xml version="1.0" encoding="UTF-8"?>
<svg width="50px" height="50px" viewBox="0 0 50 50" version="1.1" xmlns="http://www.w3.org/2000/svg" xmlns:xlink="http://www.w3.org/1999/xlink">
    <defs>
        <path d="M22.7751805,11.5731854 C20.2792296,9.04305209 18.2753154,5.355059 16.763438,0.509206101 C15.4946813,-0.775538949 11.7422711,0.621878697 11.2425453,1.92882237 C10.7428195,3.23576603 11.2425453,2.76808648 11.2425453,4.78370644 C12.9714972,10.1807121 14.8117948,13.8683172 16.763438,15.8465218 C18.4226493,17.5283144 22.3344841,20.5794739 28.4989425,25 C22.4693165,30.7488514 18.5574816,34.5325837 16.763438,36.351197 C14.9469313,38.192581 13.1066337,40.9773747 11.2425453,44.7055781 C10.3928867,45.9175882 10.6074158,46.4919552 11.2425453,47.9774169 C11.8776748,49.4628785 15.4946813,50.9264311 16.763438,49.6402987 C18.9159377,45.6838183 20.9198518,42.4018563 22.7751805,39.7944126 C24.6305092,37.1869689 29.7971437,33.0721662 38.275084,27.4500046 C38.91699,26.7993076 39.2263093,25.9377237 39.2126227,25.0747524 C39.2263093,24.2131685 38.91699,23.3501972 38.275084,22.6995002 C30.3104199,17.6830002 25.1437854,13.9742286 22.7751805,11.5731854 Z" id="path-1"></path>
    </defs>
    <g id="icon/chevron" stroke="none" stroke-width="1">
        <mask id="mask-2" fill="white">
            <use xlink:href="#path-1"></use>
        </mask>
        <use id="icon-copy" xlink:href="#path-1"></use>
    </g>
</svg>