<?xml version="1.0" encoding="UTF-8"?>
<svg width="30px" height="18px" viewBox="0 0 30 18" version="1.1" xmlns="http://www.w3.org/2000/svg" xmlns:xlink="http://www.w3.org/1999/xlink">
    <title>icon/delivery</title>
    <g id="D---Fiche-produit" stroke="none" stroke-width="1" fill="none" fill-rule="evenodd">
        <g id="D.1.0---Fiche-produit---Particulier-Deploy" transform="translate(-133.000000, -1463.000000)" fill="#322C2A">
            <g id="//-Intro---Slider-01" transform="translate(0.000000, 120.000000)">
                <g id="infos" transform="translate(93.000000, 64.000000)">
                    <g id="delivery" transform="translate(0.000000, 1230.000000)">
                        <g id="icon/delivery" transform="translate(40.000000, 43.000000)">
                            <path d="M25.6060481,9.54783327 C25.4935541,9.4353392 25.3409167,9.37203804 25.1818285,9.37203804 L19.6918945,9.37203804 L19.6918945,6.59996845 C19.6918945,6.26833368 19.4232359,6 19.0918796,6 L0.600014828,6 C0.268658505,6 0,6.26833368 0,6.59996845 L0,21.1499922 C0,21.481627 0.268658505,21.7499607 0.600014828,21.7499607 L2.58017055,21.7499607 C2.85681135,23.0338504 3.99859842,23.9999816 5.36398142,23.9999816 C6.72936441,23.9999816 7.87115155,23.0338504 8.14779228,21.7499607 L19.0918795,21.7499607 L21.461959,21.7499607 C21.7385998,23.0338504 22.8804333,23.9999816 24.2458163,23.9999816 C25.6111993,23.9999816 26.7529865,23.0338504 27.0296272,21.7499607 L29.3999852,21.7499607 C29.7313415,21.7499607 30,21.481627 30,21.1499922 L30,14.1960572 C30,14.0372939 29.9370237,13.884935 29.8250866,13.7724409 C28.1806498,12.1224348 27.2563327,11.1978393 25.6060481,9.54783327 Z M5.36398149,22.7999519 C4.45400463,22.7999519 3.71397548,22.0599228 3.71397548,21.1499923 C3.71397548,20.2400154 4.45400463,19.4999863 5.36398149,19.4999863 C6.27391197,19.4999863 7.0139875,20.2400154 7.0139875,21.1499923 C7.0139875,22.0599228 6.27391197,22.7999519 5.36398149,22.7999519 Z M18.4919112,20.5499774 L8.14774597,20.5499774 C7.87110517,19.2660412 6.72936449,18.2999565 5.36398149,18.2999565 C3.9985985,18.2999565 2.85685781,19.2660411 2.58021701,20.5499774 L1.20002973,20.5499774 L1.20002973,17.4374554 L18.4919112,17.4374554 L18.4919112,20.5499774 Z M18.4919112,9.97205287 L18.4919112,16.2374721 L1.20002973,16.2374721 L1.20002973,7.19998335 L18.4919112,7.19998335 L18.4919112,9.97205287 Z M19.6918945,10.5720678 L21.5264669,10.5720678 L21.5264669,16.2374722 L19.6918945,16.2374722 L19.6918945,10.5720678 Z M24.2458165,22.7999519 C23.3361644,22.7999519 22.5964601,22.0604333 22.5959032,21.1509204 C22.5959032,21.1505956 22.5960888,21.1503171 22.5960888,21.1499923 C22.5960888,21.1496675 22.5959032,21.1493889 22.5959032,21.1490641 C22.5964601,20.2395049 23.3361644,19.4999863 24.2458165,19.4999863 C25.155747,19.4999863 25.8957761,20.2400154 25.8957761,21.1499923 C25.8957761,22.0599228 25.155747,22.7999519 24.2458165,22.7999519 Z M28.7999705,20.5499774 L27.029581,20.5499774 C26.7529402,19.2660412 25.6111995,18.2999565 24.2458165,18.2999565 C22.8804335,18.2999565 21.7386928,19.2660411 21.4620056,20.5499774 L19.6918945,20.5499774 L19.6918945,17.4374554 L28.7999705,17.4374554 L28.7999705,20.5499774 Z M28.7999706,16.2374721 L22.7264502,16.2374721 L22.7264502,10.5720677 L24.9334041,10.5720677 C26.4172679,12.0562099 27.3210725,12.9597361 28.7999706,14.4439247 L28.7999706,16.2374721 L28.7999706,16.2374721 Z" id="Shape"></path>
                        </g>
                    </g>
                </g>
            </g>
        </g>
    </g>
</svg>