<?xml version="1.0" encoding="UTF-8"?>
<svg width="165px" height="182px" viewBox="0 0 165 182" version="1.1" xmlns="http://www.w3.org/2000/svg" xmlns:xlink="http://www.w3.org/1999/xlink">
    <title>Group 11</title>
    <g id="A---Homepage" stroke="none" stroke-width="1" fill="none" fill-rule="evenodd">
        <g id="A.1.0---Homepage---Particulier-01" transform="translate(-606.000000, -3608.000000)">
            <g id="//-Nos-engagements" transform="translate(0.000000, 3547.000000)">
                <g id="Group-11" transform="translate(607.000000, 61.000000)">
                    <circle id="Oval" stroke="#003A80" stroke-width="1.265" cx="75.9" cy="104.994494" r="75.9"></circle>
                    <g id="Group-7" transform="translate(32.890000, 39.214494)">
                        <path d="M22.9689004,4.33083734 C26.2055906,2.46357569 30.4550067,1.52994486 34.7059736,1.52994486 C38.9584914,1.52994486 43.2079074,2.46357569 46.4445977,4.33083734 C49.4269433,6.05386698 51.070878,8.29489114 51.0786324,10.644477 L51.0786324,10.6801473 C51.0693271,13.0297332 49.4269433,15.2707573 46.4445977,16.9922361 C43.9538816,18.4283526 40.7916337,19.3557799 37.297497,19.6721598 C36.4522665,19.748153 32.9612316,19.748153 32.1175519,19.6721598 C28.6249662,19.3573308 25.4611674,18.4314544 22.9689004,16.9922361 C19.9865547,15.2707573 18.34262,13.0297332 18.3348656,10.6785964 L18.3348656,10.6460279 C18.34262,8.29489114 19.9865547,6.05386698 22.9689004,4.33083734" id="Path-Copy-3" fill="#FFFFFF"></path>
                        <path d="M40.3905756,93.3399743 C42.7835862,93.3399743 44.7299428,95.286331 44.7299428,97.6793415 C44.7299428,100.072352 42.7835862,102.018709 40.3905756,102.018709 C37.9975651,102.018709 36.0512084,100.072352 36.0512084,97.6793415 C36.0512084,95.286331 37.9975651,93.3399743 40.3905756,93.3399743 Z M40.3905756,94.8908561 C38.8536518,94.8908561 37.6020902,96.1424177 37.6020902,97.6793415 C37.6020902,99.2162654 38.8536518,100.467827 40.3905756,100.467827 C41.9274995,100.467827 43.179061,99.2162654 43.179061,97.6793415 C43.179061,96.1424177 41.9274995,94.8908561 40.3905756,94.8908561 Z M53.9367524,82.921771 C57.5068823,82.921771 60.4116838,85.8265725 60.4116838,89.3967023 C60.4116838,92.9668322 57.5068823,95.8716337 53.9367524,95.8716337 C50.3666226,95.8716337 47.461821,92.9668322 47.461821,89.3967023 C47.461821,85.8265725 50.3666226,82.921771 53.9367524,82.921771 Z M20.433829,83.062591 C23.6146875,83.062591 26.2015583,85.6494618 26.2015583,88.8287694 C26.2015583,92.0080771 23.6146875,94.5949479 20.433829,94.5949479 C17.2545214,94.5949479 14.6676506,92.0080771 14.6676506,88.8287694 C14.6676506,85.6494618 17.2545214,83.062591 20.433829,83.062591 Z M53.9367524,84.4726527 C51.2211585,84.4726527 49.0127028,86.6811084 49.0127028,89.3967023 C49.0127028,92.1122963 51.2211585,94.320752 53.9367524,94.320752 C56.6523464,94.320752 58.860802,92.1122963 58.860802,89.3967023 C58.860802,86.6811084 56.6523464,84.4726527 53.9367524,84.4726527 Z M20.433829,84.6134728 C18.1090573,84.6134728 16.2185324,86.5039977 16.2185324,88.8287694 C16.2185324,91.1535412 18.1090573,93.0440661 20.433829,93.0440661 C22.7586008,93.0440661 24.6506766,91.1535412 24.6506766,88.8287694 C24.6506766,86.5039977 22.7586008,84.6134728 20.433829,84.6134728 Z M36.8271146,77.3513138 C39.2201252,77.3513138 41.1664818,79.2976704 41.1664818,81.690681 C41.1664818,84.0836916 39.2201252,86.0300482 36.8271146,86.0300482 C34.434104,86.0300482 32.4877474,84.0836916 32.4877474,81.690681 C32.4877474,79.2976704 34.434104,77.3513138 36.8271146,77.3513138 Z M36.8271146,78.9021956 C35.2901908,78.9021956 34.0386292,80.1537572 34.0386292,81.690681 C34.0386292,83.2276048 35.2901908,84.4791664 36.8271146,84.4791664 C38.3640384,84.4791664 39.6156,83.2276048 39.6156,81.690681 C39.6156,80.1537572 38.3640384,78.9021956 36.8271146,78.9021956 Z M18.4300898,73.336236 C19.962361,73.336236 21.2092699,74.583145 21.2092699,76.1154161 C21.2092699,77.6476873 19.962361,78.8945963 18.4300898,78.8945963 C16.8978186,78.8945963 15.6509097,77.6476873 15.6509097,76.1154161 C15.6509097,74.583145 16.8978186,73.336236 18.4300898,73.336236 Z M18.4300898,74.8871178 C17.7523544,74.8871178 17.2017914,75.4376808 17.2017914,76.1154161 C17.2017914,76.7931515 17.7523544,77.3437145 18.4300898,77.3437145 C19.1078251,77.3437145 19.6583881,76.7931515 19.6583881,76.1154161 C19.6583881,75.4376808 19.1078251,74.8871178 18.4300898,74.8871178 Z M50.4533169,66.5663269 C51.8522122,66.5663269 52.9905595,67.7031233 52.9905595,69.1035695 C52.9905595,70.5024648 51.8522122,71.6392612 50.4533169,71.6392612 C49.0544215,71.6392612 47.9160743,70.5024648 47.9160743,69.1035695 C47.9160743,67.7031233 49.0544215,66.5663269 50.4533169,66.5663269 Z M50.4533169,68.1172087 C49.9089574,68.1172087 49.4669561,68.55921 49.4669561,69.1035695 C49.4669561,69.6463781 49.9089574,70.0883794 50.4533169,70.0883794 C50.9976764,70.0883794 51.4396777,69.6463781 51.4396777,69.1035695 C51.4396777,68.55921 50.9976764,68.1172087 50.4533169,68.1172087 Z M58.324352,105.798828 C45.3062505,113.317503 24.1212055,113.314401 11.1046548,105.798828 C4.75689576,102.134094 1.37752438,97.2953432 1.58689342,92.0719734 L1.55122314,91.8532991 C1.64892869,90.4528528 1.90172242,89.0570592 2.25997611,87.8070485 L19.7477189,49.7530626 L19.8748912,19.4612399 C20.0330812,19.5992684 20.2160852,19.7279915 20.3851313,19.8613674 L20.3324014,52.5849727 L18.34262,56.9181363 C18.2991954,56.9987822 18.2666268,57.0825298 18.2263039,57.1647266 L5.1787356,85.5784314 C4.80497309,86.8470527 4.56768818,88.1622005 4.47153351,89.4959588 C4.46222822,89.6494961 4.48549145,89.7782193 4.50565291,89.8092369 C4.29783475,94.8201359 7.48954943,99.48829 13.489911,102.951409 C19.3413879,106.33078 27.027558,108.021242 34.7121771,108.021242 C42.3983472,108.021242 50.0860681,106.33078 55.937545,102.951409 C62.5536066,99.1315872 65.7701354,93.7965539 64.7713676,88.3498572 C64.63489,87.3200717 64.4534368,86.4190094 64.1727272,85.4884803 L48.9802894,52.5772183 L49.0392229,19.8520621 C49.2051672,19.7202371 49.3850695,19.5946157 49.5417086,19.4581381 L49.4765716,49.5886691 L67.0883849,87.72175 C67.3380769,88.5778368 67.5319371,89.5362817 67.6854744,90.6808325 C68.7075055,96.2640068 65.2955656,101.772739 58.324352,105.798828 M46.5903806,52.68578 C40.0099892,48.8845688 29.3027015,48.8830179 22.7207593,52.68578 C22.3578529,52.8966999 22.0182098,53.1169251 21.6909738,53.3433539 L21.8119426,53.079704 L21.9298096,20.9314758 C22.0213116,20.9857567 22.1004066,21.046241 22.1919086,21.098971 C24.8780358,22.6498528 28.260509,23.6455189 31.9779726,23.9805093 C32.4913144,24.0254849 33.7242654,24.0425446 34.7059736,24.0425446 C35.6892326,24.0425446 36.9237345,24.0254849 37.4370764,23.9805093 C41.1529891,23.643968 44.5339114,22.6483019 47.2200386,21.098971 C47.3130915,21.0446902 47.3937373,20.9842058 47.4867902,20.928374 L47.4294076,52.9153105 L47.6294714,53.3495574 C47.2991336,53.1200269 46.9563887,52.8982508 46.5903806,52.68578 M6.62725917,86.1212401 L17.8137694,61.7785998 C18.4170624,63.9048587 20.0966673,65.8450118 22.7207593,67.3617742 C25.2176789,68.8040942 28.3613163,69.7470303 31.8089264,70.0897752 C32.5068232,70.158014 33.5738299,70.1905825 34.6439383,70.1905825 C35.7155976,70.1905825 36.7888078,70.158014 37.5006625,70.0897752 C40.9358657,69.7563356 44.0779521,68.8118486 46.5903806,67.3617742 C49.2299814,65.8372574 50.9111372,63.8862481 51.5066758,61.7475822 L62.7242036,86.0312889 C62.942878,86.7757122 63.1088223,87.6023321 63.2390964,88.5902438 C64.1184463,93.3917738 61.1748727,98.137472 55.1621041,101.609896 C43.8871937,108.118947 25.5387115,108.118947 14.2653519,101.609896 C8.78918836,98.4476483 5.87353063,94.2788782 6.05343292,89.7720157 L6.01931352,89.5998679 C6.10771378,88.3839766 6.32483722,87.1789414 6.62725917,86.1212401 M50.2101386,60.0245525 C50.2101386,62.2547205 48.6484007,64.3825303 45.8149397,66.0202614 C43.4932697,67.3602233 40.5667558,68.2318189 37.3533288,68.545097 C36.0273249,68.6722693 33.2590009,68.6722693 31.9609129,68.545097 C28.731977,68.2240644 25.8039122,67.3524689 23.4962002,66.0202614 C20.6627392,64.3825303 19.1025521,62.2547205 19.1010012,60.0245525 C19.1010012,57.7943845 20.6627392,55.6650239 23.4962002,54.0272927 C26.5731496,52.2515331 30.6147475,51.3628779 34.6547945,51.3628779 C38.6963924,51.3628779 42.7379903,52.253084 45.8149397,54.0272927 C48.6499516,55.6650239 50.2101386,57.7943845 50.2101386,60.0245525 M22.1934595,18.3352997 C24.8795867,19.8861815 28.2620598,20.8818476 31.9779726,21.216838 C32.4385844,21.257161 33.572279,21.2788733 34.7059736,21.2788733 C35.8427699,21.2788733 36.9780154,21.257161 37.4370764,21.216838 C41.15454,20.8802967 44.5354622,19.8846306 47.2200386,18.3352997 C48.566204,17.5583079 49.6719827,16.6727545 50.5311712,15.7143095 C49.9573449,16.9286499 48.94617,18.0747516 47.5100535,19.0781721 L47.489892,19.0781721 L47.489892,19.09213 C47.162656,19.3201096 46.8137076,19.5418857 46.4445977,19.7559074 C43.9523307,21.1920239 40.7900828,22.1194512 37.297497,22.4358311 C36.917531,22.4699505 35.9001526,22.4916628 34.7059736,22.4916628 C33.5133455,22.4916628 32.497518,22.4699505 32.1175519,22.4358311 C28.6234153,22.1210021 25.4596165,21.1935748 22.9673495,19.7574583 C22.6044432,19.5465384 22.2616983,19.327864 21.937564,19.1029862 L21.937564,19.0812738 L21.9049955,19.0812738 C20.468879,18.0763025 19.4546023,16.9302008 18.8823269,15.7143095 C19.7415154,16.6727545 20.8472941,17.5583079 22.1934595,18.3352997 M22.9689004,4.33083734 C26.2055906,2.46357569 30.4550067,1.52994486 34.7059736,1.52994486 C38.9584914,1.52994486 43.2079074,2.46357569 46.4445977,4.33083734 C49.4269433,6.05386698 51.070878,8.29489114 51.0786324,10.644477 L51.0786324,10.6801473 C51.0693271,13.0297332 49.4269433,15.2707573 46.4445977,16.9922361 C43.9538816,18.4283526 40.7916337,19.3557799 37.297497,19.6721598 C36.4522665,19.748153 32.9612316,19.748153 32.1175519,19.6721598 C28.6249662,19.3573308 25.4611674,18.4314544 22.9689004,16.9922361 C19.9865547,15.2707573 18.34262,13.0297332 18.3348656,10.6785964 L18.3348656,10.6460279 C18.34262,8.29489114 19.9865547,6.05386698 22.9689004,4.33083734 M69.2161947,90.4388949 C69.0595556,89.2524703 68.8501866,88.221134 68.5384594,87.1789414 L51.0274533,49.249026 L51.097243,17.7754314 C52.1006635,16.4199607 52.6372686,14.9388686 52.6295142,13.3957413 L52.6295142,10.6801473 C52.6295142,10.6739438 52.6310651,10.6677402 52.6310651,10.6615367 C52.6310651,10.6553332 52.6295142,10.6491297 52.6295142,10.644477 L52.6295142,9.85662908 L52.5643772,9.85662908 C52.2448955,7.23253713 50.3869392,4.81781421 47.2200386,2.98932461 C40.3201656,-0.996441536 29.0933325,-0.996441536 22.1934595,2.98932461 C19.0265589,4.81781421 17.1686026,7.23253713 16.8491209,9.85662908 L16.7839839,9.85662908 L16.7839839,10.644477 C16.7839839,10.6491297 16.782433,10.6553332 16.782433,10.6615367 C16.782433,10.6677402 16.7839839,10.6739438 16.7839839,10.6801473 L16.7839839,13.3926395 C16.7762295,14.9435213 17.3190381,16.4323678 18.3317639,17.7924911 L18.2681777,49.2598822 L0.811452538,87.2657908 C0.383409169,88.7251705 0.110453978,90.2326276 0.00344313609,91.7385338 C-0.00896391806,91.9075799 0.0142993085,92.0549137 0.0391134168,92.1122963 C-0.196620612,97.8350501 3.45725683,103.174736 10.329214,107.140341 C17.0538373,111.023749 25.8814563,112.965453 34.713728,112.963903 C43.5444488,112.963903 52.3767205,111.022198 59.0997929,107.140341 C66.6742995,102.768405 70.3591946,96.6672361 69.2161947,90.4388949" id="Fill-1" fill="#003A80"></path>
                    </g>
                    <g id="Group-9" transform="translate(121.035468, 50.863569) rotate(10.000000) translate(-121.035468, -50.863569) translate(86.035468, 6.363569)">
                        <path d="M36.6519689,59.5945375 C29.5779848,59.5945375 22.9274932,56.8397972 17.9255397,51.8377489 C12.9233965,46.8357005 10.1686563,40.1852089 10.1686563,33.1112248 C10.1686563,26.0373356 12.9233965,19.3867492 17.9255397,14.3847008 C22.9274932,9.38274734 29.5779848,6.62800708 36.6519689,6.62800708 C43.7259529,6.62800708 50.3764445,9.38274734 55.378398,14.3847008 C60.3805412,19.3867492 63.1352815,26.0373356 63.1352815,33.1112248 C63.1352815,40.1852089 60.3805412,46.8357005 55.378398,51.8377489 C50.3764445,56.8397972 43.7259529,59.5945375 36.6519689,59.5945375 L36.6519689,59.5945375 Z" id="Path" fill="#FFFFFF"></path>
                        <path d="M43.8248118,37.5413906 C43.2123839,38.7103816 42.0002374,39.5829753 40.9356732,39.9250889 C41.152304,39.1260966 41.4512622,38.31117 41.946554,37.6397471 C42.4333095,36.9799904 43.1772904,36.4589951 43.6402393,36.4536837 C43.6430847,36.4535888 43.6459301,36.4535888 43.6488704,36.4535888 C43.7604106,36.4535888 43.8820995,36.480146 44.0120401,36.6480254 C44.0787176,36.7362333 44.0837445,37.0469525 43.8248118,37.5413906 M35.4467745,37.2658597 C35.1092135,36.7734134 34.8320702,36.2529871 34.6240704,35.7364496 C33.7104079,33.4675164 33.3853668,31.4995331 33.464659,28.7172872 C33.4846717,28.0099172 33.7932095,26.6712447 34.0647568,26.1126899 C34.2492345,25.7331117 34.6493946,25.3578964 35.0551506,25.3578964 C35.0826563,25.3578964 35.1102568,25.3596985 35.1378573,25.3633027 C35.429702,25.4011467 35.6979297,25.6320995 35.8714999,25.8192329 C36.5424486,26.5423475 36.8858901,27.6449454 36.9521882,29.2891206 C37.0613573,31.9935919 36.5318257,34.7679655 35.4467745,37.2658597 M25.6118851,41.7054645 C24.6145674,41.2759967 24.055159,40.5728948 24.1087476,40.1678027 C24.140142,39.9303055 24.289052,39.7033363 24.5072005,39.5605913 C24.6461515,39.4696329 24.7998039,39.4223042 24.9477654,39.4223042 C25.0094161,39.4223042 25.0701182,39.4305559 25.1283544,39.447249 C25.7862141,39.6364691 26.7702532,40.514469 27.2420228,41.1840898 C27.5498018,41.6210506 27.8374732,42.0667373 28.1052193,42.5212447 C27.3514764,42.3704378 26.5260218,42.099175 25.6118851,41.7054645 M43.6238307,35.0310714 C42.9162711,35.0392283 41.7525916,35.5061608 40.801749,36.7951334 C40.0650713,37.7935892 39.6987716,38.958976 39.4401235,40.0320765 C38.3002506,39.8564196 37.2874729,39.2635301 36.4625873,38.4703235 C37.8442256,35.5987316 38.5028441,32.4295093 38.3737571,29.2317381 C38.3229191,27.9716938 38.1162472,26.1468349 36.9144391,24.8515075 C36.4365992,24.3366773 35.885727,24.0257684 35.3211969,23.9524515 C34.330234,23.823744 33.2880536,24.4563744 32.7851741,25.4906824 C32.3951627,26.2929943 32.0657586,27.8621454 32.0424262,28.6767875 C31.9582967,31.6335521 32.3238376,33.8328676 33.3043673,36.2678781 C33.6388932,37.0988339 34.1285889,37.9386104 34.7480356,38.6953009 C34.7174948,38.7509762 34.6867644,38.8064618 34.6557493,38.8617576 C33.5907108,40.7603128 32.3631992,41.9565249 31.007549,42.4170077 C30.6292038,42.5456205 30.230751,42.6241539 29.8073534,42.6522286 C29.3935353,41.867084 28.9260338,41.1043234 28.4052281,40.3648951 C27.9080394,39.6590427 26.6855547,38.4146482 25.5214009,38.0799327 C24.9250021,37.9085439 24.2716002,38.0143933 23.7280312,38.3702598 C23.1598969,38.7421554 22.7845867,39.3292592 22.6982759,39.9810487 C22.5236623,41.3002775 23.7531657,42.4539981 25.0490622,43.0121735 C26.0903889,43.4606108 27.4600764,43.9658615 28.9227141,44.0674428 C30.400148,47.2038479 30.9949344,50.7114848 30.6933205,54.5364801 C30.6624003,54.928104 30.9549089,55.2706918 31.3465327,55.3015172 C31.365597,55.3031296 31.3844716,55.3037935 31.4031564,55.3037935 C31.7706891,55.3037935 32.0821671,55.0209593 32.1115697,54.6483998 C32.416029,50.7886903 31.8611733,47.226137 30.4598068,44.0094912 C30.7952811,43.9576098 31.1312297,43.8775588 31.4650916,43.7641216 C33.1103101,43.2052823 34.560997,41.8595911 35.7793085,39.7632797 C36.7259778,40.590157 37.8622465,41.2068531 39.1358539,41.4237685 C38.4908933,44.6377586 38.2128015,47.9217459 38.3091662,51.1990939 C38.3207376,51.5917611 38.6453993,51.9016267 39.0411016,51.8892017 C39.4337687,51.8777252 39.7427807,51.5500283 39.7313042,51.1573612 C39.6357931,47.9089416 39.9206191,44.6537878 40.5780995,41.4716663 C42.4695411,41.2251586 44.2942103,39.7110189 45.0849509,38.2016216 C45.5823293,37.2522017 45.6046184,36.3959218 45.1422386,35.7838732 C44.7556416,35.2844081 44.2328442,35.0230094 43.6238307,35.0310714 M34.6120438,59.4187555 C27.5380597,59.4187555 20.8875681,56.6640153 15.8856146,51.6619669 C10.8834714,46.6599186 8.12873116,40.009427 8.12873116,32.9354429 C8.12873116,25.8615537 10.8834714,19.2109672 15.8856146,14.2089189 C20.8875681,9.2069654 27.5380597,6.45222514 34.6120438,6.45222514 C41.6860278,6.45222514 48.3365194,9.2069654 53.3384729,14.2089189 C58.3406161,19.2109672 61.0953564,25.8615537 61.0953564,32.9354429 C61.0953564,40.009427 58.3406161,46.6599186 53.3384729,51.6619669 C48.3365194,56.6640153 41.6860278,59.4187555 34.6120438,59.4187555 L34.6120438,59.4187555 Z M44.8165525,62.2065026 C44.8165525,63.6198198 40.8229189,65.5912175 34.3189661,65.5912175 C27.8150134,65.5912175 23.8213798,63.6198198 23.8213798,62.2065026 L23.8213798,58.6859665 C27.1934801,60.0991889 30.8455691,60.8414626 34.6120438,60.8414626 C38.1613185,60.8414626 41.609012,60.1818956 44.8165525,58.9233689 L44.8165525,62.2065026 Z M34.3189661,77.454413 C32.0576207,77.454413 30.1002603,77.2159673 28.5082511,76.8456841 C28.3778363,76.6958256 28.1860554,76.600599 27.9717957,76.600599 C27.8850105,76.600599 27.8023987,76.6169128 27.7255725,76.6453669 C25.225971,75.9421702 23.8213798,74.9078622 23.8213798,74.069698 L23.8213798,70.7499534 C25.972418,72.3449977 30.2359865,73.1862918 34.3189661,73.1862918 C38.4019457,73.1862918 42.6655142,72.3449977 44.8165525,70.7499534 L44.8165525,74.069698 C44.8165525,75.4831101 40.8229189,77.454413 34.3189661,77.454413 L34.3189661,77.454413 Z M34.6120438,83.2408472 C31.6964428,83.2408472 29.2673127,81.1247127 28.77572,78.3480627 C30.5117072,78.697859 32.4345432,78.87712 34.3189661,78.87712 C36.4270386,78.87712 38.5830089,78.6527117 40.4718896,78.2162252 C40.0353083,81.0577506 37.5739302,83.2408472 34.6120438,83.2408472 L34.6120438,83.2408472 Z M44.8165525,68.3788698 C44.8165525,69.7922818 40.8229189,71.7635847 34.3189661,71.7635847 C27.8150134,71.7635847 23.8213798,69.7922818 23.8213798,68.3788698 L23.8213798,64.5774913 C25.972418,66.1726305 30.2359865,67.0139246 34.3189661,67.0139246 C38.4019457,67.0139246 42.6655142,66.1726305 44.8165525,64.5774913 L44.8165525,68.3788698 Z M62.5180635,32.9354429 C62.5180635,25.4815012 59.6152668,18.4737204 54.3446114,13.2029702 C49.0738611,7.93221987 42.0659855,5.02951807 34.6120438,5.02951807 C27.1581021,5.02951807 20.1502265,7.93221987 14.8794762,13.2029702 C9.60882074,18.4737204 6.7060241,25.4815012 6.7060241,32.9354429 C6.7060241,40.3894795 9.60882074,47.3972602 14.8794762,52.6680105 C17.1076251,54.8961595 19.6472521,56.6992984 22.3986727,58.0406266 L22.3986727,74.069698 C22.3986727,75.8735009 24.4482245,77.1975669 27.2932592,77.994188 C27.6387874,81.7290786 30.7884711,84.6635542 34.6120438,84.6635542 C38.496698,84.6635542 41.6851742,81.6342315 41.9444863,77.8141682 C44.473111,77.0047427 46.2392595,75.7440345 46.2392595,74.069698 L46.2392595,58.3178648 C49.2167009,56.952066 51.959111,55.0535109 54.3446114,52.6680105 C59.6152668,47.3972602 62.5180635,40.3894795 62.5180635,32.9354429 L62.5180635,32.9354429 Z" id="Fill-1" fill="#003A80" transform="translate(34.612044, 44.846536) rotate(10.000000) translate(-34.612044, -44.846536) "></path>
                    </g>
                </g>
            </g>
        </g>
    </g>
</svg>