<?xml version="1.0" encoding="UTF-8"?>
<svg width="162px" height="162px" viewBox="0 0 162 162" version="1.1" xmlns="http://www.w3.org/2000/svg" xmlns:xlink="http://www.w3.org/1999/xlink">
    <title>Group</title>
    <g id="I---Marque" stroke="none" stroke-width="1" fill="none" fill-rule="evenodd">
        <g id="I.1.4---La-marque---Nos-engagements" transform="translate(-602.000000, -1762.000000)">
            <g id="//-Content" transform="translate(0.000000, 570.000000)">
                <g id="01" transform="translate(0.500000, 0.000000)">
                    <g id="pictos" transform="translate(178.500000, 1193.000000)">
                        <g id="Group" transform="translate(424.000000, 0.000000)">
                            <g transform="translate(47.000000, 47.000000)" fill="#00B695" id="icon/laurier-copy-6">
                                <path d="M34.8690872,16.9401101 C31.4895322,13.0775024 27.2832298,10.1346575 22.3341246,8.17539958 C22.1301177,8.09491827 21.9061554,8.09838161 21.7034678,8.18562466 C21.50144,8.27319755 21.3455899,8.43416015 21.2646139,8.63899166 L20.7182316,10.0187182 C20.6370906,10.2235497 20.6405539,10.4478419 20.7281268,10.6500347 C20.8155348,10.8520625 20.9764974,11.0080775 21.1814938,11.0892185 C27.5187366,13.5979921 32.4276012,17.7856585 35.7817583,23.5417207 C34.1157294,23.4924094 31.4367576,23.1572906 28.59303,21.7724515 C23.3955542,19.2415784 19.6965479,14.307481 17.5926545,7.10127107 C23.3256278,6.97609626 27.875625,8.45147682 31.115657,11.487337 C32.6784455,12.9516679 33.9354711,14.7791542 34.8690872,16.9401101 Z M57.7938889,26.5160655 C58.8569677,25.6850301 60.187218,25.3177517 61.536929,25.4823426 C62.8874646,25.6474282 64.0903962,26.325747 64.9244002,27.3921243 C65.7582392,28.4583366 66.1265071,29.7892466 65.9614215,31.1396173 C65.7989746,32.4673938 65.1381374,33.6559773 64.1004564,34.4880022 L64.1004564,34.4880022 L43.6354469,53.0595572 C43.6215936,53.0720911 43.6064209,53.0851199 43.5912482,53.0969942 L43.5912482,53.0969942 L43.5706331,53.1131564 C42.1323597,54.2458317 40.3314256,54.8697267 38.4998164,54.8697267 L38.4998164,54.8697267 L25.9183461,54.8697267 C23.5845533,54.8697267 21.3614223,55.7484242 19.6589459,57.3441969 L19.6589459,57.3441969 L14.6357253,62.3865269 C14.4828438,62.5301729 14.2824652,62.6094997 14.0720264,62.6094997 C13.8449306,62.6094997 13.625751,62.5145054 13.4703957,62.348925 L13.4703957,62.348925 L12.4553088,61.2658908 C12.3045713,61.1047633 12.2255742,60.8949842 12.2322267,60.6751449 C12.2399223,60.4549757 12.3324429,60.2509688 12.4929107,60.1002313 L12.4929107,60.1002313 L17.5161313,55.0577363 C19.8019322,52.9157463 22.7860073,51.7362335 25.9183461,51.7362335 L25.9183461,51.7362335 L38.4998164,51.7362335 C39.613196,51.7362335 40.7109082,51.3620284 41.5924093,50.6822253 L41.5924093,50.6822253 L62.0537905,32.1139688 C62.0681386,32.10094 62.0829815,32.0884061 62.0981542,32.0765318 L62.0981542,32.0765318 L62.1182745,32.0606994 C62.5277726,31.7405883 62.7875227,31.2786454 62.8511821,30.7591452 C62.9145116,30.23981 62.7741641,29.7295453 62.4558672,29.322521 C62.1377351,28.9153318 61.676287,28.6562414 61.1566219,28.592582 C60.6379463,28.5289226 60.1271869,28.6691052 59.7198328,28.987732 L59.7198328,28.987732 L48.0084841,38.079975 C47.6497816,38.3591858 47.1307762,38.2937123 46.8515654,37.9346799 L46.8515654,37.9346799 L45.9412032,36.7620937 C45.8059682,36.5879375 45.7467617,36.3717265 45.7743034,36.1533714 C45.8015154,35.9378201 45.9153106,35.7381011 46.0866632,35.6050101 L46.0866632,35.6050101 Z M15.4585807,4.07283228 C23.0150821,3.48241618 29.0076406,5.21111494 33.2693564,9.2114314 C38.906181,14.5022523 39.6643214,22.0264293 39.7594806,24.3503269 C41.2291391,26.1519358 43.5706331,28.987732 43.8403774,35.2376987 C45.1768947,36.1944037 45.9690088,37.724538 45.9690088,39.3706114 C45.9690088,42.1731089 43.6889802,44.4531375 40.8864827,44.4531375 L40.8864827,44.4531375 L27.8147033,44.4531375 C27.3600169,44.4531375 26.9900998,44.0832204 26.9900998,43.628534 L26.9900998,43.628534 L26.9900998,42.1442478 C26.9900998,41.6895614 27.3600169,41.3196443 27.8147033,41.3196443 L27.8147033,41.3196443 L40.8864827,41.3196443 C41.961106,41.3196443 42.8355155,40.4452347 42.8355155,39.3706114 C42.8355155,38.2958233 41.961106,37.4214137 40.8864827,37.4214137 L40.8864827,37.4214137 L19.9117034,37.4214137 C17.9443644,37.4214137 16.0707003,38.1620726 14.6357253,39.5073307 L14.6357253,39.5073307 L2.40388698,51.7362335 C2.25100549,51.8798794 2.05062684,51.9592063 1.84018803,51.9592063 C1.61325715,51.9592063 1.39391262,51.8642119 1.23855732,51.6986316 L1.23855732,51.6986316 L0.223470424,50.6155973 C0.072732906,50.4544698 -0.00626410853,50.2446907 0.000388343923,50.0248514 C0.00808399222,49.8046823 0.100604504,49.6006754 0.261072344,49.4499378 L0.261072344,49.4499378 L12.4927458,37.2207052 C13.5907878,36.1920948 14.9141115,35.3915698 16.3342436,34.8944988 C16.4937037,33.6156824 21.1388908,34.4880022 24.8822274,34.4880022 L24.8822274,34.4880022 L40.5971355,34.4880022 C40.8214182,30.5646146 37.7143383,27.4870377 37.3602143,26.6499811 C36.9985432,26.6740595 36.6193906,26.6862637 36.2293531,26.6862637 C34.0840647,26.6862637 30.7797135,26.3226135 27.2210547,24.5896268 C24.3098745,23.1719685 21.7702607,21.0814337 19.6726343,18.3760746 C17.1496775,15.1221892 15.2606758,10.9597557 14.0579092,6.0043835 L14.0579092,6.0043835 L13.852418,5.15718587 C13.7953554,4.92184404 13.8441719,4.67446299 13.9864985,4.47837228 C14.1284952,4.28261141 14.3484994,4.15941565 14.5899433,4.14061469 L14.5899433,4.14061469 Z" id="Fill-1"></path>
                            </g>
                            <circle id="Oval-Copy-3" stroke="#00B695" stroke-width="1.012" cx="80" cy="80" r="80"></circle>
                        </g>
                    </g>
                </g>
            </g>
        </g>
    </g>
</svg>