<?xml version="1.0" encoding="UTF-8"?>
<svg width="162px" height="162px" viewBox="0 0 162 162" version="1.1" xmlns="http://www.w3.org/2000/svg" xmlns:xlink="http://www.w3.org/1999/xlink">
    <title>Group 9</title>
    <g id="I---Marque" stroke="none" stroke-width="1" fill="none" fill-rule="evenodd">
        <g id="I.1.4---La-marque---Nos-engagements" transform="translate(-203.000000, -2055.000000)">
            <g id="//-Content" transform="translate(0.000000, 570.000000)">
                <g id="01" transform="translate(0.500000, 0.000000)">
                    <g id="pictos" transform="translate(178.500000, 1193.000000)">
                        <g id="Group-9" transform="translate(25.000000, 293.000000)">
                            <circle id="Oval-Copy-2" stroke="#003A80" stroke-width="1.012" cx="80" cy="80" r="80"></circle>
                            <g id="icon/laurier" transform="translate(43.000000, 43.000000)" fill="#003A80">
                                <path d="M43.1367809,4.29411765 C44.1091271,4.29411765 44.8973694,5.08235995 44.8973694,6.0547061 C44.8973694,7.02705225 44.1091271,7.81529455 43.1367809,7.81529455 C42.1644348,7.81529455 41.3761925,7.02705225 41.3761925,6.0547061 C41.3761925,5.08235995 42.1644348,4.29411765 43.1367809,4.29411765 Z M29.1808984,0 C30.7461384,0 32.0150161,1.26887771 32.0150161,2.83411769 C32.0150161,4.39935767 30.7461384,5.66823538 29.1808984,5.66823538 C27.6156584,5.66823538 26.3467807,4.39935767 26.3467807,2.83411769 C26.3467807,1.26887771 27.6156584,0 29.1808984,0 Z M62.7125895,58.4612341 L47.8226078,31.65864 L47.9325586,19.3235294 L49.9644278,19.3235294 C51.1502156,19.3235294 52.1114866,18.3622584 52.1114866,17.1764706 C52.1114866,15.9906827 51.1502156,15.2800977 49.9644278,15.2800977 L24.1997219,15.2800977 C23.013934,15.2800977 22.0526631,15.9906827 22.0526631,17.1764706 C22.0526631,18.3622584 23.013934,19.3235294 24.1997219,19.3235294 L26.231591,19.3235294 L26.3415419,31.65864 L11.4515601,58.4622647 C9.76780301,61.4930734 9.69335536,65.7953722 11.4515601,68.7836084 C13.2097649,71.7718446 16.538098,73 20.0052063,73 L54.1589433,73 C57.6262396,73 60.954382,71.7720611 62.7125895,68.7836084 C64.470797,65.7951557 64.3965431,61.4921487 62.7125895,58.4612341 Z M29.1808984,33.0748203 C29.380071,32.7329617 29.4830062,32.3477737 29.4796856,31.956745 L29.3528907,18.4140487 L44.725377,18.4140487 L44.5985822,31.956745 C44.5952735,32.3477723 44.6982079,32.7329574 44.8973694,33.0748203 L53.9323876,48.4148975 C49.2114477,48.9285352 43.8423016,47.3916666 39.2621679,46.1033496 C34.3481137,44.731452 28.34362,43.8133286 23.2253368,43.6706104 L29.1808984,33.0748203 Z M53.9323876,70.2946624 L20.5609081,70.2946624 C18.547409,70.2942363 15.8033265,69.1802184 14.7822167,67.365996 C13.761107,65.5517737 12.8972389,62.6762544 13.874707,60.8359473 L21.4505956,47.0411572 C26.3467807,47.0411572 32.7367785,47.3065272 37.6642236,48.9285352 C43.0085457,50.68777 49.5534317,51.6050579 55.2494531,51.5288037 L60.3651562,60.8359473 C61.3539996,62.6736499 60.3845788,65.5546873 59.3521386,67.365996 C58.3389889,69.1886032 55.9487423,70.3056814 53.9323876,70.2946624 Z" id="Shape" transform="translate(37.082112, 36.500000) scale(-1, 1) translate(-37.082112, -36.500000) "></path>
                            </g>
                            <polygon id="Rectangle" fill="#003A80" transform="translate(79.955429, 79.564212) rotate(60.000000) translate(-79.955429, -79.564212) " points="75.4554289 0.230016438 77.09201 0.230016438 84.4554289 158.898408 82.8188478 158.898408"></polygon>
                        </g>
                    </g>
                </g>
            </g>
        </g>
    </g>
</svg>