<?xml version="1.0" encoding="UTF-8"?>
<svg width="162px" height="162px" viewBox="0 0 162 162" version="1.1" xmlns="http://www.w3.org/2000/svg" xmlns:xlink="http://www.w3.org/1999/xlink">
    <title>Group 7 Copy</title>
    <g id="I---Marque" stroke="none" stroke-width="1" fill="none" fill-rule="evenodd">
        <g id="I.1.4---La-marque---Nos-engagements" transform="translate(-1003.000000, -2055.000000)">
            <g id="//-Content" transform="translate(0.000000, 570.000000)">
                <g id="01" transform="translate(0.500000, 0.000000)">
                    <g id="pictos" transform="translate(178.500000, 1193.000000)">
                        <g id="Group-7-Copy" transform="translate(825.000000, 293.000000)">
                            <circle id="Oval" stroke="#003A80" stroke-width="1.012" cx="80" cy="80" r="80"></circle>
                            <g id="icon/laurier-copy-8" transform="translate(48.000000, 48.000000)" fill="#003A80">
                                <path d="M32.5111926,0 C46.7409217,0 59.6685301,3.30118162 63.7,7.30778566 L63.7,7.30778566 L63.7,23.7776376 C63.7,33.6428929 60.2788234,42.902422 53.580914,51.2956519 C48.1422351,58.0839785 38.1303675,65 32.467129,65 C26.7409761,65 16.7269878,58.0813869 11.3361427,51.2742124 C4.60218125,43.0148029 1.3,33.763991 1.3,23.7776376 L1.3,23.7776376 L1.3,7.30778566 C5.32864227,3.30400882 18.27086,0 32.5111926,0 Z M32.5098495,3.30332031 C19.9783568,3.30332031 8.05998166,6.2738441 4.51477646,9.78935547 L4.51477646,24.904755 C4.51477646,33.6732604 7.42069596,41.7959245 13.346582,49.0480889 C18.0905257,55.0251202 27.432059,61.7128662 32.4710735,61.7128662 C37.4547234,61.7128662 46.7096552,55.0273958 51.4956926,49.0669139 C57.3898528,41.6972486 60.4004883,33.5669303 60.4004883,24.904755 L60.4004883,9.78935547 C56.8527948,6.27136168 45.0320111,3.30332031 32.5098495,3.30332031 Z" id="Combined-Shape"></path>
                                <path d="M26.13,40.3 L26.13,17.55 L22.75,17.55 C20.995,19.2616667 19.0125,20.3775 16.8025,20.8975 L16.8025,20.8975 L16.8025,24.83 C18.7308333,24.4616667 20.475,23.66 22.035,22.425 L22.035,22.425 L22.035,40.3 L26.13,40.3 Z M38.6425,40.56 C41.5025,40.56 43.7558333,39.5091667 45.4025,37.4075 C47.0491667,35.3058333 47.8725,32.4783333 47.8725,28.925 C47.8725,25.3716667 47.0491667,22.5441667 45.4025,20.4425 C43.7558333,18.3408333 41.5025,17.29 38.6425,17.29 C35.7825,17.29 33.5291667,18.3408333 31.8825,20.4425 C30.2358333,22.5441667 29.4125,25.3716667 29.4125,28.925 C29.4125,32.4783333 30.2358333,35.3058333 31.8825,37.4075 C33.5291667,39.5091667 35.7825,40.56 38.6425,40.56 Z M38.6425,36.725 C37.1041667,36.725 35.9233333,36.0425 35.1,34.6775 C34.2766667,33.3125 33.865,31.395 33.865,28.925 C33.865,26.455 34.2766667,24.5320833 35.1,23.15625 C35.9233333,21.7804167 37.1041667,21.0925 38.6425,21.0925 C40.1808333,21.0925 41.3670833,21.7804167 42.20125,23.15625 C43.0354167,24.5320833 43.4525,26.455 43.4525,28.925 C43.4525,31.395 43.0354167,33.3125 42.20125,34.6775 C41.3670833,36.0425 40.1808333,36.725 38.6425,36.725 Z" id="10"></path>
                            </g>
                        </g>
                    </g>
                </g>
            </g>
        </g>
    </g>
</svg>