<?xml version="1.0" encoding="UTF-8"?>
<svg width="190px" height="171px" viewBox="0 0 190 171" version="1.1" xmlns="http://www.w3.org/2000/svg" xmlns:xlink="http://www.w3.org/1999/xlink">
    <title>cta</title>
    <g id="A---Homepage" stroke="none" stroke-width="1" fill="none" fill-rule="evenodd">
        <g id="A.1.0---Homepage---Particulier-01" transform="translate(-96.000000, -3619.000000)">
            <g id="//-Nos-engagements" transform="translate(0.000000, 3547.000000)">
                <g id="cta" transform="translate(96.000000, 72.000000)">
                    <circle id="Oval-Copy" stroke="#002A5D" stroke-width="1.012" cx="87.285" cy="94.415" r="75.9"></circle>
                    <path d="M74,44 L92.0712891,18.515 C109.472121,15.4545309 119.731561,14.7994658 122.849609,16.5498047 C146.875965,30.0371714 159.712553,49.1773779 161.359375,73.9704242 L146.25293,99.1328923 L74,113 L74,44 Z" id="Rectangle" fill="#FFFFFF"></path>
                    <path d="M112.753236,117.722413 C104.371692,119.927732 94.9654733,122.921794 81.3015845,127.731918 C79.0242697,128.533218 70.9667244,129.513101 64.4928103,130.299519 C59.5363291,130.901773 55.2558164,131.422176 53.9490992,131.793294 C51.6904318,132.433218 48.9898209,131.634709 48.0504577,130.047921 C47.2416263,128.681572 48.1175883,127.343127 48.9944827,126.460442 C50.5636622,124.88156 57.2660071,123.475216 63.1791004,122.234899 C68.0153058,121.220136 72.5834548,120.262111 75.3344137,119.127362 C79.5715712,117.379664 83.2446445,115.801247 87.1335616,114.130283 C90.8882173,112.517452 94.7706078,110.849279 99.2725585,108.985315 C99.6296564,108.837426 99.7984154,108.429568 99.6506347,108.073331 C99.5023878,107.717094 99.092611,107.548742 98.7364455,107.696167 C94.2256373,109.564316 90.3390512,111.234349 86.5801997,112.849041 C82.6964107,114.517679 79.027533,116.094235 74.8001655,117.838214 C73.6048666,118.331178 71.977414,118.804145 70.1317867,119.26316 C70.0175713,119.115271 69.8460152,119.012027 69.6446231,118.99296 C67.2885231,118.771126 64.8140119,118.592077 62.1931186,118.402797 C53.1715023,117.751247 42.9527223,117.013196 35.5576262,114.181905 C35.2494778,113.881011 35.0807187,113.521054 35.0807187,113.157376 C35.0807187,112.761609 35.280246,112.370028 35.6611193,112.037045 C39.9807915,107.980319 48.3096566,108.890908 56.3644048,109.772663 C60.673821,110.244235 64.7440841,110.689763 68.1118062,110.363291 C74.3302508,109.725227 79.218669,108.220755 84.3937911,106.628387 C86.8319398,105.877314 89.3535356,105.101592 92.1142845,104.385863 C92.488165,104.288666 92.7124001,103.908246 92.6149674,103.535267 C92.5180009,103.161823 92.1352628,102.940454 91.7623146,103.035327 C88.9712637,103.759426 86.43475,104.539799 83.9816833,105.294592 C78.8741581,106.866498 74.0496073,108.351437 67.9724168,108.974619 C65.8219044,109.182501 63.3180236,109.053679 60.6332629,108.809057 C60.5591394,108.703023 60.4551801,108.616057 60.326513,108.56397 C52.355212,105.326216 44.2822826,101.60573 38.1771209,98.3572797 C37.5048819,97.9996479 36.8498916,97.6894523 36.271822,97.4155314 C34.3404166,96.4998266 33.3353213,95.9808187 33.4024519,95.0911573 C33.4751768,94.1280163 33.8057021,93.4536781 34.4131415,93.0300077 C35.5599571,92.2314982 37.7878563,92.2663777 40.8572198,93.1332512 C43.7960514,93.9629197 46.6108777,94.9911692 49.3329332,95.9854693 C51.9314496,96.9346585 54.618075,97.9159369 57.3853505,98.7130512 C65.5990678,101.078351 76.8816825,101.551783 84.8236138,99.8650069 C85.2012239,99.7850165 85.4422416,99.414363 85.3620578,99.0371986 C85.2814077,98.6604993 84.9093919,98.4191328 84.5322481,98.5005184 C79.46295,99.5771343 72.9964949,99.7440911 66.8834081,99.0864951 C66.8642945,99.0590565 66.8545046,99.0274323 66.8307292,99.001854 C64.736159,96.7858391 62.4201508,94.6256314 60.1801309,92.536113 C57.1755671,89.7331913 54.0689088,86.8358622 51.3505828,83.6822846 C51.2219157,83.4730072 51.0456977,83.257219 50.8447719,83.0102717 C50.3855794,82.4466179 49.7566956,81.675082 49.8466693,81.0388787 C49.8951526,80.6938036 50.1646076,80.3487285 50.6475755,80.0124895 C52.8619553,78.4731381 56.5280359,79.7976313 58.8529015,81.8252966 C63.0970518,85.5267159 70.2003159,91.7213264 76.0896338,92.7277181 C76.1423127,92.7365543 76.195924,92.7398097 76.2495353,92.7360892 L80.9901728,92.4524021 C81.0689581,92.4472864 81.1426154,92.4272888 81.2116108,92.3993851 C83.9136203,94.6367929 86.9139884,96.5616797 90.1684274,98.1066119 L91.6359784,98.7702537 C91.9730303,98.9153527 92.3128794,99.0539408 92.6536608,99.1902036 C94.2671278,99.8338479 95.921153,100.38169 97.5933593,100.820242 C101.137766,101.755014 104.816433,102.228911 108.526335,102.228911 C114.167176,102.228911 119.640657,101.144854 124.709023,99.078124 C123.511393,101.057423 122.659672,103.069741 121.898858,104.871387 C121.067184,106.839524 120.349258,108.538857 119.407564,109.736854 C118.366573,111.062277 117.366605,112.206792 116.399271,113.314102 C115.079967,114.824154 113.878608,116.204455 112.864189,117.704276 C112.82736,117.707996 112.790531,117.712647 112.753236,117.722413 M67.449357,63.5744487 C67.9742815,63.6688561 68.5010708,63.7390803 69.0171378,63.8074442 C70.5606771,64.0130011 72.0189045,64.2069315 73.1946236,64.9835831 C73.5400668,65.212393 73.8631332,65.4937548 74.2053131,65.7923239 C74.6836192,66.2090184 75.1782417,66.6401298 75.7814854,66.9638122 C76.4131663,67.3033066 77.1683864,67.451196 77.8560096,67.3698103 C78.3459702,67.3116777 78.7095947,67.5828082 78.8853465,67.856264 C78.9869749,68.0134545 79.1916302,68.4306141 78.9039939,68.9021858 C78.8979335,68.9119521 78.8923393,68.9212533 78.8867451,68.9314846 C78.8867451,68.9319497 78.8867451,68.9324148 78.8862789,68.9328798 C78.8093583,69.0528655 78.7119256,69.1756416 78.6093649,69.3058586 C78.4037772,69.5662927 78.1702184,69.8616063 78.018242,70.2350502 C77.8112558,70.7391762 77.8019321,71.2553937 77.8224442,71.7399871 C77.9748868,75.1684157 79.6582816,78.5103429 82.3262596,80.6793867 C82.9103897,81.1532837 83.5397398,81.575559 84.1490438,81.9843475 C85.4049468,82.8279678 86.5918544,83.6246171 87.3163062,84.7900595 C87.9302721,85.7806392 88.1764179,87.0065395 88.4141724,88.1915146 L90.0584077,96.4221615 C77.3483339,90.0778014 68.8003617,77.6750936 67.449357,63.5744487 M67.3276826,61.9904515 C67.3076367,61.6411908 67.2917864,61.2886747 67.2805979,60.9342983 C67.2787332,60.8617488 67.2768684,60.7891993 67.2750037,60.7166498 C67.2652138,60.3506469 67.2586872,59.9827838 67.2586872,59.6144556 C67.2586872,59.5693447 67.2605519,59.5242338 67.2605519,59.4791229 C67.6083261,60.0125477 68.1360478,60.282748 68.8395213,60.2841432 C69.7662975,60.2841432 70.6180179,59.7446726 71.0622924,58.875939 C71.3261532,58.3592564 72.0370857,57.7886267 72.4706379,57.7453761 C72.58159,57.7351447 72.6058317,57.7635134 72.6384646,57.8044388 C72.7629361,57.9616294 72.6002374,58.3434443 72.3564226,58.8657076 C72.0422137,59.5381856 71.6520167,60.3739 72.0081822,61.2310071 C72.1433759,61.5574798 72.493481,61.7416439 72.8412552,61.6672342 C73.0552342,61.6216582 73.2715441,61.5984052 73.4873879,61.5984052 C74.0076506,61.5951498 74.456587,62.0127744 74.5027393,62.5471293 C74.5745318,63.3586605 74.9968956,64.1604254 75.634637,64.6933851 C76.4607172,65.3821402 77.628045,65.7207045 79.0093518,65.6718732 C79.3091089,65.6616418 79.5725035,65.4705018 79.6745981,65.18914 C80.0135148,64.2562279 81.1738498,63.7497767 83.329024,63.5953765 L86.0468839,63.3977256 C87.2631611,63.3102942 88.3330562,63.2809953 89.1064574,63.8013984 C89.2850064,63.9213841 89.4593597,64.0813651 89.643969,64.2501821 C89.9311391,64.5120114 90.2565364,64.8096503 90.670975,65.0198578 C91.3245667,65.3505161 92.0387625,65.3853957 92.6685787,65.4160897 C93.2895374,65.4467837 93.8251842,65.4728271 94.184613,65.7430275 C94.4270293,65.9267265 94.6130372,66.2490137 94.8102336,66.5908334 C94.9230504,66.7856939 95.0391305,66.9875303 95.1780537,67.1870414 C96.0577452,68.4468912 97.5882313,69.2491212 99.85529,69.6383771 C100.208192,69.6997652 100.566689,69.7532472 100.91353,69.8039388 C102.151252,69.9862426 103.320445,70.1587802 104.332067,70.6894146 C105.443918,71.2712058 106.402395,72.6073256 106.012198,73.7504451 C105.917096,74.0280865 105.742277,74.307123 105.557668,74.6033667 C105.291942,75.0288974 104.99032,75.5111655 104.869112,76.095747 C104.678908,77.012847 104.983794,77.8564674 105.253249,78.6010298 C105.410353,79.0349316 105.5586,79.4446502 105.605685,79.8371615 C105.812205,81.5518409 104.116689,83.0102717 103.086886,83.7278606 L102.98246,83.8013402 C102.525133,84.1185117 102.006735,84.4789338 101.665487,85.0463081 C101.213754,85.7997066 101.233334,86.6368162 101.250116,87.3757979 C101.255244,87.598562 101.260372,87.8087695 101.252913,88.0092107 C101.21422,89.081176 100.747569,90.1577919 99.9732349,90.9628122 C99.3410877,91.618548 98.9550864,92.4682141 98.8567213,93.4197286 C98.8068395,93.9052522 98.4185072,94.5428506 98.0427619,95.1585912 C97.7085071,95.707363 97.3625977,96.2747372 97.1509496,96.8718753 C96.8880211,97.6155076 96.8731032,98.3949496 96.9285792,99.1134686 C96.7346462,99.0571962 96.5411793,99.0004588 96.3481786,98.9413961 C96.3244032,98.9344202 96.3006277,98.9274443 96.2763861,98.9195382 C96.021849,98.8409429 95.7682442,98.7595573 95.5151056,98.6753813 C95.440516,98.6507331 95.3663925,98.6251547 95.2918029,98.6000414 C95.1104569,98.5386534 94.9291108,98.4763352 94.7482309,98.4126219 C94.6629191,98.3823929 94.5776072,98.352164 94.4918291,98.3210049 C94.3132801,98.2568265 94.1347312,98.1907879 93.9571146,98.1233541 C93.8820588,98.0954504 93.8060706,98.0675468 93.7310148,98.038713 C93.4820719,97.9433755 93.2335952,97.8461778 92.986517,97.7457246 C92.9729976,97.7401439 92.9594783,97.7345632 92.9459589,97.7294475 C92.7128663,97.6345751 92.480706,97.5369123 92.2499444,97.4378544 C92.1706929,97.40437 92.0923738,97.3694904 92.0135885,97.3350759 C91.9128925,97.2908951 91.8131288,97.2462493 91.712899,97.2016035 L89.8551509,87.904572 C89.6043433,86.6530933 89.3199703,85.2351228 88.5656826,84.0185236 C87.6748026,82.584741 86.2995562,81.6620603 84.969996,80.7691435 C84.3616243,80.36082 83.7868179,79.9748195 83.2549006,79.542778 C80.9067256,77.6341683 79.425189,74.6926584 79.2909277,71.6762738 C79.2774083,71.3600324 79.2788069,71.0326295 79.3795029,70.7884726 C79.4536263,70.6057037 79.6051365,70.4140986 79.7645719,70.2117972 C79.8881109,70.0550716 80.0158457,69.8932305 80.1342567,69.7076712 C80.1412495,69.6960447 80.1445128,69.6904639 80.1510394,69.6788374 C80.157566,69.668141 80.1636264,69.6574446 80.1696868,69.6476783 C80.65079,68.8449833 80.6330749,67.856729 80.1221359,67.0642653 C79.591151,66.2401775 78.6564496,65.8002299 77.6830549,65.9151 C77.2956549,65.9606759 76.8448538,65.8704541 76.4779661,65.6737334 C76.0211046,65.4286463 75.6089968,65.0691543 75.1731136,64.6891996 C74.8099554,64.3724931 74.4342101,64.0450903 74.0067182,63.7623333 C72.5489571,62.7987272 70.8520429,62.5731727 69.2115371,62.3545941 C68.559344,62.2685579 67.9355881,62.185312 67.3318783,62.0602106 C67.3304797,62.0369576 67.3290812,62.0141696 67.3276826,61.9904515 M67.7808146,53.0784905 C67.7910707,53.0157072 67.8022592,52.952924 67.8129814,52.8896758 C67.8484115,52.6734225 67.8857063,52.4576342 67.9248659,52.2423111 C67.9416485,52.1497639 67.9593636,52.0576819 67.9766124,51.9651348 C68.0143734,51.7656237 68.0539992,51.5661126 68.0945573,51.3670665 C68.11134,51.2861459 68.1271903,51.2052254 68.1444391,51.1243048 C68.2013137,50.8550345 68.2605192,50.5866944 68.3225219,50.3183543 C68.3365074,50.2574314 68.3518915,50.1960433 68.3668095,50.1346553 C68.4171575,49.9221225 68.4684378,49.7105198 68.5225153,49.4989171 C68.5462908,49.4054399 68.5705324,49.3114976 68.5952402,49.2180204 C68.6446559,49.0282755 68.6959362,48.8389958 68.748149,48.649716 C68.7719244,48.5636797 68.7952337,48.4781085 68.8194753,48.3925374 C68.8935988,48.129778 68.9705193,47.8684138 69.050237,47.6075146 C69.067952,47.5498471 69.0865994,47.4931097 69.1047807,47.4354421 C69.1695804,47.2256997 69.2362449,47.0164223 69.3043079,46.808075 C69.3355423,46.7136677 69.3667768,46.6197254 69.3984774,46.5262482 C69.4595476,46.3453395 69.5215503,46.1644308 69.5849514,45.9839872 C69.616652,45.8956257 69.6469541,45.806799 69.6786547,45.7184375 C69.7704932,45.4635841 69.8641964,45.2091958 69.9611629,44.9557377 C69.9807427,44.904581 70.0012548,44.8534243 70.0213008,44.8022676 C70.1019508,44.5929902 70.1844656,44.384643 70.2693113,44.1762957 C70.3066062,44.0842137 70.3443672,43.9925967 70.3825943,43.9005146 C70.4548531,43.7261168 70.5285103,43.551719 70.6035661,43.3782513 C70.6413271,43.2894247 70.6795543,43.2010631 70.7182477,43.1122365 C70.8254703,42.8685446 70.9340915,42.6248527 71.0464421,42.382556 C71.0669542,42.3383752 71.0883988,42.2941945 71.1093771,42.2490836 C71.2086746,42.0370158 71.3098367,41.8249481 71.4123975,41.6142755 C71.4557527,41.5259139 71.4995741,41.4380174 71.5433955,41.3501209 C71.6277751,41.1803737 71.7135531,41.0106265 71.8007298,40.8413444 C71.8450174,40.7553081 71.8888388,40.6692719 71.9335926,40.5837007 C72.0506051,40.3595413 72.1694823,40.1367772 72.2911566,39.9154082 C72.3126012,39.8749479 72.334978,39.8349527 72.3568887,39.7954225 C72.4799616,39.5721933 72.6053655,39.3503593 72.732634,39.1294554 C72.7797187,39.0480697 72.8272696,38.9666841 72.8752867,38.8848334 C72.9736518,38.7169464 73.0729492,38.5499896 73.1736452,38.3830327 C73.2225947,38.3025772 73.2715441,38.2216566 73.3204936,38.1412011 C73.4500931,37.9305285 73.5815573,37.7207861 73.7144201,37.5119738 C73.7326013,37.4840701 73.7498502,37.4552363 73.7680314,37.4273327 C73.9176769,37.1943372 74.0710518,36.9627369 74.2258253,36.7325318 C74.2747747,36.6590522 74.3251227,36.5865027 74.3745384,36.5134881 C74.4882876,36.3465313 74.6029691,36.1809696 74.7190492,36.0154079 C74.7717282,35.9409982 74.8234747,35.8665885 74.8766198,35.7921787 C75.0197387,35.5917375 75.1637899,35.3926915 75.3106383,35.1950406 C75.332549,35.1652767 75.3535273,35.1355128 75.3759042,35.1057489 C75.5437309,34.8801944 75.7148209,34.6565001 75.8877756,34.433736 C75.9376574,34.3695576 75.9884716,34.3053792 76.0388196,34.2412008 C76.1688853,34.0761042 76.2998833,33.9119377 76.4322799,33.7487014 C76.487756,33.6808025 76.5422996,33.6133687 76.5977757,33.5454698 C76.7544139,33.3552599 76.9124507,33.1659801 77.0728184,32.9780955 C77.0984586,32.9483317 77.1227002,32.9181027 77.1483404,32.8883388 C77.1557994,32.8799677 77.1632583,32.8715966 77.1702511,32.8632255 C77.4149984,33.0906403 77.7031008,33.2803851 78.0303628,33.4268793 C78.992103,33.8542702 80.1244668,33.8100894 81.1402844,33.3050333 C82.7933772,32.4800154 83.633443,30.9983315 84.4460038,29.565014 C84.6916834,29.1320423 84.9238437,28.7227888 85.1779146,28.3326027 C85.3210335,28.1103037 85.4846645,27.9461372 85.6650782,27.845684 C85.9023664,27.7122116 86.3974551,27.4341052 87.3144415,28.4693306 C87.8319071,29.0553073 88.7102,29.19064 89.3549342,28.785572 C89.6546913,28.5990826 90.1194779,28.579085 90.4607255,28.7390659 C90.9837853,28.9832229 91.4201347,29.5324597 91.7590513,30.3714295 C92.1529778,31.3489874 92.135729,32.5744227 91.7170947,33.3510743 C91.4951905,33.7626532 91.1917039,34.0030897 90.7870552,34.0863356 C90.5250591,34.1402826 90.2141135,34.1193549 89.8859191,34.0970319 C89.2985258,34.0565717 88.5684797,34.0063451 87.8505545,34.4007167 C87.2156102,34.7499774 86.8650389,35.4112939 86.9564112,36.084702 C87.0762208,36.9766887 87.8048683,37.315253 88.2869038,37.5394123 C88.4845664,37.6314944 88.7544876,37.7570608 88.7675408,37.8370513 C88.7745336,37.880767 88.7367726,37.9551767 88.6631153,38.0012178 C88.3759452,38.1779409 88.0463523,38.1816614 87.5326161,38.1737553 C87.1508105,38.1677096 86.7186568,38.1607336 86.2781117,38.2793242 C85.0725568,38.6025414 84.4380787,39.6205596 83.8781902,40.5190572 C83.5574548,41.0334145 83.2544344,41.5194031 82.875892,41.8579674 C82.5938499,42.1095653 82.2292931,42.3146571 81.8432917,42.5313755 C81.1482096,42.9210965 80.3608228,43.3638344 79.9226086,44.2009439 C79.7207504,44.5855493 79.6331076,44.9878269 79.5552547,45.3426683 C79.4913873,45.6337964 79.4312494,45.9091124 79.3207635,46.1183898 C79.1198377,46.4988096 78.7123918,46.7741256 78.2406124,47.0936224 C77.9646307,47.2801118 77.6788592,47.4735771 77.4108027,47.7065726 C76.4700409,48.5255448 75.9451164,49.7751633 75.9716889,51.1359313 C75.9884716,52.0269879 76.2397454,52.8617721 76.6840199,53.5519224 C76.4886883,53.3696185 76.3208617,53.1101146 76.1446436,52.8375889 C76.0113147,52.631567 75.8733238,52.4181041 75.7087605,52.211617 C75.0113474,51.3345123 73.9512422,50.7848104 72.7237765,50.6648247 C72.5559498,50.6476174 72.387657,50.6397114 72.2188979,50.6397114 C71.0007559,50.6397114 69.787742,51.065242 68.8949973,51.8200358 C68.4605127,52.1874339 68.0852336,52.6283116 67.7742881,53.1240664 C67.776619,53.1082543 67.7784837,53.0933724 67.7808146,53.0784905 M85.1089192,25.7296572 C85.0487813,25.9147514 85.0292015,26.1133324 85.0623007,26.3114483 C85.0720906,26.3709761 85.0870085,26.4286436 85.1047235,26.484916 C85.0501799,26.5114245 84.9961024,26.5393281 84.944822,26.5681619 C84.5536926,26.7867405 84.2166407,27.1136783 83.94299,27.5373487 C83.6660759,27.9633444 83.412005,28.410733 83.1663254,28.8441697 C82.4302189,30.1430846 81.7342044,31.3699151 80.4829633,31.9944919 C79.8638693,32.3028272 79.1879007,32.3367766 78.6303432,32.0888992 C78.4392073,32.0037931 78.2788396,31.8949688 78.1478415,31.766147 C80.2391484,29.4975802 82.5742702,27.4731703 85.1089192,25.7296572 M86.9195826,25.8384814 C86.9200488,25.8384814 86.9200488,25.8380164 86.920515,25.8380164 C87.2832071,25.445505 87.3820383,24.8962681 87.177383,24.4056289 C87.1759845,24.4028386 87.1750521,24.4005133 87.1736535,24.3977229 C87.2095498,24.3767952 87.2445137,24.3549373 87.2794776,24.3340096 C87.492058,24.2065829 87.7055709,24.0805514 87.9200161,23.9563802 C87.9587094,23.9349874 87.9969366,23.9117343 88.03563,23.8898765 C88.2831743,23.7480329 88.5325834,23.6089797 88.7833911,23.4727169 C88.8472585,23.4378373 88.9111258,23.4034228 88.9749932,23.3694734 C89.1791823,23.259719 89.3843038,23.1513598 89.5898915,23.0448609 C89.6500294,23.0141669 89.7092349,22.9830078 89.7689066,22.9523138 C90.0225114,22.8230269 90.2770485,22.6965303 90.532518,22.5723591 C90.547436,22.5653832 90.5618877,22.5588723 90.5768056,22.5514313 C91.2331944,23.374124 91.6182634,24.4526001 90.9884472,25.3706302 C90.6416054,25.8775465 90.0257747,26.2300626 89.2994581,26.3379568 C88.408112,26.4704991 87.5265557,26.2723832 86.7447631,26.0170648 C86.8039687,25.9603274 86.8617756,25.9007996 86.9195826,25.8384814 M91.939465,21.9259245 C97.1742588,19.6303842 102.748902,18.4654067 108.526335,18.4654067 C114.033381,18.4654067 119.354885,19.5257455 124.371971,21.6120084 C123.357552,22.1138091 122.349193,22.7797762 121.394446,23.5857267 C120.767893,24.1140358 120.091458,24.7753523 119.820138,25.6724547 C119.517118,26.6709403 119.882141,28.0182216 121.000519,28.4539836 C121.452253,28.6283814 121.925897,28.6204754 122.343133,28.6144296 C122.567834,28.6107091 122.943579,28.6046633 123.034485,28.6744225 C123.034485,28.6744225 123.049869,28.7125575 123.039613,28.8078949 C122.876448,30.2588848 121.104945,31.0871581 120.063953,31.4513008 C119.818273,31.536872 119.567466,31.6187227 119.316192,31.7010385 C118.318089,32.0270461 117.285955,32.3642152 116.399737,32.9697245 C115.625404,33.4971035 115.372731,34.5802302 115.837518,35.3838553 C116.139606,35.9075138 116.252889,36.3516469 116.193217,36.7827583 C116.163381,37.0031972 116.065949,37.1971276 115.917236,37.3296699 C115.650578,37.5682461 115.357347,37.5491786 114.704688,37.4440749 C113.954596,37.3236241 112.927124,37.1585275 112.035777,38.0923697 C111.088955,39.0857397 111.085692,40.7836768 112.028785,41.7993697 C112.337399,42.1328183 112.704287,42.3890669 113.110334,42.5606743 C111.94627,43.3317452 110.921595,44.6790265 110.893157,45.9932884 C110.891293,46.0551415 110.891293,46.1174597 110.891293,46.1802429 C110.891293,46.3174358 110.891293,46.4727662 110.864254,46.5383398 C110.818568,46.6466989 110.568226,46.7890075 110.366368,46.9029475 C110.314155,46.9322463 110.261943,46.9620102 110.211128,46.991309 C108.795324,47.8181872 107.707248,49.3538181 107.226144,51.2042952 C106.771148,52.9505987 106.876039,54.7652661 107.018226,56.1506824 C107.418213,60.0516128 108.947767,62.6661849 111.325311,63.5135258 C112.938778,64.0902012 114.58348,63.7567526 116.173637,63.4344654 C116.544721,63.3586605 116.895758,63.2875062 117.247728,63.2275133 C118.84348,62.9540576 120.813113,63.1121782 121.552016,64.3757486 C121.904918,64.9798626 121.93895,65.7630251 121.97438,66.5926936 C122.01354,67.5042129 122.054098,68.4468912 122.503034,69.3277165 C122.738458,69.7918472 123.054997,70.1704067 123.360349,70.5364096 C123.696002,70.9382222 124.012542,71.3177118 124.137946,71.7288256 C124.355188,72.4394386 124.022798,73.2672469 123.670362,74.1434216 C123.256856,75.1726012 122.787873,76.3394389 123.169679,77.5490621 C123.304406,77.9741278 123.528175,78.3378053 123.725838,78.6596275 C123.795766,78.7735674 123.86616,78.8875073 123.930959,79.0019122 C124.522548,80.0585305 124.680119,81.3095442 124.84748,82.6340375 C124.8927,82.9884138 124.938386,83.3553468 124.993396,83.715769 C125.359817,86.1261794 126.255825,87.774355 127.658576,88.6161151 C128.371374,89.0439711 129.155963,89.2244147 129.939154,89.2244147 C131.230954,89.2244147 132.519023,88.7328454 133.473771,88.0487409 C135.061598,86.9121322 136.109116,85.2388433 137.033095,83.7622751 C137.502543,83.0102717 138.08714,82.0754994 138.151939,80.987257 C138.16779,80.7384494 138.155669,80.5021985 138.144014,80.2733886 C138.125833,79.9125014 138.110449,79.6009106 138.210213,79.3800067 C138.337947,79.0958545 138.68712,78.8861121 139.090837,78.6433503 C139.316936,78.5075526 139.550495,78.3675692 139.775196,78.1954967 C140.792413,77.4127993 141.410108,76.0776096 141.471178,74.5317474 C141.516864,73.3644446 141.267921,72.2459733 141.02737,71.1642418 L140.960705,70.8638125 C140.836234,70.2987635 140.742065,69.7969629 140.85022,69.370037 C140.915952,69.110068 141.072124,68.8463785 141.199858,68.6468674 C141.858112,67.6237335 142.76997,66.7922047 143.734974,65.9123096 C144.249176,65.4435283 144.780627,64.9589349 145.274783,64.439927 C147.153044,62.4657437 147.939964,60.2501938 147.43462,58.3629769 C147.381008,58.1606754 147.217377,57.5440047 146.651895,57.2356694 C146.555394,57.1831175 146.457962,57.1445174 146.361461,57.1175439 C146.574508,57.0412739 146.786622,56.9594232 146.997338,56.8710617 C147.816891,56.5273817 148.804272,55.9772147 149.549236,55.1415004 C149.71007,56.6245794 149.792584,58.1206802 149.792584,59.6144556 C149.792584,70.5922169 145.289235,81.3602358 136.678328,89.9457241 C131.706463,91.427408 128.520553,93.9596643 126.301977,96.770027 C120.821504,99.3822738 114.780676,100.763039 108.526335,100.763039 C105.11013,100.763039 101.722362,100.34681 98.4474107,99.5255125 C98.360234,98.7949019 98.3061565,98.0135997 98.5373844,97.3597241 C98.6982183,96.9058248 99.0035696,96.4044892 99.299131,95.9198958 C99.7592559,95.1646369 100.235231,94.3837998 100.319144,93.5694782 C100.383478,92.9467618 100.630556,92.3956647 101.033806,91.9771099 C102.055218,90.915841 102.670583,89.4890344 102.721863,88.0626927 C102.73072,87.8180707 102.725126,87.5762391 102.719998,87.3418484 C102.706013,86.7488958 102.692959,86.1889626 102.927451,85.7983115 C103.106,85.5011376 103.453774,85.2593059 103.822526,85.0035225 L103.930215,84.9281826 C106.172566,83.3660432 107.285816,81.4960336 107.064844,79.6632288 C106.99818,79.1051557 106.814037,78.5959141 106.635954,78.1038797 C106.403328,77.4607006 106.202402,76.9049529 106.308692,76.3933859 L106.308692,76.3929209 C106.376755,76.0641229 106.58514,75.7306742 106.805645,75.3781581 C107.025685,75.0247119 107.254116,74.6596391 107.403295,74.222947 C107.906309,72.7505643 107.24013,70.5564072 105.01596,69.3918949 C103.7829,68.7454603 102.43376,68.5468793 101.128442,68.3543441 C100.790924,68.3045826 100.441751,68.2529609 100.105631,68.1948283 C98.2450863,67.8744013 97.0278767,67.2716825 96.3850072,66.3503969 C96.2824465,66.2029726 96.1859462,66.0364809 96.0843178,65.8597577 C95.8349087,65.4281813 95.5524005,64.9384722 95.0717635,64.5752597 C94.3501088,64.0316035 93.4951251,63.989283 92.7408374,63.9525432 C92.2103186,63.9264998 91.7096357,63.9018516 91.3366875,63.7130369 C91.1017302,63.5939813 90.8760965,63.3879593 90.6374097,63.1698458 C90.4215659,62.97266 90.1987294,62.7689633 89.9302067,62.5875896 C88.6710404,61.7402487 87.0930035,61.8537236 85.9401274,61.9365044 L83.2227338,62.1336902 C81.6088006,62.2494904 79.4382422,62.5964258 78.516594,64.2064664 C77.8774541,64.1785628 77.1301592,64.0302084 76.5781959,63.5702632 C76.2388131,63.2856459 76.0047881,62.8452333 75.9670271,62.4206328 C75.8565412,61.1361347 74.7693972,60.1329985 73.4939145,60.1329985 C73.4673419,60.1334635 73.4393708,60.1334635 73.4123321,60.1334635 C73.4803951,59.930697 73.5852868,59.7060726 73.6887799,59.4842386 C74.0258318,58.7624641 74.4878214,57.7742098 73.7918068,56.896175 C73.4342428,56.4450659 72.9135139,56.2297428 72.3256543,56.2869452 C71.2907232,56.3897237 70.1844656,57.3654214 69.7527781,58.2104369 C69.5635069,58.5801603 69.2050105,58.8187365 68.8409198,58.8187365 C68.6017668,58.8182714 68.4283459,58.8182714 68.2992126,58.1090536 C67.9281292,56.0762727 68.5351023,54.0462821 69.8460152,52.937577 C70.5644066,52.3297425 71.584886,52.0246626 72.5797253,52.1223254 C73.407204,52.2041761 74.109279,52.5590175 74.557283,53.1226712 C74.6775588,53.2733509 74.7899094,53.4472837 74.9092528,53.6314478 C75.1623914,54.023029 75.4490953,54.4671621 75.898964,54.8052614 C76.4117678,55.1889366 77.1320239,55.3098524 77.7343352,55.1122015 C78.214506,54.9545459 78.5683406,54.6029599 78.7058652,54.1472003 C78.7911771,53.862583 78.6956092,53.5537826 78.4634489,53.3668282 C77.8313018,52.8571215 77.4588198,52.0344289 77.4411047,51.1080276 C77.4233897,50.1951132 77.773961,49.3361458 78.3772047,48.8106271 C78.5781305,48.6362292 78.8154188,48.4757832 79.0662264,48.305571 C79.6200544,47.931197 80.2484721,47.5061314 80.6214203,46.8015642 C80.8251432,46.4155637 80.9132522,46.0114258 80.9915714,45.6542591 C81.0549725,45.3640611 81.1146443,45.0896752 81.2251301,44.8794677 C81.4619522,44.4269635 81.9728912,44.140021 82.5644803,43.8079675 C83.0022282,43.5619503 83.454894,43.307562 83.8567457,42.9494652 C84.3923925,42.4704525 84.7653407,41.8714541 85.1266342,41.2924534 C85.6030755,40.5278934 86.0147171,39.8675069 86.6603836,39.6945043 C86.9018675,39.6293958 87.197429,39.6340464 87.5093069,39.6391621 C88.0705939,39.6479982 88.7684732,39.6591597 89.4383813,39.2457206 C90.0159848,38.8862286 90.3222685,38.2421193 90.2187754,37.6021956 C90.0803184,36.7562499 89.3749801,36.428382 88.9083287,36.2111986 C88.6262867,36.0805165 88.4253608,35.9805284 88.41324,35.8889114 C88.4043825,35.8233378 88.4677837,35.7349763 88.5600884,35.6838196 C88.899005,35.4977952 89.2896682,35.5247688 89.7847569,35.5587182 C90.1786834,35.5856917 90.6257551,35.6163857 91.0849475,35.5215133 C91.9170881,35.3503709 92.583733,34.8397341 93.0121572,34.0444801 C93.6317174,32.8948497 93.6764711,31.1987727 93.1226431,29.8245179 C92.6406076,28.6302417 91.9548491,27.8187105 91.0854137,27.4127124 C91.0252758,27.3843437 90.9642055,27.3596954 90.9026691,27.3364424 C91.4294584,27.058336 91.8751315,26.6751259 92.2023935,26.1975084 C93.0597081,24.9474248 92.9371014,23.3466854 91.939465,21.9259245 M127.064656,39.2880411 C127.0227,38.9750552 126.944847,38.392799 127.066055,38.2807193 C127.072582,38.2746735 127.090763,38.2556061 127.142043,38.2588615 C127.197519,38.2621169 127.255792,38.2918808 127.292155,38.3346664 C127.573731,38.6662548 127.580257,39.0750433 127.56767,39.714967 C127.563475,39.951683 127.558347,40.196305 127.575595,40.4399969 C127.57746,40.4818523 127.582122,40.5227777 127.58725,40.5664934 C127.666502,41.289198 128.177441,41.8584324 128.888373,42.0165531 C129.59511,42.1737437 130.297185,41.8770349 130.674795,41.2608292 L130.713488,41.198046 C131.016509,41.7217046 131.450993,42.1318882 131.972654,42.3862765 C132.695242,42.7383276 133.537638,42.7992505 134.281204,42.8531976 C135.434546,42.9359784 136.000495,43.0275954 136.210278,43.5000972 C136.24431,43.5772973 136.348269,43.8112229 136.110981,44.1651342 C135.801434,44.6264746 135.138518,44.9622485 134.569772,44.950157 C133.877487,44.9329497 133.187067,44.6780964 132.456088,44.4074309 C131.928833,44.2130355 131.383396,44.0116642 130.80253,43.8870279 C129.668767,43.6451962 128.050172,43.8619146 127.176075,44.9092316 C127.026429,45.0873499 126.771892,45.1459476 126.555116,45.050145 C124.97568,44.354414 124.010211,43.5549744 123.686678,42.6741492 C123.259187,41.5124272 122.180434,40.7348454 120.998654,40.7348454 L120.983736,40.7348454 C119.919436,40.7413563 118.847676,41.0441109 117.81088,41.3366342 C117.708785,41.3654679 117.606225,41.3947668 117.503198,41.4236005 C117.589908,41.3333787 117.671957,41.2394365 117.74981,41.1422387 C118.074741,40.7381009 118.327413,40.3046641 118.571228,39.8851793 C118.864458,39.3824485 119.140906,38.9071563 119.506862,38.5444088 C120.187958,37.8682104 121.327315,37.67428 122.408865,38.0509793 C123.425615,38.4048906 124.096455,39.1606145 124.203212,40.073994 C124.255891,40.5209174 124.494577,40.930636 124.856803,41.1989762 C125.209705,41.4594102 125.637197,41.5612586 126.061426,41.4854536 C127.328051,41.2598991 127.149968,39.9279649 127.064656,39.2880411 M126.598937,22.6160748 C126.764899,22.6965303 126.930861,22.7765208 127.095891,22.8597667 C127.266515,22.9458029 127.436206,23.0350946 127.605897,23.1234562 C127.770461,23.2094924 127.935024,23.2945986 128.098189,23.3824951 C128.266482,23.4731819 128.433376,23.5671242 128.600271,23.6601364 C128.762503,23.7508233 128.924735,23.840115 129.086036,23.9326621 C129.251997,24.0284646 129.416561,24.1270575 129.58159,24.2251853 C129.74056,24.3195927 129.900927,24.413535 130.058964,24.5102676 C130.222595,24.6107208 130.384361,24.7139643 130.546594,24.8167427 C130.703232,24.9153356 130.861269,25.0139285 131.016975,25.1148467 C131.176876,25.2194854 131.335379,25.3269145 131.494348,25.4334134 C131.649122,25.537122 131.804828,25.6399004 131.958203,25.7459343 C132.115307,25.8542935 132.270547,25.9663731 132.426253,26.0765926 C132.578229,26.1849517 132.731604,26.2919157 132.882182,26.4021352 C133.036955,26.5151449 133.189398,26.6314102 133.342773,26.7467452 C133.49102,26.8583599 133.641131,26.9690443 133.788446,27.0829842 C133.940888,27.2006446 134.091,27.3220255 134.241578,27.4420112 C134.386561,27.5573463 134.532477,27.6712862 134.675596,27.7884815 C134.825708,27.9107926 134.973022,28.036824 135.121269,28.1619254 C135.262524,28.2800509 135.404244,28.3972462 135.544099,28.517697 C135.69188,28.6451236 135.836864,28.7762708 135.983246,28.9060228 C136.119372,29.0274036 136.256897,29.1469243 136.391624,29.2697003 C136.538939,29.4041029 136.683456,29.542226 136.828906,29.6789539 C136.958505,29.8003348 137.08997,29.9207855 137.21817,30.0440267 C137.366417,30.1868003 137.510935,30.3332945 137.656851,30.4779284 C137.778991,30.5988443 137.902997,30.7183649 138.023739,30.841141 C138.175249,30.9955412 138.323029,31.1531968 138.472209,31.3099223 C138.583161,31.4261875 138.696444,31.5410575 138.805997,31.659183 C138.971493,31.8368362 139.132327,32.01821 139.294559,32.1986536 C139.384533,32.2986417 139.476838,32.3972346 139.565879,32.4981528 C139.814822,32.7809098 140.060036,33.0678523 140.301053,33.3571201 C140.542071,33.646853 140.778893,33.9403064 141.011986,34.2365502 C141.089839,34.3356082 141.164428,34.4369914 141.241349,34.5365145 C141.394724,34.7360256 141.548565,34.9341415 141.69821,35.1359779 C141.787252,35.2559636 141.87303,35.3782746 141.960673,35.4991904 C142.094468,35.6838196 142.229195,35.8679837 142.359727,36.0544731 C142.451566,36.1851552 142.539675,36.3176975 142.629182,36.4493097 C142.752255,36.6288232 142.875794,36.8088018 142.99607,36.9906405 C143.08651,37.1282986 143.174153,37.2678168 143.26366,37.4064049 C143.378342,37.5854534 143.493956,37.7635717 143.606307,37.9440153 C143.694882,38.086789 143.780194,38.2309578 143.86737,38.3746616 C143.975525,38.5537101 144.084613,38.7327585 144.190437,38.9141322 C144.275749,39.0601613 144.358263,39.2085157 144.442643,39.35594 C144.544737,39.5363836 144.647764,39.7172923 144.747062,39.8991311 C144.829577,40.0488807 144.909294,40.2004905 144.989478,40.3516353 C145.086445,40.5334741 145.183411,40.7157779 145.277581,40.8990119 C145.3559,41.0520169 145.431888,41.205487 145.508342,41.3594221 C145.599715,41.5435862 145.691087,41.7272853 145.780128,41.9128446 C145.854252,42.0681749 145.926977,42.2244353 145.999235,42.3806958 C146.08548,42.566255 146.170791,42.7522794 146.254239,42.9387688 C146.324633,43.0968895 146.393162,43.2559403 146.461691,43.4149911 C146.542341,43.6019456 146.622525,43.7893651 146.699912,43.9777147 C146.76611,44.1376957 146.83091,44.2986067 146.894777,44.4595178 C146.969833,44.6483325 147.044423,44.8371472 147.116681,45.0273571 C147.178684,45.1891982 147.239754,45.3528997 147.299426,45.5156709 C147.368887,45.7058808 147.437417,45.8960907 147.504081,46.0863006 C147.561888,46.2509321 147.618763,46.4164938 147.674239,46.5815904 C147.738106,46.7722654 147.800575,46.9638704 147.861645,47.1550104 C147.915257,47.3219673 147.967935,47.4893892 148.01875,47.6572762 C148.077023,47.8479511 148.133431,48.0395562 148.188441,48.2306962 C148.237857,48.4009084 148.28634,48.5711207 148.332958,48.741333 C148.354403,48.8203933 148.374915,48.8994537 148.395893,48.978514 C147.966537,49.2133697 147.745565,49.5449581 147.63135,49.8258549 C147.553031,50.017925 147.56049,50.2337132 147.650463,50.4197376 C147.740903,50.606227 147.906399,50.7452802 148.10546,50.8038778 C148.569314,50.9392106 148.933405,51.3768328 149.08305,51.9753661 L149.132932,52.2483568 C149.175355,52.5976175 149.137594,52.9426927 149.02198,53.2477726 C148.57957,54.4118199 147.366556,55.1261534 146.427659,55.520525 C145.862177,55.7572409 145.278513,55.94094 144.660351,56.1358005 C143.948953,56.3599598 143.213312,56.5915601 142.504711,56.911987 C142.074422,57.1054523 141.525722,57.5402842 141.397521,58.1290513 C141.319202,58.4885433 141.409642,58.8387341 141.652524,59.1149803 C141.832006,59.3186769 142.110318,59.4075035 142.374645,59.3451854 C142.997935,59.1977611 143.621224,59.051732 144.24498,58.9047728 L145.621159,58.5815555 C145.68829,58.5662085 145.852387,58.5280735 145.936766,58.5280735 C145.953549,58.5578374 145.982453,58.6206206 146.014153,58.7396762 C146.540942,60.7068835 144.927009,62.6759512 144.208152,63.43121 C143.749892,63.913013 143.23802,64.3794691 142.743398,64.8310431 C141.750423,65.7360516 140.72435,66.672219 139.962137,67.856264 C139.773798,68.1501824 139.542104,68.5468793 139.424625,69.0114751 C139.238151,69.7476664 139.365886,70.4564192 139.525321,71.1781936 L139.592452,71.4809482 C139.822747,72.5180339 140.040922,73.4965219 140.002229,74.4740798 C139.958407,75.5855752 139.54863,76.5184873 138.878256,77.0342398 C138.720219,77.1551556 138.53188,77.2686305 138.332353,77.3881511 C137.794842,77.7113684 137.186004,78.0773713 136.869464,78.7791481 C136.624717,79.3223392 136.652222,79.8669254 136.675997,80.3468682 C136.686253,80.5435889 136.695111,80.7291482 136.684855,80.8979653 C136.641966,81.6164843 136.186969,82.3447696 135.785583,82.9870186 C134.933863,84.3477867 133.967927,85.8908586 132.61599,86.8591153 C131.47337,87.6776224 129.731702,88.1501242 128.416594,87.3609159 C127.406836,86.7549416 126.744387,85.4546315 126.446961,83.4957952 C126.394748,83.1535104 126.349528,82.7963437 126.305707,82.4508035 C126.128557,81.0463197 125.945346,79.5930046 125.213901,78.2866487 C125.139311,78.1541063 125.058661,78.0234242 124.978944,77.8932072 C124.810651,77.6202165 124.651682,77.3616426 124.571964,77.1091146 C124.347729,76.3985016 124.681051,75.5679029 125.034886,74.6884729 C125.446061,73.665339 125.912247,72.5054773 125.54396,71.3023648 C125.332778,70.608029 124.885241,70.0718138 124.490382,69.598847 C124.225122,69.2816755 123.974781,68.9817112 123.813947,68.6654698 C123.509062,68.0669365 123.476895,67.3200488 123.442863,66.5299104 C123.401373,65.5593284 123.358018,64.5552621 122.821905,63.637697 C122.066219,62.345758 120.532469,61.643051 118.578221,61.643051 C118.077072,61.643051 117.548884,61.6895571 116.999251,61.7834994 C116.624905,61.8472127 116.246362,61.9244128 115.880407,61.9983575 C114.424044,62.2936712 113.048798,62.5727077 111.820866,62.1336902 C109.371995,61.2617011 108.676913,57.9174486 108.480183,56.0018629 C108.351049,54.7382926 108.253151,53.0924423 108.648476,51.5721584 C109.033078,50.0960552 109.873144,48.8873621 110.954228,48.2558095 C110.999448,48.229301 111.0456,48.2032576 111.092219,48.1772142 C111.467498,47.9646814 111.981234,47.6740183 112.219921,47.1029236 C112.361641,46.7666846 112.361641,46.4416071 112.361175,46.1797778 C112.361175,46.1295513 112.361175,46.0793247 112.362573,46.0272379 C112.390078,44.7576218 114.155988,43.3908079 114.921464,43.376391 C116.055226,43.3559284 117.151694,43.0466629 118.211333,42.7466987 C119.197315,42.4685923 120.128287,42.2053678 120.992128,42.2002522 C121.572062,42.1928112 122.086731,42.581137 122.306304,43.1787402 C122.772955,44.4469611 124.002752,45.5282276 125.960264,46.3899853 C126.772824,46.7499424 127.737362,46.5262482 128.305641,45.8467943 C128.7005,45.3738274 129.66224,45.1422271 130.494381,45.3194153 C130.971289,45.4221937 131.444467,45.5965915 131.945149,45.7821508 C132.757244,46.08165 133.596378,46.3918456 134.53341,46.4155637 C135.596312,46.4430023 136.749188,45.8500497 137.333318,44.9794558 C137.775728,44.3195344 137.854047,43.5838082 137.554756,42.9080748 C136.965498,41.5780007 135.536174,41.4742922 134.387494,41.3910463 C133.747422,41.3450053 133.084972,41.297104 132.618321,41.0696892 C132.357723,40.9427276 132.128826,40.7199635 131.973587,40.4432523 C131.725576,39.9991192 131.269647,39.7275236 130.754512,39.7168272 C130.231919,39.7028754 129.743823,39.9716806 129.472037,40.4125583 L129.42029,40.4967343 C129.371341,40.5767247 129.300481,40.6064886 129.208642,40.586491 C129.14291,40.5716091 129.061794,40.5288235 129.047342,40.3962811 C129.045477,40.3837245 129.044079,40.3716329 129.04268,40.349775 C129.029627,40.1600302 129.033357,39.9577288 129.037552,39.7428706 C129.051072,39.0369083 129.067854,38.1584083 128.413796,37.3873374 C128.116836,37.0385418 127.684217,36.8227536 127.228287,36.7962451 C126.793803,36.7706668 126.378898,36.9166959 126.066088,37.2068938 C125.387322,37.8337959 125.514591,38.7862405 125.607361,39.4810414 C125.618084,39.5596367 125.630205,39.6507886 125.640927,39.7424056 C125.413428,38.3328062 124.397611,37.1906167 122.893697,36.6674233 C121.283494,36.10749 119.54742,36.436288 118.4696,37.505928 C117.967052,38.0049383 117.628135,38.5862643 117.299941,39.149453 C117.073375,39.539174 116.858463,39.9079672 116.602528,40.2260689 C116.077137,40.8808745 115.237537,41.3208221 114.463204,41.3477956 C113.914504,41.3687234 113.459973,41.1845593 113.108003,40.8046046 C112.687038,40.3511702 112.684241,39.5396391 113.101477,39.1020168 C113.42734,38.7601971 113.735955,38.7727537 114.470663,38.8908792 C115.151293,39.0001685 116.083197,39.1499181 116.897623,38.4216328 C117.306467,38.0574901 117.573592,37.5449931 117.650046,36.9808743 C117.754471,36.2232901 117.578253,35.4619855 117.111136,34.6523146 C117.027223,34.5076807 117.084563,34.2779406 117.230013,34.1788827 C117.943276,33.691964 118.832758,33.4013009 119.773986,33.0934306 C120.034583,33.0083245 120.294249,32.9232184 120.550184,32.8339267 C122.944511,31.9963521 124.310434,30.6606973 124.500638,28.9706662 C124.539797,28.6204754 124.489449,28.3023738 124.353323,28.0275228 C123.909515,27.1234445 122.952437,27.1387915 122.319823,27.1490229 C122.022863,27.1536735 121.716113,27.1587892 121.533835,27.0880999 C121.25459,26.9792757 121.105411,26.4974726 121.227085,26.0961251 C121.387453,25.5654907 121.859232,25.1134516 122.344065,24.7037329 C123.587381,23.6550207 124.916941,22.8718583 126.207342,22.426795 C126.33834,22.4886481 126.468406,22.5523615 126.598937,22.6160748 M176.934354,79.5627756 C176.771189,79.2135149 176.355352,79.0633003 176.004781,79.2256065 C173.017932,80.6156734 170.331773,81.8378533 167.961221,82.9158643 C163.819631,84.8007559 160.827188,86.1624541 159.238895,87.0502553 C156.664621,88.4910138 154.492198,91.3027717 154.401291,91.4218272 C154.364929,91.4697285 154.334627,91.5213503 154.311784,91.5762274 C153.330464,93.9154835 149.957148,99.6417777 148.066301,102.556314 C143.937298,108.920672 134.896568,115.148302 129.874355,118.293973 C123.945877,122.008414 120.714281,125.714484 118.575424,128.166285 C116.720939,130.293473 115.785771,131.306841 114.693499,131.143604 C112.066546,130.774811 111.070774,127.374751 111.295475,125.731226 C112.015731,120.454646 114.415187,117.707996 117.453782,114.230271 C118.432771,113.10994 119.444859,111.951473 120.508228,110.598146 C121.565536,109.252725 122.317492,107.473402 123.187394,105.413183 C125.590579,99.7250236 128.581157,92.6454023 140.124369,90.5623948 C140.50431,90.4935658 140.756982,90.1308183 140.687987,89.7517937 C140.619458,89.3723041 140.255833,89.119776 139.875426,89.1895352 C139.617626,89.2365063 139.369149,89.2885931 139.119274,89.3402149 L139.908525,88.5370548 C146.611803,81.3188454 150.544075,72.1715636 151.170162,62.3871484 L162.730157,57.5960915 C163.086788,57.4486672 163.256013,57.0403438 163.107767,56.6845723 C162.95952,56.3283357 162.550209,56.1599836 162.193577,56.307873 L151.233563,60.8501223 C151.238225,60.6887462 151.250346,60.5292303 151.253143,60.3673891 L151.239157,58.2881021 C151.174357,56.1809114 150.956183,54.0769761 150.584167,52.0148963 L150.583701,52.0144312 C150.568783,51.9000263 150.547804,51.7860864 150.522164,51.6754019 C150.367857,50.8601502 150.19024,50.0509443 149.993976,49.2715024 C149.897942,48.8882922 149.796314,48.5060122 149.689557,48.1255924 C149.431291,47.2043069 149.136662,46.2923226 148.814994,45.3896395 L148.22154,43.8177338 C148.088211,43.4866105 147.95022,43.1573474 147.808966,42.8290144 C146.868205,40.6469489 145.743766,38.5397582 144.452433,36.5399966 L143.828677,35.6015038 C143.079051,34.5058204 142.281408,33.4422263 141.432485,32.4218828 C140.969097,31.8647399 140.489392,31.3210837 139.997567,30.788124 L138.934664,29.6775587 C136.752918,27.478286 134.330153,25.5106135 131.730238,23.8284884 C130.076213,22.7579184 128.350861,21.8022183 126.5705,20.97441 C120.901222,18.3370499 114.830092,17 108.526335,17 C102.210924,17 96.127673,18.3426307 90.4458076,20.989757 C90.2360242,21.0878849 90.0267071,21.1878729 89.8173899,21.2892562 C88.3563654,22.0003342 86.9251768,22.8016341 85.556457,23.6745533 C82.2670541,25.766397 79.2755436,28.3033039 76.6649063,31.2131896 C69.6511497,39.0299324 65.7888052,49.116172 65.7888052,59.6144556 C65.7888052,60.6552618 65.8261,61.6946728 65.9002235,62.7033898 C65.9002235,62.7033898 65.9002235,62.7038548 65.9002235,62.7043199 C66.5496195,71.7520787 70.059528,80.1710752 75.6910454,86.9051563 L76.6523193,88.0152565 C77.628045,89.103964 78.6648409,90.1415147 79.7529172,91.1288389 L76.2476706,91.3390464 C70.7588058,90.3554427 63.8872357,84.3631337 59.7736173,80.7756543 C56.9797693,78.3387355 52.6736165,76.9021625 49.8476017,78.8679747 C49.0327099,79.4348839 48.5660585,80.0999209 48.4611668,80.8444833 C48.2868136,82.0834054 49.1380678,83.127467 49.7594927,83.8901668 C49.9347783,84.1050249 50.0998079,84.3077914 50.1739313,84.4375434 C50.195842,84.4756784 50.2214822,84.5114881 50.2503857,84.5449725 C53.0274511,87.774355 56.1783969,90.7135396 59.2249173,93.5550613 C61.05889,95.2655551 62.936684,97.0262755 64.6988642,98.8148995 C62.2579184,98.467034 59.9083449,97.9870912 57.7732166,97.3722808 C55.0530258,96.5891183 52.3897097,95.616211 49.8140363,94.6749279 C47.067273,93.6717916 44.2272727,92.6347059 41.2380931,91.7906205 C37.651264,90.778183 35.1567069,90.8102722 33.6117691,91.886423 C32.6523599,92.5556456 32.1129836,93.5987771 32.0080919,94.9865186 C31.8654393,96.8718753 33.6294841,97.7080547 35.6718416,98.6758463 C36.2634306,98.955813 36.8755318,99.2460109 37.5188674,99.5882957 C42.7345476,102.363314 49.3725589,105.477826 56.1602157,108.346787 C47.9017446,107.444104 39.4246326,106.586996 34.7212899,111.004609 C34.0513818,111.588726 33.6821631,112.353286 33.6821631,113.157376 C33.6821631,113.961001 34.0513818,114.726026 34.7212899,115.310143 C34.7828264,115.363625 34.8527541,115.405945 34.9282762,115.435244 C42.5284938,118.38094 52.9225594,119.132013 62.0924226,119.794259 C63.5851477,119.902154 65.0261262,120.007722 66.427479,120.118407 C65.2638807,120.3714 64.0727774,120.621603 62.8909979,120.869945 C56.1928487,122.274894 49.8657829,123.602178 48.001042,125.478698 C46.2966689,127.193843 45.8757036,129.117799 46.8463012,130.757139 C47.8178312,132.398804 50.0415347,133.408451 52.3253761,133.408451 C52.9990138,133.408451 53.6782456,133.320554 54.3318373,133.134995 C55.5336628,132.79364 59.9675504,132.2551 64.6620355,131.684005 C71.5443279,130.848291 79.3454713,129.900032 81.7668374,129.047575 C94.7002139,124.494629 103.800616,121.576373 111.826926,119.41384 C110.916467,121.122473 110.247491,123.066893 109.909507,125.542877 C109.613013,127.712851 110.927655,132.023965 114.491175,132.52437 C114.647347,132.548088 114.79979,132.55925 114.948969,132.55925 C116.597866,132.55925 117.835121,131.141279 119.630401,129.08199 C121.715181,126.692042 124.864728,123.079914 130.618386,119.476158 C135.738032,116.268633 144.965236,109.90381 149.240621,103.314828 C150.864344,100.811871 154.433924,94.8414197 155.564424,92.2031295 C155.901009,91.779459 157.809105,89.4499692 159.923255,88.2673195 C161.460268,87.407422 164.4308,86.0559552 168.541621,84.1854804 C170.914504,83.1056092 173.603927,81.8824991 176.59637,80.4896419 C176.946009,80.3268706 177.097519,79.9115713 176.934354,79.5627756" id="Fill-1" fill="#003A80" transform="translate(104.500000, 75.204225) rotate(-15.000000) translate(-104.500000, -75.204225) "></path>
                </g>
            </g>
        </g>
    </g>
</svg>