<?xml version="1.0" encoding="UTF-8"?>
<svg width="162px" height="162px" viewBox="0 0 162 162" version="1.1" xmlns="http://www.w3.org/2000/svg" xmlns:xlink="http://www.w3.org/1999/xlink">
    <title>Group 7</title>
    <g id="I---Marque" stroke="none" stroke-width="1" fill="none" fill-rule="evenodd">
        <g id="I.1.4---La-marque---Nos-engagements" transform="translate(-602.000000, -2055.000000)">
            <g id="//-Content" transform="translate(0.000000, 570.000000)">
                <g id="01" transform="translate(0.500000, 0.000000)">
                    <g id="pictos" transform="translate(178.500000, 1193.000000)">
                        <g id="Group-7" transform="translate(424.000000, 293.000000)">
                            <circle id="Oval" stroke="#003A80" stroke-width="1.012" cx="80" cy="80" r="80"></circle>
                            <g id="icon/laurier-copy-8" transform="translate(42.000000, 42.000000)" fill="#003A80">
                                <path d="M44.812912,50.9090424 C45.887937,50.1819348 47.1738281,50.1377228 47.8350677,50.9090424 C48.4963074,51.6803619 48.5445687,52.7133821 47.470459,53.441391 L47.470459,53.441391 L40.9628906,58.1505189 L48.2053986,62.7802277 C48.9012252,63.2510662 48.7409279,64.6742249 48.2053986,65.3610714 C47.6698692,66.0479179 45.8456527,65.4838085 45.149826,65.01297 L45.149826,65.01297 L38.0719374,60.1249695 L30.6824464,65.3610714 C29.6067917,66.0889247 27.8628108,66.0117545 27.4005876,65.3610714 C26.9383644,64.7103882 26.9383644,63.508081 28.0140191,62.7802277 L28.0140191,62.7802277 L35.0684967,58.1411969 L28.3296509,53.441391 C27.6342458,52.9705524 27.4005876,52.0092773 28.0140191,51.2097931 C28.6274506,50.4103088 29.9870413,50.4382038 30.6824464,50.9090424 L30.6824464,50.9090424 L38.0719374,56.0609436 Z M41.9106034,23.4051644 C44.1779838,23.2650576 46.4018715,24.0648512 48.0472784,25.6121434 C50.4349428,28.0638245 50.295741,31.6434653 50.1824921,34.5192965 C50.1612579,35.0483189 50.1400237,35.5633584 50.1400237,36.0294575 C49.8513771,38.4724675 47.9538523,40.0780548 45.8477783,41.3902588 C45.5009536,47.9482726 42.8850158,50.0240818 38.3078726,50.1103101 L38.3078726,50.1103101 L37.3759285,50.1103101 C32.7987853,50.0264123 30.1364366,47.9506031 29.7896118,41.3902588 C27.6827953,40.0787881 25.8314338,38.4728124 25.5437774,36.0294575 C25.5437774,35.5586974 25.5225432,35.0483189 25.5013091,34.5192965 C25.3786227,31.6434653 25.239421,28.0638245 27.624726,25.6121434 C29.2701779,24.0664458 31.4926299,23.2668611 33.7590416,23.4051644 L33.7590416,23.4051644 Z M43.0135049,26.6312115 L42.802157,26.6392822 L32.857036,26.6392822 C31.6592771,26.5264956 30.458525,27.5845519 29.5122515,28.2347833 C28.2975363,29.3342911 28.4184321,32.0077518 28.5134217,34.1540513 C28.5422064,34.7916654 28.5681127,35.4066869 28.5681127,35.9740128 C28.5681127,36.6442607 30.2951959,38.1152917 31.7344319,38.8482969 C32.611718,39.2995122 33.1502765,40.121439 33.1506402,41.0096582 C33.1506402,46.0904887 34.0890221,46.795751 37.5690948,46.8233643 L37.5690948,46.8233643 L38.0958552,46.8233643 C41.5759279,46.795751 42.5114313,46.0904887 42.5114313,41.0096582 C42.5123957,40.1209272 43.0521257,39.2988833 43.9305181,38.8482969 C45.5251916,38.0173903 47.0968373,36.5915446 47.0968373,35.9740128 C47.0968373,35.4091972 47.1227436,34.7916654 47.1515283,34.1540513 C47.2465179,32.0077518 47.3674137,29.3342911 46.1469416,28.2347833 C45.2006681,27.5845519 43.999916,26.5264956 42.802157,26.6392822 Z M60.3221741,17.6045616 L51.1761475,17.6045616 L51.1761475,11.5461869 L54.5874026,11.5461869 C55.8904368,11.5461869 56.9467547,10.5027887 56.9467547,9.21569163 L56.9467547,2.33049531 C56.9467547,1.04339829 55.8904368,0 54.5874026,0 L21.5564722,0 C20.253438,0 19.1971201,1.04339829 19.1971201,2.33049531 L19.1971201,9.21569163 C19.1971201,10.5027887 20.253438,11.5461869 21.5564722,11.5461869 L24.916626,11.5461869 L24.916626,17.6045616 L15.8639544,17.6045616 C11.1934297,17.609699 9.00520103,21.3483175 9,25.9617177 L9,66.6428438 C9.00645837,72.371521 12.7901122,74.9948626 17.4606369,75 L58.6643631,75 C63.3348878,74.9948626 67.1185416,72.371521 67.125,66.6428438 L67.125,25.9617177 C67.119799,21.3483175 64.9926988,17.609699 60.3221741,17.6045616 Z M23.0719374,3.03978155 L53.0719374,3.03978155 L53.0719374,8.66478155 L23.0719374,8.66478155 L23.0719374,3.03978155 Z M64.2012634,68.4823596 C64.1984601,70.6291639 62.5494471,72.3688189 60.3221741,72.371521 L15.8639544,72.371521 C13.6366814,72.3688189 11.8318188,70.6291639 11.8290155,68.4823596 L11.8290155,24.8419201 C11.8318188,22.6951159 13.6366814,20.9554609 15.8639544,20.9527588 L25.5666201,20.9527588 C26.9716864,20.9527588 28.1107178,19.8548793 28.1107178,18.5005763 L28.1107178,11.5461869 L47.9260866,11.5461869 L47.9260866,18.5005763 C47.9260866,19.8548793 49.065118,20.9527588 50.4701843,20.9527588 L60.6214031,20.9527588 C62.8486761,20.9554609 64.1984601,22.6951159 64.2012634,24.8419201 L64.2012634,68.4823596 Z" id="Shape"></path>
                            </g>
                            <polygon id="Rectangle" fill="#003A80" transform="translate(79.712875, 80.223633) rotate(60.000000) translate(-79.712875, -80.223633) " points="75.2128749 0.889437054 76.849456 0.889437054 84.2128749 159.557829 82.5762938 159.557829"></polygon>
                        </g>
                    </g>
                </g>
            </g>
        </g>
    </g>
</svg>