<?xml version="1.0" encoding="UTF-8"?>
<svg width="162px" height="162px" viewBox="0 0 162 162" version="1.1" xmlns="http://www.w3.org/2000/svg" xmlns:xlink="http://www.w3.org/1999/xlink">
    <title>Group 3</title>
    <g id="I---Marque" stroke="none" stroke-width="1" fill="none" fill-rule="evenodd">
        <g id="I.1.4---La-marque---Nos-engagements" transform="translate(-203.000000, -1762.000000)">
            <g id="//-Content" transform="translate(0.000000, 570.000000)">
                <g id="01" transform="translate(0.500000, 0.000000)">
                    <g id="pictos" transform="translate(178.500000, 1193.000000)">
                        <g id="Group-3" transform="translate(25.000000, 0.000000)">
                            <g id="icon/laurier-copy-5" transform="translate(45.000000, 45.000000)" fill="#003A80">
                                <path d="M24.4520276,29.9916626 C24.4520276,23.315203 15.8991724,12.5036563 15.5348383,11.8889363 C15.2822034,11.4631302 14.824162,11.2 14.3286376,11.2 C13.8316139,11.2 13.3728229,11.4608812 13.1194383,11.8836887 C12.7558538,12.4931611 4.2,23.183263 4.2,29.9916626 C4.2,37.2940872 9.31866905,41.1158469 14.3743668,41.1158469 C19.3813367,41.1150972 24.4520276,37.2940872 24.4520276,29.9916626 Z M6.77693565,29.5538741 C6.77693565,24.6721413 11.2303778,20.2437774 14.3214351,14.5979695 C17.4116598,20.2812571 21.3728943,24.7692478 21.3728943,29.5538741 C21.3728943,36.0446793 18.8822965,38.1368508 14.3214351,38.1368508 C10.382897,38.1368508 6.77693565,36.0446793 6.77693565,29.5538741 Z" id="Path-2"></path>
                                <path d="M65.8,43.5197113 C65.8,31.9813067 51.0187674,9.25300759 50.3891172,8.19063483 C49.9525079,7.45474736 49.1609106,7 48.3045345,7 C47.4455673,7 46.6526744,7.45086063 46.2147696,8.1815658 C45.586415,9.23486952 30.8,31.7532852 30.8,43.5197113 C30.8,56.1399223 39.6461966,62.7447714 48.3835647,62.7447714 C57.0367203,62.7434758 65.8,56.1399223 65.8,43.5197113 Z M33.6023926,43.5197113 C33.6023926,34.9326672 42.9647194,20.037314 48.2921086,10.10625 C53.618063,20.1032414 62.7706543,35.1034791 62.7706543,43.5197113 C62.7706543,54.9371385 55.1424316,59.4721436 48.3911094,59.4721436 C41.6031001,59.4721436 33.6023926,54.9371385 33.6023926,43.5197113 Z" id="Path-2-Copy"></path>
                            </g>
                            <circle id="Oval-Copy-4" stroke="#002A5D" stroke-width="1.012" cx="80" cy="80" r="80"></circle>
                        </g>
                    </g>
                </g>
            </g>
        </g>
    </g>
</svg>