<?xml version="1.0" encoding="UTF-8"?>
<svg width="162px" height="162px" viewBox="0 0 162 162" version="1.1" xmlns="http://www.w3.org/2000/svg" xmlns:xlink="http://www.w3.org/1999/xlink">
    <title>Group 2</title>
    <g id="I---Marque" stroke="none" stroke-width="1" fill="none" fill-rule="evenodd">
        <g id="I.1.4---La-marque---Nos-engagements" transform="translate(-1002.000000, -1762.000000)">
            <g id="//-Content" transform="translate(0.000000, 570.000000)">
                <g id="01" transform="translate(0.500000, 0.000000)">
                    <g id="pictos" transform="translate(178.500000, 1193.000000)">
                        <g id="Group-2" transform="translate(824.000000, 0.000000)">
                            <g id="icon/laurier-copy-3" transform="translate(43.000000, 43.000000)" fill="#003A80">
                                <path d="M50.3466686,51.1124887 C51.5032176,51.1124887 52.4443451,52.0532583 52.4443451,53.210523 C52.4443451,54.3670721 51.5032176,55.3078417 50.3466686,55.3078417 C49.1897618,55.3078417 48.2489922,54.3670721 48.2489922,53.210523 C48.2489922,52.0532583 49.1897618,51.1124887 50.3466686,51.1124887 Z M57.5936363,39.8871642 C58.7501853,39.8871642 59.6913127,40.8282917 59.6913127,41.9848407 C59.6913127,43.1413897 58.7501853,44.0825172 57.5936363,44.0825172 C56.4367294,44.0825172 55.495602,43.1413897 55.495602,41.9848407 C55.495602,40.8282917 56.4367294,39.8871642 57.5936363,39.8871642 Z M49.6475147,30.9878917 C50.8040637,30.9878917 51.7451912,31.9286613 51.7451912,33.0855681 C51.7451912,34.2421172 50.8040637,35.1832446 49.6475147,35.1832446 C48.4906078,35.1832446 47.5494804,34.2421172 47.5494804,33.0855681 C47.5494804,31.9286613 48.4906078,30.9878917 49.6475147,30.9878917 Z M52.4443809,17.0149044 C53.6012877,17.0149044 54.5420574,17.9560319 54.5420574,19.1125809 C54.5420574,20.2691299 53.6012877,21.2102574 52.4443809,21.2102574 C51.287474,21.2102574 50.3467044,20.2691299 50.3467044,19.1125809 C50.3467044,17.9560319 51.287474,17.0149044 52.4443809,17.0149044 Z M12.2585608,27.3629049 C10.9173647,26.4475422 10.3244186,25.9920078 10.3240608,24.7714049 L10.3240608,19.811699 L38.1699824,19.811699 L38.1699824,24.6071549 C36.2462176,24.7978853 32.7883794,25.4813657 30.3196196,27.8982382 C28.7647912,29.4201451 27.8547961,31.3657382 27.5985804,33.6920765 L16.4678696,33.6920765 C15.9940853,29.9232725 13.8627716,28.4579049 12.2585608,27.3629049 L12.2585608,27.3629049 Z M14.3161588,43.65765 L29.7703304,43.65765 L29.7703304,36.4889784 L14.3161588,36.4889784 L14.3161588,43.65765 Z M39.5684333,17.0147971 C40.3406588,17.0147971 40.9668843,17.6410225 40.9668843,18.413248 L40.9668843,18.413248 L40.9668843,20.7796647 L41.8965608,20.7796647 C42.6687863,20.7796647 43.2950118,21.4058902 43.2950118,22.1781157 C43.2950118,22.9503412 42.6687863,23.5765667 41.8965608,23.5765667 L41.8965608,23.5765667 L40.9668843,23.5765667 L40.9668843,25.9333216 C40.9668843,26.3094147 40.8155167,26.6697627 40.5467765,26.9327775 C40.2776784,27.1957922 39.9126784,27.3471598 39.5387324,27.3314147 L39.5387324,27.3314147 L39.465067,27.331319 C39.1468662,27.3340147 37.8409903,27.3725667 36.3145657,27.7708461 C36.4566294,29.819498 37.103252,34.7355471 40.0325559,39.6455127 C40.4283304,40.3089539 40.2114775,41.1674196 39.5480363,41.563552 C39.3236686,41.6973853 39.0767569,41.7607235 38.8330657,41.7607235 C38.3567765,41.7607235 37.8922961,41.517748 37.6303549,41.0786745 C34.7611686,36.2696206 33.8719284,31.5357137 33.5978206,28.8833804 C33.1251098,29.1689392 32.6731539,29.5063853 32.2659284,29.9068118 C31.2650412,30.8912382 30.6509824,32.1626549 30.4230363,33.6920765 L30.4230363,33.6920765 L31.1687814,33.6920765 C31.9410069,33.6920765 32.5672324,34.318302 32.5672324,35.0905275 L32.5672324,35.0905275 L32.5672324,45.056101 C32.5672324,45.8286843 31.9410069,46.4549098 31.1687814,46.4549098 L31.1687814,46.4549098 L30.0397863,46.4549098 C30.649551,49.547748 33.3097569,51.1043657 36.3328157,52.8717529 L36.3328157,52.8717529 L36.7789236,53.1329785 C40.287486,55.1933642 44.0689242,57.621551 44.0833402,62.9564882 L44.0833402,62.9564882 L44.0839886,63.3026789 C44.0840874,63.3702354 44.0841817,63.4424182 44.0842717,63.5187737 L44.0851594,64.6062769 C44.0852184,64.7087514 44.0852739,64.8135831 44.0853262,64.9203181 L44.0861624,69.6463657 C44.0861624,70.4185912 43.4596196,71.0444588 42.6873941,71.0444588 L42.6873941,71.0444588 C41.9144529,71.0437431 41.2885853,70.4175176 41.2889431,69.6452922 L41.2889431,69.6452922 L41.2881744,64.9252882 C41.2881165,64.8186923 41.2880552,64.7139973 41.2879904,64.6116564 L41.2873113,63.766385 C41.2872247,63.6822475 41.2871344,63.6018239 41.28704,63.5255672 L41.2864253,63.1216567 L41.2864253,63.1216567 L41.2860804,62.9640029 C41.2753451,59.0019637 38.3306539,57.2800225 34.9211245,55.2864784 C31.5770804,53.3312235 27.8276,51.1365716 27.2031637,46.4549098 L27.2031637,46.4549098 L16.8829676,46.4549098 C16.2585314,51.1362137 12.509051,53.3312235 9.16500686,55.2864784 C5.75547745,57.2800225 2.81078627,59.0016059 2.80005098,62.9640029 L2.80005098,62.9640029 L2.7994111,63.275045 C2.79931216,63.3368066 2.79921701,63.4032382 2.79912551,63.473904 L2.79819615,64.4972442 C2.79813214,64.5948107 2.79807133,64.6948681 2.79801362,64.7969806 L2.79721686,67.0939565 C2.79719682,67.2034851 2.79717907,67.3120181 2.7971635,67.4191195 L2.79714884,69.4915674 L2.79714884,69.4915674 L2.79718824,69.6452922 C2.79718824,70.4178755 2.17132059,71.0437431 1.39873725,71.0444588 L1.39873725,71.0444588 L1.26372007,71.0380595 C0.55467499,70.9703209 0.000171764706,70.3731661 0.000171764706,69.6463657 L0.000171764706,69.6463657 L0.00110790892,64.7913728 C0.00116297623,64.6891272 0.00122128279,64.58894 0.00128301914,64.4912475 L0.0019363956,63.6911577 C0.00202042564,63.6123617 0.00210845711,63.5373698 0.00220068056,63.4666183 L0.00314901961,62.9561304 C0.0172217487,57.6215364 3.79897524,55.1933637 7.30756388,53.1329785 L7.75367353,52.8717529 C10.7763745,51.1043657 13.4365804,49.547748 14.0463451,46.4549098 L14.0463451,46.4549098 L12.9177078,46.4549098 C12.1451245,46.4549098 11.5192569,45.8286843 11.5192569,45.056101 L11.5192569,45.056101 L11.5192569,35.0905275 C11.5192569,34.318302 12.1451245,33.6920765 12.9177078,33.6920765 L12.9177078,33.6920765 L13.6462765,33.6920765 C13.2658892,31.4448216 12.0545902,30.6099735 10.6819039,29.673498 C9.27665392,28.7141206 7.52751667,27.5207137 7.52715882,24.7714049 L7.52715882,24.7714049 L7.52715882,18.413248 C7.52715882,17.6410225 8.15338431,17.0147971 8.9256098,17.0147971 L8.9256098,17.0147971 Z M47.0896877,1.81780735 C57.3680162,1.81780735 65.7300946,10.1802436 65.7300946,20.4582142 C65.7300946,20.7333956 65.7229377,21.0146603 65.708624,21.3066603 C70.1759377,25.0879887 72.7227074,30.5579789 72.7227074,36.4312583 C72.7227074,42.3041799 70.1759377,47.7741701 65.708624,51.5554985 C65.7229377,51.8474985 65.7300946,52.1287632 65.7300946,52.4043025 C65.7300946,61.5092632 59.2270113,69.2350966 50.266977,70.7748956 C50.1868201,70.7884936 50.1070211,70.7949348 50.0282956,70.7949348 C49.3598446,70.7949348 48.7690456,70.3143515 48.651673,69.6330181 C48.5210603,68.8715279 49.0320603,68.1486848 49.7931926,68.0180721 C57.4070211,66.7097975 62.9331926,60.1430181 62.9331926,52.4043025 C62.9331926,51.9831211 62.9127956,51.5390377 62.8709279,51.0466456 C62.8312074,50.5775132 63.030526,50.1191162 63.4008936,49.8281897 C67.5472221,46.5728907 69.9258054,41.6894054 69.9258054,36.4312583 C69.9258054,31.1727534 67.5472221,26.2892681 63.4008936,23.0339691 C63.030526,22.7430426 62.8312074,22.2850034 62.8709279,21.8155132 C62.9127956,21.3231211 62.9331926,20.8790377 62.9331926,20.4582142 C62.9331926,11.7221897 55.8257123,4.61506716 47.0896877,4.61506716 C43.2367907,4.61506716 39.5209475,6.0181701 36.6267123,8.56672892 C36.0742025,9.0526799 35.2386387,9.02834657 34.7161877,8.50875833 C32.1923201,5.99777304 28.8425505,4.61506716 25.2841583,4.61506716 C20.1741583,4.61506716 15.5844623,7.46063578 13.3057172,12.0421015 C12.9618299,12.7334544 12.1219721,13.0154348 11.4306191,12.6715475 C10.7392662,12.3276603 10.4576436,11.4881603 10.801173,10.7964495 C13.5558495,5.25846912 19.1052809,1.81780735 25.2841583,1.81780735 C29.1613887,1.81780735 32.833575,3.17546422 35.7546485,5.66462108 C38.9995701,3.17582206 42.9780701,1.81780735 47.0896877,1.81780735 Z" id="Fill-4"></path>
                            </g>
                            <circle id="Oval-Copy-5" stroke="#003A80" stroke-width="1.012" cx="80" cy="80" r="80"></circle>
                        </g>
                    </g>
                </g>
            </g>
        </g>
    </g>
</svg>