<?xml version="1.0" encoding="UTF-8"?>
<svg width="161px" height="153px" viewBox="0 0 161 153" version="1.1" xmlns="http://www.w3.org/2000/svg" xmlns:xlink="http://www.w3.org/1999/xlink">
    <title>cta</title>
    <g id="A---Homepage" stroke="none" stroke-width="1" fill="none" fill-rule="evenodd">
        <g id="A.1.0---Homepage---Particulier-01" transform="translate(-352.000000, -3806.000000)">
            <g id="//-Nos-engagements" transform="translate(0.000000, 3547.000000)">
                <g id="01-copy" transform="translate(334.000000, 259.000000)">
                    <g id="cta" transform="translate(18.000000, 0.000000)">
                        <circle id="Oval" stroke="#002A5D" stroke-width="1.012" cx="80.285" cy="76.415" r="75.9"></circle>
                        <g id="Group-10" transform="translate(39.804885, 2.010000)">
                            <path d="M93.9810712,7.1486084 C93.9789729,7.11198311 93.9757301,7.07573933 93.9680998,7.04044934 C93.9639031,7.02137367 93.9574174,7.00306102 93.951504,6.98436686 C93.9421569,6.95365503 93.9314745,6.92370622 93.9179308,6.89432968 C93.9089652,6.87563552 93.8990459,6.85751364 93.8883635,6.8395825 C93.8725307,6.81230429 93.854981,6.78636138 93.8355239,6.76099073 C93.8223616,6.7443949 93.8093902,6.72798982 93.7948927,6.71215701 C93.7870717,6.70376371 93.7811582,6.69403512 93.7729557,6.68583258 L87.22752,0.218988724 C87.2246587,0.215936617 87.2210343,0.214029049 87.2179822,0.211167699 C87.1889872,0.183317216 87.1578938,0.158709598 87.1248929,0.135818791 C87.1182164,0.131431386 87.1121122,0.126280954 87.105245,0.122084306 C87.0705272,0.099765769 87.0340927,0.0808808529 86.9959414,0.0644757743 C86.9894556,0.0618051801 86.9835422,0.0585623157 86.9772472,0.0560824782 C86.9404312,0.0412034534 86.902089,0.0301395631 86.8626024,0.0209832401 C86.8538276,0.0190756729 86.8454343,0.0164050787 86.8364687,0.0144975114 C86.8021325,0.0080117826 86.7674148,0.00476891821 86.7321248,0.00247983747 C86.7164828,0.00152605383 86.7010315,1.60105262e-13 86.6855802,1.60105262e-13 C86.6569667,1.60105262e-13 86.6283531,0.00247983747 86.5993581,0.00553194513 C86.5768488,0.00782102587 86.5545303,0.0101101066 86.5324025,0.0143067546 C86.5217201,0.0164050787 86.5112285,0.0162143219 86.5005461,0.0185034027 L0.578183644,20.0975567 C0.562923106,20.1009903 0.548997865,20.1070945 0.53411884,20.1114819 C0.51370787,20.1175861 0.493678414,20.1231181 0.473839714,20.1307483 C0.445607718,20.1414307 0.419092533,20.1547837 0.392958861,20.1685182 C0.379987403,20.1753854 0.366634432,20.1809173 0.353853731,20.1883569 C0.272972879,20.2368091 0.203728186,20.299568 0.148027221,20.3720556 C0.140778466,20.3814027 0.134865007,20.391322 0.128188522,20.4008598 C0.109685119,20.4275658 0.0927077701,20.454844 0.0782102587,20.4836483 C0.070961503,20.4977643 0.0642850175,20.512071 0.0581808022,20.5267593 C0.0467353985,20.5532745 0.0373883188,20.5805527 0.0293765362,20.6085939 C0.0249891314,20.624236 0.0200294565,20.6396873 0.0165958354,20.6557108 C0.0103008633,20.6858504 0.00705799896,20.7165622 0.00457816149,20.7478463 C0.00381513457,20.7594825 -3.03357339e-13,20.7705464 -3.03357339e-13,20.7823733 C-3.03357339e-13,20.7854254 0.000953783643,20.7882868 -3.03357339e-13,20.7913389 C-3.03357339e-13,20.7942002 -3.03357339e-13,20.7970616 -3.03357339e-13,20.7999229 L-3.03357339e-13,88.19046 C-3.03357339e-13,95.4331115 4.97588926,103.537411 13.6507423,110.424492 C13.7861795,110.533605 13.9588144,110.593884 14.1369812,110.593884 C14.3052286,110.593884 14.4662273,110.540281 14.5972771,110.444712 C17.6579688,113.122364 21.5804995,115.594762 26.2967688,117.815171 C32.9289988,120.937668 40.9726377,123.506779 49.5584073,125.244382 C49.7760608,125.288447 49.9238972,125.318396 49.9929512,125.334419 C50.051895,125.348535 50.1127464,125.355784 50.1739793,125.355784 C50.337267,125.355784 50.492543,125.307332 50.6226391,125.215769 C50.6956989,125.164455 50.8517379,125.060302 51.0829351,124.905789 C59.6862543,119.155618 67.7289395,112.847865 74.3413307,106.664486 C87.376501,94.4749404 93.9858402,83.6809709 93.9858402,74.5822565 L93.9858402,7.18771353 C93.9858402,7.17436056 93.9818343,7.16177062 93.9810712,7.1486084 L93.9810712,7.1486084 Z" id="Path-Copy" fill="#FFFFFF"></path>
                            <path d="M49.7728076,109.633733 C50.0423935,109.414599 50.4535121,109.436936 50.7013386,109.690346 C50.8278515,109.818785 50.8954405,109.995749 50.8854273,110.175024 C50.8754141,110.355646 50.7876061,110.525678 50.644533,110.641792 L50.644533,110.641792 L43.2900356,116.329863 C43.1756542,116.423833 43.0191017,116.479291 42.8577353,116.479291 C42.6713359,116.479291 42.4901356,116.403037 42.3609269,116.270169 C42.2334512,116.139228 42.166825,115.961301 42.1781861,115.782026 C42.1893547,115.602559 42.2777404,115.43426 42.4206209,115.319879 L42.4206209,115.319879 Z M49.7685327,102.625365 C50.0492872,102.402186 50.4602133,102.42876 50.7047662,102.685059 C50.8285832,102.810417 50.8959797,102.987958 50.8851963,103.167425 C50.8746054,103.347663 50.7860271,103.516924 50.6423763,103.631691 L50.6423763,103.631691 L37.2144925,114.322122 C37.0987631,114.419173 36.9410553,114.475786 36.7777632,114.475786 C36.5869349,114.475786 36.4040016,114.397799 36.2763334,114.26185 C36.1550197,114.139766 36.0876232,113.962417 36.0982141,113.78218 C36.1089975,113.60098 36.1979609,113.43114 36.3425745,113.316374 L36.3425745,113.316374 Z M49.7672811,95.616631 C50.049191,95.3926821 50.4603095,95.419063 50.70467,95.6753622 C50.8284869,95.8007197 50.8958834,95.9782613 50.8852925,96.1577285 C50.8745091,96.337966 50.7861234,96.5072274 50.6422801,96.6221866 L50.6422801,96.6221866 L31.7437269,111.794292 C31.6189472,111.893846 31.4637427,111.948148 31.3058423,111.948148 C31.1163619,111.948148 30.9341988,111.870738 30.8059529,111.735753 C30.6817508,111.608085 30.6151246,111.430351 30.6262932,111.250883 C30.6376543,111.071416 30.72604,110.903117 30.8689205,110.788736 L30.8689205,110.788736 Z M49.7667034,88.6053357 C50.0409108,88.3808091 50.4524145,88.4027611 50.7012039,88.6571347 C50.8279093,88.7855732 50.8953057,88.9625371 50.8852925,89.1418118 C50.8752794,89.3224344 50.7876639,89.4924661 50.6445908,89.6085806 L50.6445908,89.6085806 L26.7465661,108.875889 C26.6208235,108.975828 26.4660042,109.029938 26.3088741,109.029938 C26.118816,109.029938 25.9362678,108.952721 25.8080219,108.817928 C25.6847826,108.691993 25.6179638,108.515029 25.6285547,108.336139 C25.6393381,108.156094 25.7275312,107.986833 25.8704118,107.871681 L25.8704118,107.871681 Z M49.7653555,81.5998173 C50.0418736,81.3735577 50.453955,81.3958948 50.7021667,81.6514238 C50.827139,81.7781292 50.8947281,81.9541303 50.8854851,82.1322496 C50.8762422,82.3124871 50.7892044,82.4829039 50.646709,82.6001738 L50.646709,82.6001738 L21.8589728,106.037206 C21.7388145,106.135605 21.5826472,106.190485 21.4199328,106.190485 C21.2267937,106.190485 21.0494447,106.116542 20.9206211,105.982712 C20.7968041,105.856006 20.7297927,105.68039 20.7394208,105.503234 C20.7492415,105.323766 20.8362792,105.153735 20.9783895,105.03685 L20.9783895,105.03685 Z M49.7653555,74.5903129 C50.0409108,74.3644384 50.4524145,74.386583 50.7012039,74.6409566 C50.827139,74.7684322 50.8947281,74.9444333 50.8854851,75.1225526 C50.8762422,75.3027901 50.7890118,75.4733995 50.6465164,75.5906694 L50.6465164,75.5906694 L18.5016648,101.760726 C18.3755371,101.861436 18.2205252,101.915545 18.0618546,101.915545 C17.8737221,101.915545 17.6921367,101.838713 17.5633131,101.704883 C17.4381482,101.57683 17.3711369,101.399288 17.3821129,101.219821 C17.3930889,101.039969 17.4814746,100.871285 17.6245477,100.756903 L17.6245477,100.756903 Z M49.7653555,67.578363 C50.0420662,67.3521033 50.4537625,67.374633 50.7021667,67.6299694 C50.827139,67.7566748 50.8947281,67.9326759 50.8854851,68.1107952 C50.8762422,68.2910327 50.7892044,68.4616421 50.646709,68.578912 L50.646709,68.578912 L16.5107726,96.3684099 C16.3842597,96.4691195 16.2292478,96.5230367 16.0707698,96.5230367 C15.8810968,96.5230367 15.6987411,96.445627 15.5704953,96.3106415 C15.4470634,96.1843212 15.3802446,96.0067796 15.391028,95.8273124 C15.4021966,95.64746 15.4905823,95.4789688 15.6336554,95.3645874 L15.6336554,95.3645874 Z M49.7652784,60.5658353 C50.0493065,60.3399608 50.4604251,60.3665343 50.7047855,60.6230261 C50.8284099,60.7483835 50.895999,60.9259252 50.8852155,61.1055849 C50.8746246,61.2858224 50.7858538,61.4550839 50.642203,61.5698505 L50.642203,61.5698505 L16.1588859,89.6464574 C16.0350689,89.7467819 15.8790941,89.8018545 15.7188831,89.8018545 C15.5280547,89.8018545 15.3451214,89.7238671 15.2174532,89.5881113 C15.0967172,89.464872 15.0298984,89.289256 15.0395265,89.111907 C15.048962,88.9324398 15.1359997,88.7626006 15.27811,88.6455233 L15.27811,88.6455233 Z M49.7652784,53.5570819 C50.046033,53.3319776 50.4571515,53.3568181 50.703245,53.6117694 C50.8282173,53.7384748 50.8956138,53.9154387 50.8852155,54.0947133 C50.8750098,54.2749508 50.7868166,54.4444048 50.643551,54.5599417 L50.643551,54.5599417 L16.1588859,82.634623 C16.0333358,82.7347549 15.8781313,82.7886721 15.7188831,82.7886721 C15.5299803,82.7886721 15.3483949,82.7124178 15.2205342,82.5793579 C15.0957544,82.4513046 15.0291281,82.2747258 15.0395265,82.096799 C15.0501173,81.9175244 15.1377328,81.7484555 15.2802282,81.6327261 L15.2802282,81.6327261 Z M49.7652014,46.5474812 C50.0424898,46.3202588 50.4545712,46.3435587 50.7029754,46.6006282 C50.8283329,46.7292592 50.8951517,46.9054529 50.8853311,47.0828019 C50.8755104,47.2616914 50.7884727,47.4309529 50.6467475,47.5478377 L50.6467475,47.5478377 L16.1588088,75.6242521 C16.0378803,75.7239989 15.8851791,75.777531 15.7189986,75.777531 C15.5262446,75.777531 15.3492807,75.7037799 15.2204571,75.5697572 C15.096255,75.4428592 15.0292437,75.2662804 15.0394494,75.087776 C15.0498478,74.9077311 15.1376557,74.7380845 15.2803437,74.6223551 L15.2803437,74.6223551 Z M49.7652014,39.5379576 C50.0448006,39.3118905 50.4563043,39.3359607 50.703168,39.5918747 C50.8281403,39.7203132 50.8951517,39.8963143 50.8853311,40.0732782 C50.875703,40.2517827 50.7886652,40.4212367 50.6467475,40.5381214 L50.6467475,40.5381214 L16.1588088,68.6162689 C16.0328737,68.7167859 15.8776692,68.7708957 15.7189986,68.7708957 C15.5308661,68.7708957 15.3492807,68.6940637 15.2204571,68.5602335 C15.096255,68.4333356 15.0294362,68.2571419 15.0394494,68.0790226 C15.0496552,67.8995554 15.1374632,67.7301014 15.2801512,67.6141794 L15.2801512,67.6141794 Z M49.7653555,32.5283183 C50.0489984,32.3026364 50.460117,32.3288247 50.7048625,32.5853165 C50.8284869,32.7108666 50.8958834,32.8884082 50.8852925,33.0678754 C50.8745091,33.2481128 50.7859309,33.4173743 50.6422801,33.5321409 L50.6422801,33.5321409 L16.1589629,61.6066297 C16.0328352,61.7071467 15.8776307,61.7612565 15.7189601,61.7612565 C15.5308276,61.7612565 15.3492422,61.6844245 15.2206112,61.5505943 C15.0956389,61.4231187 15.02882,61.2457696 15.0396035,61.0666875 C15.0505795,60.8866426 15.1391577,60.7175737 15.2824234,60.6028071 L15.2824234,60.6028071 Z M49.7653555,25.5215483 C50.0441844,25.2970217 50.4545327,25.3199365 50.7012039,25.572192 C50.8273316,25.7000527 50.8947281,25.8760538 50.8854851,26.0541731 C50.8760496,26.234218 50.7890118,26.4046349 50.646709,26.5219048 L50.646709,26.5219048 L16.1589629,54.5919646 C16.0418856,54.6913263 15.8876439,54.7465914 15.7189601,54.7465914 C15.5265913,54.7465914 15.3496273,54.6728404 15.2208038,54.5390102 C15.0967942,54.4124974 15.0297829,54.2364963 15.0394109,54.0587621 C15.049039,53.8789098 15.1360767,53.7086855 15.2781871,53.5916082 L15.2781871,53.5916082 Z M37.790925,28.2482177 C38.0685986,28.0242688 38.4789469,28.0466059 38.7265809,28.297706 C38.8540565,28.4278775 38.9208753,28.603686 38.9112472,28.7816127 C38.9014266,28.9614651 38.8143889,29.1314968 38.6722785,29.2485741 L38.6722785,29.2485741 L16.1589629,47.5821521 C16.0432335,47.6807436 15.8847555,47.7377417 15.7189601,47.7377417 C15.5329458,47.7377417 15.3527083,47.6630279 15.2240773,47.533049 C15.0967942,47.4028775 15.0297829,47.2268763 15.0394109,47.0491422 C15.049039,46.8692898 15.1360767,46.6990656 15.2781871,46.5819882 L15.2781871,46.5819882 Z M25.8155318,30.9751181 C26.1009078,30.7482808 26.5124115,30.7752394 26.7563868,31.0332717 C26.8794335,31.1590143 26.9464449,31.3367484 26.9352763,31.5164082 C26.9239152,31.6962606 26.8351444,31.8651369 26.691301,31.9793258 L26.691301,31.9793258 L16.1591554,40.5723781 C16.0349533,40.6730877 15.8789786,40.7281603 15.7189601,40.7281603 C15.5312127,40.7281603 15.3496273,40.6515209 15.2208038,40.5176907 C15.096024,40.390215 15.0290126,40.2132511 15.0396035,40.0343616 C15.0501944,39.8543167 15.1383875,39.6850552 15.2814606,39.5697109 L15.2814606,39.5697109 Z M8.14361401,95.5553194 L8.14361401,28.0962482 L93.3429815,8.1880957 L93.3429815,75.2878473 C93.3429815,83.7422554 87.1167013,93.9555193 74.8372537,105.643804 C65.1481419,114.866146 54.718439,122.082577 51.2910387,124.453971 C50.939229,124.697369 50.6673323,124.885501 50.4845915,125.014902 C50.2918376,124.968495 50.0170525,124.90572 49.6685163,124.826385 C46.2572912,124.049014 35.8764989,121.683783 26.326609,117.017635 C14.2612896,111.122368 8.14361401,103.901508 8.14361401,95.5553194 L8.14361401,95.5553194 Z M2.2421849,21.4035843 L87.2563084,1.53798787 L92.6320449,6.84921631 L7.62331312,26.7148128 L2.2421849,21.4035843 Z M1.53124822,22.8058164 L6.61236579,27.8216557 L6.61236579,95.5553194 C6.61236579,99.1381168 7.64006596,102.543372 9.6725515,105.725257 C4.43873275,100.239953 1.53124822,94.3625941 1.53124822,89.0247922 L1.53124822,22.8058164 Z M94.870186,7.21623833 C94.8680678,7.17926654 94.8647942,7.14267988 94.8570918,7.10705602 C94.8528554,7.08779988 94.8463084,7.06931398 94.8403389,7.05044297 C94.8309034,7.01944058 94.82012,6.98920844 94.8064481,6.95955399 C94.7973978,6.94068297 94.7873846,6.92238964 94.7766011,6.90428887 C94.7606185,6.87675259 94.7429029,6.85056424 94.7232616,6.82495357 C94.7099749,6.80820073 94.6968807,6.79164045 94.682246,6.77565785 C94.674351,6.76718515 94.6683816,6.75736452 94.6601015,6.74908438 L88.0527423,0.221060483 C88.0498539,0.217979501 88.0461952,0.216053887 88.0431142,0.213165466 C88.0138449,0.185051502 87.9824574,0.160211082 87.9491443,0.137103714 C87.9424046,0.132674802 87.9362426,0.127475644 87.9293104,0.123239294 C87.8942643,0.10070961 87.857485,0.0816460321 87.8189728,0.065085752 C87.8124257,0.0623898924 87.8064563,0.0591163487 87.8001017,0.0566130505 C87.7629374,0.0415932616 87.7242325,0.0304247006 87.6843723,0.0211817536 C87.6755145,0.0192561396 87.6670418,0.0165602801 87.6579914,0.0146346661 C87.6233304,0.00808757865 87.5882842,0.00481403491 87.5526603,0.00250329815 C87.5368703,0.00154049117 87.5212728,0 87.5056754,0 C87.4767912,0 87.4479069,0.00250329815 87.4186376,0.0055842805 C87.3959154,0.00789501725 87.3733857,0.010205754 87.3510486,0.0144421047 C87.3402651,0.0165602801 87.3296742,0.0163677187 87.3188908,0.0186784554 L0.583653592,20.287691 C0.568248681,20.2911571 0.554191699,20.2973191 0.53917191,20.301748 C0.51856784,20.30791 0.498348894,20.3134943 0.478322509,20.3211967 C0.449823422,20.3319802 0.423057388,20.3454595 0.396676477,20.3593239 C0.383582302,20.3662561 0.370103004,20.3718404 0.35720139,20.3793503 C0.275555358,20.4282609 0.205655571,20.4916136 0.149427644,20.5647869 C0.142110311,20.5742224 0.136140907,20.5842356 0.129401258,20.5938637 C0.110722803,20.6208223 0.0935848386,20.6483585 0.0789501725,20.6774353 C0.0716328395,20.6916848 0.0648931906,20.706127 0.0587312259,20.7209542 C0.0471775421,20.7477202 0.0377420337,20.7752565 0.029654455,20.803563 C0.0252255429,20.8193531 0.0202189466,20.8349505 0.0167528415,20.8511257 C0.0103983154,20.8815504 0.00712477167,20.9125528 0.00462147351,20.9441328 C0.00385122793,20.9558791 0,20.9670476 0,20.9789865 C0,20.9820674 0.000962806982,20.9849559 0,20.9880368 C0,20.9909253 0,20.9938137 0,20.9967021 L0,89.0247922 C0,96.3359633 5.02296402,104.516934 13.7798861,111.469171 C13.9166047,111.579316 14.0908727,111.640165 14.2707251,111.640165 C14.4405642,111.640165 14.6030861,111.586056 14.7353757,111.489582 C17.8250233,114.192567 21.7846633,116.688355 26.5455513,118.92977 C33.2405259,122.081807 41.3602623,124.675224 50.0272582,126.429266 C50.2469708,126.473747 50.3962059,126.50398 50.4659131,126.520155 C50.5254146,126.534404 50.5868416,126.541722 50.6486538,126.541722 C50.8134864,126.541722 50.9702314,126.492811 51.1015583,126.400382 C51.1753093,126.348583 51.3328245,126.243444 51.5662089,126.087469 C60.2509204,120.282899 68.369694,113.915471 75.0446423,107.673593 C88.2031327,95.3687274 94.875,84.4726408 94.875,75.2878473 L94.875,7.25571342 C94.875,7.24223412 94.8709562,7.22952507 94.870186,7.21623833 L94.870186,7.21623833 Z" id="Fill-1" fill="#003A80"></path>
                        </g>
                    </g>
                </g>
            </g>
        </g>
    </g>
</svg>