<?xml version="1.0" encoding="UTF-8"?>
<svg width="95px" height="80px" viewBox="0 0 95 80" version="1.1" xmlns="http://www.w3.org/2000/svg" xmlns:xlink="http://www.w3.org/1999/xlink">
    <title>Fill 1</title>
    <g id="D---Fiche-produit" stroke="none" stroke-width="1" fill="none" fill-rule="evenodd">
        <g id="D.1.0---Fiche-produit---Particulier" transform="translate(-480.000000, -7326.000000)" fill="#FFFFFF">
            <g id="//-Avec-vous" transform="translate(45.000000, 6987.000000)">
                <g id="Group-14" transform="translate(382.500000, 339.000127)">
                    <path d="M137.962996,69.8956243 C123.689844,80.4205985 95.0304685,81.2651417 74.077377,71.7784928 C62.3179002,66.4567141 55.0986947,58.8905332 54.2666016,51.0235561 C53.9998679,48.5246339 54.4347598,46.1124799 55.4785003,43.8304781 C53.8983931,52.2267408 60.5783326,60.7329098 73.1959961,66.2166556 C81.5430212,69.8406712 91.3019953,71.6165256 100.724653,71.6136333 C107.392995,71.6136333 113.846791,70.6765375 119.549673,68.9267136 L123.101291,70.4914322 C123.191168,70.5348162 123.286844,70.5550621 123.38542,70.5550621 C123.405715,70.5550621 123.423111,70.5406008 123.443406,70.5377085 L123.614463,70.6100153 L123.617362,70.607123 L123.623161,70.607123 L134.640422,63.0380498 C135.371041,62.5319024 135.826227,61.7365278 135.878414,60.8543852 C135.919004,60.2643619 135.947997,59.4140342 135.947997,58.3930626 C138.586341,54.566588 139.345952,50.2773501 137.881816,45.9910045 L137.873119,45.9505127 C137.849924,45.85796 137.26427,43.61645 135.942199,40.2411698 C140.786894,43.9693071 144.02249,48.1920227 145.243087,52.5911669 C145.686676,54.3988363 145.773655,56.2036134 145.521417,57.9678987 C145.541712,58.1009432 145.556209,58.2339877 145.573604,58.3670321 C145.599698,58.3728167 145.622892,58.3843858 145.646086,58.3901703 C145.051734,62.6447009 142.468476,66.5781895 137.962996,69.8956243 L137.962996,69.8956243 Z M62.1120513,28.9584206 C62.1468427,28.8918983 65.5534959,22.2020755 70.6040404,17.0162336 L70.6069397,17.0104491 C70.6736231,16.9410346 77.420246,10.0169378 86.4457025,10.5606847 C92.7690306,10.9627104 98.721251,14.896199 104.137105,22.2570287 C121.002212,45.1753841 119.123479,68.0590323 119.100285,68.2875217 L119.091587,68.3887512 C118.708882,68.333798 118.302983,68.3135521 117.940573,68.226784 C104.609687,71.9317831 87.2517021,71.0322868 73.6685786,65.132054 C61.1813827,59.7032613 54.7159899,51.3156754 56.803471,43.2404548 L56.9919241,42.5000334 L56.9658306,42.5000334 C57.4355138,40.6316263 58.9257434,35.3185245 61.9583895,29.3720153 C61.8105263,29.1579873 61.682958,28.9294979 61.5524904,28.706793 L62.1120513,28.9584206 Z M83.7841641,7.08128271 C96.0916047,5.59754769 107.561154,15.2230256 116.082135,34.1731852 C121.892291,47.0900675 123.005614,58.3612476 123.075197,64.6548293 L122.895442,63.680134 C123.031708,64.5333539 123.069399,65.4010352 123.069399,66.2687165 C123.0636,66.5290209 123.057801,66.7719717 123.049104,67.0091379 C123.020111,67.7003907 122.938931,68.3887512 122.82006,69.0771116 L120.312184,67.9664796 C120.48904,64.6808597 120.958723,43.1131949 105.096766,21.5570991 C99.4605672,13.8983655 93.2097211,9.80290973 86.523983,9.37774589 C76.9534621,8.78772261 70.0618752,15.8651097 69.748753,16.1948286 C69.6501775,16.2931659 69.551602,16.3943953 69.4530265,16.4985171 C73.0626292,11.9778975 77.9073249,7.78699684 83.7841641,7.08128271 L83.7841641,7.08128271 Z M90.7134416,2.65032354 C92.2877502,1.94750169 93.7895769,1.51655331 95.3059,1.33434023 C95.6915041,1.2880639 96.0771083,1.28517163 96.4627124,1.26203346 L87.0806446,5.79422212 C86.149976,5.75951487 85.216408,5.77976076 84.2683437,5.86363662 L90.7134416,2.65032354 Z M127.60967,28.4262427 C128.77518,31.0235021 129.737741,33.5021783 130.561136,35.8767328 L120.584716,42.6822465 C119.671443,39.8015446 118.566818,36.7993673 117.166466,33.6872837 C109.729814,17.1521703 100.01433,7.57007651 89.3710753,6.0053579 L99.1793371,1.26203346 C110.002347,2.02270073 119.987465,11.4804269 127.60967,28.4262427 L127.60967,28.4262427 Z M132.358689,41.7306893 C132.39638,41.8724106 132.439869,42.0170242 132.474661,42.1558532 C132.721099,43.0958412 132.947243,44.0155834 133.141495,44.9006183 C133.24007,45.3373513 133.318351,45.7538383 133.405329,46.1761099 C133.515502,46.7025032 133.619876,47.2288965 133.709754,47.7350439 C133.799631,48.2411913 133.889509,48.7357697 133.96489,49.2158867 C134.014178,49.5195751 134.054768,49.8116945 134.098257,50.1067061 C134.869465,55.3851007 134.791185,59.1363762 134.686811,60.7791861 C134.654919,61.2969027 134.388185,61.7654506 133.956192,62.0633545 L124.14793,68.8023459 C124.353779,65.9158594 124.521937,58.450908 122.237305,48.6837088 L132.358689,41.7306893 Z M132.028172,40.5188278 L121.950277,47.4429246 C121.65455,46.2773393 121.33273,45.0828314 120.964522,43.8594008 L130.964136,37.0365335 C131.361337,38.2339337 131.71215,39.3908421 132.028172,40.5188278 L132.028172,40.5188278 Z M136.727903,46.2889084 C137.939802,49.7683104 137.612183,53.189867 135.898709,56.3511192 C135.826227,54.5492344 135.629076,52.3424316 135.249271,49.7943409 C135.205782,49.4848679 135.153595,49.1725026 135.104307,48.8543528 C135.017328,48.3250672 134.933249,47.7986739 134.828875,47.2404656 C134.678113,46.4219529 134.507055,45.5774098 134.312804,44.7039439 C134.222926,44.3019182 134.118552,43.8825389 134.022876,43.4718365 C133.854717,42.7776914 133.674962,42.0719773 133.48361,41.3489096 C133.416926,41.0943897 133.367639,40.8601158 133.298056,40.6055959 L133.071912,39.8044368 L133.066114,39.8102214 C132.205028,36.8167209 131.077208,33.5831619 129.647863,30.1702821 C133.788034,37.074133 135.89581,43.3995297 136.513357,45.5022107 L136.455371,45.5022107 L136.727903,46.2889084 Z M146.913071,54.9020915 C146.860884,54.4248668 146.747813,53.9505343 146.655036,53.4762019 C146.634741,53.3634033 146.611546,53.2477125 146.594151,53.1320216 C146.521669,52.8167641 146.452086,52.5015065 146.362208,52.186249 C146.301323,51.9490828 146.263633,51.7148088 146.191151,51.4776426 C144.660331,46.4508756 140.691218,41.6988743 134.860767,37.6439104 C133.057416,33.5166397 130.369784,28.3799664 126.551433,23.445752 C126.548534,23.4659979 126.545634,23.4891361 126.542735,23.5064897 C118.030451,7.0031914 106.992895,-1.27738048 95.1638353,0.160078206 C93.5286418,0.356752634 91.9108439,0.816623723 90.2060677,1.58307554 L78.8669864,7.23457308 C67.6467755,12.0964806 61.3234474,27.7234209 61.0277209,28.4754113 L61.0944043,28.504334 C58.7546859,33.0278459 57.2876506,37.1927161 56.4729531,39.8854204 C53.8288104,43.3040847 52.6575016,47.1160979 53.0865949,51.1479237 C53.9621773,59.4429569 61.43362,67.3562104 73.5844995,72.8544176 C83.4797397,77.3345454 95.0739576,79.5413481 106.117312,79.5384587 C118.853846,79.5384587 130.859762,76.6056931 138.667521,70.8471815 C144.695123,66.4046532 147.548014,60.8919847 146.913071,54.9020915 L146.913071,54.9020915 Z" id="Fill-1"></path>
                </g>
            </g>
        </g>
    </g>
</svg>