<?xml version="1.0" encoding="UTF-8"?>
<svg width="102px" height="112px" viewBox="0 0 102 112" version="1.1" xmlns="http://www.w3.org/2000/svg" xmlns:xlink="http://www.w3.org/1999/xlink">
    <title>Combined Shape</title>
    <g id="D---Fiche-produit" stroke="none" stroke-width="1" fill="none" fill-rule="evenodd">
        <g id="D.1.0---Fiche-produit---Particulier" transform="translate(-155.000000, -7312.000000)" fill="#FFFFFF" stroke="#FFFFFF" stroke-width="0.5">
            <g id="//-Avec-vous" transform="translate(45.000000, 6987.000000)">
                <g id="Group-17" transform="translate(100.500000, 326.000300)">
                    <path d="M35.0263967,-0.0003 L35.181,0.0857 L38.217,1.7657 L38.2198526,1.76267275 L39.606,2.5337 L44.134,5.0387 L44.593,5.2917 L44.5931382,5.29138204 L44.724,5.3637 L45.1162647,5.57977967 L45.115,5.5807 L45.538,5.8157 L47.781,7.0567 L47.7815807,7.05660438 L50.981,8.8267 L50.9831994,8.8233693 L53.399,10.1657 L54.171,10.5927 L54.1742129,10.5875633 L55.193,11.1587 L79.886,24.8217 L83.4030272,26.7539636 L83.397,26.7637 L86.028,28.2197 L86.04694,28.188496 L86.515,28.4887 L86.5548335,28.5110232 L86.553,28.5137 L110.5,43.9041425 L110.5,44.242224 L110.498,44.2427 L110.49158,46.4919441 L107.05,59.1487 L107.049576,80.2980987 L102.326,83.0517 L102.326,95.1817 L105.548,97.0587 L105.549549,97.0596767 L105.850351,97.2351448 L105.845852,100.856987 L92.5459457,108.549819 L92.2400012,108.727215 L92.2396798,108.727344 L92.206,108.7057 L88.601,106.4647 L73.892,102.7727 L60.846,110.3177 L60.8465014,110.32269 L60.5456988,110.491731 L14.2600316,83.7691541 L14.186,51.0007 L10.5032137,48.8768967 L10.5,44.0788393 L10.6941076,43.7298313 L35.0256897,0.00034274044 L35.0263967,-0.0003 Z M14.8552092,80.8472561 L14.8609939,83.4207888 L60.2448963,109.623388 L60.244,108.5497 L60.243,107.0297 L14.8552092,80.8472561 Z M73.547,99.6857 L60.8544071,107.015405 L60.8544071,109.60822 L73.544,102.2657 L73.547,99.6857 Z M105.248104,97.9293045 L97.737,102.2657 L93.449,104.7417 L92.546267,105.262973 L92.546267,107.855788 L105.24489,100.509265 L105.248104,97.9293045 Z M89.023,103.5577 L89.023728,106.018707 L91.9449833,107.835734 L91.9449833,105.262202 L90.833,104.6127 L89.023,103.5577 Z M14.789,51.3487 L14.853,80.1507 L60.243,106.3347 L60.242,99.6857 L60.236,77.5637 L14.789,51.3487 Z M73.547,74.5757 L73.016,74.6047 L73.0194268,95.5663335 L61.3787547,102.246978 L61.375541,80.8244388 L72.014,74.6607 L66.48,74.9697 L64.8938379,75.0594427 L60.8387885,77.5584176 L60.842,94.8907 L60.845,106.3257 L73.547,98.9897 L73.547,74.5757 Z M74.156,99.5657 L74.152,102.2177 L88.4218016,105.800175 L88.4218016,103.266493 L74.156,99.5657 Z M102.020454,95.6998307 L89.3218311,103.034785 L92.2469428,104.741903 L104.948,97.4057 L102.020454,95.6998307 Z M88.412,73.7447 L77.585,74.3497 L86.8998565,76.8847613 L86.8960001,98.7835708 L75.2559707,95.5840089 L75.255,74.4797 L74.149,74.5417 L74.149,98.6427 L74.1578487,98.6385686 L74.157,98.9437 L88.421,102.6447 L88.4214803,102.509987 L88.412,73.7447 Z M101.722,67.4967 L91.537,73.3377 L91.0900743,73.5961156 L91.062,73.5977 L89.014,73.7117 L89.0226354,102.511208 L101.724472,95.1653278 L101.724,72.8697 L101.722,67.4967 Z M72.4146081,75.1246166 L61.9771461,81.1708759 L61.9810025,101.207666 L72.417179,95.2179682 L72.4146081,75.1246166 Z M100.560019,69.211276 L100.560019,95.244192 L90.9934704,100.600791 L90.9748309,74.8481097 L100.560019,69.211276 Z M99.9584141,70.2634421 L91.5770787,75.1919758 L91.59379,99.5749771 L99.9584141,94.8913275 L99.9584141,70.2634421 Z M40.3560004,70.2726976 L51.9966725,77.016973 L51.9928161,98.4395119 L40.3534295,91.7588677 L40.3560004,70.2726976 Z M75.8607895,74.5046935 L75.8575758,95.125735 L86.294395,97.9949283 L86.2982515,77.3443207 L75.8607895,74.5046935 Z M40.9576055,71.3171508 L40.9550345,91.4105024 L51.391211,97.4002006 L51.3950675,77.3634101 L40.9576055,71.3171508 Z M22.0237576,59.791465 L33.6644297,66.5350976 L33.6605733,87.9576365 L22.0205439,81.2776351 L22.0237576,59.791465 Z M22.6253627,60.8352754 L22.6227917,80.9292698 L33.0589682,86.9189679 L33.0628247,66.8821775 L22.6253627,60.8352754 Z M106.448614,62.2062408 L106.196,62.9927 L106.199231,76.4377996 L102.326,78.5997 L102.32672,82.3555108 L106.447329,79.9529471 L106.448614,62.2062408 Z M105.595698,64.8742563 L105.457508,65.3055352 L105.457251,65.3060494 L105.371,65.3557 L105.361226,65.3621606 L104.90488,65.6308261 L102.326,67.1477 L102.326,71.3167 L102.328005,77.9109607 L105.597626,76.0849351 L105.595698,64.8742563 Z M11.1022478,44.6759452 L11.1048188,48.5298169 L14.184,50.3067 L14.1848309,50.3061586 L60.2365407,76.8695283 L60.2365407,72.8883941 L57.229,71.1617 L57.2164962,71.1827538 L54.1289639,69.4098828 L51.0411103,67.637976 L47.43148,65.5657808 L47.431,65.5647 L44.865,64.0917 L44.8657887,64.0928768 L41.2561584,62.0206816 L41.265,62.0037 L38.7017151,60.5324161 L35.613,58.7587 L35.6138615,58.7598665 L32.0048739,56.6883141 L32.004,56.6867 L29.438,55.2137 L29.4385399,55.2150887 L25.8295523,53.1428936 L25.829,53.1417 L22.7423414,51.370344 L22.747,51.3617 L20.1760074,49.8864491 L17.0884751,48.1138996 L13.4788448,46.0417044 L13.479,46.0407 L11.913,45.1417 L11.1022478,44.6759452 Z M63.633,75.1287 L60.838,75.2847 L60.838,76.8507 L63.633,75.1287 Z M90.7,71.3297 L60.8385314,72.9982384 L60.8385314,74.6828611 L67.107,74.3327 L74.149943,73.9391461 L75.255,73.8777 L75.2559707,73.8773788 L75.302,73.8747 L88.412,73.1427 L88.4126747,73.1424694 L90.7,73.0147 L90.7,71.3297 Z M104.905137,63.3386209 L91.302,71.1867 L91.3028214,72.7785497 L104.905137,64.9313317 L104.905137,63.3386209 Z M109.677,44.7167 L84.366,59.3197 L61.8858127,72.3376298 L90.914,70.7157 L104.948,62.6177 L105.14,61.9097 L109.677,44.7167 Z M83.092,27.2817 L57.535,70.6417 L60.4274346,72.304143 L85.726341,28.7404815 L83.092,27.2817 Z M86.2346202,29.0632657 L61.369,71.8797 L85.717,57.8417 L109.636157,44.0037673 L86.2346202,29.0632657 Z M79.904,25.5177 L66.949,47.5767 L54.446,68.8677 L57.012,70.3417 L82.565,26.9907 L80.026,25.5857 L79.904,25.5177 Z M76.71,23.7537 L51.359,67.0937 L53.924,68.5677 L79.376,25.2277 L76.71,23.7537 Z M73.507,21.9817 L48.271,65.3187 L50.837,66.7937 L50.989,66.5347 L53.774,61.7717 L76.179,23.4637 L73.507,21.9817 Z M70.3418987,20.2395322 L48.274,58.2237 L45.183,63.5447 L47.749,65.0187 L47.834,64.8737 L53.772,54.6757 L72.977,21.6917 L70.3418987,20.2395322 Z M67.154,18.4737 L42.097,61.7717 L44.661,63.2447 L69.8092597,19.9494634 L67.154,18.4737 Z M108.653,51.1377 L105.726,62.0197 L105.506485,62.8644713 L105.506485,63.1710585 L108.653,51.1377 Z M63.9792183,16.7157077 L39.009,59.9977 L41.574,61.4707 L66.624,18.1767 L63.9792183,16.7157077 Z M60.7759927,14.9415513 L41.288,48.8767 L35.921,58.2237 L38.486,59.6977 L63.447222,16.4192115 L60.7759927,14.9415513 Z M91.4690341,33.0692741 L91.4703195,53.510991 L82.329265,58.8990841 L82.329265,38.4438696 L91.4690341,33.0692741 Z M57.5467362,13.1625743 L32.833,56.4497 L35.399,57.9247 L59.233,16.4187 L60.2481743,14.6511611 L57.5467362,13.1625743 Z M90.8957096,34.0725919 L82.9032322,38.77231 L82.9032322,57.8951236 L90.8969951,53.1831934 L90.8957096,34.0725919 Z M54.399,11.4077 L30.409,53.5107 L29.745,54.6757 L32.311,56.1497 L57.0164111,12.8718628 L55.002,11.7407 L54.399,11.4077 Z M51.21,9.6427 L26.657,52.9017 L29.223,54.3757 L53.8684612,11.1140962 L53.454,10.8837 L51.21,9.6427 Z M48.017,7.8757 L34.264,32.2007 L23.569,51.1277 L26.136,52.6027 L43.471,22.0577 L50.683,9.3507 L48.017,7.8757 Z M44.823,6.1087 L20.939,48.5297 L20.477,49.3507 L23.043,50.8247 L34.377,30.7777 L47.483,7.5837 L46.162,6.8497 L44.823,6.1087 Z M41.636,4.3507 L17.389,47.5767 L19.955,49.0507 L44.293,5.8157 L43.477,5.3637 L41.636,4.3507 Z M38.449,2.5827 L27.568,22.0577 L14.303,45.8037 L16.867,47.2767 L17.561,46.0407 L41.1096136,4.06046982 L39.488,3.1567 L38.449,2.5827 Z M35.26029,0.81790858 L11.215,44.0297 L13.779,45.5027 L24.589,26.1557 L37.9168005,2.29878255 L35.26029,0.81790858 Z" id="Combined-Shape"></path>
                </g>
            </g>
        </g>
    </g>
</svg>