<?xml version="1.0" encoding="UTF-8"?>
<svg width="120px" height="135px" viewBox="0 0 120 135" version="1.1" xmlns="http://www.w3.org/2000/svg" xmlns:xlink="http://www.w3.org/1999/xlink">
    <title>Fill 1</title>
    <g id="D---Fiche-produit" stroke="none" stroke-width="1" fill="none" fill-rule="evenodd">
        <g id="D.1.0---Fiche-produit---Particulier" transform="translate(-1102.000000, -7301.000000)" fill="#FFFFFF">
            <g id="//-Avec-vous" transform="translate(45.000000, 6987.000000)">
                <g id="Group-15" transform="translate(1046.999582, 313.000030)">
                    <g id="Group-19" transform="translate(10.000000, 1.000000)">
                        <path d="M60.9676938,105.115141 C61.1411573,105.014735 61.3558324,105.014735 61.5296705,105.115141 C61.7031339,105.215548 61.8106588,105.401 61.8106588,105.601813 L61.8106588,105.601813 L61.8106588,120.033374 C61.8106588,120.234187 61.7031339,120.419639 61.5296705,120.520046 L61.5296705,120.520046 L50.1346571,127.098544 C50.047738,127.148748 49.9507034,127.173849 49.8536687,127.173849 C49.7566341,127.173849 49.6595995,127.148748 49.5726804,127.098544 C49.3988423,126.998513 49.2916921,126.812686 49.2916921,126.611873 L49.2916921,126.611873 L49.2916921,112.180687 C49.2916921,111.979874 49.3988423,111.794421 49.5726804,111.694015 L49.5726804,111.694015 Z M60.6867055,106.575157 L50.4156454,112.505134 L50.4156454,125.638904 L60.6867055,119.708926 L60.6867055,106.575157 Z M76.4849559,96.1561095 C76.658794,96.055703 76.8730944,96.055703 77.0469325,96.1561095 C77.2207706,96.256516 77.3279208,96.4419683 77.3279208,96.6427813 L77.3279208,96.6427813 L77.3279208,111.073967 C77.3279208,111.27478 77.2207706,111.460607 77.0469325,111.560639 L77.0469325,111.560639 L65.6522938,118.139887 C65.5653747,118.19009 65.4683401,118.215192 65.3713054,118.215192 C65.2742708,118.215192 65.1772362,118.19009 65.0903171,118.139887 C64.916479,118.039855 64.8093288,117.854028 64.8093288,117.653215 L64.8093288,117.653215 L64.8093288,103.221655 C64.8093288,103.020842 64.916479,102.835389 65.0903171,102.734983 L65.0903171,102.734983 Z M76.2039675,97.6161249 L65.9332821,103.546103 L65.9332821,116.679872 L76.2039675,110.749519 L76.2039675,97.6161249 Z M100.607542,82.0645822 C100.781005,81.9641757 100.99568,81.9641757 101.169518,82.0645822 C101.342982,82.1649887 101.450507,82.350441 101.450507,82.551254 L101.450507,82.551254 L101.450507,96.9828146 C101.450507,97.1836276 101.342982,97.3694546 101.169518,97.4694864 L101.169518,97.4694864 L89.774505,104.04836 C89.6875859,104.098563 89.5905513,104.123665 89.4935166,104.123665 C89.396482,104.123665 89.2994474,104.098563 89.2125283,104.04836 C89.0386902,103.948328 88.93154,103.762501 88.93154,103.561688 L88.93154,103.561688 L88.93154,89.1305021 C88.93154,88.9296891 89.0386902,88.7442368 89.2125283,88.6438303 L89.2125283,88.6438303 Z M100.326553,83.5245976 L90.0554933,89.45495 L90.0554933,102.588344 L100.326553,96.6583668 L100.326553,83.5245976 Z M116.124991,73.1057377 C116.298455,73.0053312 116.51313,73.0053312 116.686968,73.1057377 C116.860431,73.2061442 116.967956,73.3915965 116.967956,73.5924095 L116.967956,73.5924095 L116.967956,88.0239701 C116.967956,88.2247831 116.860806,88.4102354 116.686968,88.5106419 L116.686968,88.5106419 L105.291954,95.0898899 C105.205035,95.1400932 105.108001,95.1651948 105.010966,95.1651948 C104.913931,95.1651948 104.816897,95.1400932 104.729978,95.0898899 C104.55614,94.9894834 104.448989,94.8040311 104.448989,94.6032181 L104.448989,94.6032181 L104.448989,80.1712829 C104.448989,79.9704699 104.55614,79.7850176 104.729978,79.6846111 L104.729978,79.6846111 Z M115.844003,74.565753 L105.572943,80.4957307 L105.572943,93.6298746 L115.844003,87.6995222 L115.844003,74.565753 Z M76.8306839,70.3333944 C77.0048967,70.2322386 77.220321,70.2322386 77.3945338,70.3333944 L77.3945338,70.3333944 L85.6627091,75.1278046 C85.6945544,75.1461625 85.7211546,75.1701402 85.7481295,75.1937432 C85.7578705,75.2023602 85.7698593,75.2083546 85.7792256,75.2173462 C85.8054511,75.2439465 85.826057,75.2746679 85.8462881,75.3053892 C85.8526572,75.3151302 85.8616488,75.3229978 85.8676432,75.3331134 C85.8886237,75.3698292 85.9036097,75.4095423 85.9163479,75.4500046 C85.9178465,75.455999 85.921593,75.4612441 85.9234662,75.4672385 C85.9362044,75.5144446 85.9429481,75.5638985 85.9429481,75.6141018 L85.9429481,75.6141018 L85.9429481,78.9563643 C85.9429481,79.1568026 85.8361725,79.3418803 85.6627091,79.4422868 L85.6627091,79.4422868 L77.3937845,84.2381956 C77.3641871,84.2550549 77.3323417,84.2647958 77.3012457,84.27641 L77.3012457,84.27641 L77.2570369,84.2943932 C77.2098308,84.3071314 77.1611262,84.3135004 77.1127962,84.3135004 C77.0640915,84.3135004 77.0157615,84.3071314 76.9685555,84.2943932 L76.9685555,84.2943932 L76.923972,84.27641 C76.892876,84.2651704 76.8614053,84.2550549 76.8318079,84.2381956 L76.8318079,84.2381956 L75.8828166,83.690081 L75.8828166,85.1092594 C75.8828166,85.3093231 75.776041,85.4947754 75.6025776,85.5951819 L75.6025776,85.5951819 L67.3332784,90.3903414 C67.3040556,90.4075753 67.2722102,90.4173163 67.2411142,90.4285558 C67.2261281,90.4341756 67.212266,90.4427925 67.1969054,90.4469137 C67.1496993,90.4596518 67.1009947,90.4660209 67.05229,90.4660209 C67.00396,90.4660209 66.95563,90.4596518 66.908424,90.4469137 C66.8930633,90.4431672 66.8788266,90.4341756 66.8638405,90.4285558 C66.8327445,90.4176909 66.8012738,90.4075753 66.7713017,90.3903414 L66.7713017,90.3903414 L58.488515,85.6082947 C58.3146769,85.5082628 58.2075267,85.3228105 58.2075267,85.1216229 L58.2075267,85.1216229 L58.2075267,81.779735 C58.2075267,81.7565066 58.2135211,81.7344022 58.2161437,81.7115485 C58.2195155,81.6856976 58.2198902,81.6587227 58.2266339,81.6336211 C58.233003,81.6107674 58.2446172,81.5901616 58.2536088,81.5684318 C58.2629751,81.5452034 58.2700934,81.5208511 58.2824569,81.4991213 C58.2921979,81.482262 58.3064346,81.4687746 58.3176741,81.4530392 C58.3349081,81.4290616 58.3502688,81.4043346 58.3708746,81.3833541 C58.3817395,81.3724893 58.3959762,81.3649962 58.4079651,81.3548807 C58.4334413,81.3335255 58.4577937,81.3106718 58.4873911,81.2938125 L58.4873911,81.2938125 L66.7705524,76.4862895 C66.9447652,76.3851337 67.1598149,76.3851337 67.3344023,76.4862895 L67.3344023,76.4862895 L68.2676582,77.0272857 L68.2676582,75.6268399 C68.2676582,75.6036115 68.2736526,75.5818818 68.2766498,75.559028 C68.2796471,75.5328025 68.2800217,75.5058276 68.2867654,75.480726 C68.2931345,75.4578722 68.3047487,75.4372664 68.3137403,75.4155367 C68.3234812,75.3923083 68.330225,75.367956 68.3425884,75.3462262 C68.3523294,75.3293669 68.3665661,75.3158795 68.3778056,75.3001441 C68.3950396,75.2765411 68.4104003,75.2514395 68.4310061,75.2308337 C68.441871,75.2195941 68.4564824,75.2121011 68.4680966,75.2019855 C68.4935728,75.1806304 68.5179252,75.1577767 68.5475226,75.1409174 L68.5475226,75.1409174 Z M59.33148,82.7530786 L59.33148,84.797175 L66.4903134,88.930326 L66.4903134,86.8862296 L59.33148,82.7530786 Z M74.7588633,82.7425884 L67.6142667,86.8854803 L67.6142667,88.9284528 L74.7588633,84.7851862 L74.7588633,82.7425884 Z M67.0526647,77.6222317 L59.8912088,81.7786111 L67.0519154,85.9125114 L74.2006331,81.7669969 L68.5463986,78.488425 L67.0526647,77.6222317 Z M69.3916115,76.6001835 L69.3916115,77.6791787 L75.6025776,81.2806997 C75.6329243,81.2983083 75.6584006,81.3215367 75.6846262,81.3440158 C75.695491,81.3533821 75.7086038,81.3601258 75.7190941,81.370616 C75.7411985,81.3927204 75.7580578,81.4193206 75.776041,81.4447969 C75.7861566,81.4590337 75.7988948,81.4710225 75.8075117,81.4860085 C75.8239964,81.5148567 75.8344866,81.5463274 75.8457261,81.5777981 C75.8509713,81.5924095 75.8592136,81.6055222 75.8633347,81.6205083 C75.8760729,81.6677143 75.8828166,81.7167936 75.8828166,81.7669969 L75.8828166,81.7669969 L75.8828166,82.3922896 L76.5508195,82.7781802 L76.5508195,80.7337091 L69.3916115,76.6001835 Z M84.8189948,76.5896932 L77.6747728,80.7329598 L77.6747728,82.7759323 L84.8189948,78.6326657 L84.8189948,76.5896932 Z M61.0275631,61.1818855 C61.2021505,61.0803551 61.4172002,61.0807297 61.5917876,61.1815109 L61.5917876,61.1815109 L69.8603375,65.9755464 C69.8918082,65.9939043 69.9184085,66.017882 69.945758,66.041485 C69.9554989,66.050102 69.9674877,66.0560964 69.9764794,66.065088 C70.002705,66.0916883 70.0233108,66.1224096 70.0435419,66.153131 C70.0502856,66.1624973 70.0589026,66.1707396 70.064897,66.1808552 C70.0858775,66.2171964 70.1012382,66.2569094 70.1136017,66.2977464 C70.1154749,66.3037408 70.1192214,66.3089859 70.1207201,66.3149803 C70.1334582,66.3621864 70.1402019,66.4116403 70.1402019,66.4618435 L70.1402019,66.4618435 L70.1402019,69.8044807 C70.1402019,70.0045444 70.033801,70.1899967 69.8603375,70.2904032 L69.8603375,70.2904032 L61.5906637,75.0859374 C61.5535732,75.1076671 61.5138602,75.1222785 61.4733979,75.1342674 C61.4670288,75.1365153 61.4610344,75.1406364 61.4542907,75.1425097 C61.4070846,75.1548732 61.35838,75.1612422 61.3096753,75.1612422 C61.26172,75.1612422 61.2130154,75.1548732 61.1658093,75.1425097 C61.1463275,75.1372646 61.1287189,75.1267743 61.1099863,75.1192813 C61.0826368,75.1091657 61.0549126,75.1009234 61.0294363,75.086312 L61.0294363,75.086312 L61.028687,75.0859374 L60.0796958,74.5378228 L60.0796958,75.9573758 C60.0796958,76.1574395 59.9732948,76.3428918 59.7998314,76.4432983 L59.7998314,76.4432983 L51.5316561,81.2380832 C51.4878219,81.2631848 51.4417399,81.282292 51.3941592,81.2950301 C51.3469531,81.3073936 51.2982485,81.3137627 51.2495438,81.3137627 C51.2012138,81.3137627 51.1528838,81.3073936 51.1056778,81.2950301 C51.0903171,81.290909 51.0760804,81.2819174 51.0607197,81.2766722 C51.0299983,81.2654327 50.9981529,81.2556918 50.9685555,81.2384578 L50.9685555,81.2384578 L42.6853942,76.4564111 C42.5115561,76.3560046 42.4044059,76.1705523 42.4044059,75.9697393 L42.4044059,75.9697393 L42.4044059,72.6274768 C42.4044059,72.6042484 42.4107749,72.582144 42.4133975,72.5592903 C42.4167694,72.5330647 42.417144,72.5064645 42.4238877,72.4813629 C42.4298821,72.4585092 42.441871,72.4379033 42.4508626,72.4161736 C42.4602289,72.3929452 42.4669726,72.3685929 42.4797107,72.3468631 C42.4894517,72.3300038 42.5033138,72.3165164 42.5145533,72.300781 C42.5317872,72.2768034 42.5471479,72.2520764 42.5681284,72.2310959 L42.5681284,72.2310959 L42.6048442,72.2026224 C42.6303205,72.1808927 42.6546728,72.1584136 42.6842702,72.1411797 L42.6842702,72.1411797 L50.9674316,67.3340313 C51.142019,67.2328755 51.3570687,67.2328755 51.5316561,67.3340313 L51.5316561,67.3340313 L52.464912,67.8754022 L52.464912,66.4745817 C52.464912,66.4513533 52.4712811,66.4292489 52.4739036,66.4063952 C52.4772755,66.3805443 52.4776502,66.3535694 52.4843939,66.3284678 C52.4903883,66.305614 52.5023771,66.2850082 52.5113688,66.2632785 C52.520735,66.2400501 52.5274788,66.2156978 52.5402169,66.193968 C52.5499578,66.1771087 52.5638199,66.1636213 52.5750594,66.1478859 C52.5922934,66.1239082 52.6076541,66.0991813 52.6286346,66.0782008 C52.6394994,66.0673359 52.6537362,66.0598429 52.6653504,66.0497273 C52.6908266,66.0283722 52.715179,66.0055185 52.7447764,65.9886592 L52.7447764,65.9886592 Z M43.5283592,73.6008204 L43.5283592,75.6452915 L50.6875672,79.7784425 L50.6875672,77.734346 L43.5283592,73.6008204 Z M58.9557424,73.5903301 L51.8115205,77.7335967 L51.8115205,79.7761946 L58.9557424,75.6333026 L58.9557424,73.5903301 Z M77.1127962,71.4693366 L69.9513403,75.6257159 L77.1120469,79.7599909 L84.2607646,75.6141018 L77.1127962,71.4693366 Z M51.2499185,68.4699735 L44.0880879,72.6259782 L51.2491692,76.7606278 L58.3975123,72.6147387 L56.6295337,71.5893186 L52.7436524,69.3361668 L51.2499185,68.4699735 Z M53.5888653,67.4479253 L53.5888653,68.5269204 L55.9866324,69.9172507 L59.7998314,72.1284415 C59.9732948,72.228848 60.0796958,72.4143003 60.0796958,72.6147387 L60.0796958,72.6147387 L60.0796958,73.2400314 L60.7476987,73.625922 L60.7476987,71.5814509 L53.5888653,67.4479253 Z M69.0162486,67.437435 L61.871652,71.5807016 L61.871652,73.6236741 L69.0162486,69.4804075 L69.0162486,67.437435 Z M61.31005,62.317453 L54.1485941,66.4734577 L61.3093007,70.6077327 L68.4580184,66.4618435 L61.31005,62.317453 Z M118.876017,91.3545435 L46.8092539,132.962546 L46.8092539,110.668183 L118.876017,69.0601801 L118.876017,91.3545435 Z M1.12392332,85.7141711 L45.6853005,110.67605 L45.6853005,132.97978 L1.12392332,108.017901 L1.12392332,85.7141711 Z M30.5797426,69.5985537 L30.5797426,95.3648089 C30.5797426,96.0032144 30.8326321,96.6082759 31.3095629,97.1384072 C31.3121855,97.1410298 31.3155574,97.1436524 31.3178053,97.1462749 C31.4466852,97.2882677 31.596171,97.4223928 31.7561471,97.5523967 C31.9513403,97.7108741 32.1633928,97.8629825 32.4031695,98.0012287 C33.5259989,98.6497498 34.966907,98.973823 36.4081898,98.973823 C36.6992938,98.973823 36.9903977,98.9569637 37.278879,98.9307381 C38.418193,98.8258358 39.5170447,98.5186219 40.4128355,98.0016034 C41.5888653,97.3227356 42.2366371,96.3864825 42.2366371,95.3648089 L42.2366371,63.4658898 L73.0202199,47.2712211 L83.8746117,52.2833036 L83.8746117,65.9269729 C83.8746117,66.5650037 84.1275012,67.1704399 84.6040574,67.7001966 C84.8902909,68.0182754 85.2570743,68.3093793 85.6980387,68.5637674 C85.9823989,68.7278646 86.2873649,68.8709813 86.6069423,68.9934922 C88.4547215,69.7019574 90.8082798,69.7139463 92.6770395,69.0358278 C93.0408257,68.9035759 93.3881273,68.7484704 93.7077047,68.5637674 C94.262563,68.2434407 94.6949103,67.8642938 95.0017496,67.4476817 C95.1830807,67.2019106 95.3235749,66.943776 95.4116179,66.6744019 C95.4258546,66.6309423 95.4322237,66.5859842 95.4438379,66.5417754 C95.497413,66.3409624 95.5311316,66.1364029 95.5311316,65.9269729 L95.5311316,57.6662907 L118.21738,68.1422849 L46.2424067,109.672735 L1.74022439,84.7704249 L30.5797426,69.5985537 Z M36.3621078,26.8096509 C36.3797164,26.8111495 36.397325,26.814896 36.4153082,26.814896 C36.4325422,26.814896 36.4486522,26.8115242 36.4655115,26.8096509 C37.6932431,26.8178932 38.916479,27.0906392 39.8512335,27.6301368 C40.6646011,28.0999493 41.1126838,28.6903995 41.1126838,29.2932131 C41.1126838,29.3209373 41.1066894,29.3486614 41.1048161,29.3763856 C41.1014443,29.4239663 41.1003203,29.471547 41.0917033,29.518753 C41.0890808,29.5314912 41.0838357,29.5442293 41.0812131,29.5569675 C41.0677257,29.6187849 41.052365,29.6806023 41.0298859,29.7416705 C41.0148998,29.7821328 40.9927954,29.8218458 40.9736882,29.8619335 C40.9583275,29.8949028 40.9463387,29.9278721 40.9279808,29.9604667 C40.898758,30.0129179 40.8620422,30.0638704 40.8260757,30.1151976 C40.8122136,30.1350541 40.8017234,30.1552853 40.7867373,30.1747671 C40.7728752,30.193125 40.7552666,30.2107336 40.7402806,30.2287169 C40.6466178,30.3444841 40.5375943,30.4576287 40.4098383,30.5662775 C40.2487383,30.7033998 40.0629114,30.8341531 39.8508589,30.9570386 C38.6130116,31.6714983 36.8693854,31.9168948 35.2793661,31.6992225 C34.431156,31.5830806 33.6256561,31.3380588 32.9651462,30.956664 C32.7047637,30.8064289 32.4863421,30.6423317 32.3031377,30.4707415 C31.9153738,30.1065806 31.7040706,29.7030814 31.7040706,29.2935877 C31.7040706,28.6903995 32.1521533,28.0999493 32.9651462,27.6301368 C33.9028979,27.0891406 35.1306296,26.81602 36.3621078,26.8096509 Z M36.4081898,50.5344322 C37.849098,50.5344322 39.2900062,50.210359 40.4128355,49.5618379 C40.674342,49.4112282 40.9047524,49.2456324 41.1126838,49.0717943 L41.1126838,51.1207612 C41.1126838,51.7239495 40.6646011,52.3143996 39.8508589,52.7842121 C37.9525017,53.8796919 34.8635033,53.8800666 32.9651462,52.7842121 C32.1517786,52.3143996 31.7036959,51.7239495 31.7036959,51.1207612 L31.7036959,49.0714196 C31.9112526,49.2456324 32.1420377,49.4108535 32.4031695,49.5618379 C33.5259989,50.210359 34.966907,50.5344322 36.4081898,50.5344322 Z M31.7036959,41.1719011 C31.9101287,41.3449899 32.143911,41.5072138 32.4031695,41.6566996 C34.6488283,42.9537417 38.1671768,42.9533671 40.4128355,41.6570742 C40.6720941,41.5072138 40.9058764,41.3449899 41.1126838,41.1722757 L41.1126838,46.9254181 C41.1126838,47.5282317 40.6646011,48.1190565 39.8508589,48.5884944 C37.9525017,49.6847235 34.8635033,49.6850981 32.9651462,48.5884944 C32.1517786,48.1186819 31.7036959,47.5282317 31.7036959,46.9254181 L31.7036959,41.1719011 Z M31.7036959,53.2727571 C31.9101287,53.4454713 32.143911,53.6076952 32.4031695,53.7575557 C34.6488283,55.0538485 38.1671768,55.0538485 40.4128355,53.7575557 C40.6720941,53.6076952 40.9058764,53.4454713 41.1126838,53.2727571 L41.1126838,59.0258995 C41.1126838,59.6287131 40.6646011,60.2195379 39.8508589,60.6889758 C37.9525017,61.7855796 34.8635033,61.7855796 32.9651462,60.6889758 C32.1517786,60.2195379 31.7036959,59.6287131 31.7036959,59.0258995 L31.7036959,53.2727571 Z M32.4031695,31.9300076 L32.4031695,31.9303822 C32.7362344,32.1222036 33.0988966,32.2825543 33.4791675,32.4174287 C35.666006,33.1948297 38.5002416,33.0348537 40.4128355,31.9300076 C40.5522057,31.8498322 40.682959,31.7651611 40.8069685,31.6778674 C40.8470562,31.6493939 40.8833973,31.6194218 40.9219864,31.590199 C40.9860517,31.5422437 41.0527396,31.4950376 41.1126838,31.445209 L41.1126838,39.0202798 C41.1126838,39.6230934 40.6646011,40.2139182 39.8508589,40.683356 C37.9521271,41.7792105 34.8635033,41.7792105 32.9651462,40.683356 C32.1517786,40.2139182 31.7036959,39.6230934 31.7036959,39.0202798 L31.7036959,31.445209 C31.7632654,31.4954123 31.830328,31.5422437 31.8943933,31.590199 C31.9337317,31.6197965 31.9696982,31.6497685 32.0101605,31.678242 C32.13417,31.7655357 32.264174,31.8498322 32.4031695,31.9300076 Z M32.4308937,96.6592285 C31.958084,96.2654702 31.7036959,95.8188861 31.7036959,95.3648089 L31.7036959,68.6675457 C31.7036959,68.6671711 31.7036959,68.6667964 31.7036959,68.6660471 L31.7036959,61.1719011 C31.9112526,61.3461138 32.1420377,61.5117096 32.4031695,61.6623194 C33.5259989,62.3108404 34.966907,62.6352883 36.4081898,62.6349136 C37.849098,62.6349136 39.2900062,62.3108404 40.4128355,61.662694 C40.674342,61.5117096 40.9047524,61.3464885 41.1126838,61.1719011 L41.1126838,63.1264559 L41.1126838,95.3648089 C41.1126838,95.9676225 40.6646011,96.5584473 39.8508589,97.0282598 C37.9525017,98.124489 34.8635033,98.124489 32.9651462,97.0278852 C32.7643332,96.9117433 32.5859993,96.7881085 32.4308937,96.6592285 Z M84.9985651,5.75388408 C85.2049978,5.92659824 85.4387801,6.08919682 85.6980387,6.23868262 C87.9436974,7.53535009 91.4620459,7.53572474 93.7077047,6.23868262 C93.9669632,6.08919682 94.2007455,5.92697289 94.4071783,5.75388408 L94.4071783,13.3289548 C94.4071783,13.9317684 93.9594702,14.5225932 93.145728,14.9924057 C91.2469962,16.0882602 88.1587471,16.0886348 86.2600153,14.9924057 C85.4462731,14.5225932 84.9985651,13.9317684 84.9985651,13.3289548 L84.9985651,5.75388408 Z M89.7026843,24.8431072 C91.1439672,24.8431072 92.5848753,24.519034 93.7077047,23.870513 C93.9688365,23.7199032 94.1996216,23.5543074 94.4071783,23.3800947 L94.4071783,25.4294362 C94.4071783,26.0326245 93.9594702,26.6230746 93.145728,27.0928871 C91.2469962,28.1887416 88.1587471,28.1887416 86.2600153,27.0928871 C85.4462731,26.6230746 84.9985651,26.0326245 84.9985651,25.4294362 L84.9985651,23.3800947 C85.2061218,23.5543074 85.4369069,23.7199032 85.6980387,23.870513 C86.820868,24.519034 88.2621508,24.8431072 89.7026843,24.8431072 Z M84.9985651,27.5814322 C85.2049978,27.7541463 85.4387801,27.9163703 85.6980387,28.0662307 C87.9436974,29.3628982 91.4620459,29.3632728 93.7077047,28.0662307 C93.9669632,27.9163703 94.2007455,27.7541463 94.4071783,27.5814322 L94.4071783,33.3349492 C94.4071783,33.9373882 93.9594702,34.528213 93.145728,34.9980255 C91.2477455,36.09388 88.1587471,36.09388 86.2600153,34.9980255 C85.4462731,34.528213 84.9985651,33.9373882 84.9985651,33.3349492 L84.9985651,27.5814322 Z M84.9985651,15.4805761 C85.2049978,15.6536649 85.4387801,15.8158888 85.6980387,15.9657493 C87.9440721,17.2631661 91.4624206,17.2627914 93.7077047,15.9657493 C93.9669632,15.8158888 94.2007455,15.6536649 94.4071783,15.4805761 L94.4071783,21.2340931 C94.4071783,21.8369068 93.9594702,22.4273569 93.145728,22.8975441 C91.2477455,23.9933985 88.1587471,23.9933985 86.2600153,22.8975441 C85.4462731,22.4273569 84.9985651,21.8369068 84.9985651,21.2340931 L84.9985651,15.4805761 Z M86.2600153,67.5904238 C86.0082498,67.4450592 85.7958226,67.2869564 85.6163647,67.1213606 C85.216612,66.7523293 84.9985651,66.3432103 84.9985651,65.9269729 L84.9985651,51.9240132 L84.9985651,35.4809508 C85.2061218,35.6551635 85.4369069,35.8203847 85.6980387,35.9713691 C86.820868,36.6195155 88.2621508,36.9439633 89.7026843,36.9439633 C91.1439672,36.9439633 92.5848753,36.6195155 93.7077047,35.9713691 C93.9688365,35.8203847 94.1996216,35.6551635 94.4071783,35.4809508 L94.4071783,56.7877338 L94.4071783,65.9269729 C94.4071783,66.0022778 94.4004346,66.0775826 94.3865725,66.1521382 C94.2895378,66.6755258 93.8575651,67.1794315 93.145728,67.5904238 C92.7283667,67.8313245 92.2521851,68.0164021 91.7452822,68.1512765 C90.4669726,68.4918344 88.9871007,68.4955809 87.703546,68.1628907 C87.1805331,68.0268923 86.6889908,67.8380682 86.2600153,67.5904238 Z M119.99997,68.0613602 C119.998471,68.0426277 119.992102,68.0253937 119.98948,68.0074105 C119.985359,67.9793117 119.982361,67.9515875 119.974119,67.9249872 C119.96775,67.9028828 119.95726,67.883401 119.948268,67.8624205 C119.937403,67.8376935 119.926913,67.8133412 119.912676,67.7904875 C119.900313,67.770631 119.885327,67.7537717 119.87109,67.7357884 C119.854231,67.7151826 119.838121,67.6949515 119.818639,67.6765936 C119.80103,67.6604836 119.781548,67.6473708 119.762067,67.6335087 C119.747455,67.6226438 119.734717,67.609531 119.718982,67.6001647 C119.711114,67.5956689 119.702872,67.5941703 119.695004,67.5900492 C119.687511,67.5863026 119.681142,67.5803082 119.673649,67.5765617 L95.5311316,56.4280687 L95.5311316,33.3349492 L95.5311316,25.4294362 L95.5311316,21.2340931 L95.5311316,13.3289548 L95.5311316,3.60188813 C95.5311316,3.41734811 95.2540701,2.15089149 93.7077047,1.27767996 C93.3364542,1.06803985 91.9392609,0.351898711 90.0554933,0.351898711 C90.0730499,0.406464141 90.0300812,1.42501883 90.0554933,1.44345145 C90.61747,1.44345145 91.0136729,1.4757732 91.9392609,1.69646271 C94.7030548,2.35543875 94.4071783,3.44895925 94.4071783,3.60188813 C94.4071783,4.20507641 93.9594702,4.79590121 93.145728,5.26533904 C91.2469962,6.36194283 88.1587471,6.36156818 86.2600153,5.26533904 C85.4462731,4.79590121 84.9985651,4.20507641 84.9985651,3.60188813 C84.9985651,3.43576098 85.222464,2.20077566 87.9200457,1.69646271 C88.6543604,1.55918256 89.1629367,1.44345145 90.0554933,1.44345145 C90.0903839,1.45126395 90.0363067,0.321381133 90.0554933,0.351898711 C88.337088,0.351898711 87.2539262,0.727438706 85.8462881,1.44345145 C84.2430998,2.25893328 83.8746117,3.43670862 83.8746117,3.60188813 L83.8746117,13.3289548 L83.8746117,21.2340931 L83.8746117,25.4294362 L83.8746117,33.3349492 L83.8746117,51.0454563 L73.2393908,46.1345296 C73.0809134,46.061098 72.8969597,46.0659685 72.7422288,46.1472677 L42.2366371,62.1958225 L42.2366371,59.0258995 L42.2366371,51.1207612 L42.2366371,46.9254181 L42.2366371,39.0202798 L42.2366371,29.2935877 C42.2366371,28.2719142 41.5888653,27.3356611 40.4132102,26.6571679 C38.1675514,25.3605004 34.6492029,25.3601258 32.4031695,26.6571679 C31.2342581,27.3319145 30.5887342,28.2617986 30.5812412,29.2763538 C30.5812412,29.2819736 30.5797426,29.2875933 30.5797426,29.2935877 L30.5797426,39.0202798 L30.5797426,46.9254181 L30.5797426,51.1207612 L30.5797426,59.0258995 L30.5797426,68.3284865 L0.300440187,84.2579022 C0.296319025,84.2597755 0.293696467,84.263522 0.289575305,84.2657699 C0.285828794,84.2676431 0.281707632,84.2683924 0.277961121,84.2706404 C0.258104612,84.2822545 0.242369266,84.2987392 0.224011361,84.3126013 C0.206028108,84.3264634 0.186546251,84.3384522 0.170436253,84.3541876 C0.150579745,84.3736694 0.135219049,84.3961485 0.11835975,84.4178782 C0.105246961,84.4351122 0.0906355677,84.4508475 0.0797706856,84.4692054 C0.0647846414,84.4939324 0.0557930148,84.5205326 0.0449281327,84.5471329 C0.0374351106,84.5662401 0.0273195308,84.5838487 0.0216997642,84.6037052 C0.0134574398,84.632928 0.0115841843,84.6636494 0.00821232434,84.6939961 C0.0059644177,84.712354 -2.99999992e-05,84.729588 -2.99999992e-05,84.7479459 C-2.99999992e-05,84.7528163 -2.99999992e-05,84.7539403 -2.99999992e-05,84.7554389 L-2.99999992e-05,108.347219 C-2.99999992e-05,108.550655 0.110117425,108.73798 0.287327398,108.837637 L45.9726579,134.429305 C46.0577037,134.47726 46.1524905,134.500863 46.2472772,134.500863 C46.3454358,134.500863 46.4435944,134.475387 46.5312627,134.423685 C46.5372572,134.419939 46.541753,134.415068 46.5473727,134.410947 L119.718982,92.1656631 C119.89282,92.0652566 119.99997,91.8798043 119.99997,91.6789913 L119.99997,68.0868365 C119.99997,68.0823407 119.998471,68.0782195 119.998471,68.0737237 C119.998097,68.0696026 119.99997,68.0654814 119.99997,68.0613602 Z" id="Fill-1"></path>
                    </g>
                </g>
            </g>
        </g>
    </g>
</svg>