<?xml version="1.0" encoding="UTF-8"?>
<svg width="63px" height="123px" viewBox="0 0 63 123" version="1.1" xmlns="http://www.w3.org/2000/svg" xmlns:xlink="http://www.w3.org/1999/xlink">
    <title>Fill 1</title>
    <g id="D---Fiche-produit" stroke="none" stroke-width="1" fill="none" fill-rule="evenodd">
        <g id="D.1.0---Fiche-produit---Particulier" transform="translate(-812.000000, -7307.000000)" fill="#FFFFFF">
            <g id="//-Avec-vous" transform="translate(45.000000, 6987.000000)">
                <g id="Group-20" transform="translate(731.000118, 320.000318)">
                    <path d="M66.022179,100.346802 C66.1902629,100.249205 66.3973856,100.249205 66.564385,100.346802 L66.564385,100.346802 L67.4113108,100.835872 L69.8273807,102.230426 C69.9943802,102.326939 70.0984837,102.505867 70.0984837,102.699976 L70.0984837,102.699976 L70.0984837,116.27573 C70.0984837,116.46984 69.9943802,116.648768 69.8273807,116.745281 C69.743881,116.794079 69.6495372,116.817936 69.5562777,116.817936 C69.4630183,116.817936 69.3686745,116.794079 69.2851747,116.745281 L69.2851747,116.745281 L66.022179,114.861657 C65.8551796,114.765144 65.751076,114.586216 65.751076,114.392107 L65.751076,114.392107 L65.751076,100.815268 C65.751076,100.622243 65.8551796,100.443315 66.022179,100.346802 Z M66.835488,101.755453 L66.835488,114.078712 L69.0140717,115.336629 L69.0140717,103.013371 L66.8691048,101.773888 L66.835488,101.755453 Z M94.9330369,97.6175541 C95.1000363,97.5199571 95.3082434,97.5199571 95.4752429,97.6175541 C95.6422423,97.7140668 95.7463459,97.8929948 95.7463459,98.0871045 L95.7463459,98.0871045 L95.7463459,102.224136 C95.7463459,102.420415 95.6411579,102.600427 95.4709053,102.69694 L95.4709053,102.69694 L76.7409411,113.293814 C76.6574413,113.340444 76.5663507,113.363216 76.4741757,113.363216 C76.3798319,113.363216 76.285488,113.339359 76.2009039,113.289476 C76.0339044,113.192964 75.9319697,113.014036 75.9319697,112.82101 L75.9319697,112.82101 L75.9319697,108.683979 C75.9319697,108.4877 76.0360732,108.307688 76.2063259,108.211175 L76.2063259,108.211175 L94.0177932,98.1445784 C94.0188776,98.1445784 94.019962,98.1445784 94.0210464,98.143494 L94.0210464,98.143494 Z M94.6619339,99.0262053 L94.5556615,99.085848 L94.5545771,99.085848 L94.5513239,99.0891012 L77.0163817,109.000627 L77.0163817,111.891669 L94.6619339,101.907488 L94.6619339,99.0262053 Z M94.9330369,84.1588083 C95.1000363,84.0612112 95.3082434,84.0612112 95.4752429,84.1588083 C95.6422423,84.2553209 95.7463459,84.4342489 95.7463459,84.6283587 L95.7463459,84.6283587 L95.7463459,88.7653905 C95.7463459,88.9616691 95.6411579,89.1416815 95.4709053,89.2381941 L95.4709053,89.2381941 L76.7409411,99.8350683 C76.6574413,99.881698 76.5663507,99.9044706 76.4741757,99.9044706 C76.3798319,99.9044706 76.285488,99.8806136 76.2009039,99.8307306 C76.0339044,99.7342179 75.9319697,99.55529 75.9319697,99.3622646 L75.9319697,99.3622646 L75.9319697,95.2252328 C75.9319697,95.0289542 76.0360732,94.8489418 76.2063259,94.7524292 L76.2063259,94.7524292 L94.0177932,84.6858325 C94.0188776,84.6847481 94.019962,84.6858325 94.0210464,84.6847481 L94.0210464,84.6847481 Z M94.6619339,85.5674595 L94.5556615,85.6271021 L94.5545771,85.6271021 L94.5513239,85.6303554 L77.0163817,95.5418811 L77.0163817,98.4329235 L94.6619339,88.4487422 L94.6619339,85.5674595 Z M66.022179,74.6767097 C66.1902629,74.5791126 66.3973856,74.580197 66.564385,74.6756253 L66.564385,74.6756253 L67.4113108,75.1636107 L67.414564,75.1668639 L69.8273807,76.5592489 C69.9943802,76.6557616 70.0984837,76.8346896 70.0984837,77.0287993 L70.0984837,77.0287993 L70.0984837,90.6045532 C70.0984837,90.798663 69.9943802,90.977591 69.8273807,91.0741036 C69.743881,91.1229022 69.6495372,91.1467593 69.5562777,91.1467593 C69.4630183,91.1467593 69.3686745,91.1229022 69.2851747,91.0741036 L69.2851747,91.0741036 L66.022179,89.19048 C65.8551796,89.0939673 65.751076,88.9150393 65.751076,88.7209296 L65.751076,88.7209296 L65.751076,75.1451757 C65.751076,74.9521503 65.8551796,74.7732223 66.022179,74.6767097 Z M66.835488,76.0842765 L66.835488,88.4075345 L69.0140717,89.6654525 L69.0140717,77.3421944 L66.8734424,76.1048803 C66.872358,76.1048803 66.8701892,76.1048803 66.8691048,76.1037959 L66.8691048,76.1037959 L66.835488,76.0842765 Z M94.9330369,70.6988696 C95.1000363,70.6012725 95.3082434,70.6012725 95.4752429,70.6988696 C95.6422423,70.7953822 95.7463459,70.9743102 95.7463459,71.16842 L95.7463459,71.16842 L95.7463459,75.3065362 C95.7463459,75.5028147 95.6411579,75.6828271 95.4709053,75.7793398 L95.4709053,75.7793398 L76.7409411,86.3762139 C76.6574413,86.4228437 76.5663507,86.4456163 76.4741757,86.4456163 C76.3798319,86.4456163 76.285488,86.4217593 76.2009039,86.3718763 C76.0339044,86.2753636 75.9319697,86.0964357 75.9319697,85.9034103 L75.9319697,85.9034103 L75.9319697,81.7652941 C75.9319697,81.5690155 76.0360732,81.3890031 76.2063259,81.2924905 L76.2063259,81.2924905 L94.0177932,71.2258938 C94.0188776,71.2248094 94.019962,71.2258938 94.0210464,71.2248094 L94.0210464,71.2248094 Z M94.6619339,72.1075208 L94.5556615,72.1671634 L94.5545771,72.1671634 L94.5513239,72.1704166 L77.0163817,82.0819424 L77.0163817,84.9740692 L94.6619339,74.9898879 L94.6619339,72.1075208 Z M94.9330369,57.2335088 C95.1022052,57.1380805 95.3082434,57.1369961 95.4752429,57.2345932 C95.6433268,57.3311059 95.7463459,57.5100338 95.7463459,57.7041436 L95.7463459,57.7041436 L95.7463459,61.8531039 C95.7463459,62.0493825 95.6411579,62.2293949 95.4709053,62.3259076 L95.4709053,62.3259076 L76.7409411,72.9227817 C76.6574413,72.9694114 76.5663507,72.9921841 76.4741757,72.9921841 C76.3798319,72.9921841 76.285488,72.968327 76.2009039,72.9184441 C76.0339044,72.8219314 75.9319697,72.6430034 75.9319697,72.4499781 L75.9319697,72.4499781 L75.9319697,68.3129463 C75.9319697,68.1177521 76.0360732,67.9366553 76.2063259,67.8401426 L76.2063259,67.8401426 L94.0123711,57.7637862 C94.0134555,57.7637862 94.0134555,57.7637862 94.0134555,57.7637862 Z M94.6619339,58.64216 L94.5556615,58.7039715 L94.5556615,58.7039715 L94.5524083,58.7050559 L94.5513239,58.7061403 L77.0163817,68.6295946 L77.0163817,71.520637 L94.6619339,61.5364556 L94.6619339,58.64216 Z M66.022179,49.0056411 C66.1902629,48.908044 66.3973856,48.908044 66.564385,49.0056411 L66.564385,49.0056411 L67.4113108,49.4947109 L69.8273807,50.8881803 C69.9943802,50.984693 70.0984837,51.163621 70.0984837,51.3577307 L70.0984837,51.3577307 L70.0984837,64.9334847 C70.0984837,65.1275944 69.9943802,65.3065224 69.8273807,65.4030351 C69.743881,65.4518336 69.6495372,65.4756907 69.5562777,65.4756907 C69.4630183,65.4756907 69.3686745,65.4518336 69.2851747,65.4030351 L69.2851747,65.4030351 L66.022179,63.5194114 C65.8551796,63.4228987 65.751076,63.2439708 65.751076,63.049861 L65.751076,63.049861 L65.751076,49.4741071 C65.751076,49.2810818 65.8551796,49.1021538 66.022179,49.0056411 Z M66.835488,50.4142923 L66.835488,62.7364659 L69.0140717,63.9943839 L69.0140717,51.6711258 L66.8691048,50.4327273 L66.835488,50.4142923 Z M66.022179,23.3344641 C66.1902629,23.236867 66.3973856,23.236867 66.564385,23.3344641 L66.564385,23.3344641 L67.4113108,23.8235339 L69.8273807,25.2180877 C69.9943802,25.3146004 70.0984837,25.4935284 70.0984837,25.6876381 L70.0984837,25.6876381 L70.0984837,39.2623077 C70.0984837,39.4564174 69.9943802,39.6353454 69.8273807,39.7318581 C69.743881,39.7806566 69.6495372,39.8045137 69.5562777,39.8045137 C69.4630183,39.8045137 69.3686745,39.7806566 69.2851747,39.7318581 L69.2851747,39.7318581 L66.022179,37.8482344 C65.8551796,37.7517217 65.751076,37.5727937 65.751076,37.378684 L65.751076,37.378684 L65.751076,23.8029301 C65.751076,23.6099047 65.8551796,23.4309768 66.022179,23.3344641 Z M66.835488,24.7431153 L66.835488,37.0652889 L69.0140717,38.3232069 L69.0140717,26.0010332 L66.8691048,24.7615503 L66.835488,24.7431153 Z M53.6322296,2.72011714 C53.7265735,2.72120156 53.8198329,2.74397421 53.9033326,2.79277275 C53.904417,2.79277275 53.904417,2.79385716 53.904417,2.79385716 L76.895036,16.0670601 C77.0631199,16.1635728 77.1672234,16.3435852 77.1661474,16.5387794 C77.1650546,16.7328891 77.060951,16.9118171 76.8917828,17.0072453 L76.8917828,17.0072453 L74.5602969,18.3345656 L71.8622799,19.870093 C71.7787801,19.9178072 71.6855207,19.9416642 71.5933457,19.9416642 C71.5000863,19.9416642 71.4068268,19.9167228 71.3211583,19.8679242 L71.3211583,19.8679242 L64.2670582,15.7818598 L57.244406,19.8505736 C57.0752377,19.9460019 56.8691995,19.9481707 56.7011156,19.8505736 L56.7011156,19.8505736 L43.3335688,12.131729 L41.0053362,10.7881425 C40.8372523,10.6916298 40.7342332,10.5116174 40.7342332,10.3185921 C40.7342332,10.1233979 40.8394212,9.94446994 41.007505,9.84795727 L41.007505,9.84795727 L53.362211,2.79060392 C53.4186004,2.75915598 53.4814963,2.75373392 53.5433078,2.7428898 C53.5736714,2.73746774 53.6018661,2.72011714 53.6322296,2.72011714 Z M53.6300608,6.56110448 L44.6945058,11.6654318 L56.9722186,18.7553175 L63.9948708,14.6855192 C64.0794549,14.6367207 64.1727143,14.6117792 64.2670582,14.6117792 C64.361402,14.6117792 64.453577,14.6367207 64.5392456,14.6855192 L64.5392456,14.6855192 L71.5955145,18.7737525 L73.2015287,17.8606776 L57.5979243,8.85138264 L53.6300608,6.56110448 Z M54.1733512,4.20142395 L54.1733512,5.62200368 L74.294616,17.2382251 L75.5330145,16.5333573 L54.1733512,4.20142395 Z M53.0889392,4.19600189 L42.3651888,10.3207609 L43.6046718,11.0386417 L53.0889392,5.61983485 L53.0889392,4.19600189 Z M97.9151699,106.429378 L72.113755,121.209913 L72.113755,22.4340768 L79.7827167,18.0725717 L80.820499,17.4826516 L80.820499,59.7042331 C80.820499,59.7096552 80.8248367,59.7150772 80.8248367,59.7204993 C80.8291743,59.7747199 80.8465249,59.8246028 80.8671287,59.8766546 C80.9083364,59.9981087 80.9766544,60.1065499 81.0905176,60.1737835 C81.2575171,60.2713806 81.4635553,60.272465 81.6316392,60.1759523 L97.9151699,50.8738661 L97.9151699,106.429378 Z M64.8091557,18.8219004 L71.029343,22.4308236 L71.029343,121.197985 L64.8091557,117.544601 L64.8091557,18.8219004 Z M57.516485,116.591403 L61.4637447,114.342332 C61.6318285,114.245819 61.7370165,114.065807 61.7370165,113.870613 L61.7370165,109.709724 C61.7370165,109.517783 61.6339974,109.338855 61.4669979,109.241258 C61.2999985,109.144745 61.0950446,109.143661 60.9258763,109.239089 L60.0182235,109.756354 C60.0171391,109.756354 60.0171391,109.757438 60.0160547,109.758523 L57.516485,111.181271 L57.516485,109.177278 L61.4442253,106.939051 C61.6123091,106.842539 61.7174971,106.662526 61.7174971,106.467332 L61.7174971,102.294515 C61.7174971,102.101489 61.6133935,101.921477 61.4453097,101.824964 C61.2772258,101.729536 61.0679343,101.727367 60.9020193,101.827133 L59.9997885,102.354157 L57.516485,103.768231 L57.516485,97.21296 L61.4442253,94.9747336 C61.6123091,94.878221 61.7174971,94.6982086 61.7174971,94.5030144 L61.7174971,90.3421255 C61.7174971,90.1480158 61.614478,89.9701722 61.4474785,89.8725751 C61.2815635,89.7771469 61.0755252,89.7771469 60.9063569,89.8714907 L60.0019573,90.3887553 C60.0008729,90.3898397 60.0008729,90.3898397 59.9997885,90.3898397 L57.516485,91.8039129 L57.516485,89.7034069 L61.4442253,87.4651805 C61.6123091,87.3686678 61.7174971,87.1886554 61.7174971,86.9934613 L61.7174971,82.8206439 C61.7174971,82.6276185 61.6133935,82.4476061 61.4453097,82.3510935 C61.2772258,82.2556652 61.0679343,82.2545808 60.9020193,82.3532623 L59.9997885,82.8802865 L57.516485,84.2943598 L57.516485,77.7987319 L61.4442253,75.5594211 C61.6123091,75.4629084 61.7174971,75.282896 61.7174971,75.0887862 L61.7174971,70.9148844 C61.7174971,70.7207747 61.614478,70.5429311 61.4474785,70.445334 C61.2815635,70.3499058 61.0755252,70.3499058 60.9063569,70.4442496 L60.0019573,70.9615141 C60.0008729,70.9625986 60.0008729,70.9625986 59.9997885,70.9625986 L57.516485,72.3766718 L57.516485,70.2891787 L61.4442253,68.0498679 C61.6123091,67.9544396 61.7174971,67.7744273 61.7174971,67.5792331 L61.7174971,63.4064157 C61.7174971,63.2123059 61.6133935,63.0322935 61.4453097,62.9368653 C61.2772258,62.8403526 61.0679343,62.8403526 60.9020193,62.9390341 L59.9997885,63.4660583 L57.516485,64.8801316 L57.516485,58.3812504 L61.4431409,56.1451929 C61.6123091,56.0486802 61.7174971,55.8686678 61.7174971,55.6734737 L61.7174971,51.5006563 C61.7174971,51.3065465 61.614478,51.1287029 61.4474785,51.0311059 C61.2815635,50.9345932 61.0755252,50.9345932 60.9063569,51.0300214 L60.0019573,51.547286 C60.0008729,51.5483704 60.0008729,51.5483704 59.9997885,51.5483704 L57.516485,52.9613592 L57.516485,50.9313399 L61.4431409,48.6952824 C61.6123091,48.5987697 61.7174971,48.4187573 61.7174971,48.2235632 L61.7174971,44.0507458 C61.7174971,43.856636 61.6133935,43.6766236 61.4453097,43.5801109 C61.2772258,43.4835983 61.0679343,43.4835983 60.9020193,43.5822798 L59.9997885,44.109304 L57.516485,45.5233773 L57.516485,38.9670223 L62.9916812,35.852591 C63.1608495,35.7560783 63.2660374,35.5760659 63.2660374,35.3808718 L63.2660374,31.2102232 C63.2660374,31.0161134 63.1630183,30.8371854 62.9949344,30.7406728 C62.8301038,30.6441601 62.6229811,30.6441601 62.4538129,30.7395884 L61.5450756,31.262275 L57.516485,33.5492999 L57.516485,31.4553003 L62.9916812,28.340869 C63.1608495,28.2443563 63.2660374,28.0643439 63.2660374,27.8702342 L63.2660374,23.6985012 C63.2660374,23.5043914 63.1630183,23.3254635 62.9949344,23.2289508 C62.8301038,23.1324381 62.6229811,23.1324381 62.4538129,23.2278664 L61.5450756,23.750553 L57.516485,26.0375779 L57.516485,22.4167262 L63.7247437,18.8219004 L63.7247437,117.544601 L57.516485,121.1969 L57.516485,116.591403 Z M37.0839939,11.2472825 L56.432073,22.4167262 L56.432073,26.061435 L41.3056099,17.502171 C41.3045255,17.5010866 41.3034411,17.502171 41.3012722,17.5010866 L40.3784376,16.9729779 C40.2125226,16.8764653 40.0053999,16.8775497 39.837316,16.9740623 C39.6703166,17.0716594 39.5672974,17.249503 39.5672974,17.4425283 L39.5672974,21.6142613 C39.5672974,21.8094555 39.6724854,21.9905523 39.8427381,22.087065 L56.432073,31.4791574 L56.432073,33.5720725 L41.3056099,25.013893 C41.3045255,25.0128086 41.3034411,25.0128086 41.3012722,25.0128086 L40.3784376,24.4846999 C40.2125226,24.3881872 40.0053999,24.3892716 39.837316,24.4857843 C39.6703166,24.582297 39.5672974,24.7601406 39.5672974,24.9542503 L39.5672974,29.1259833 C39.5672974,29.3211775 39.6724854,29.5022743 39.8427381,29.5977025 L56.432073,38.9908793 L56.432073,45.4767475 L41.3088631,36.9174836 C41.3077787,36.9174836 41.3077787,36.9174836 41.3066943,36.9163992 L40.3773532,36.3882905 C40.2103537,36.2917778 40.0032311,36.2939467 39.837316,36.3904593 C39.6703166,36.4880564 39.5672974,36.6669844 39.5672974,36.8600097 L39.5672974,41.0328271 C39.5672974,41.2280213 39.6724854,41.4091181 39.8427381,41.5056308 L56.432073,50.8966388 L56.432073,52.9863007 L41.3088631,44.4270367 C41.3077787,44.4270367 41.3077787,44.4270367 41.3066943,44.4259523 L40.3773532,43.8978437 C40.2103537,43.801331 40.0032311,43.8034998 39.837316,43.9000125 C39.6703166,43.9976096 39.5672974,44.1765376 39.5672974,44.3695629 L39.5672974,48.5412959 C39.5672974,48.73649 39.6724854,48.9175868 39.8427381,49.0140995 L56.432073,58.4051075 L56.432073,64.8920601 L41.3088631,56.3327962 C41.3077787,56.3327962 41.3077787,56.3327962 41.3066943,56.3317117 L40.3773532,55.8025187 C40.2103537,55.7070904 40.0032311,55.7092593 39.837316,55.8046875 C39.6703166,55.9022846 39.5672974,56.0812126 39.5672974,56.2742379 L39.5672974,60.4481397 C39.5672974,60.6422495 39.6724854,60.8233463 39.8427381,60.919859 L56.432073,70.3108669 L56.432073,72.4005289 L41.3088631,63.8423493 C41.3077787,63.8423493 41.3077787,63.8423493 41.3066943,63.8412649 L40.3773532,63.3120718 C40.2103537,63.2155592 40.0032311,63.217728 39.837316,63.3142407 C39.6703166,63.4118377 39.5672974,63.5907657 39.5672974,63.7837911 L39.5672974,67.9555241 C39.5672974,68.1507182 39.6724854,68.331815 39.8427381,68.4283277 L56.432073,77.8204201 L56.432073,84.3073727 L41.3088631,75.7481087 C41.3077787,75.7481087 41.3077787,75.7481087 41.3066943,75.7470243 L40.3773532,75.2189157 C40.2103537,75.122403 40.0032311,75.1245718 39.837316,75.2210845 C39.6703166,75.3186816 39.5672974,75.4976096 39.5672974,75.6895505 L39.5672974,79.8623679 C39.5672974,80.0575621 39.6724854,80.2386589 39.8427381,80.3351715 L56.432073,89.7261795 L56.432073,91.8147571 L41.3088631,83.2565775 C41.3077787,83.2565775 41.3077787,83.2565775 41.3066943,83.2554931 L40.3773532,82.7273844 C40.2103537,82.6308718 40.0032311,82.634125 39.837316,82.7295532 C39.6703166,82.8260659 39.5672974,83.0049939 39.5672974,83.1980192 L39.5672974,87.3719211 C39.5672974,87.5660308 39.6724854,87.7471276 39.8427381,87.8436403 L56.432073,97.2346483 L56.432073,103.721601 L41.3088631,95.1623369 C41.3077787,95.1623369 41.3077787,95.1623369 41.3066943,95.1612525 L40.3773532,94.6331439 C40.2103537,94.5366312 40.0032311,94.5388 39.837316,94.6353127 C39.6703166,94.7329098 39.5672974,94.9118377 39.5672974,95.1048631 L39.5672974,99.265752 C39.5672974,99.4598617 39.6724854,99.6398741 39.8427381,99.7363868 L56.432073,109.140408 L56.432073,111.231154 L41.3088631,102.670806 C41.3077787,102.670806 41.3077787,102.670806 41.3066943,102.669721 L40.3773532,102.141613 C40.2103537,102.0451 40.0032311,102.047269 39.837316,102.143781 C39.6703166,102.241379 39.5672974,102.420306 39.5672974,102.612247 L39.5672974,106.786149 C39.5672974,106.981343 39.6724854,107.16244 39.8427381,107.258953 L56.432073,116.649961 L56.432073,121.212082 L37.0839939,109.838769 L37.0839939,11.2472825 Z M53.6364588,1.16767291 L80.2717865,16.546804 L71.5748022,21.4928072 L64.5402216,17.396983 L64.5380527,17.3948142 C64.4719036,17.3579442 64.399248,17.3481845 64.3265924,17.3395092 C64.3059886,17.3373404 64.2875536,17.3243274 64.2680341,17.3243274 C64.2127291,17.3243274 64.1617618,17.3492689 64.1086256,17.3655351 C64.0717556,17.3774636 64.0316323,17.3752948 63.9969311,17.3948142 C63.9969311,17.3948142 63.9969311,17.3958986 63.9958467,17.3958986 L63.9947623,17.3958986 L56.9601816,21.4711189 L37.6305376,10.3092661 L53.6364588,1.16767291 Z M97.3512757,49.9228368 L81.904911,58.7445285 L81.904911,57.2784034 L91.5767817,51.7544087 L93.9928517,50.376121 C94.1609355,50.2796083 94.2661235,50.0995959 94.2661235,49.9044018 C94.2661235,49.7092076 94.16202,49.5302796 93.9928517,49.433767 L81.904911,42.5217248 L81.904911,41.361404 L97.3512757,49.9228368 Z M81.904911,46.4809131 L90.2190979,51.281605 L81.904911,56.0291608 L81.904911,46.4809131 Z M91.308932,50.6580681 L82.028534,45.2999884 C81.9884108,45.2772157 81.9461187,45.2707093 81.904911,45.2587807 L81.904911,43.7709675 L92.6308302,49.9044018 L91.308932,50.6580681 Z M60.553923,110.699792 C60.553923,110.699792 60.5550074,110.699792 60.5560918,110.699792 L60.6526045,110.644487 L60.6526045,113.555049 L56.9222272,115.680497 L40.6517094,106.469501 L40.6517094,103.545926 L40.774248,103.614244 C40.774248,103.614244 40.774248,103.615329 40.7753324,103.615329 L56.6879942,112.622455 C56.7064292,112.632214 56.727033,112.630046 56.7443836,112.637636 C56.7899289,112.65824 56.8398119,112.668 56.8918637,112.675591 C56.9124675,112.678844 56.9341557,112.691857 56.955844,112.691857 C56.9580128,112.691857 56.9601816,112.689688 56.9634349,112.689688 C56.9666881,112.689688 56.9699413,112.691857 56.974279,112.691857 C57.134772,112.691857 57.2735767,112.620286 57.3733426,112.51076 L60.553923,110.699792 Z M60.535488,103.296511 C60.5365724,103.295427 60.5365724,103.294343 60.5376568,103.294343 C60.5387412,103.293258 60.5398257,103.293258 60.5409101,103.293258 L60.6330851,103.240122 L60.6330851,106.151768 L57.0046425,108.219742 L40.6517094,98.9501881 L40.6517094,96.0374574 L40.774248,96.1057754 C40.774248,96.1057754 40.774248,96.1068598 40.7753324,96.1068598 L56.524248,105.019642 C56.6283515,105.163869 56.7855913,105.253875 56.955844,105.253875 C57.0458502,105.253875 57.1380252,105.231102 57.2236937,105.183388 L60.535488,103.296511 Z M60.535488,91.3321937 C60.5365724,91.3321937 60.5365724,91.3311093 60.5365724,91.3311093 L60.6330851,91.2768887 L60.6330851,94.1874505 L56.9547596,96.2847033 L40.6517094,87.0552727 L40.6517094,84.131698 L40.774248,84.2000159 C40.774248,84.2000159 40.774248,84.2011003 40.7753324,84.2011003 L56.6576307,93.1887071 C56.7465525,93.2494341 56.8474028,93.2895574 56.955844,93.2895574 C57.0024737,93.2895574 57.048019,93.2646159 57.0946487,93.2526874 C57.1315187,93.2440121 57.1673043,93.2396744 57.1987523,93.2244927 C57.2074276,93.220155 57.2161029,93.2223238 57.2236937,93.2179862 L60.535488,91.3321937 Z M60.535488,83.8226406 C60.5365724,83.8215561 60.5365724,83.8204717 60.5376568,83.8204717 C60.5387412,83.8193873 60.5398257,83.8193873 60.5409101,83.8193873 L60.6330851,83.7662511 L60.6330851,86.6778974 L56.9547596,88.7751502 L40.6517094,79.5457196 L40.6517094,76.6232292 L40.774248,76.6915472 C40.774248,76.6915472 40.774248,76.6926316 40.7753324,76.6926316 L56.6597995,85.6824071 C56.7487213,85.7420498 56.8484872,85.7800042 56.955844,85.7800042 C56.998136,85.7800042 57.0371749,85.758316 57.0794669,85.7474719 C57.121759,85.7387966 57.1640511,85.7322901 57.2020055,85.7138551 C57.208512,85.7116863 57.2171873,85.7127707 57.2236937,85.7095174 L60.535488,83.8226406 Z M60.535488,71.9049526 C60.5365724,71.9049526 60.5365724,71.9038682 60.5365724,71.9038682 L60.6330851,71.8496476 L60.6330851,74.7732223 L56.9547596,76.8693908 L40.6517094,67.6399602 L40.6517094,64.7163854 L40.774248,64.7857878 C40.774248,64.7857878 40.774248,64.7868722 40.7753324,64.7868722 L56.6879942,73.7918295 C56.7064292,73.8015892 56.727033,73.798336 56.7443836,73.8070113 C56.7899289,73.8286995 56.8398119,73.8362904 56.8918637,73.8449657 C56.9124675,73.8482189 56.9341557,73.8623163 56.955844,73.8623163 C56.9580128,73.8623163 56.9601816,73.8601474 56.9634349,73.8601474 C56.9666881,73.8601474 56.9699413,73.8623163 56.974279,73.8623163 C57.0783825,73.8623163 57.1694731,73.8254463 57.2518885,73.7755633 L60.535488,71.9049526 Z M60.535488,64.4084124 C60.5365724,64.407328 60.5365724,64.4062436 60.5376568,64.4062436 C60.5387412,64.4051591 60.5398257,64.4051591 60.5409101,64.4051591 L60.6330851,64.3509385 L60.6330851,67.2636692 L56.9547596,69.3598376 L40.6517094,60.1314914 L40.6517094,57.2068322 L40.774248,57.2762346 C40.774248,57.2762346 40.774248,57.277319 40.7753324,57.277319 L56.6597995,66.268179 C56.7487213,66.3278216 56.8484872,66.3657761 56.955844,66.3657761 C56.998136,66.3657761 57.0371749,66.3430034 57.0794669,66.3321593 C57.121759,66.3245684 57.1640511,66.3180619 57.2020055,66.2996269 C57.208512,66.2963737 57.2171873,66.2985425 57.2236937,66.2942049 L60.535488,64.4084124 Z M60.535488,52.4907244 C60.5365724,52.4907244 60.5365724,52.48964 60.5365724,52.48964 L60.6330851,52.4354194 L60.6330851,55.3579098 L56.955844,57.4540782 L40.6517094,48.2246476 L40.6517094,45.3021572 L40.774248,45.3704752 C40.774248,45.3704752 40.774248,45.3715596 40.7753324,45.3715596 L56.6879942,54.3776013 C56.7064292,54.387361 56.727033,54.3851922 56.7443836,54.3927831 C56.7899289,54.4133869 56.8398119,54.4231466 56.8918637,54.4307375 C56.9124675,54.4339907 56.9341557,54.4470037 56.955844,54.4470037 C56.9580128,54.4470037 56.9601816,54.4448349 56.9634349,54.4448349 C56.9666881,54.4448349 56.9699413,54.4470037 56.974279,54.4470037 C57.0783825,54.4470037 57.1694731,54.4101337 57.2518885,54.3602507 L60.535488,52.4907244 Z M60.535488,45.051658 C60.5365724,45.0505736 60.5365724,45.0494892 60.5376568,45.0494892 C60.5387412,45.0484048 60.5398257,45.0484048 60.5409101,45.0484048 L60.6330851,44.9952686 L60.6330851,47.9079993 L57.0057269,49.9748886 L40.6517094,40.7161788 L40.6517094,37.7926041 L40.774248,37.8620064 C40.774248,37.8620064 40.774248,37.8630908 40.7753324,37.8630908 L56.524248,46.7747887 C56.6283515,46.9190155 56.7855913,47.0090217 56.955844,47.0090217 C57.0458502,47.0090217 57.1380252,46.9862491 57.2236937,46.9385349 L60.535488,45.051658 Z M62.0829439,32.2035446 L62.0840284,32.2024602 L62.0851128,32.2024602 L62.1816254,32.1471552 L62.1816254,35.0653079 L56.955844,38.03985 L40.6517094,28.8104194 L40.6517094,25.8890135 L40.7688259,25.9551626 L40.7720792,25.9584158 L56.6879942,34.9644575 C56.7064292,34.9731328 56.727033,34.970964 56.7443836,34.9785549 C56.7899289,35.0002431 56.8398119,35.0100029 56.8918637,35.0165093 C56.9124675,35.0197626 56.9341557,35.0338599 56.955844,35.0338599 C56.9580128,35.0338599 56.9601816,35.0316911 56.9634349,35.0316911 C56.9666881,35.0316911 56.9699413,35.0338599 56.974279,35.0338599 C57.0783825,35.0338599 57.1694731,34.9969899 57.250804,34.947107 L62.0829439,32.2035446 Z M62.0829439,24.6918226 L62.0840284,24.6907382 L62.0851128,24.6907382 L62.1816254,24.6354332 L62.1816254,27.5546703 L56.955844,30.528128 L40.6517094,21.2986974 L40.6517094,18.3783759 L40.7688259,18.444525 C40.7699103,18.444525 40.7709948,18.4456094 40.7720792,18.4466938 L56.6879942,27.4527356 C56.7064292,27.4624953 56.727033,27.459242 56.7443836,27.4679173 C56.7899289,27.4885212 56.8398119,27.4971965 56.8918637,27.5058718 C56.9124675,27.509125 56.9341557,27.5221379 56.955844,27.5221379 C56.9580128,27.5221379 56.9601816,27.5199691 56.9634349,27.5199691 C56.9666881,27.5199691 56.9699413,27.5221379 56.974279,27.5221379 C57.0783825,27.5221379 57.1694731,27.4852679 57.250804,27.435385 L62.0829439,24.6918226 Z M98.9995819,49.9119927 C98.9984975,49.7157141 98.8911407,49.5357017 98.7198036,49.4402734 L81.904911,40.1219211 L81.904911,16.5500572 C81.904911,16.4882458 81.8788851,16.4318563 81.8582813,16.3743825 C81.8387619,16.3190775 81.8149048,16.2713634 81.7791192,16.2247336 C81.7368272,16.1726819 81.6956195,16.1162924 81.6348924,16.0815913 L81.6327236,16.0815913 L53.9086462,0.0735011981 C53.7416468,-0.0240958825 53.5356085,-0.0240958825 53.3686091,0.0713323741 L36.2728537,9.8364625 C36.1882696,9.88526104 36.1210361,9.953579 36.0733219,10.0359943 C36.0581402,10.0609358 36.060309,10.0923837 36.0505493,10.119494 C36.0277766,10.1791367 35.9995819,10.2398638 35.9995819,10.3060129 L35.9995819,10.3070973 L35.9995819,110.148911 C35.9995819,110.339767 36.1015167,110.518695 36.2674317,110.615208 L56.6999227,122.626155 C56.7855913,122.676038 56.8799351,122.70098 56.974279,122.70098 C57.0838046,122.70098 57.1835705,122.659772 57.2735767,122.596876 L64.2680341,118.483702 L71.2971928,122.612058 C71.2982772,122.612058 71.2982772,122.614227 71.2993616,122.614227 C71.3839457,122.663025 71.4772052,122.686882 71.571549,122.686882 C71.6648084,122.686882 71.7580679,122.663025 71.8404832,122.615311 L98.7263101,107.214492 C98.8954784,107.117979 98.9995819,106.939051 98.9995819,106.743857 L98.9995819,49.939103 C98.9995819,49.9336809 98.9963287,49.9304277 98.9963287,49.92609 C98.9963287,49.920668 98.9995819,49.9174147 98.9995819,49.9119927 L98.9995819,49.9119927 Z" id="Fill-1"></path>
                </g>
            </g>
        </g>
    </g>
</svg>