<?xml version="1.0" encoding="UTF-8"?>
<svg width="305px" height="351px" viewBox="0 0 305 351" version="1.1" xmlns="http://www.w3.org/2000/svg" xmlns:xlink="http://www.w3.org/1999/xlink">
    <title>Fill 1</title>
    <g id="D---Fiche-produit" stroke="none" stroke-width="1" fill="none" fill-rule="evenodd">
        <g id="D.1.2---Fiche-produit---Prescripteur" transform="translate(-227.000000, -2521.000000)" fill="#FFFFFF">
            <g id="//-Mon-projet" transform="translate(45.000000, 2412.000000)">
                <g id="txt" transform="translate(182.000000, 80.000000)">
                    <path d="M180.836095,130.294917 C181.02665,130.261936 181.215881,130.305471 181.365414,130.421564 L181.365414,130.421564 L184.0742,132.507272 C184.199913,132.603576 184.271371,132.739457 184.304453,132.881934 C184.559849,133.232851 184.770254,133.794844 184.624691,134.735458 L184.624691,134.735458 L179.184622,169.803328 C178.921287,171.499863 177.623134,173.447052 176.229703,174.235953 L176.229703,174.235953 L119.611174,206.313121 C119.134788,206.583564 118.731183,206.67591 118.401682,206.67591 C118.074828,206.67591 117.841928,206.582244 117.663283,206.483302 C117.558743,206.546625 117.442293,206.584883 117.319226,206.584883 C117.208069,206.584883 117.094266,206.55586 116.991049,206.496494 L116.991049,206.496494 L89.2018397,190.587855 C88.5918004,190.23562 88.2424503,189.722438 88.241127,189.176275 L88.241127,189.176275 L88.2503901,187.475783 L88.2861191,187.475783 C88.2834725,187.442802 88.2715628,187.412459 88.2715628,187.380798 C88.2715628,186.890043 88.5534248,186.44678 89.0470141,186.161826 L89.0470141,186.161826 L120.087561,168.106793 L120.278115,167.005233 C120.538805,165.321891 121.836958,163.374702 123.230388,162.5858 L123.230388,162.5858 L179.997126,130.421564 C180.163861,130.32394 180.415287,130.279086 180.603195,130.334494 C180.660097,130.327898 180.735525,130.314706 180.836095,130.294917 Z M183.069819,133.558701 C182.944105,133.558701 182.750904,133.61279 182.511388,133.747352 L182.511388,133.747352 L125.892859,165.825838 C124.847455,166.418174 123.794112,168.014447 123.592971,169.312573 L123.592971,169.312573 L118.152903,204.381763 C118.056302,204.996526 118.191278,205.269607 118.275969,205.327653 C118.361983,205.387019 118.612086,205.361953 118.957466,205.166707 L118.957466,205.166707 L175.575995,173.089539 C175.796986,172.962893 176.016653,172.786115 176.231026,172.582953 C176.229703,172.575038 176.225733,172.568442 176.225733,172.560526 C176.225733,172.220164 176.489069,171.949721 176.821216,171.914102 C177.347888,171.21227 177.759433,170.358725 177.875883,169.601485 L177.875883,169.601485 L183.315952,134.533615 C183.412552,133.917533 183.277576,133.645771 183.194208,133.587724 C183.166419,133.569255 183.124074,133.558701 183.069819,133.558701 Z M89.5630994,188.979709 L89.5617761,189.178913 C89.565746,189.189467 89.6292642,189.309518 89.8621642,189.444079 L89.8621642,189.444079 L116.81902,204.877794 C116.812404,204.728721 116.81902,204.567775 116.837547,204.393636 L116.837547,204.393636 L114.961113,203.332972 C114.889655,203.358037 114.815551,203.372549 114.7388,203.372549 C114.701747,203.372549 114.663372,203.368591 114.624996,203.361995 C114.348427,203.314503 114.145963,203.102106 114.093031,202.842217 L114.093031,202.842217 L89.5630994,188.979709 Z M180.784487,131.640535 C180.69318,131.651089 180.596579,131.656366 180.498655,131.656366 L180.498655,131.656366 L123.884096,163.732215 C122.838693,164.32455 121.785349,165.920823 121.584208,167.218949 L121.584208,167.218949 L119.263148,180.561679 C119.298877,180.598617 119.338575,180.630279 119.366365,180.676452 C119.552949,180.989111 119.449732,181.394115 119.134788,181.580127 L119.134788,181.580127 L119.080533,181.613108 L115.511604,202.127192 L117.030748,202.986013 L122.285555,169.11073 C122.547567,167.415515 123.845721,165.468326 125.239151,164.679424 L125.239151,164.679424 L181.85768,132.600938 C181.894732,132.57983 181.927814,132.567957 181.963543,132.549488 L181.963543,132.549488 Z M119.791143,169.805967 L89.7113085,187.302963 C89.6133846,187.35969 89.5908886,187.401906 89.5908886,187.401906 C89.601475,187.401906 89.6676398,187.520637 89.8952466,187.651241 L89.8952466,187.651241 L114.288879,201.435914 L117.582562,182.498314 L115.917856,183.483782 C115.737888,183.586682 115.522191,183.638132 115.303847,183.638132 C115.066977,183.638132 114.826137,183.578766 114.623673,183.461355 L114.623673,183.461355 L108.009841,179.655365 C107.70813,179.482546 107.526838,179.193634 107.525515,178.882294 C107.525515,178.584148 107.689604,178.311066 107.963526,178.152758 L107.963526,178.152758 L119.444439,171.363982 C119.469582,171.348151 119.498694,171.346831 119.52516,171.334958 L119.52516,171.334958 L119.791143,169.805967 Z M239.43626,180.008128 C240.512099,179.389408 241.557503,179.308935 242.379269,179.78122 C243.194419,180.250867 243.64434,181.183566 243.64434,182.406495 C243.643017,184.683493 242.085498,187.362856 240.097907,188.506632 C239.483898,188.860187 238.880475,189.038283 238.322045,189.038283 C237.90256,189.038283 237.508218,188.936702 237.154898,188.734859 C236.339748,188.265212 235.889827,187.332514 235.889827,186.108265 C235.889827,183.832587 237.448669,181.151904 239.43626,180.008128 Z M241.210799,180.799669 C240.883945,180.799669 240.501513,180.9184 240.097907,181.150585 C238.533772,182.050302 237.213123,184.320703 237.213123,186.108265 C237.213123,186.831205 237.43279,187.370772 237.816546,187.591084 C238.205595,187.816673 238.795784,187.733561 239.43626,187.364176 C240.999072,186.464458 242.319721,184.194057 242.321044,182.406495 C242.321044,181.684874 242.100054,181.143989 241.717621,180.923677 C241.573382,180.840565 241.401354,180.799669 241.210799,180.799669 Z M119.231388,173.023578 L109.318581,178.884933 L115.285321,182.318898 L117.881627,180.787268 L119.231388,173.023578 Z M265.679462,165.135483 C266.511815,164.655282 267.348138,164.609109 268.032282,165.002241 C268.813027,165.4521 269.260301,166.420417 269.260301,167.657858 L269.260301,167.657858 L269.260301,167.853105 C269.260301,169.994221 267.978027,172.411057 266.34111,173.354309 L266.34111,173.354309 L253.788328,180.579752 C253.329144,180.843599 252.868637,180.975522 252.434596,180.975522 C252.079953,180.975522 251.742512,180.888453 251.435508,180.711676 C250.65344,180.261817 250.206166,179.2935 250.206166,178.056058 L250.206166,178.056058 L250.206166,177.86345 C250.206166,175.719695 251.48844,173.302859 253.12668,172.359607 L253.12668,172.359607 Z M267.029224,166.057628 C266.784414,166.057628 266.534311,166.165805 266.34111,166.27794 L266.34111,166.27794 L253.788328,173.502064 C252.564279,174.207854 251.529462,176.205173 251.529462,177.86345 L251.529462,177.86345 L251.529462,178.056058 C251.529462,178.798787 251.741189,179.364738 252.097156,179.569219 C252.426656,179.759189 252.838201,179.600881 253.12668,179.435977 L253.12668,179.435977 L265.679462,172.211853 C266.903511,171.507382 267.937005,169.510062 267.937005,167.851786 L267.937005,167.851786 L267.937005,167.656539 C267.937005,166.91513 267.725278,166.349178 267.370634,166.144697 C267.262124,166.082693 267.146997,166.057628 267.029224,166.057628 Z M153.877916,165.399726 C155.543945,164.455155 157.010157,164.265185 157.902058,164.877309 C158.264641,165.126645 158.841598,165.733492 158.644427,167.005233 C158.324189,169.073792 156.057384,171.834948 153.484897,173.291382 C152.46199,173.871845 151.51451,174.167353 150.728472,174.167353 C150.234883,174.167353 149.804812,174.051261 149.460755,173.813798 C149.098172,173.564463 148.521215,172.958935 148.718386,171.687194 C149.038624,169.618635 151.305429,166.85616 153.877916,165.399726 Z M239.590027,163.528129 C240.706888,162.884343 241.789344,162.801231 242.641546,163.290667 C243.485809,163.776145 243.951609,164.744463 243.951609,166.014885 C243.951609,168.388186 242.326602,171.183642 240.251674,172.378868 C239.613846,172.746934 238.986604,172.931627 238.407,172.931627 C237.972959,172.931627 237.565384,172.827407 237.200155,172.617649 C236.355892,172.130852 235.890092,171.163854 235.890092,169.892112 C235.890092,167.518811 237.515099,164.723355 239.590027,163.528129 Z M156.631694,165.84035 C156.147368,165.84035 155.423525,166.040874 154.531624,166.54614 C152.346863,167.783581 150.282522,170.23076 150.025802,171.887717 C149.98081,172.181906 149.975517,172.565803 150.212387,172.728069 C150.569677,172.974766 151.519803,172.889016 152.831189,172.144968 C155.01595,170.907527 157.078968,168.461667 157.337011,166.803391 C157.382003,166.510521 157.387296,166.125304 157.150426,165.963039 C157.036623,165.885204 156.860624,165.84035 156.631694,165.84035 Z M241.434701,164.298562 C241.086674,164.298562 240.679099,164.423889 240.251674,164.670585 C238.604171,165.619114 237.213388,168.010885 237.213388,169.892112 C237.213388,170.661226 237.450257,171.237731 237.861802,171.475193 C238.279964,171.715293 238.909853,171.628224 239.590027,171.236412 C241.23753,170.287883 242.628313,167.896112 242.628313,166.014885 C242.628313,165.247091 242.391443,164.670585 241.979899,164.431804 C241.82375,164.343416 241.639812,164.298562 241.434701,164.298562 Z M265.679462,148.726327 C266.511815,148.247445 267.348138,148.199953 268.032282,148.593084 C268.813027,149.042943 269.260301,150.011261 269.260301,151.248702 L269.260301,151.248702 L269.260301,152.297493 C269.260301,154.439928 267.978027,156.856764 266.34111,157.800016 L266.34111,157.800016 L253.788328,165.025459 C253.329144,165.289306 252.868637,165.421229 252.434596,165.421229 C252.079953,165.421229 251.742512,165.33416 251.435508,165.157383 C250.65344,164.707524 250.206166,163.739206 250.206166,162.501765 L250.206166,162.501765 L250.206166,161.454294 C250.206166,159.310539 251.48844,156.893703 253.12668,155.950451 L253.12668,155.950451 Z M267.029224,149.648471 C266.784414,149.648471 266.534311,149.756648 266.34111,149.868783 L266.34111,149.868783 L253.788328,157.092907 C252.564279,157.798697 251.529462,159.796017 251.529462,161.454294 L251.529462,161.454294 L251.529462,162.501765 C251.529462,163.244494 251.741189,163.810445 252.097156,164.014926 C252.426656,164.203577 252.838201,164.046588 253.12668,163.881684 L253.12668,163.881684 L265.679462,156.65756 C266.903511,155.953089 267.937005,153.95445 267.937005,152.296173 L267.937005,152.296173 L267.937005,151.248702 C267.937005,150.505973 267.725278,149.940022 267.370634,149.735541 C267.262124,149.673537 267.146997,149.648471 267.029224,149.648471 Z M87.7980876,59.5838587 C88.0137848,59.5099817 88.2466849,59.5469202 88.4253298,59.6854397 C88.6026514,59.8239593 88.6979287,60.0429521 88.676756,60.2672218 C88.6225008,60.8516423 88.06804,66.0190807 85.5061395,67.5045379 C85.1170906,67.7301269 84.7148087,67.8290694 84.3098802,67.8290694 C81.811498,67.8290694 79.2231316,64.0758495 78.893631,63.5837753 C78.7811509,63.4135942 78.7520384,63.2025168 78.8168799,63.0099087 C78.8817214,62.8159813 79.0325771,62.6642694 79.2244549,62.5956693 L79.2244549,62.5956693 Z M87.2158375,61.1867277 L80.4987887,63.548156 C81.6712287,65.0613171 83.6694051,67.0467638 84.8405218,66.36472 C86.1942533,65.5797759 86.9167727,62.9188815 87.2158375,61.1867277 L87.2158375,61.1867277 Z M302.217244,283.090411 L301.40871,283.209142 C300.47314,283.348981 299.603735,282.703876 299.464789,281.769859 L286.275501,196.792739 L291.210071,193.952429 L303.65699,281.153776 C303.795936,282.083836 303.150168,282.953211 302.217244,283.090411 L302.217244,283.090411 Z M192.089931,254.882556 C190.079845,257.805978 183.594373,260.353419 178.168861,260.860004 C178.018005,260.787446 177.838037,260.772935 177.664685,260.8323 C177.6144,260.85077 177.576024,260.883751 177.532355,260.911454 C176.608695,260.97082 175.728703,260.964224 174.910907,260.887708 L191.400494,251.397141 L192.089931,254.882556 Z M190.418609,263.568391 C191.028648,265.249095 188.690385,267.118449 186.180093,268.024763 C183.861679,268.862476 181.22435,268.906011 180.66989,267.379657 L178.814629,262.109319 C182.271077,261.705633 186.017327,260.552623 188.920638,259.010439 L190.418609,263.568391 Z M212.796862,284.202525 C212.75187,285.023089 212.180206,285.732837 211.145389,286.256572 L210.336855,286.665535 C207.711437,287.995322 203.060052,287.533591 200.183208,285.661598 L184.307629,275.326721 C182.227409,273.971868 177.910818,270.565607 178.863591,266.230605 L179.423345,267.82292 C179.969866,269.326846 181.433431,269.927098 183.157685,269.927098 C184.265284,269.927098 185.481393,269.679082 186.631337,269.264842 C189.526707,268.220009 192.247403,266.04987 191.804099,263.634353 L210.641213,281.108922 C212.067726,282.037663 212.853764,283.165608 212.796862,284.202525 L212.796862,284.202525 Z M164.467457,271.916502 C162.581761,274.593227 156.382121,277.040406 150.946022,277.775219 C150.826925,277.735642 150.699889,277.718492 150.567559,277.754111 C150.508011,277.769942 150.459049,277.802923 150.408764,277.833265 C148.605112,278.040385 146.904677,278.058854 145.501984,277.814796 L163.357212,267.537965 L164.467457,271.916502 Z M162.48913,279.681512 C162.50104,279.722408 162.511626,279.761985 162.531476,279.800243 L162.808044,280.587825 C163.050208,281.25008 162.847743,281.969063 162.209915,282.723664 C160.63784,284.585103 156.978927,285.962383 154.700212,285.556059 C153.834776,285.401709 153.282962,285.009896 153.073881,284.442626 L151.602377,279.035087 C154.939728,278.539055 158.446462,277.441453 161.201564,276.021957 L162.48913,279.681512 Z M185.187621,301.22064 C185.141306,302.041204 184.570965,302.750951 183.534825,303.274687 L182.727614,303.68365 C180.099549,305.013437 175.450811,304.553025 172.572643,302.679713 L156.698388,292.344836 C154.136488,290.677324 150.366419,287.437287 151.398589,283.319958 L151.812781,284.839715 C152.204476,285.918849 153.122843,286.615404 154.467312,286.854185 C154.803429,286.913551 155.162042,286.942574 155.533888,286.942574 C158.184449,286.942574 161.591936,285.50329 163.222236,283.573251 C163.838892,282.843715 164.144573,282.090432 164.196182,281.345065 L183.031972,298.127037 C184.458485,299.057097 185.243199,300.183723 185.187621,301.22064 L185.187621,301.22064 Z M149.549945,375.763941 C149.676981,377.240163 148.577323,378.543566 147.096555,378.670212 C146.384622,378.730897 145.681952,378.511904 145.131461,378.048853 C144.58097,377.587122 144.243529,376.939378 144.182658,376.232269 L137.0845,282.659022 L141.749117,279.974381 L149.549945,375.763941 Z M132.85657,283.569293 C129.598616,285.446563 123.866099,285.195908 120.074857,283.013896 L37.0287903,235.214101 C36.9348363,235.024132 36.7601613,234.877697 36.5338778,234.846035 C36.4888857,234.840758 36.4465402,234.852631 36.4028715,234.85527 L30.7378427,231.592805 C30.6650614,231.525524 30.5790472,231.475393 30.4798,231.44505 L17.5154723,223.983465 C15.5702276,222.863435 14.4917417,221.433386 14.5592297,220.058744 C14.5618763,220.020487 14.5592297,219.983548 14.5552599,219.94661 L14.5552599,213.405849 C15.1454497,214.07602 15.9116379,214.701336 16.8538244,215.243541 L119.413209,274.273973 C121.677368,275.577376 124.585972,276.244908 127.350337,276.244908 C129.659488,276.244908 131.869392,275.779218 133.518218,274.82937 L216.427985,227.10741 C216.431955,227.106091 216.437248,227.106091 216.441218,227.104772 L297.793467,180.279891 C298.289702,179.994936 298.711834,179.671724 299.074417,179.324765 L299.081033,185.796926 C299.294084,187.030409 298.602,188.174185 297.131819,189.019814 L227.559549,229.063834 C227.555579,229.066472 227.550285,229.066472 227.546316,229.069111 L172.894204,260.524919 C172.560734,260.449723 172.22197,260.637054 172.118753,260.966862 C172.118753,260.968181 172.118753,260.969501 172.118753,260.97082 L142.425321,278.061493 C142.369743,278.050939 142.314164,278.036427 142.255939,278.039066 C141.982017,278.061493 141.761027,278.246185 141.680306,278.490244 L132.85657,283.569293 Z M26.5641681,303.328776 C26.4821238,303.973881 26.1512999,304.547748 25.6365379,304.944837 C25.1217758,305.341926 24.4786541,305.517384 23.8328858,305.432953 L23.265192,305.359076 C22.6194237,305.277284 22.0437901,304.948795 21.6454781,304.434294 C21.2471661,303.919792 21.0724911,303.281283 21.1545354,302.642774 L30.8066541,233.156097 L35.7121111,235.980576 L26.5641681,303.328776 Z M16.5507897,207.506236 L66.4205106,178.80103 C66.5224044,178.843245 66.6269448,178.885461 66.7288385,178.926357 C66.8095596,178.958018 66.8916039,178.97253 66.9736482,178.97253 C67.2369841,178.97253 67.4857636,178.815541 67.5889807,178.556971 C67.6458824,178.411856 67.6392659,178.262782 67.5969205,178.124263 L99.4195349,159.808022 C99.4221815,159.806703 99.4261514,159.806703 99.4301213,159.805383 L146.841159,132.517034 C146.849099,132.517034 146.855715,132.523631 146.863655,132.523631 C147.076705,132.523631 147.284463,132.42073 147.412823,132.230761 C147.424732,132.213611 147.426056,132.192503 147.436642,132.174034 L180.826038,112.955437 C184.083992,111.080806 189.817833,111.330141 193.609075,113.512154 L227.079192,132.666108 L200.594753,147.911172 C200.214967,148.128846 199.988683,148.521978 199.988683,148.958644 C199.988683,149.39531 200.214967,149.787123 200.594753,150.004796 L202.742461,151.240918 C202.741138,151.259388 202.731875,151.275218 202.731875,151.293688 L202.731875,159.870026 C202.512208,159.951818 202.08743,160.094296 201.7222,160.214346 C199.259547,161.029632 198.861235,161.201133 198.804333,161.763126 C198.777868,162.021696 198.93137,162.310608 199.158977,162.439893 L201.15583,163.58235 C201.13598,163.590265 201.122748,163.596861 201.101575,163.604777 C199.28866,164.376528 198.824183,164.63114 198.791101,165.179942 C198.776544,165.430596 198.940633,165.722147 199.158977,165.846155 L202.731875,167.884371 L202.731875,175.633549 C202.713349,175.641465 202.693499,175.640146 202.674973,175.64938 C202.607485,175.68368 202.479126,175.727215 202.319007,175.785261 C201.175679,176.198181 200.136892,176.636167 200.001916,177.459369 C199.96354,177.696831 199.978097,178.158563 200.594753,178.638764 L230.419191,195.804633 C230.607098,195.91281 230.816179,195.966899 231.026583,195.966899 C231.236987,195.966899 231.446068,195.91281 231.632653,195.804633 L272.521166,172.270823 C272.718337,172.157369 272.842727,171.951568 272.850666,171.72466 C272.870516,171.229947 272.85199,168.960865 272.82817,166.087574 C272.812291,164.181282 272.793765,161.77368 272.787148,159.823853 C272.83611,159.710399 272.858606,159.589029 272.84008,159.46634 L296.167136,172.542585 C297.804053,173.484518 298.83093,174.655997 299.07177,175.823519 L299.07177,176.677063 C298.939441,177.608442 298.283086,178.475179 297.131819,179.137434 L218.974006,224.123303 C218.968713,224.125942 218.962097,224.125942 218.958127,224.12858 L132.85657,273.686914 C129.598616,275.562864 123.866099,275.31221 120.074857,273.131516 L17.5154723,214.101085 C15.6337458,213.017994 14.5552599,211.63016 14.5552599,210.295096 C14.5552599,209.23707 15.263223,208.246326 16.5507897,207.506236 L16.5507897,207.506236 Z M42.9783277,190.770437 C42.8301186,187.916934 42.3365293,185.543633 41.8455866,183.262678 C41.1270371,179.926336 40.4481864,176.777325 41.0410228,172.510923 C41.3956661,169.96876 42.5482566,165.555923 46.2984766,164.525602 C51.7954468,171.75896 58.6342389,175.543842 64.8749013,178.167797 L42.9783277,190.770437 Z M66.3172936,177.33668 C60.1732317,174.838052 53.3344397,171.272163 47.8268831,164.325078 C50.0989817,164.261755 52.5986873,165.191815 54.7596291,166.011059 C57.9183359,167.208923 62.0920105,169.732617 65.7747423,171.959484 C67.5294324,173.020147 69.1875219,174.018807 70.6616733,174.836732 L66.3172936,177.33668 Z M35.4037832,185.419625 C34.194291,178.376236 32.9437766,171.092747 36.5206448,164.573094 C40.3701119,157.558729 47.0606949,157.165597 52.4491549,158.312011 C52.6092736,158.45053 52.8276174,158.500661 53.040668,158.446573 C54.4857069,158.788254 55.828852,159.22624 56.9708562,159.666864 C60.6456483,161.087679 65.8858992,164.30397 70.5094943,167.141642 C72.9575913,168.645569 75.2640956,170.055829 77.1577318,171.096705 L71.9915854,174.071577 C71.9809991,174.064981 71.9743826,174.055746 71.9637962,174.050469 C70.3679016,173.194286 68.4702956,172.046553 66.4615328,170.831539 C62.729839,168.575649 58.500586,166.017655 55.1208888,164.737998 C52.4001929,163.705038 49.0152026,162.418785 45.9716225,163.245945 C41.4724172,164.464917 40.1305954,169.459536 39.7309601,172.328869 C39.1050413,176.826137 39.8077113,180.087282 40.5514034,183.539717 C41.0621956,185.909061 41.5888672,188.358878 41.6934076,191.344304 C41.6947309,191.395754 41.7145803,191.441927 41.7278133,191.490739 L36.5788698,194.453737 C36.4306607,191.480185 35.9158987,188.403732 35.4037832,185.419625 L35.4037832,185.419625 Z M29.6514169,189.482865 C27.9231928,188.828525 26.6740017,187.428818 26.2399607,185.733603 C22.1298043,146.495635 14.609515,116.596522 2.57414079,91.6432166 C-0.326523333,78.4205372 1.82383214,70.0051454 9.14695042,65.9207978 L50.9763268,42.7207539 C50.9048688,43.1943588 50.8625234,43.6600483 50.8572302,44.115184 L50.9974995,47.4396529 C50.9564773,47.5267223 50.9273648,47.6217071 50.9247182,47.7232881 L50.8836961,49.3789264 L19.5824601,66.9537578 C12.6788266,70.804601 8.9696288,78.7688149 10.8050399,86.0100887 C21.9948282,109.991119 30.2945386,152.291028 33.3500284,169.416001 C32.2318435,174.732513 33.17403,180.254825 34.0990137,185.641256 C34.2869217,186.73622 34.4695365,187.844377 34.6415649,188.953852 C33.1409476,189.919531 31.3306792,190.118736 29.6514169,189.482865 L29.6514169,189.482865 Z M56.965563,34.3792392 C59.7365442,31.7011948 63.1162413,30.2460801 66.6163584,30.3252341 L82.0486326,30.5270768 C88.7696513,30.6154655 91.6107671,32.6853432 91.5525421,37.533527 C91.5591586,37.5862964 91.9257115,41.0070694 90.5746266,44.1587187 C90.5018454,44.1758687 90.4290641,44.2022534 90.361576,44.2471073 C90.0942703,44.4265231 90.0135493,44.7655662 90.1366158,45.0518399 C90.0783907,45.1573786 90.021489,45.2615981 89.9579708,45.3658175 C89.8759265,45.3697752 89.7925589,45.3869253 89.7131611,45.4238638 C89.4114497,45.5637026 89.2777969,45.9014264 89.3704276,46.2088078 C88.674374,47.0940137 87.7758563,47.8776385 86.5901833,48.4409513 C85.4667053,48.9752409 84.1010642,49.1612529 82.5488383,49.0016256 C78.121091,48.541213 73.5676306,48.365755 69.9629732,49.9171738 C69.9179811,49.9145353 69.8743123,49.9026622 69.8293203,49.9092584 C69.6572919,49.9356431 69.5143759,50.0279894 69.4151287,50.1533166 C69.3635202,50.1783821 69.3066185,50.1942129 69.25501,50.2205975 C68.9308025,50.3881402 68.8037661,50.7865488 68.9705014,51.1097611 C69.0498991,51.2627922 69.1875219,51.3511808 69.3383776,51.4065886 C69.5170225,54.0002021 68.7230451,57.2916902 67.169496,60.3932086 C66.5594567,59.9354345 65.85811,59.6069453 65.083982,59.4737027 C63.8017085,59.2520715 62.5101719,59.5436221 61.4488888,60.2916276 C59.2548645,61.8351311 58.7308394,64.8680493 60.2777721,67.0553388 C61.1101251,68.230776 62.6491179,68.9392045 64.1113597,69.1516012 L64.3416131,71.3665946 C64.1179762,71.2439058 63.9088954,71.1146209 63.6918749,70.9892937 C63.678642,70.9840168 63.6667323,70.9734629 63.6548227,70.968186 C56.1265936,66.6133955 52.3393213,60.7348901 52.1143611,53.0675039 L52.2162548,49.0121795 C52.315502,48.89081 52.3776969,48.7390981 52.3697571,48.5702362 L52.1792026,44.0953955 C52.1897889,43.3856477 52.3049156,42.6389615 52.4928236,41.8790828 L52.4981168,41.8764444 C52.8143845,41.7009863 52.9281879,41.3038969 52.7561595,40.9859616 C53.5197011,38.6627911 55.0017922,36.2762973 56.965563,34.3792392 L56.965563,34.3792392 Z M95.0156069,52.3221368 C95.0500126,52.4580179 95.1360268,52.571472 95.2432138,52.6598607 L103.724216,65.221604 C104.220452,65.9564171 104.024604,66.9577155 103.286205,67.4524282 L100.811642,69.1133434 C100.76665,69.1370896 100.726951,69.162155 100.689899,69.1951359 L93.8537533,73.7821115 C93.114031,74.2755049 92.1109729,74.0815775 91.6345865,73.3757875 L89.9645873,70.5869274 C90.1683749,70.3243999 90.3562828,70.0328493 90.5455141,69.7399794 L92.0276053,72.0842577 C92.1228826,72.2346503 92.2763849,72.3415083 92.4510599,72.3771276 C92.496052,72.3876814 92.541044,72.3916391 92.5873594,72.3916391 C92.7183656,72.3916391 92.8467253,72.3533814 92.9565588,72.2795043 L102.15611,66.1068098 C102.302996,66.0078673 102.403567,65.8561554 102.436649,65.6833358 C102.469731,65.5105161 102.432679,65.3324196 102.333432,65.1873039 L92.4550298,50.7839103 C92.048778,49.3261571 91.5273995,47.8697231 90.8922176,46.4251622 C90.9160369,46.3895429 90.9345631,46.3499659 90.9583824,46.3143465 L95.0156069,52.3221368 Z M100.277031,54.1479563 L105.542424,59.7494226 C106.231861,60.4842357 106.421092,61.4802572 106.451528,62.5712635 C106.2795,62.5884135 106.114088,62.670206 105.997638,62.8166409 C105.771354,63.1029146 105.818993,63.5184733 106.106148,63.742743 C106.229214,63.8403663 117.96817,73.1396447 124.302787,81.5840596 C123.458524,82.1117531 122.583826,82.8821855 121.694571,83.9191032 C120.187337,85.6736841 118.68275,88.1921012 117.73527,90.6062989 C113.966524,87.1604604 110.430678,81.4363054 107.557803,76.754345 C105.186457,72.8929479 103.700396,70.5592235 102.496197,69.5724367 L104.025927,68.5473921 C105.369072,67.6450363 105.725039,65.8231745 104.822551,64.4841523 L97.097151,53.0398 C98.3039967,53.2469197 99.7516821,53.5872819 100.277031,54.1479563 L100.277031,54.1479563 Z M127.760558,82.4125383 C129.778584,83.7700298 130.654606,84.8452053 130.782966,86.1209043 C130.867657,86.9559792 130.610937,87.942766 130.010161,89.1036917 C129.978402,89.1063302 129.947966,89.0984147 129.914884,89.1050109 C129.557594,89.1815265 129.329987,89.5324426 129.406738,89.8886357 C129.421295,89.9585551 129.427911,90.0231976 129.441144,90.0917977 C128.387801,91.7645861 126.716478,93.7553097 124.370275,96.1378458 C123.571004,96.9504937 122.455466,97.4043101 121.308169,97.4029938 C120.197924,97.3937563 119.173693,96.9597284 118.354573,96.1009072 C117.845104,95.5534253 117.958907,94.0692873 118.541157,92.238191 C118.549097,92.2289563 118.561007,92.2249986 118.568947,92.215764 C118.688043,92.0732867 118.734359,91.8965094 118.715832,91.7263283 C119.499224,89.4981426 120.908533,86.8623136 122.700276,84.7766051 C123.209745,84.1842692 124.137375,83.2133132 125.156313,82.619658 C125.254236,82.6750659 125.36407,82.7080467 125.475227,82.7080467 C125.60888,82.7080467 125.741209,82.6684697 125.857659,82.5866772 C125.995282,82.4890539 126.07865,82.3478959 126.113055,82.196184 C126.323459,82.139457 126.533863,82.1038377 126.741621,82.1038377 C127.094941,82.1038377 127.438998,82.196184 127.760558,82.4125383 L127.760558,82.4125383 Z M127.936557,95.2434053 C127.3596,95.7539488 126.64502,96.1655497 125.84575,96.5045928 C127.364893,94.9320662 128.598205,93.5257631 129.545684,92.2672141 C129.389535,93.4452898 128.857571,94.4307574 127.936557,95.2434053 L127.936557,95.2434053 Z M101.338314,70.3507846 C101.628115,70.4338963 102.068773,70.8877127 102.598091,71.5737142 C101.92321,71.3059098 101.510342,71.1423248 101.470643,71.1278133 C101.380659,71.04734 101.303908,70.9840168 100.76665,70.7346816 L101.338314,70.3507846 Z M59.7127248,159.438637 C59.6875822,159.367398 59.6544998,159.298798 59.6042146,159.236794 C58.8314099,158.31333 58.2518064,156.294903 58.2650394,155.872748 C58.2822422,155.794913 58.2809189,155.717078 58.2703326,155.641882 C59.2826537,154.900473 60.0541351,154.099698 60.093834,153.360927 C60.2089607,151.23828 59.1410611,149.816146 57.9421552,148.94809 C57.9540649,148.897959 57.972591,148.850467 57.972591,148.796378 L57.8931933,127.331127 L61.4978507,146.254215 L62.3738724,160.681355 C62.376519,160.731486 62.3963685,160.77502 62.4096014,160.821193 C61.4740314,160.311969 60.5768369,159.852876 59.7127248,159.438637 L59.7127248,159.438637 Z M57.0171715,156.470361 C57.1283284,157.071931 57.3718148,157.827852 57.6854359,158.536281 C57.610008,158.505938 57.5253171,158.466361 57.4498892,158.437338 C56.5990101,158.108849 55.7679804,157.838406 54.9475371,157.594348 C55.582719,157.28037 56.3078851,156.896473 57.0171715,156.470361 L57.0171715,156.470361 Z M53.8981636,83.172417 C53.9140432,83.0576436 53.8928705,82.9402318 53.8452318,82.828097 C54.0424029,82.3347036 54.7397797,81.4086015 55.0758968,80.9679774 C55.9664748,79.8004556 57.0701034,78.8572035 58.3563468,78.1632866 C59.0881293,77.7675165 59.9270987,77.6910009 60.7171063,77.9469323 C61.5375496,78.2120982 62.1991974,78.7912418 62.57766,79.5775051 C62.6411782,79.7081093 62.7126361,79.8189249 62.7774776,79.9455713 C62.8092367,80.0550677 62.8568754,80.1553295 62.9349498,80.2344835 C66.3569924,86.4968859 72.5037009,86.8992522 75.1039769,86.7554557 L75.3977485,86.932233 L74.1697301,96.2684499 C74.1445875,96.3410078 74.1035653,96.3937771 74.0691596,96.4557811 C73.9130108,96.5138274 73.7780346,96.6272815 73.7012834,96.788228 C73.6840806,96.8225281 73.6827573,96.8594666 73.6734942,96.8964052 C73.5080823,97.0072208 73.3387004,97.0797786 73.2129873,97.1193557 C72.5738355,97.3185599 71.8473462,97.1905943 71.3167046,96.7921857 C71.2518631,96.7446933 71.1804052,96.7077547 71.103654,96.686647 C63.2882698,94.422842 57.6602932,89.9994514 53.8981636,83.172417 L53.8981636,83.172417 Z M82.4403281,97.4808257 L97.437238,140.799184 C97.5576579,141.161973 97.5298687,141.577531 97.3578403,141.971982 L95.5025797,146.243661 C95.2551234,146.816208 94.7469779,147.262109 94.1462017,147.437568 C93.6499658,147.581364 93.1735793,147.523318 92.80041,147.271344 L88.2548893,144.212041 C87.9677341,144.016795 87.7732097,143.716009 87.7070449,143.358497 L79.2009003,98.7657593 C79.7116924,98.7314592 80.1814624,98.6523052 80.5308124,98.4768471 C81.249362,98.2235543 81.8726343,97.8752766 82.4403281,97.4808257 L82.4403281,97.4808257 Z M83.321643,94.5600423 C82.7910015,95.738118 81.6423808,96.6879662 80.0147271,97.2644714 C79.1731111,97.6853069 77.1047999,97.454441 75.34614,96.7987819 C75.3805457,96.7183086 75.4255377,96.6497085 75.4533269,96.5639583 L76.6323834,87.6762808 L83.4552959,91.7896515 C83.7345113,92.7645652 83.7040755,93.7144135 83.321643,94.5600423 L83.321643,94.5600423 Z M84.5642177,90.9215957 C84.5430449,90.8635494 84.5351052,90.8068224 84.5112858,90.7500953 C84.377633,90.4189677 84.0031403,90.2606596 83.6736397,90.3833484 L76.9155686,86.305597 C77.5547205,85.9599578 78.3142922,85.3874103 78.9865264,84.4481159 C80.5162562,82.3096381 81.0296949,79.1395195 80.5294891,75.010318 L80.524196,73.4245991 L84.6264126,74.3361896 C84.8010876,74.4166629 84.973116,74.4601976 85.1411746,74.5024131 C85.6916656,74.6422518 86.4459441,74.8335407 87.3497551,77.3308501 C88.0524251,79.2767198 88.3409035,81.3743014 88.2072507,83.5681871 L87.8182017,89.9532782 C87.797029,90.2870443 87.4331227,90.5495718 87.2174255,90.6762183 C86.4485907,91.1300347 85.2563013,91.2580003 84.6727279,90.9862382 L84.5642177,90.9215957 Z M93.2066617,54.2152372 L100.864574,65.3825505 L92.7832071,70.804601 L91.287883,68.4405342 C91.359341,68.2993762 91.4387387,68.1714105 91.5075501,68.0249756 C93.4144192,63.9050087 93.9702033,59.1227866 93.2066617,54.2152372 L93.2066617,54.2152372 Z M64.8259393,73.1158984 C64.9212166,73.1647101 65.0244337,73.1884563 65.1263275,73.1884563 C65.258657,73.1884563 65.38834,73.1501985 65.5008201,73.073683 C65.7006378,72.9364827 65.8104713,72.7016591 65.7853287,72.4615585 L65.4452417,69.1806243 C65.634473,69.1634743 65.8329673,69.1608358 66.0063191,69.1238973 C66.3636089,69.0460625 66.5898925,68.6951463 66.511818,68.3389532 C66.4337436,67.9827601 66.0791003,67.7545327 65.7244571,67.8350059 C64.4104245,68.1199604 62.2190469,67.5091552 61.3589047,66.2954602 C60.2314567,64.7018259 60.6138892,62.4934287 62.2124304,61.3694416 C62.9852351,60.824598 63.9287449,60.6161591 64.8576984,60.7731479 C65.5100832,60.8852828 66.0949799,61.1781527 66.5806294,61.6003075 C66.525051,61.8733888 66.6401777,62.1609818 66.8955738,62.3047783 C66.9987908,62.3628245 67.1099477,62.3892092 67.2197812,62.3892092 C67.250217,62.3892092 67.2766829,62.3694207 67.308442,62.365463 C67.5307557,62.5277287 67.836437,62.5448788 68.0746302,62.3773361 C68.3723718,62.1675779 68.4438297,61.755977 68.2334257,61.4591494 C68.2109297,61.4261686 68.1791706,61.4011032 68.1553513,61.3681223 C69.6546453,58.4855967 70.9475051,54.5331725 70.6312375,51.075461 C74.442329,49.5095306 79.5648066,50.0174355 82.4112156,50.3129439 C84.2135443,50.5015943 85.8120855,50.2733669 87.1592005,49.6322193 C88.2932649,49.0926527 89.1931059,48.3895012 89.9301816,47.6058763 C92.8043798,54.5344917 92.9764083,61.7045269 90.3046743,67.4722167 C88.7008399,70.9352051 86.2448032,72.7715784 83.3732516,72.6132704 C83.2819441,72.6040358 83.1932833,72.6172281 83.111239,72.6475705 L79.597889,71.8679034 C79.3795452,71.8177725 79.150615,71.8837342 78.9904963,72.040723 C78.8303775,72.1963926 78.7615661,72.4233008 78.8052349,72.6422935 C78.989173,73.5499263 79.1122395,74.3757666 79.2061935,75.1580722 L79.222073,80.0471523 C79.222073,80.056387 79.2273662,80.0643024 79.2273662,80.073537 C78.9772633,81.7463253 78.4677945,82.8887817 77.9371529,83.6420642 C77.1749346,84.7277935 76.3015595,85.1855676 75.7788577,85.3794949 C74.3351421,85.5839762 67.6141233,86.1222235 64.0650443,79.5366089 L64.0650443,72.7056168 C64.3191171,72.8428171 64.5639268,72.9826558 64.8259393,73.1158984 L64.8259393,73.1158984 Z M34.1744416,166.537433 C30.7815114,147.978453 22.7252874,108.427827 12.0462913,85.5707838 C10.3974648,79.0155116 13.8380336,71.6700183 20.2295517,68.1041296 L50.8453205,50.9145145 L50.7910654,53.0701423 C51.0252887,61.0646986 55.0481076,67.406255 62.7417486,71.961569 L62.7417486,77.6421893 C62.2772719,77.217396 61.7294275,76.8875876 61.1260046,76.692341 C59.986647,76.3242748 58.7798014,76.4350904 57.726458,77.0023609 C56.2734794,77.7859858 55.0282581,78.8519266 54.0225534,80.1685218 C53.20608,81.2410588 52.6211833,82.0853684 52.4967935,82.7937969 L42.536347,89.5324426 C42.3325594,89.6696429 42.241252,89.9005088 42.2584549,90.1287363 C32.3390305,101.24328 36.7879505,137.336195 41.9157213,151.416376 C41.9196912,151.428249 41.9316008,151.432207 41.936894,151.442761 C40.8967836,153.280454 41.2593666,155.598347 41.6603252,157.872706 C39.0494628,159.091678 36.9083704,161.118021 35.3601145,163.939862 C34.8903445,164.797364 34.498649,165.6641 34.1744416,166.537433 L34.1744416,166.537433 Z M42.9134862,157.359524 C42.5178208,155.07725 42.2452219,152.953284 43.4705937,151.546981 C45.0082633,149.781846 48.9622708,149.023286 55.5708094,149.246237 C56.0419026,149.376841 58.934627,150.305582 58.7731849,153.288369 C58.7136366,153.92292 56.039256,155.754017 52.9348044,157.07325 C49.1859077,156.251368 45.7982708,156.35031 42.9134862,157.359524 L42.9134862,157.359524 Z M108.964467,96.5006351 C108.50793,94.5574038 107.989198,93.3357934 107.597502,92.418926 C107.328873,91.7909707 107.135672,91.3358351 107.08274,90.917638 C107.037748,90.556168 106.704278,90.2896828 106.344341,90.3437714 C105.983081,90.3886253 105.725039,90.7171145 105.770031,91.0799038 C105.844135,91.6827936 106.081005,92.2355525 106.38007,92.9360656 C106.728097,93.7526713 107.183311,94.823889 107.597502,96.4768888 C107.539277,96.5415313 107.492962,96.6180469 107.462526,96.7051163 C107.348723,97.0349247 107.516781,97.3871601 107.834372,97.5204027 C108.232684,99.4385685 108.559538,102.01767 108.664079,105.624455 C108.478817,110.26552 108.678635,114.204751 109.113999,117.696763 C109.113999,117.700721 109.111352,117.70204 109.110029,117.705998 C109.065037,117.876179 109.09415,118.04636 109.172224,118.188837 C109.976788,124.245439 111.499901,128.927399 112.992579,133.511737 C114.433648,137.939085 115.921032,142.518145 116.762648,148.305623 L101.960263,156.825235 C101.956293,156.827873 101.951,156.827873 101.94703,156.829192 L78.3778104,170.396192 C78.3182621,170.286695 78.2388643,170.187753 78.121091,170.12443 C76.2036356,169.087512 73.775388,167.596778 71.2029012,166.018974 C68.6065951,164.424021 65.8237043,162.722209 63.2075487,161.264456 C63.5013204,161.182663 63.714371,160.917498 63.6945215,160.600881 L62.8092367,146.091949 L57.8680507,120.122834 L57.8482012,114.745637 C57.8468779,114.382848 57.5504597,114.088659 57.1865534,114.088659 L57.1839068,114.088659 C56.8186772,114.089978 56.5235823,114.386806 56.5249056,114.750914 L56.5368152,118.281183 C56.3502305,118.428938 56.2443669,118.667719 56.2906822,118.917054 L56.544755,120.246842 L56.6466488,148.230427 C56.3515538,148.107738 56.0670453,148.006157 55.8222356,147.948111 C55.7785668,147.937557 55.734898,147.930961 55.689906,147.929642 C48.9252185,147.697457 44.9513616,148.433589 42.9201027,150.267324 C37.7632194,135.291383 33.3023897,96.1325688 45.4515673,89.1604187 C45.4621537,89.1538226 45.4687702,89.1419495 45.4793565,89.1353533 L52.9149549,84.1051152 C56.83588,91.0495614 62.6279452,95.5798099 70.6232977,97.9214498 C71.2002546,98.3185391 71.9016013,98.5296165 72.602948,98.5296165 C72.9417117,98.5296165 73.2804754,98.4794856 73.6060062,98.3792238 C73.9566795,98.2697274 74.2597142,98.0929501 74.5309898,97.8792343 C75.5499275,98.2987506 76.7329538,98.611409 77.8471688,98.7327785 L86.4062452,143.601236 C86.5359282,144.305707 86.9302703,144.909916 87.5138437,145.304367 L92.0593644,148.364989 C92.5172247,148.67369 93.0624225,148.831998 93.628793,148.831998 C93.9225647,148.831998 94.2203062,148.789782 94.5167244,148.704032 C95.4919934,148.419077 96.31376,147.696137 96.7173652,146.768716 L98.5713024,142.495718 C98.8730138,141.80312 98.9166826,141.052476 98.690399,140.37571 L83.5188141,96.5520852 C83.9290357,96.1075034 84.2889722,95.6325793 84.5284887,95.1022473 C84.9135677,94.2487031 85.0234013,93.3265588 84.9135677,92.3806682 C85.1080922,92.4096913 85.3039399,92.436076 85.5103741,92.436076 C86.3228776,92.436076 87.1975761,92.2210409 87.890983,91.8120785 C88.6532013,91.3622198 89.0965054,90.7303068 89.1388508,90.0324322 L89.5278997,83.6473411 C89.6734623,81.2753589 89.3585179,78.9983615 88.593653,76.8836299 C87.7890892,74.6594019 86.9765857,73.8493924 86.1892248,73.4760492 C87.2200721,73.090833 88.1807847,72.4694739 89.0422502,71.6225259 L90.5177249,74.0828967 C91.0840955,74.9219294 92.0117257,75.3744265 92.9578821,75.3744265 C93.5216061,75.3744265 94.0906232,75.21348 94.5921523,74.8770754 L99.4737901,71.6014182 C100.364368,71.9919113 100.569479,72.1014077 100.586682,72.1093231 C100.757387,72.261035 100.767973,72.2702696 103.290175,73.2649719 C103.369573,73.2966335 103.451617,73.311145 103.533661,73.311145 C103.620999,73.311145 103.699073,73.2702488 103.778471,73.2372679 C104.63729,74.52484 105.578153,76.0577896 106.429032,77.442985 C109.448793,82.3624075 113.187103,88.4256056 117.257561,91.9571942 C116.597236,94.1273336 116.516515,96.0666072 117.467965,97.0876941 C117.704835,97.3343908 117.964201,97.5507451 118.238123,97.7446724 C114.784321,97.7407147 111.304053,97.1958712 108.964467,96.5006351 L108.964467,96.5006351 Z M117.989343,147.598514 C117.121261,141.949555 115.665636,137.450968 114.251033,133.105413 C112.788791,128.613422 111.379481,124.26127 110.582857,118.774577 L117.923178,120.705935 C125.34819,122.595078 131.666927,124.705852 137.241972,127.159626 C139.532597,128.166202 143.190186,130.295445 145.50066,131.765071 L117.989343,147.598514 Z M110.008547,111.603222 C110.290409,111.586072 110.778705,111.743061 111.19422,111.877623 C111.446969,111.959416 111.691779,112.03725 111.907476,112.087381 L114.215304,112.617713 C115.529337,112.918498 116.844692,113.217965 118.154755,113.539858 C124.912826,115.195496 130.845161,117.055615 136.287876,119.221797 C141.112612,121.142601 148.045358,124.523797 152.209769,127.903674 L146.78558,131.023662 C144.477753,129.515778 140.367596,127.092345 137.776583,125.952527 C132.134051,123.46973 125.746502,121.33521 118.255326,119.428917 L110.394949,117.361678 C110.179252,115.576754 110.02972,113.666504 109.962232,111.596626 C109.978111,111.596626 109.992667,111.604542 110.008547,111.603222 L110.008547,111.603222 Z M242.02714,125.514542 L271.143615,142.805738 C271.136998,142.841357 271.134352,142.878296 271.134352,142.912596 L231.026583,165.997866 L201.421812,148.957325 L242.02714,125.514542 Z M228.728019,182.7086 C228.722725,182.740261 228.709492,182.767965 228.709492,182.800946 L228.709492,190.757245 L204.055171,176.514798 L204.055171,168.638972 L228.728019,182.7086 Z M202.402374,164.464917 C202.450013,164.438532 202.481772,164.397636 202.520148,164.362017 L230.419191,180.311552 C230.607098,180.419729 230.816179,180.473818 231.026583,180.473818 C231.236987,180.473818 231.446068,180.419729 231.632653,180.311552 L271.467822,157.38327 C271.462529,157.830491 271.461206,158.4347 271.462529,159.224921 L231.079515,182.529184 L200.713849,165.212922 C201.045996,165.06253 201.404609,164.909499 201.620307,164.818472 C201.989506,164.661483 202.289894,164.529559 202.402374,164.464917 L202.402374,164.464917 Z M203.261193,161.079763 L229.038993,175.971273 C229.140887,176.030639 229.256014,176.060981 229.37114,176.060981 C229.484944,176.060981 229.598747,176.030639 229.700641,175.972593 C229.905752,175.853861 230.032788,175.636188 230.032788,175.401364 L230.032788,166.949034 L230.420514,167.171984 L230.420514,167.171984 C230.607098,167.278842 230.816179,167.332931 231.026583,167.332931 C231.235664,167.332931 231.446068,167.278842 231.632653,167.171984 L271.781443,144.062968 L271.712632,147.72516 L271.712632,150.665732 L271.53531,155.821298 L231.079515,179.169096 L200.868675,161.897688 C201.304039,161.743338 201.794982,161.581072 202.139039,161.466299 C202.722612,161.273691 203.050789,161.162875 203.261193,161.079763 L203.261193,161.079763 Z M228.729342,166.199709 C228.724049,166.23269 228.709492,166.264352 228.709492,166.30129 L228.709492,174.256269 L204.055171,160.013822 L204.055171,151.996839 L228.729342,166.199709 Z M271.504875,166.098128 C271.523401,168.317079 271.540604,170.430492 271.533987,171.315698 L231.082162,194.662176 L201.454895,177.597888 C201.797628,177.376257 202.501622,177.121645 202.767604,177.02666 C202.80598,177.206076 202.89861,177.37098 203.062699,177.465965 L229.038993,192.473568 C229.140887,192.531614 229.256014,192.561956 229.37114,192.561956 C229.484944,192.561956 229.598747,192.531614 229.700641,192.473568 C229.905752,192.356156 230.032788,192.138482 230.032788,191.902339 L230.032788,183.451328 L230.420514,183.67296 C230.607098,183.781137 230.816179,183.833906 231.026583,183.833906 C231.235664,183.833906 231.446068,183.781137 231.632653,183.67296 L271.467822,160.744678 C271.474439,162.099531 271.486349,163.831685 271.504875,166.098128 L271.504875,166.098128 Z M304.967052,280.963807 L292.446029,193.241362 L297.793467,190.16227 C299.749298,189.036964 300.694131,187.364176 300.395066,185.684791 L300.395066,176.973891 C300.429472,176.76809 300.450644,176.559652 300.450644,176.347255 C300.450644,174.528032 299.129995,172.724639 296.822168,171.394852 L272.787148,157.922837 C272.788472,157.752656 272.789795,157.594348 272.791118,157.446594 C272.793765,157.424167 272.805674,157.404378 272.805674,157.380632 L273.035928,150.688159 L273.127235,142.904681 C273.132528,142.675134 273.010785,142.481207 272.83611,142.359837 C272.781855,142.282002 272.722307,142.206806 272.637616,142.156675 L242.695405,124.376043 C242.323558,124.161008 241.859082,124.161008 241.483266,124.376043 L228.405134,131.903591 L194.269399,112.368378 C190.114251,109.977927 183.787574,109.727272 180.164391,111.812981 L153.432495,127.199203 C149.197948,123.617484 141.839101,120.012018 136.778818,117.996229 C131.277878,115.806301 125.288642,113.929031 118.471023,112.258882 C117.15302,111.935669 115.832371,111.633565 114.510399,111.33278 L112.210511,110.802448 C112.02525,110.760232 111.817492,110.691632 111.600472,110.621713 C111.080416,110.45417 110.49552,110.262881 109.952969,110.285308 C109.943705,110.286627 109.935766,110.291904 109.926503,110.291904 C109.904007,108.822278 109.921209,107.274817 109.986051,105.631052 C109.892097,102.334286 109.614205,99.864681 109.264855,97.9544306 C111.689132,98.5929397 114.94841,99.0625869 118.211657,99.0625869 C122.340339,99.0625869 126.454466,98.3159006 128.815225,96.2301921 C130.487871,94.7526504 131.153489,92.780396 130.823988,90.3688368 C131.815136,88.6815369 132.228005,87.2567645 132.099645,85.9889809 C131.885271,83.8623762 130.161017,82.4349653 128.501604,81.3188936 C127.613673,80.7226 126.600028,80.6328921 125.514926,80.999639 C120.07618,73.6646997 110.605353,65.701805 107.772177,63.3905076 C107.807906,61.7652117 107.691456,60.1082541 106.507107,58.848386 L101.243036,53.2456004 C100.277031,52.2179174 98.0962393,51.8287434 96.0914463,51.5517043 L91.6756086,45.0096244 C93.3178186,41.4951858 92.8983338,37.6496196 92.8718679,37.4636076 C92.9671452,30.1919915 86.7503021,29.2698471 82.0658354,29.2078431 L66.6375311,29.0028884 C62.8383492,28.9228886 59.0696031,30.5072883 56.0445492,33.4307102 C53.8253824,35.5731457 52.1699395,38.3171518 51.3786087,40.9872809 L8.50118213,64.7691068 C0.58787398,69.1832628 -1.76891562,78.0907287 1.29716046,92.0020481 C1.30774683,92.0508598 1.32494967,92.1009907 1.3474457,92.1458446 C13.3351812,116.972504 20.8263581,146.752885 24.9404843,185.96183 C25.4975918,188.174185 27.0432012,189.906339 29.181647,190.716348 C29.9901806,191.022411 30.8238569,191.172803 31.6495934,191.172803 C32.7598385,191.172803 33.8502341,190.88521 34.8546155,190.348282 C35.0742826,191.927405 35.2396946,193.498612 35.2926264,195.024966 C35.2939497,195.079054 35.3137991,195.125227 35.3270321,195.174039 L15.8891419,206.36246 C14.5327638,207.143446 13.6686518,208.183003 13.3629704,209.350524 C13.2862193,209.457382 13.2319642,209.58139 13.2319642,209.723868 L13.2319642,220.027083 C13.2319642,220.046871 13.2319642,220.06666 13.2346108,220.085129 C13.1882954,221.938652 14.502328,223.772387 16.8538244,225.125921 L29.5706959,232.44503 L19.8431494,302.467316 C19.716113,303.462018 19.9834187,304.446167 20.5974279,305.240345 C21.2127604,306.034524 22.0993685,306.54111 23.0971335,306.669075 L23.663504,306.741633 C23.8275927,306.761422 23.990358,306.771976 24.1518001,306.771976 C24.9788599,306.771976 25.7794538,306.501533 26.4450715,305.988351 C27.2403722,305.376226 27.7485178,304.49234 27.8768774,303.501595 L36.9520392,236.694281 L119.413209,284.157672 C121.677368,285.459755 124.585972,286.127287 127.350337,286.127287 C129.659488,286.127287 131.869392,285.661598 133.518218,284.71175 L135.812813,283.391197 L142.863332,376.337807 C142.954639,377.403748 143.457492,378.370746 144.279258,379.059386 C145.009718,379.671511 145.914852,380 146.859685,380 C146.976135,380 147.092585,379.994723 147.210358,379.984169 C149.417616,379.795519 151.058502,377.850968 150.867948,375.654444 L143.018158,279.244845 L143.899473,278.73694 C143.955051,278.776517 144.014599,278.816094 144.083411,278.837202 C145.185716,279.174926 146.502395,279.329276 147.935524,279.329276 C148.687156,279.329276 149.473194,279.281784 150.276434,279.20131 L150.817662,281.185438 C148.597172,285.401709 150.463019,289.862038 155.974546,293.449034 L171.848801,303.783911 C173.832421,305.07676 176.500185,305.764081 178.973424,305.764081 C180.589168,305.764081 182.121545,305.469892 183.325744,304.860406 L184.134278,304.451444 C185.593873,303.712673 186.436812,302.591324 186.50827,301.291879 C186.591638,299.772122 185.587256,298.216745 183.835213,297.083523 L163.698622,279.13271 L162.374003,275.367617 C163.897117,274.452069 165.099993,273.436259 165.745761,272.376915 C165.838392,272.226522 165.864857,272.044468 165.822512,271.872967 L164.548178,266.851964 L173.132397,261.911434 C174.074584,262.135703 175.110724,262.268946 176.251405,262.268946 C176.644424,262.268946 177.046706,262.255754 177.455604,262.232007 L178.160921,264.235923 C175.220558,270.349252 181.556498,275.111686 183.58511,276.43092 L199.459365,286.765797 C201.442985,288.057326 204.110749,288.744647 206.583989,288.744647 C208.199733,288.744647 209.732109,288.451777 210.936308,287.842291 L211.743519,287.433329 C213.204437,286.694558 214.047376,285.573209 214.118834,284.275083 C214.202202,282.754007 213.197821,281.197311 211.45504,280.074643 L191.074963,261.156832 C191.053791,261.137043 191.027325,261.130447 191.004829,261.113297 L190.091755,258.334991 C191.55135,257.426039 192.71188,256.416825 193.356325,255.3588 C193.442339,255.218961 193.471452,255.050099 193.439693,254.889153 L192.612633,250.699266 L225.018821,232.046621 C225.022791,232.045302 225.025437,232.046621 225.029407,232.043983 L285.044836,197.499848 L298.15605,281.967744 C298.379687,283.467712 299.67784,284.546845 301.154638,284.546845 C301.302847,284.546845 301.451056,284.537611 301.601912,284.515184 L302.411769,284.395134 C304.065888,284.149756 305.211862,282.608891 304.967052,280.963807 L304.967052,280.963807 Z" id="Fill-1"></path>
                </g>
            </g>
        </g>
    </g>
</svg>