<?xml version="1.0" encoding="UTF-8"?>
<svg width="46px" height="28px" viewBox="0 0 46 28" version="1.1" xmlns="http://www.w3.org/2000/svg" xmlns:xlink="http://www.w3.org/1999/xlink">
    <title>Shape</title>
    <g id="D---Fiche-produit" stroke="none" stroke-width="1" fill="none" fill-rule="evenodd">
        <g id="D.1.0---Fiche-produit---Particulier-Deploy" transform="translate(-369.000000, -1346.000000)" fill="#AAAAAA" fill-rule="nonzero">
            <g id="//-Intro---Slider-01" transform="translate(0.000000, 120.000000)">
                <g id="infos" transform="translate(93.000000, 64.000000)">
                    <g id="paiement" transform="translate(0.000000, 1159.000000)">
                        <g id="iconfinder_social_mastercard_406085" transform="translate(276.000000, 3.000000)">
                            <path d="M11.1843137,14.972549 C11.0941176,15.7843137 10.7333333,16.3254902 10.1019608,16.3254902 C9.74117647,16.3254902 9.56078431,16.145098 9.56078431,15.7843137 C9.56078431,15.2431373 10.0117647,14.972549 10.8235294,14.972549 L10.8235294,14.972549 Z M34.2745098,14.972549 C34.1843137,15.7843137 33.8235294,16.3254902 33.1921569,16.3254902 C32.8313725,16.3254902 32.6509804,16.145098 32.6509804,15.7843137 C32.6509804,15.2431373 33.0117647,14.972549 33.9137255,14.972549 L33.9137255,14.972549 Z M41.2196078,13.2588235 C41.7607843,13.2588235 42.0313725,13.6196078 41.9411765,14.3411765 C41.9411765,15.4235294 41.4901961,16.2352941 40.7686275,16.2352941 C40.3176471,16.2352941 40.0470588,15.8745098 40.0470588,15.1529412 C40.0470588,14.0705882 40.5882353,13.2588235 41.2196078,13.2588235 Z M21.6470588,13.0784314 C22.5490196,13.0784314 22.3686275,13.8901961 22.3686275,14.0705882 L22.3686275,14.0705882 L20.745098,14.0705882 C20.8352941,13.4392157 21.1960784,13.0784314 21.6470588,13.0784314 Z M31.8392157,0.450980392 C28.4117647,0.450980392 25.254902,1.71372549 22.8196078,3.87843137 C20.4745098,1.71372549 17.3176471,0.450980392 13.8901961,0.450980392 C6.49411765,0.450980392 0.450980392,6.49411765 0.450980392,13.8901961 C0.450980392,21.2862745 6.49411765,27.3294118 13.8901961,27.3294118 C17.3176471,27.3294118 20.4745098,26.0666667 22.8196078,23.9019608 C25.1647059,26.0666667 28.3215686,27.3294118 31.8392157,27.3294118 C39.2352941,27.3294118 45.2784314,21.2862745 45.2784314,13.8901961 C45.2784314,6.49411765 39.2352941,0.450980392 31.8392157,0.450980392 Z M6.13333333,17.4980392 L6.94509804,12.2666667 L5.05098039,17.4980392 L4.05882353,17.4980392 L3.96862745,12.2666667 L3.06666667,17.4980392 L1.71372549,17.4980392 L2.88627451,10.6431373 L4.96078431,10.6431373 L5.05098039,14.8823529 L6.49411765,10.6431373 L8.74901961,10.6431373 L7.57647059,17.4980392 L6.13333333,17.4980392 Z M11.0039216,17.4980392 L11.0039216,16.9568627 C10.6431373,17.4078431 10.1019608,17.5882353 9.47058824,17.5882353 C8.65882353,17.5882353 8.11764706,16.9568627 8.11764706,16.054902 C8.11764706,14.7019608 9.01960784,13.8901961 10.6431373,13.8901961 C10.8235294,13.8901961 11.0039216,13.8901961 11.2745098,13.8901961 C11.3647059,13.7098039 11.3647059,13.6196078 11.3647059,13.5294118 C11.3647059,13.1686275 11.0941176,12.9882353 10.4627451,12.9882353 C9.74117647,12.9882353 9.2,13.1686275 8.92941176,13.2588235 C8.92941176,13.1686275 9.10980392,11.9960784 9.10980392,11.9960784 C9.83137255,11.8156863 10.2823529,11.7254902 10.8235294,11.7254902 C12.0862745,11.7254902 12.7176471,12.2666667 12.7176471,13.3490196 C12.7176471,13.6196078 12.7176471,13.9803922 12.627451,14.4313725 C12.5372549,15.2431373 12.2666667,16.9568627 12.1764706,17.4078431 C11.9960784,17.4980392 11.0039216,17.4980392 11.0039216,17.4980392 Z M15.3333333,14.1607843 C16.054902,14.5215686 16.3254902,14.972549 16.3254902,15.6941176 C16.3254902,16.9568627 15.6039216,17.5882353 14.0705882,17.5882353 C13.1686275,17.5882353 12.8980392,17.4980392 12.5372549,17.4078431 C12.5372549,17.3176471 12.7176471,16.145098 12.7176471,16.145098 C13.1686275,16.3254902 13.6196078,16.3254902 14.0705882,16.3254902 C14.6117647,16.3254902 14.8823529,16.145098 14.8823529,15.7843137 C14.8823529,15.5137255 14.7921569,15.4235294 14.1607843,15.1529412 C13.3490196,14.7921569 13.0784314,14.3411765 13.0784314,13.6196078 C13.0784314,12.627451 13.6196078,11.7254902 15.2431373,11.7254902 C15.6039216,11.7254902 16.145098,11.8156863 16.5058824,11.8156863 L16.3254902,13.0784314 C15.9647059,12.9882353 15.6039216,12.9882353 15.2431373,12.9882353 C14.7921569,12.9882353 14.5215686,13.1686275 14.5215686,13.4392157 C14.6117647,13.8 14.7019608,13.8901961 15.3333333,14.1607843 Z M18.4901961,16.2352941 C18.6705882,16.2352941 18.7607843,16.2352941 18.8509804,16.145098 L18.6705882,17.4078431 C18.3098039,17.4980392 17.9490196,17.5882353 17.5882353,17.5882353 C16.8666667,17.5882353 16.4156863,17.1372549 16.4156863,16.3254902 C16.4156863,16.054902 16.5058824,15.4235294 16.5960784,14.8823529 C16.6862745,14.3411765 17.227451,11.0941176 17.227451,11.0941176 L18.6705882,11.0941176 L18.4901961,11.9058824 L19.2117647,11.9058824 L19.0313725,13.2588235 L18.3098039,13.2588235 C18.1294118,14.3411765 17.8588235,15.6039216 17.8588235,15.7843137 C18.0392157,16.054902 18.2196078,16.2352941 18.4901961,16.2352941 Z M21.9176471,16.3254902 C22.4588235,16.3254902 22.9098039,16.2352941 23.4509804,15.9647059 L23.1803922,17.3176471 C22.6392157,17.4980392 22.1882353,17.4980392 21.6470588,17.4980392 C20.0235294,17.4980392 19.2117647,16.6862745 19.2117647,15.0627451 C19.2117647,13.1686275 20.2941176,11.7254902 21.7372549,11.7254902 C22.9098039,11.7254902 23.7215686,12.5372549 23.7215686,13.7098039 C23.7215686,14.1607843 23.6313725,14.5215686 23.5411765,15.0627451 L20.654902,15.0627451 C20.5647059,15.9647059 21.1058824,16.3254902 21.9176471,16.3254902 Z M25.1647059,17.4980392 L23.7215686,17.4980392 L23.8117647,17.1372549 C24.0823529,15.4235294 24.3529412,13.7098039 24.5333333,11.9960784 L25.8862745,11.9960784 C25.8862745,12.2666667 25.7960784,12.5372549 25.7960784,12.8078431 C26.2470588,12.1764706 26.6078431,11.8156863 27.2392157,11.9058824 C27.0588235,12.1764706 26.7882353,12.8078431 26.6980392,13.5294118 C25.7960784,13.4392157 25.7058824,14.0705882 25.1647059,17.4980392 Z M30.7568627,17.4078431 C30.2156863,17.5882353 29.854902,17.5882353 29.4941176,17.5882353 C27.9607843,17.5882353 26.9686275,16.4156863 26.9686275,14.6117647 C26.9686275,12.1764706 28.3215686,10.4627451 30.3058824,10.4627451 C30.9372549,10.4627451 31.6588235,10.7333333 31.9294118,10.8235294 L31.6588235,12.2666667 C31.1176471,11.9960784 30.7568627,11.9058824 30.3960784,11.9058824 C29.3137255,11.9058824 28.5019608,12.9882353 28.5019608,14.4313725 C28.5019608,15.4235294 29.0431373,16.054902 29.854902,16.054902 C30.2156863,16.054902 30.5764706,15.9647059 31.1176471,15.6941176 L30.7568627,17.4078431 Z M35.2666667,17.4980392 C35.0862745,17.4980392 34.0941176,17.4980392 34.0941176,17.4980392 L34.0941176,16.9568627 C33.7333333,17.4078431 33.1921569,17.5882353 32.5607843,17.5882353 C31.7490196,17.5882353 31.2078431,16.9568627 31.2078431,16.054902 C31.2078431,14.7019608 32.1098039,13.8901961 33.7333333,13.8901961 C33.9137255,13.8901961 34.0941176,13.8901961 34.3647059,13.8901961 C34.454902,13.7098039 34.454902,13.6196078 34.454902,13.5294118 C34.454902,13.1686275 34.1843137,12.9882353 33.5529412,12.9882353 C32.8313725,12.9882353 32.2901961,13.1686275 32.0196078,13.2588235 C32.0196078,13.1686275 32.2,11.9960784 32.2,11.9960784 C32.9215686,11.8156863 33.372549,11.7254902 33.9137255,11.7254902 C35.1764706,11.7254902 35.8078431,12.2666667 35.8078431,13.3490196 C35.8078431,13.6196078 35.8078431,13.9803922 35.7176471,14.4313725 C35.5372549,15.3333333 35.2666667,17.0470588 35.2666667,17.4980392 Z M37.2509804,17.4980392 L35.8078431,17.4980392 L35.8980392,17.1372549 C36.1686275,15.4235294 36.4392157,13.7098039 36.6196078,11.9960784 L37.972549,11.9960784 C37.972549,12.2666667 37.8823529,12.5372549 37.8823529,12.8078431 C38.3333333,12.1764706 38.6941176,11.8156863 39.3254902,11.9058824 C39.145098,12.1764706 38.8745098,12.8078431 38.7843137,13.5294118 C37.8823529,13.4392157 37.7019608,14.0705882 37.2509804,17.4980392 Z M41.5803922,17.4980392 L41.6705882,16.9568627 C41.3098039,17.4078431 40.8588235,17.5882353 40.3176471,17.5882353 C39.2352941,17.5882353 38.5137255,16.6862745 38.5137255,15.2431373 C38.5137255,13.4392157 39.5960784,11.8156863 40.8588235,11.8156863 C41.4,11.8156863 41.8509804,12.0862745 42.2117647,12.5372549 L42.572549,10.5529412 L44.0156863,10.5529412 L42.9333333,17.4078431 L41.5803922,17.4078431 L41.5803922,17.4980392 Z" id="Shape"></path>
                        </g>
                    </g>
                </g>
            </g>
        </g>
    </g>
</svg>