<?xml version="1.0" encoding="UTF-8"?>
<svg width="255px" height="244px" viewBox="0 0 255 244" version="1.1" xmlns="http://www.w3.org/2000/svg" xmlns:xlink="http://www.w3.org/1999/xlink">
    <title>Fill 1</title>
    <g id="E---Liste-conseils" stroke="none" stroke-width="1" fill="none" fill-rule="evenodd">
        <g id="E.1.0---Liste-conseils" transform="translate(-255.000000, -1992.000000)" fill="#002A5D">
            <g id="//-Ressources" transform="translate(0.500000, 1852.000000)">
                <path d="M457.493747,216.706956 C464.198483,216.706956 469.653979,222.162451 469.653979,228.867188 C469.653979,235.571924 464.198483,241.025382 457.493747,241.025382 C450.78901,241.025382 445.335553,235.571924 445.335553,228.867188 C445.335553,222.162451 450.78901,216.706956 457.493747,216.706956 Z M457.493747,218.744869 C451.913939,218.744869 447.373467,223.285342 447.373467,228.867188 C447.373467,234.446996 451.913939,238.987468 457.493747,238.987468 C463.073555,238.987468 467.616065,234.446996 467.616065,228.867188 C467.616065,223.285342 463.073555,218.744869 457.493747,218.744869 Z M487.879246,208.708144 C488.235881,208.274068 488.877824,208.212931 489.313938,208.573641 L489.313938,208.573641 L502.935354,219.861646 C503.367392,220.220319 503.428529,220.862262 503.067818,221.2943 L503.067818,221.2943 L491.779813,234.915716 C491.580098,235.160266 491.288676,235.284578 490.995217,235.284578 C490.76697,235.284578 490.536686,235.209176 490.345122,235.050218 L490.345122,235.050218 L476.723706,223.762213 C476.293706,223.403541 476.230531,222.761598 476.591241,222.327522 L476.591241,222.327522 Z M488.798345,210.79293 L478.81053,222.843114 L490.860714,232.83093 L500.84853,220.778707 L488.798345,210.79293 Z M408.747051,201.95735 C409.289136,201.839151 409.839373,202.185597 409.95961,202.735833 C410.079847,203.28607 409.731363,203.828155 409.181127,203.948392 L409.181127,203.948392 L375.997775,211.203365 C375.92441,211.219669 375.851045,211.22782 375.779718,211.22782 C375.310998,211.22782 374.88915,210.903792 374.785217,210.42692 C374.66498,209.876683 375.013463,209.33256 375.561662,209.214361 L375.561662,209.214361 Z M405.564033,183.083822 C406.11427,182.94932 406.658393,183.301879 406.784744,183.850078 C406.911094,184.398277 406.568725,184.944438 406.018488,185.070788 L406.018488,185.070788 L346.063062,198.806328 C345.98766,198.824669 345.910219,198.832821 345.834816,198.832821 C345.370172,198.832821 344.950361,198.512868 344.842352,198.04211 C344.716001,197.491873 345.058371,196.945712 345.60657,196.8214 L345.60657,196.8214 Z M467.542089,175.618944 C467.894648,175.618944 468.220714,175.79828 468.406164,176.095816 L468.406164,176.095816 L479.592273,193.994813 C479.787913,194.308652 479.800141,194.699931 479.62488,195.02396 C479.447582,195.34595 479.111326,195.549741 478.742463,195.553817 L478.742463,195.553817 L456.137923,195.879883 L456.123657,195.879883 C455.756833,195.879883 455.418539,195.682206 455.237165,195.362253 C455.053753,195.036187 455.063942,194.636756 455.26162,194.320879 L455.26162,194.320879 L466.678013,176.095816 C466.865501,175.79828 467.191568,175.618944 467.542089,175.618944 Z M467.540051,178.557616 L457.982235,193.815477 L476.906303,193.542396 L467.540051,178.557616 Z M384.334881,170.950287 C384.881042,170.83005 385.429241,171.170382 385.553553,171.720618 C385.675828,172.268817 385.331421,172.814978 384.783222,172.939291 L384.783222,172.939291 L342.7594,182.417628 C342.683997,182.433932 342.608595,182.442083 342.533192,182.442083 C342.068547,182.442083 341.646699,182.120093 341.540728,181.647297 C341.416415,181.099098 341.760822,180.552937 342.311059,180.428624 L342.311059,180.428624 Z M373.450791,154.987308 C374.009179,154.865033 374.547188,155.203327 374.675577,155.751525 C374.801927,156.299724 374.459558,156.847923 373.911359,156.974274 L373.911359,156.974274 L339.291278,164.975124 C339.213838,164.993465 339.136397,165.001616 339.058956,165.001616 C338.59635,165.001616 338.176539,164.683702 338.06853,164.212944 C337.942179,163.664745 338.282511,163.116546 338.83071,162.990195 L338.83071,162.990195 Z M495.98729,275.585344 L422.871017,250.559762 L426.506655,237.390762 L426.539262,237.380573 C427.079309,237.229767 427.397224,236.667303 427.246418,236.125218 C427.197508,235.949957 427.095612,235.809341 426.977413,235.689104 L434.317979,209.096366 C434.507505,209.029115 434.686841,208.929257 434.813192,208.753997 C435.094424,208.366793 435.04959,207.859353 434.754093,207.508831 L450.097546,151.926769 C456.353942,154.256104 488.927957,166.424488 499.36819,170.991453 L491.253217,200.871346 C491.179852,201.146464 491.22061,201.437886 491.371416,201.67836 C491.522221,201.918834 491.766771,202.085943 492.043927,202.138928 L518.581641,207.229637 L495.98729,275.585344 Z M464.136735,303.17666 C451.884797,293.156237 437.780395,281.760223 426.626892,272.748568 C416.979408,264.957623 409.361686,258.801085 407.629459,257.317484 C404.550171,254.682461 402.188229,252.510045 402.094485,250.525117 C402.041499,249.442985 402.642684,248.293602 403.983631,246.90782 C405.375526,245.471091 406.669602,243.93858 407.327848,242.289907 C407.509222,242.436637 407.727279,242.532419 407.967753,242.532419 C408.057421,242.532419 408.149127,242.520192 408.240833,242.495737 L424.214002,238.030667 L420.649691,250.94289 C420.507037,251.462558 420.794383,252.002605 421.303861,252.177865 L489.357957,275.471221 L464.136735,303.17666 Z M493.498998,335.817926 C492.726628,339.875413 487.442318,341.905175 487.322081,341.952047 C486.523218,342.316833 407.397137,378.463312 397.8597,382.95895 C391.065295,386.16255 387.759799,383.105679 387.527477,382.891698 C386.280273,381.937955 262.578902,287.238135 256.371416,281.407664 C251.396869,276.736765 253.235067,273.738994 253.665067,273.172454 L354.708912,215.797027 C366.520661,209.267551 369.498053,209.265513 377.470372,215.770534 C383.688047,220.84494 393.673825,228.674605 400.731121,233.820337 C403.999934,236.204696 405.593583,238.114222 405.740313,239.828107 C405.870739,241.350429 404.937375,242.99095 402.520409,245.489432 C400.759651,247.309289 399.97913,248.937582 400.058609,250.620899 C400.189036,253.425069 402.728276,255.80739 406.302777,258.866299 C408.059459,260.368241 415.310356,266.227244 425.345044,274.334065 C436.628973,283.451691 450.939204,295.012777 463.278773,305.108602 C463.335835,305.214574 463.401048,305.314431 463.492754,305.400024 C463.610953,305.508033 463.751569,305.571209 463.896261,305.611967 C474.797062,314.533954 484.07976,322.249496 488.24118,326.01556 C492.274211,329.661388 494.043121,332.958733 493.498998,335.817926 L493.498998,335.817926 Z M327.468117,176.563109 L338.548255,222.630152 L256.522222,269.206674 L327.468117,176.563109 Z M377.068903,140.441086 L386.640984,165.110033 C386.795866,165.509465 387.178993,165.760128 387.59269,165.760128 C387.678282,165.760128 387.765913,165.749938 387.851505,165.725483 L411.104102,159.550604 L420.068885,198.061063 C419.767274,198.51348 419.863056,199.126892 420.309359,199.45092 L420.409217,199.524285 L426.736939,226.699866 C426.798077,226.964795 426.963148,227.172662 427.173053,227.31124 L424.847793,235.738014 L407.763961,240.512846 C407.786378,240.229576 407.798606,239.944268 407.772113,239.652847 C407.566284,237.276639 405.766806,234.969721 401.93349,232.175741 C394.904725,227.050387 384.955629,219.249253 378.758333,214.193189 C370.146109,207.164424 366.168102,207.135893 353.718486,214.01589 C353.71441,214.017928 353.712372,214.019966 353.708296,214.022004 L340.392567,221.580627 L323.983285,153.357384 C330.143898,151.633309 364.682462,142.055114 377.068903,140.441086 L377.068903,140.441086 Z M409.814103,157.783733 L388.212216,163.522499 L379.278001,140.502224 C391.336338,141.782033 405.512067,153.866863 409.814103,157.783733 L409.814103,157.783733 Z M432.428833,208.275087 L428.149214,223.777498 L422.930116,201.358407 L432.428833,208.275087 Z M518.538845,205.146889 L493.507149,200.345564 L501.169705,172.13676 C511.426526,180.276188 517.085813,199.585422 518.538845,205.146889 L518.538845,205.146889 Z M520.915053,206.638642 C520.943584,206.498026 520.93747,206.35741 520.908939,206.224946 L520.908939,206.222908 C520.658276,205.11632 514.681074,179.181829 501.273639,169.705529 C501.214539,169.650506 501.151364,169.605671 501.082075,169.564913 C501.051506,169.544534 501.022976,169.520079 500.992407,169.4997 C490.093644,164.612782 450.168873,149.778807 449.765366,149.628002 C449.500437,149.530182 449.20494,149.546485 448.948163,149.676912 C448.693423,149.807338 448.505935,150.037623 448.428495,150.312741 L433.0076,206.176036 L422.224998,198.323954 L412.850594,158.064965 C412.850594,158.060889 412.844481,158.056814 412.844481,158.052738 C412.842443,158.046624 412.844481,158.04051 412.842443,158.034397 C412.797609,157.86525 412.705903,157.726672 412.593817,157.608473 C412.58159,157.598283 412.58159,157.579942 412.569362,157.567714 C411.792917,156.803497 393.384441,138.951371 377.916675,138.354262 C377.839234,138.339997 377.763831,138.325732 377.684353,138.331845 C377.661936,138.331845 377.641557,138.325732 377.61914,138.325732 C364.417534,139.835826 324.191152,151.178854 322.485418,151.66184 C321.957598,151.810608 321.643759,152.348617 321.772148,152.880512 L326.854705,174.011641 L253.389948,269.946436 C253.139285,270.270465 253.122982,270.696389 253.30028,271.03672 L252.49938,271.491175 C252.413788,271.540085 252.332271,271.60326 252.262982,271.676625 C252.20592,271.735725 250.871087,273.172454 250.93777,275.599609 C251.009665,277.988044 252.366916,280.441693 254.977483,282.891265 C261.258334,288.793064 381.187527,380.605159 386.190605,384.422172 C386.308804,384.542409 388.287619,386.453972 392.114821,386.453972 C393.912261,386.453972 396.117284,386.032124 398.725813,384.803262 C408.255099,380.313737 487.370991,344.171335 488.102602,343.835079 C488.363455,343.737259 494.503689,341.393658 495.500229,336.207168 C496.191082,332.604136 494.208192,328.664848 489.60862,324.503428 C485.494072,320.778122 476.413128,313.227651 465.716118,304.470735 L491.461084,276.190604 L496.301129,277.847428 C496.409139,277.884111 496.521224,277.902452 496.631271,277.902452 C496.788191,277.902452 496.943072,277.86577 497.085726,277.794443 C497.328238,277.674206 497.513688,277.460225 497.59928,277.20141 L520.882446,206.767031 C520.88856,206.752765 520.880408,206.736462 520.884484,206.722197 C520.892636,206.693666 520.908939,206.669211 520.915053,206.638642 L520.915053,206.638642 Z" id="Fill-1" transform="translate(385.934495, 262.389852) rotate(-10.000000) translate(-385.934495, -262.389852) "></path>
            </g>
        </g>
    </g>
</svg>