<?xml version="1.0" encoding="UTF-8"?>
<svg width="55px" height="14px" viewBox="0 0 55 14" version="1.1" xmlns="http://www.w3.org/2000/svg" xmlns:xlink="http://www.w3.org/1999/xlink">
    <title>Path 3</title>
    <g id="D---Fiche-produit" stroke="none" stroke-width="1" fill="none" fill-rule="evenodd">
        <g id="D.1.0---Fiche-produit---Particulier-Deploy" transform="translate(-276.000000, -1353.000000)" fill="#AAAAAA" fill-rule="nonzero">
            <g id="//-Intro---Slider-01" transform="translate(0.000000, 120.000000)">
                <g id="infos" transform="translate(93.000000, 64.000000)">
                    <g id="paiement" transform="translate(0.000000, 1159.000000)">
                        <g id="iconfinder__Paypal-39_1156727" transform="translate(183.000000, 10.000000)">
                            <path d="M37.3462819,6.32408435 C37.5172031,6.32408435 37.6881243,6.58046615 37.4317425,6.83684795 L37.4317425,6.83684795 L32.7314095,13.5882353 C32.6459489,13.6736959 32.5604883,13.7591565 32.3895671,13.7591565 L32.3895671,13.7591565 L31.0221976,13.7591565 C30.8512764,13.7591565 30.7658158,13.5027747 30.8512764,13.3318535 L30.8512764,13.3318535 L32.3041065,11.2807991 L30.7658158,6.75138735 C30.7658158,6.58046615 30.8512764,6.40954495 31.0221976,6.40954495 L31.0221976,6.40954495 L32.3895671,6.40954495 C32.6459489,6.40954495 32.7314095,6.49500555 32.8168701,6.66592675 L32.8168701,6.66592675 L33.6714761,9.40066593 L35.5516093,6.49500555 C35.6370699,6.40954495 35.7225305,6.32408435 35.8934517,6.32408435 L35.8934517,6.32408435 Z M26.4927858,6.15316315 C27.1764706,6.15316315 27.7746948,6.32408435 28.1165372,6.75138735 L28.1165372,6.75138735 L28.2019978,6.92230855 L28.2874584,6.49500555 C28.2874584,6.40954495 28.4583796,6.32408435 28.5438402,6.32408435 L28.5438402,6.32408435 L29.9112098,6.32408435 C29.9966704,6.32408435 30.1675916,6.49500555 30.2530522,6.58046615 L30.2530522,6.58046615 L29.4839068,11.3662597 C29.3984462,11.5371809 29.227525,11.7081021 29.0566038,11.7081021 L29.0566038,11.7081021 L27.7746948,11.7081021 C27.6037736,11.7081021 27.518313,11.6226415 27.518313,11.4517203 L27.518313,11.4517203 L27.6037736,11.0244173 C27.6037736,11.0244173 26.9200888,11.7935627 25.6381798,11.7935627 C24.8690344,11.7935627 24.2708102,11.6226415 23.8435072,11.1098779 C23.4162042,10.5971143 23.1598224,9.82796892 23.3307436,8.97336293 C23.5871254,7.34961154 24.954495,6.15316315 26.4927858,6.15316315 Z M47.345172,6.15316315 C48.0288568,6.15316315 48.627081,6.32408435 48.9689234,6.75138735 L48.9689234,6.75138735 L49.054384,6.92230855 L49.1398446,6.49500555 C49.1398446,6.40954495 49.3107658,6.32408435 49.3962264,6.32408435 L49.3962264,6.32408435 L50.763596,6.32408435 C50.9345172,6.32408435 51.0199778,6.49500555 51.1054384,6.58046615 L51.1054384,6.58046615 L50.336293,11.3662597 C50.2508324,11.5371809 50.0799112,11.7081021 49.90899,11.7081021 L49.90899,11.7081021 L48.627081,11.7081021 C48.4561598,11.7081021 48.3706992,11.6226415 48.3706992,11.4517203 L48.3706992,11.4517203 L48.4561598,11.0244173 C48.4561598,11.0244173 47.772475,11.7935627 46.490566,11.7935627 C45.7214206,11.7935627 45.1231964,11.6226415 44.6958935,11.1098779 C44.2685905,10.5971143 44.0122087,9.82796892 44.1831299,8.97336293 C44.4395117,7.34961154 45.8068812,6.15316315 47.345172,6.15316315 Z M52.3873474,3.84572697 C52.472808,3.67480577 52.5582686,3.58934517 52.6437292,3.67480577 L52.6437292,3.67480577 L54.0110988,3.67480577 C54.18202,3.67480577 54.2674806,3.76026637 54.2674806,3.93118757 L54.2674806,3.93118757 L53.0710322,11.4517203 C52.9855716,11.6226415 52.8146504,11.7935627 52.6437292,11.7935627 L52.6437292,11.7935627 L51.4472808,11.7935627 C51.2763596,11.7935627 51.190899,11.7081021 51.190899,11.5371809 L51.190899,11.5371809 Z M42.0466149,3.58934517 C42.9866815,3.58934517 43.7558269,3.84572697 44.2685905,4.27302997 C44.6104329,4.70033296 44.7813541,5.38401776 44.6104329,6.15316315 C44.3540511,8.03329634 43.2430633,8.97336293 41.2774695,8.97336293 L41.2774695,8.97336293 L40.3374029,8.97336293 C40.0810211,8.97336293 39.9100999,9.14428413 39.9100999,9.31520533 L39.9100999,9.31520533 L39.5682575,11.4517203 C39.5682575,11.6226415 39.4827969,11.7081021 39.3118757,11.7081021 L39.3118757,11.7081021 L37.7735849,11.7081021 C37.6026637,11.7081021 37.5172031,11.6226415 37.5172031,11.4517203 L37.5172031,11.4517203 L38.7136515,3.93118757 C38.7991121,3.76026637 38.9700333,3.58934517 39.1409545,3.58934517 L39.1409545,3.58934517 Z M21.108768,3.58934517 C22.1342952,3.58934517 22.81798,3.84572697 23.3307436,4.27302997 C23.672586,4.70033296 23.8435072,5.38401776 23.672586,6.15316315 C23.4162042,8.03329634 22.3052164,8.97336293 20.3396226,8.97336293 L20.3396226,8.97336293 L19.399556,8.97336293 C19.1431743,8.97336293 18.9722531,9.14428413 18.9722531,9.31520533 L18.9722531,9.31520533 L18.6304107,11.3662597 C18.5449501,11.5371809 18.3740289,11.7081021 18.2031077,11.7081021 L18.2031077,11.7081021 L16.8357381,11.7081021 C16.6648169,11.7081021 16.5793563,11.6226415 16.5793563,11.4517203 L16.5793563,11.4517203 L17.7758047,3.93118757 C17.8612653,3.76026637 18.0321865,3.58934517 18.2031077,3.58934517 L18.2031077,3.58934517 Z M26.663707,7.69145394 C25.8945616,7.69145394 25.2108768,8.28967814 25.1254162,9.05882353 C25.1254162,9.48612653 25.2108768,9.82796892 25.381798,10.0843507 C25.5527192,10.2552719 25.8945616,10.4261931 26.3218646,10.4261931 C27.1764706,10.4261931 27.7746948,9.82796892 27.945616,9.05882353 C27.945616,8.71698113 27.8601554,8.28967814 27.6037736,8.03329634 C27.3473918,7.86237514 27.09101,7.69145394 26.663707,7.69145394 Z M47.5160932,7.69145394 C46.7469478,7.69145394 46.063263,8.28967814 45.9778024,9.05882353 C45.9778024,9.48612653 46.063263,9.82796892 46.2341842,10.0843507 C46.4051054,10.2552719 46.7469478,10.4261931 47.1742508,10.4261931 C48.0288568,10.4261931 48.627081,9.82796892 48.7980022,9.05882353 C48.8834628,8.71698113 48.7980022,8.28967814 48.4561598,8.03329634 C48.199778,7.86237514 47.9433962,7.69145394 47.5160932,7.69145394 Z M41.0891998,5.298899 L40.7647059,5.29855716 C40.5937847,5.29855716 40.5083241,5.38401776 40.5083241,5.46947836 L40.5083241,5.46947836 L40.1664817,7.43507214 L40.6792453,7.43507214 C41.4483907,7.43507214 42.2175361,7.43507214 42.3884573,6.40954495 C42.3884573,5.98224195 42.3884573,5.72586016 42.2175361,5.64039956 C41.9611543,5.29855716 41.4483907,5.29855716 40.9356271,5.29855716 Z M20.2368135,5.298899 L19.9123196,5.29855716 C19.7413984,5.29855716 19.6559378,5.38401776 19.6559378,5.46947836 L19.6559378,5.46947836 L19.3140954,7.43507214 L19.7413984,7.43507214 L19.7413984,7.43507214 L19.9835887,7.43387602 C20.6658407,7.42370896 21.2976809,7.32712191 21.4506104,6.40954495 C21.536071,5.98224195 21.4506104,5.72586016 21.3651498,5.64039956 C21.108768,5.29855716 20.5960044,5.29855716 20.0832408,5.29855716 Z M10.9574162,3.60643729 L10.9819893,3.55701583 C11.1678842,3.65004616 11.2959744,3.79061686 11.3662597,3.93118757 C11.8790233,4.52941176 11.9644839,5.46947836 11.7935627,6.49500555 C11.3662597,9.05882353 9.65704772,9.91342952 7.52053274,9.91342952 L7.52053274,9.91342952 L7.17869034,9.91342952 C6.92230855,9.91342952 6.66592675,10.0843507 6.66592675,10.3407325 L6.66592675,10.3407325 L6.66592675,10.5116537 L6.23862375,13.1609323 L6.23862375,13.2463929 C6.23862375,13.5027747 5.98224195,13.6736959 5.72586016,13.6736959 L5.72586016,13.6736959 L3.50388457,13.6736959 C3.24750277,13.6736959 3.16204218,13.5027747 3.16204218,13.3318535 L3.16204218,13.3318535 L3.357303,12.135 L0.769145394,12.1354051 C0.619589345,12.1354051 0.470033296,12.0045436 0.434981097,11.8000724 L0.427302997,11.7081021 L2.13651498,0.512763596 C2.22197558,0.256381798 2.47835738,0 2.73473918,0 L2.73473918,0 L7.00776915,0 C8.54605993,0 9.65704772,0.341842397 10.2552719,1.02552719 C10.8534961,1.70921199 11.0244173,2.39289678 10.9389567,3.50388457 L10.9389567,3.50388457 L10.9389567,3.76026637 L10.9389567,3.76026637 C10.9389567,3.70899001 10.9389567,3.65771365 10.9574162,3.60643729 Z" id="Path-3"></path>
                        </g>
                    </g>
                </g>
            </g>
        </g>
    </g>
</svg>