<?xml version="1.0" encoding="UTF-8"?>
<svg width="222px" height="222px" viewBox="0 0 222 222" version="1.1" xmlns="http://www.w3.org/2000/svg" xmlns:xlink="http://www.w3.org/1999/xlink">
    <title>img</title>
    <defs>
        <path d="M84.2186368,59.9133031 L84.3180535,59.9234198 L104.555573,63.4910448 L124.521258,63.4919634 C124.743543,63.3733561 125.015178,63.3810282 125.2244,63.5289504 L125.309919,63.600973 L129.619573,67.9110448 L149.638505,71.4411778 C149.972023,71.4999859 150.204419,71.7939269 150.195314,72.122519 L150.185198,72.2219356 L137.871573,142.050045 L137.871626,151.815398 C137.871626,152.154061 137.622506,152.433968 137.297325,152.482062 L137.197662,152.489362 L136.030573,152.489045 L134.965027,158.539814 C134.906219,158.873331 134.612278,159.105727 134.283686,159.096623 L134.184269,159.086506 L96.7715727,152.489045 L70.8695369,152.489362 C70.5308744,152.489362 70.2509667,152.240242 70.2028732,151.915061 L70.1955727,151.815398 L70.1955727,64.1659276 C70.1955727,63.7933988 70.4970082,63.4919634 70.8695369,63.4919634 L70.8695369,63.4919634 L83.0035727,63.4910448 L83.5372956,60.4701123 C83.5961038,60.1365949 83.8900447,59.9041989 84.2186368,59.9133031 Z M134.662573,152.489045 L104.536573,152.489045 L133.754609,157.642023 L134.662573,152.489045 Z M124.165792,64.8398918 L71.5435011,64.8398918 L71.5435011,151.142382 L89.1335727,151.142045 L86.2643307,150.636076 L94.0282485,150.636269 L96.8975727,151.142045 L134.899573,151.142045 L134.989394,150.63711 L136.358243,150.636803 L136.268573,151.142045 L136.523698,151.142382 L136.523698,77.2186519 L124.839756,77.2186519 C124.467227,77.2186519 124.165792,76.9172164 124.165792,76.5446877 L124.165792,76.5446877 L124.165792,64.8398918 Z M125.578178,140.360661 L125.578178,141.707641 L82.4890209,141.707641 L82.4890209,140.360661 L125.578178,140.360661 Z M131.279573,69.5710448 L137.664034,75.9550875 C137.787262,76.0783159 137.84698,76.2375648 137.854564,76.3977616 C137.856459,76.4062928 137.857407,76.414824 137.859303,76.4224073 L137.861199,76.4347301 C137.866886,76.4707507 137.871626,76.5067713 137.871626,76.5446877 L137.871626,76.5446877 L137.871573,134.287045 L148.740879,72.650662 L131.279573,69.5710448 Z M125.578178,131.374472 L125.578178,132.7224 L82.4890209,132.7224 L82.4890209,131.374472 L125.578178,131.374472 Z M125.578178,122.388282 L125.578178,123.736211 L82.4890209,123.736211 L82.4890209,122.388282 L125.578178,122.388282 Z M125.578178,113.403041 L125.578178,114.750969 L82.4890209,114.750969 L82.4890209,113.403041 L125.578178,113.403041 Z M99.7248603,82.2992988 C99.9283242,82.3064977 100.203967,82.3124178 100.497867,82.3169527 L101.094034,82.3241437 C101.388313,82.3267841 101.664903,82.3279681 101.869882,82.3275892 L101.869882,82.3275892 L101.870893,83.2975474 L104.512008,83.3167445 L105.694962,84.0946014 L109.130424,82.3549367 L109.130424,84.0946014 L106.883602,85.2311127 L109.118299,87.114737 C109.118299,88.5969543 109.264803,96.6102234 109.264803,96.6102234 L109.264803,96.6102234 L98.4366346,96.6102234 L98.4366346,83.2308628 L99.7198085,83.2308628 Z M125.51372,65.7100734 L125.51372,75.8707235 L135.67437,75.8707235 L125.51372,65.7100734 Z M84.7478779,61.3669693 L84.3725727,63.4910448 L96.7975727,63.4910448 L84.7478779,61.3669693 Z" id="path-1"></path>
    </defs>
    <g id="A---Homepage" stroke="none" stroke-width="1" fill="none" fill-rule="evenodd">
        <g id="A.1.2---Homepage---Prescripteur" transform="translate(-122.000000, -2779.000000)">
            <g id="//-Accompagne" transform="translate(0.000000, 2392.000000)">
                <g id="img" transform="translate(123.000000, 388.000000)">
                    <rect id="Rectangle" stroke="#002A5D" x="0" y="0" width="220" height="220" rx="110"></rect>
                    <mask id="mask-2" fill="white">
                        <use xlink:href="#path-1"></use>
                    </mask>
                    <use id="Clip-6" fill="#002A5D" transform="translate(110.195573, 109.504963) rotate(-10.000000) translate(-110.195573, -109.504963) " xlink:href="#path-1"></use>
                </g>
            </g>
        </g>
    </g>
</svg>