<?xml version="1.0" encoding="UTF-8"?>
<svg width="42px" height="61px" viewBox="0 0 42 61" version="1.1" xmlns="http://www.w3.org/2000/svg" xmlns:xlink="http://www.w3.org/1999/xlink">
    <title>icon/laurier copy 5</title>
    <g id="I---Marque" stroke="none" stroke-width="1" fill="none" fill-rule="evenodd">
        <g id="I.1.2---La-marque---Nos-récompenses" transform="translate(-263.000000, -969.000000)" fill="#003A80">
            <g id="01" transform="translate(0.000000, 570.000000)">
                <g id="txt" transform="translate(149.000000, 59.915855)">
                    <g id="prizes" transform="translate(0.000000, 289.774136)">
                        <g id="icon/laurier-copy-5" transform="translate(105.000000, 49.955713)">
                            <path d="M30.2373812,31.2902359 C23.8932591,31.2902359 18.731752,26.1333006 18.731752,19.7947977 C18.731752,13.4562948 23.8932591,8.2993595 30.2373812,8.2993595 C36.5821535,8.2993595 41.7430104,13.4562948 41.7430104,19.7947977 C41.7430104,26.1333006 36.5821535,31.2902359 30.2373812,31.2902359 M43.6934476,19.7947977 C43.6934476,12.3819062 37.6568444,6.35064986 30.2373812,6.35064986 C22.8172679,6.35064986 16.7813148,12.3819062 16.7813148,19.7947977 C16.7813148,27.2083387 22.817918,33.2389455 30.2373812,33.2389455 C37.6568444,33.2389455 43.6934476,27.2076892 43.6934476,19.7947977 M42.6085494,51.6622414 C42.1443454,51.4043621 41.558564,51.566105 41.2926544,52.0253509 L38.7174272,56.4560671 L33.9362554,39.3834219 C34.4303661,39.5048915 34.9283778,39.588686 35.42899,39.588686 C35.8496343,39.588686 36.2494739,39.528276 36.615506,39.4094047 C38.0159199,38.9553553 38.9150715,37.720523 39.7101997,36.6324934 C40.2140627,35.940052 40.6919198,35.2865847 41.2211384,34.9007401 C41.3518177,34.8059029 41.4981005,34.7201597 41.6528352,34.6389635 L47.1192606,54.163735 L42.6085494,51.6622414 Z M27.2937163,37.1326623 C26.2021216,37.4801821 25.1592879,37.7822321 24.4616815,37.5555323 C23.6633025,37.2970034 23.0216087,36.4161867 22.3422064,35.4847035 C21.7707283,34.7013222 21.1797458,33.890659 20.4015213,33.3248836 C19.6122444,32.7506638 18.6493786,32.4343233 17.7196702,32.1290255 C16.630676,31.7711125 15.6027956,31.4326866 15.1190872,30.7688261 C14.6438307,30.116658 14.6379793,29.0409702 14.6314779,27.9022742 C14.6256266,26.9188254 14.6210756,25.901599 14.3161572,24.9636201 C14.0242418,24.0646154 13.4423613,23.2630462 12.8793351,22.4881093 C12.1966821,21.5468825 11.5510874,20.6582709 11.5510874,19.794343 C11.5510874,18.930415 12.1973322,18.0411539 12.8793351,17.1005767 C13.4423613,16.3256398 14.0242418,15.5240706 14.3161572,14.6257154 C14.6210756,13.687087 14.6256266,12.6698605 14.6314779,11.6864117 C14.6373292,10.5483653 14.6431805,9.47267758 15.1190872,8.81985985 C15.6027956,8.15534986 16.630676,7.81757352 17.7203203,7.45966052 C18.6506789,7.15436267 19.6122444,6.83802214 20.4021715,6.26445193 C21.1803959,5.698027 21.7713784,4.88801336 22.3428565,4.10463208 C23.0222588,3.1724993 23.6646028,2.29233211 24.4623316,2.0338033 C25.1605882,1.80580427 26.2034219,2.10850383 27.2950166,2.45667329 C28.2448796,2.76002243 29.2272498,3.07311511 30.2375763,3.07311511 C31.2472526,3.07311511 32.230273,2.76002243 33.1814362,2.45667329 C34.273681,2.10850383 35.3171649,1.80710341 36.0128209,2.0338033 C36.8111998,2.29233211 37.4522435,3.1724993 38.132296,4.10463208 C38.7044242,4.88866293 39.2947566,5.69867657 40.0736312,6.2651015 C40.862258,6.83932128 41.8244737,7.15501224 42.7554824,7.46095966 C43.8431762,7.81822309 44.8717067,8.156649 45.3560653,8.82050942 C45.8313219,9.47332715 45.8371732,10.5483653 45.8430245,11.6870613 C45.8482256,12.6711597 45.8534268,13.6877365 46.1583452,14.626365 C46.4496105,15.5247202 47.032141,16.3262894 47.5945171,17.1012263 C48.2784704,18.042453 48.923415,18.9310646 48.923415,19.7956421 C48.923415,20.6602196 48.2784704,21.5488312 47.5951672,22.4894084 C47.032141,23.2643453 46.4496105,24.0659145 46.1583452,24.9642697 C45.8527767,25.9028982 45.8475755,26.919475 45.8430245,27.9035734 C45.8371732,29.0416198 45.8313219,30.1173075 45.3560653,30.7701253 C44.8717067,31.4339857 43.8438263,31.771762 42.7554824,32.129675 C41.8251238,32.4356224 40.862258,32.7513134 40.072981,33.3255332 C39.2941064,33.8919581 38.7044242,34.7019718 38.132296,35.485353 C37.4528937,36.4174858 36.81185,37.297653 36.0128209,37.5561818 C35.3152145,37.7815826 34.2730309,37.4808317 33.1814362,37.1333118 C32.230273,36.8299627 31.2466024,36.51687 30.2375763,36.51687 C29.2272498,36.5162204 28.2448796,36.8293131 27.2937163,37.1326623 L27.2937163,37.1326623 Z M21.8311918,56.4443748 L19.3424339,52.0643251 C19.0758742,51.5946861 18.4809908,51.4309945 18.0122357,51.6979677 L13.628303,54.1845212 L18.994606,34.7428947 C19.0817255,34.7948603 19.1753465,34.8422789 19.253364,34.9000906 C19.7838829,35.2859351 20.2597896,35.940052 20.765603,36.6318439 C21.5594309,37.7211726 22.4592326,38.9547058 23.8589964,39.4087551 C24.2256786,39.528276 24.6255182,39.5880364 25.0461625,39.5880364 C25.5474249,39.5880364 26.0467368,39.5029428 26.5414977,39.3821228 L21.8311918,56.4443748 Z M43.4829954,33.9406759 C44.7254239,33.5320964 46.1056834,33.0533634 46.9333189,31.9166161 C47.7798086,30.7545356 47.7876104,29.3105417 47.7941118,27.9133169 C47.7986629,27.040295 47.8025637,26.2153413 48.0138611,25.5657714 C48.2115054,24.9603723 48.6789602,24.3159989 49.1743713,23.633301 C49.9707998,22.5361775 50.8745024,21.2922511 50.8745024,19.7949926 C50.8745024,18.297734 49.9701496,17.0538077 49.1743713,15.9566841 C48.6789602,15.2739862 48.2108553,14.6296129 48.0138611,14.0242137 C47.8025637,13.3746439 47.7986629,12.5496901 47.7941118,11.6766682 C47.7869602,10.2794434 47.7798086,8.83479995 46.9333189,7.67336901 C46.0803277,6.50089537 44.6376543,6.02735893 43.3653191,5.60903592 C42.5409343,5.33816528 41.76336,5.08288432 41.2224387,4.6885954 C40.6919198,4.30275089 40.2140627,3.64863402 39.7095496,2.95619253 C38.9150715,1.86751341 38.0159199,0.633330634 36.615506,0.179281287 C36.2494739,0.0604099989 35.8496343,0 35.42899,0 C34.4687247,0 33.5136606,0.304648274 32.5891534,0.599553 C31.7426636,0.869774071 30.9436345,1.12440546 30.2375763,1.12440546 C29.531518,1.12440546 28.7324889,0.869774071 27.8859991,0.60020257 C26.962142,0.305297844 26.0064278,0.000649569881 25.0468127,0.000649569881 C24.6261684,0.000649569881 24.2263287,0.0610595688 23.8589964,0.179930857 C22.4592326,0.633980204 21.5594309,1.86816298 20.765603,2.9568421 C20.2604397,3.64928359 19.784533,4.30275089 19.253364,4.6885954 C18.7117926,5.08223475 17.9342183,5.33816528 17.1104836,5.60903592 C15.8374982,6.02670936 14.3948248,6.50089537 13.5411835,7.67336901 C12.695994,8.83479995 12.6881923,10.2794434 12.6803905,11.6766682 C12.6751894,12.5496901 12.6712885,13.3739943 12.4606413,14.0242137 C12.2636471,14.6296129 11.7955422,15.2739862 11.3001311,15.9566841 C10.5030524,17.0538077 9.6,18.297734 9.6,19.7949926 C9.6,21.2922511 10.5030524,22.5355279 11.3001311,23.633301 C11.794892,24.3159989 12.2636471,24.9603723 12.4606413,25.566421 C12.6719386,26.2159908 12.6758395,27.0409446 12.6803905,27.9139665 C12.6881923,29.3111913 12.6953439,30.7551852 13.5411835,31.9166161 C14.3948248,33.0890897 15.8374982,33.5626262 17.1098335,33.9809492 C17.1319384,33.988744 17.1540434,33.9952397 17.1767985,34.002385 L11.1219912,55.9357616 C11.0166676,56.31576 11.1512477,56.7210916 11.4626675,56.9633812 C11.7740874,57.2063203 12.200583,57.2368501 12.5438599,57.0419791 L18.1273115,53.8746764 L21.296772,59.4531825 C21.4716612,59.7610786 21.7973842,59.9468556 22.1439119,59.9468556 C22.184221,59.9468556 22.22453,59.9442573 22.264839,59.9390608 C22.6568769,59.8909926 22.9806495,59.611028 23.085323,59.2310296 L28.7454918,38.729305 C29.27276,38.5792544 29.7759728,38.4655797 30.2375763,38.4655797 C30.6978794,38.4655797 31.2004421,38.5779552 31.7270601,38.7286555 L37.4613456,59.2043973 C37.5666692,59.5811478 37.887191,59.8591637 38.2772785,59.908531 C38.3175875,59.9137276 38.359847,59.9163258 38.3995059,59.9163258 C38.7447333,59.9163258 39.0672056,59.7344463 39.2427449,59.4310971 L42.4986748,53.8305056 L48.2147561,56.9991075 C48.5573829,57.1887819 48.9832284,57.1556538 49.2913975,56.9114156 C49.6008669,56.6678269 49.7328464,56.2631448 49.6268727,55.8844456 L43.4829954,33.9406759 Z" id="Fill-1"></path>
                        </g>
                    </g>
                </g>
            </g>
        </g>
    </g>
</svg>