<?xml version="1.0" encoding="UTF-8"?>
<svg width="50px" height="50px" viewBox="0 0 50 50" version="1.1" xmlns="http://www.w3.org/2000/svg" xmlns:xlink="http://www.w3.org/1999/xlink" style="fill: #003a80;">
    <g id="icon/shop" stroke="none" stroke-width="1">
        <path d="M19.7777778,10.7777778 L10.6666667,10.7777778 L10.6666667,6.59759521 L19.7777778,6.59759521 L19.7777778,10.7777778 Z M41.2551931,5.82233181 L37.0568848,6.42553711 L34.7335514,8.74887044 C34.5402181,8.554426 33.6122222,7.77777778 33.0011111,7.77777778 C32.39,7.77777778 27.4444444,7.77777778 27.4444444,7.77777778 C27.4444444,7.77777778 27.4444444,6.02777778 27.4444444,3.88888889 C27.4444444,1.75 25.4444444,0 23,0 L7.44444444,0 C5,0 3,2 3,4.44444444 L3,45.5555556 C3,48 5,50 7.44444444,50 L40.7777778,50 C43.2222222,50 45.2222222,48 45.2222222,45.5555556 L45.2222222,23.3333333 C45.2222222,20.8888889 45.2222222,20.61 45.2222222,19.9988889 C45.2222222,19.3877778 44.3071463,17.9197428 44.1138129,17.7275206 L46.4360352,15.4030762 L46.934082,11.5012207 L41.2551931,5.82233181 Z M41.1111111,43.9512195 C41.1111111,45.0821463 40.2151111,46 39.1111111,46 L9.11111111,46 C8.00811111,46 7.11111111,45.0821463 7.11111111,43.9512195 L7.11111111,6.04878049 C7.11111111,4.91887805 8.00811111,4 9.11111111,4 L21.1111111,4 C22.1761111,4 23.1111111,4.71809756 23.1111111,5.53658537 C23.1111111,5.83365854 23.1111111,11.1707317 23.1111111,11.1707317 L32.6121111,11.1707317 L41.1111111,19.8770244 L41.1111111,43.9512195 Z M43.4532444,13.6641873 L41.7143555,15.4030762 C40.1721332,13.8608539 38.599107,12.3211111 37.0568848,10.7777778 L39.1111111,8.875 L44.1138129,13.2458496 L43.4532444,13.6641873 Z" id="Shape"></path>
    </g>
</svg>