<?xml version="1.0" encoding="UTF-8"?>
<svg width="39px" height="12px" viewBox="0 0 39 12" version="1.1" xmlns="http://www.w3.org/2000/svg" xmlns:xlink="http://www.w3.org/1999/xlink">
    <title>Path 2</title>
    <g id="D---Fiche-produit" stroke="none" stroke-width="1" fill="none" fill-rule="evenodd">
        <g id="D.1.0---Fiche-produit---Particulier-Deploy" transform="translate(-454.000000, -1354.000000)" fill="#AAAAAA" fill-rule="nonzero">
            <g id="//-Intro---Slider-01" transform="translate(0.000000, 120.000000)">
                <g id="infos" transform="translate(93.000000, 64.000000)">
                    <g id="paiement" transform="translate(0.000000, 1159.000000)">
                        <path d="M397.43495,11.2192308 L399.976923,22.8384615 L397.049802,22.8384615 C397.049802,22.8384615 396.741684,21.5230769 396.664655,21.0846154 L396.664655,21.0846154 L392.659121,21.0846154 C392.505062,21.3769231 391.965856,22.8384615 391.965856,22.8384615 L391.965856,22.8384615 L388.653588,22.8384615 L393.352387,12.1692308 C393.660505,11.4384615 394.199711,11.2192308 394.970006,11.2192308 L394.970006,11.2192308 L397.43495,11.2192308 Z M386.496762,11 L386.777006,11.0050226 C387.881014,11.044538 388.77802,11.3091716 389.346853,11.5115385 L389.346853,11.5115385 L388.884676,13.9961538 L388.576558,13.85 C387.960322,13.6307692 387.190027,13.4115385 386.188644,13.4115385 C384.956172,13.4115385 384.416966,13.9230769 384.416966,14.4346154 C384.416966,15.0192308 385.110231,15.3846154 386.188644,15.8961538 C388.037352,16.7 388.884676,17.7230769 388.807647,18.8923077 C388.807647,21.3038462 386.650821,22.8384615 383.338553,22.8384615 C381.874992,22.8384615 380.565491,22.5461538 379.795196,22.2538462 L379.795196,22.2538462 L380.257373,19.6961538 L380.64252,19.9153846 C381.720933,20.3538462 382.414199,20.5 383.646671,20.5 C384.571025,20.5 385.572408,20.2076923 385.572408,19.4038462 C385.572408,18.8923077 385.187261,18.5269231 383.954789,17.9423077 C382.722317,17.4307692 381.181727,16.4807692 381.181727,14.8 C381.181727,12.6076923 383.415582,11 386.496762,11 L386.496762,11 Z M379.872226,11.2192308 L377.869459,22.7653846 L374.71125,22.7653846 L376.714016,11.2192308 L379.872226,11.2192308 Z M366.160976,11.2192308 C366.854241,11.2192308 367.470477,11.4384615 367.624536,12.1692308 L367.624536,12.1692308 L368.702949,17.5038462 L368.702949,17.5038462 L369.011067,19.1115385 L372.092247,11.2192308 L375.327486,11.2192308 L370.397598,22.7653846 L367.08533,22.7653846 L364.543357,13.7038462 C364.312268,13.0461538 363.850091,12.4615385 363.156826,12.1692308 C362.54059,11.8769231 361.847324,11.6576923 361.077029,11.4384615 C361,11.4384615 361,11.3653846 361,11.2923077 C361.077029,11.2923077 361.077029,11.2192308 361.154059,11.2192308 L361.154059,11.2192308 Z M395.124065,14.3615385 L395.087286,14.4662144 C395.074664,14.5021375 395.061726,14.5389587 395.048613,14.5762788 L394.968954,14.8029936 C394.849676,15.142467 394.738918,15.4576923 394.738918,15.4576923 C394.738918,15.4576923 393.737534,18.0153846 393.506446,18.6730769 L393.506446,18.6730769 L393.506446,18.7461538 L396.125448,18.7461538 C396.063825,18.5123077 395.928253,17.9276923 395.787751,17.3103385 L395.703411,16.9385418 C395.521784,16.1354954 395.355153,15.3846154 395.355153,15.3846154 L395.355153,15.3846154 L395.124065,14.3615385 Z" id="Path-2"></path>
                    </g>
                </g>
            </g>
        </g>
    </g>
</svg>