<svg xmlns="http://www.w3.org/2000/svg" xmlns:xlink="http://www.w3.org/1999/xlink"><symbol viewBox="0 0 64 64" id="wpgb-geolocation-large-icon"><circle fill="none" stroke="currentColor" stroke-linecap="square" stroke-miterlimit="10" cx="32" cy="32" r="26"/><path fill="none" stroke="currentColor" stroke-linecap="square" stroke-miterlimit="10" d="M32 2v10M62 32H52M32 62V52M2 32h10"/><circle fill="none" stroke="currentColor" stroke-linecap="square" stroke-miterlimit="10" cx="32" cy="32" r="6"/></symbol><symbol viewBox="0 0 16 16" id="wpgb-geolocation-small-icon"><path fill="none" stroke="currentColor" stroke-linecap="round" d="M8 .5v2.909M15.5 8h-2.909M.5 8h2.909M8 15.5v-2.909"/><circle cx="8" cy="8" r="6" fill="none" stroke="currentColor"/><circle cx="8" cy="8" r=".5" fill="currentColor" stroke="currentColor"/></symbol><symbol viewBox="0 0 64 64" id="wpgb-map-large-icon"><path fill="none" stroke="currentColor" stroke-linecap="square" stroke-miterlimit="10" d="M52 15l10-3v40l-20 8-20-8-20 8V20l10-4"/><path data-cap="butt" fill="none" stroke="currentColor" stroke-miterlimit="10" d="M22 36v16M42 37v23"/><path fill="none" stroke="currentColor" stroke-linecap="square" stroke-miterlimit="10" d="M46 15.636C46 24.053 32 38 32 38S18 24.053 18 15.636C18 7.007 25.235 2 32 2s14 5.007 14 13.636z"/><circle fill="none" stroke="currentColor" stroke-linecap="square" stroke-miterlimit="10" cx="32" cy="16" r="4"/></symbol><symbol viewBox="0 0 16 16" id="wpgb-map-small-icon"><path d="M13.5 6c0 4.5-5.5 9.5-5.5 9.5s-5.5-5-5.5-9.5a5.5 5.5 0 0111 0z" fill="none" stroke="currentColor" stroke-linecap="round" stroke-linejoin="round"/><circle cx="8" cy="6" r="2.5" fill="none" stroke="currentColor" stroke-linecap="round" stroke-linejoin="round"/></symbol><symbol viewBox="0 0 16 16" id="wpgb-pin-icon"><path fill="currentColor" d="M8 0C4.1 0 1 3.1 1 7c0 1.9.7 3.7 2.1 5 .1.1 4.1 3.7 4.2 3.8.4.3 1 .3 1.3 0 .1-.1 4.2-3.7 4.2-3.8 1.4-1.3 2.1-3.1 2.1-5 .1-3.9-3-7-6.9-7zm0 9c-1.1 0-2-.9-2-2s.9-2 2-2 2 .9 2 2-.9 2-2 2z"/></symbol></svg>