<?xml version="1.0" encoding="UTF-8"?>
<svg width="6px" height="11px" viewBox="0 0 6 11" version="1.1" xmlns="http://www.w3.org/2000/svg" xmlns:xlink="http://www.w3.org/1999/xlink">
    <!-- Generator: Sketch 63.1 (92452) - https://sketch.com -->
    <title>icon/chevron copy 3</title>
    <desc>Created with Sketch.</desc>
    <defs>
        <path d="M4.55503611,2.31463708 C4.05584592,1.80861042 3.65506308,1.0710118 3.3526876,0.10184122 C3.09893626,-0.15510779 2.34845422,0.124375739 2.24850906,0.385764473 C2.14856391,0.647153207 2.24850906,0.553617295 2.24850906,0.956741287 C2.59429944,2.03614242 2.96235895,2.77366344 3.3526876,3.16930436 C3.68452985,3.50566289 4.46689682,4.11589477 5.6997885,5 C4.4938633,6.14977028 3.71149633,6.90651675 3.3526876,7.2702394 C2.98938626,7.63851619 2.62132675,8.19547494 2.24850906,8.94111563 C2.07857735,9.18351764 2.12148316,9.29839105 2.24850906,9.59548337 C2.37553497,9.89257569 3.09893626,10.1852862 3.3526876,9.92805973 C3.78318753,9.13676366 4.18397037,8.48037126 4.55503611,7.95888252 C4.92610185,7.43739378 5.95942874,6.61443325 7.6550168,5.49000091 C7.783398,5.35986151 7.84526187,5.18754474 7.84252453,5.01495048 C7.84526187,4.8426337 7.783398,4.67003944 7.6550168,4.53990004 C6.06208398,3.53660003 5.02875708,2.79484571 4.55503611,2.31463708 Z" id="path-1"></path>
    </defs>
    <g id="B---Menu" stroke="none" stroke-width="1" fill="none" fill-rule="evenodd">
        <g id="M---B.1.0---Menu" transform="translate(-311.000000, -144.000000)">
            <g id="Menu-deploy" transform="translate(-0.000000, 100.000000)">
                <g id="items-1" transform="translate(42.000000, 29.000000)">
                    <g id="icon/chevron" transform="translate(267.000000, 15.500000)">
                        <mask id="mask-2" fill="white">
                            <use xlink:href="#path-1"></use>
                        </mask>
                        <use id="icon-copy" fill="#003A80" fill-rule="evenodd" xlink:href="#path-1"></use>
                    </g>
                </g>
            </g>
        </g>
    </g>
</svg>