<svg viewBox="0 0 50 50" version="1.1" xmlns="http://www.w3.org/2000/svg" xmlns:xlink="http://www.w3.org/1999/xlink" width="13px">
    <g id="icon/refresh" style="fill: #003a80;">
        <path d="M28.0551256,3 C40.1749451,3 50,12.8250549 50,24.9448744 C50,37.0646938 40.1749451,46.8897497 28.0551256,46.8897497 C24.585747,46.8908078 21.1656082,46.0688032 18.0756362,44.4912537 C17.0513613,43.9653058 16.6473875,42.7086019 17.1733354,41.684327 C17.6992833,40.6600521 18.9559872,40.2560783 19.9802621,40.7820261 C22.4774675,42.0663712 25.2470204,42.7310639 28.0551256,42.7199934 C35.2455226,42.7199933 41.7278677,38.3884914 44.4793188,31.7453501 C47.2307699,25.1022089 45.7094459,17.4557535 40.6247694,12.3716731 C35.5400929,7.28759262 27.8934593,5.76716501 21.2506406,8.51939483 C15.2267318,11.0152001 11.1041386,16.5788498 10.3888562,22.9559624 L13.0890172,20.2583277 C13.9072257,19.4691705 15.2069344,19.4813745 16.0101798,20.2857569 C16.8134253,21.0901393 16.8237909,22.3898639 16.0334772,23.2069553 L9.7819699,29.4584626 C9.39143601,29.8480105 8.86238341,30.0668254 8.31078186,30.0669433 C7.75845835,30.0673775 7.22855497,29.8485206 6.83750998,29.4584626 L0.586002708,23.2069553 C-0.204311067,22.3898639 -0.193945413,21.0901393 0.609300053,20.2857569 C1.41254552,19.4813745 2.71225414,19.4691705 3.53046263,20.2583277 L6.20158088,22.9292619 C7.21919589,11.7542096 16.6148332,3 28.0551256,3 Z" id="Path-2"></path>
    </g>
</svg>